<svg width="75" height="122" viewBox="0 0 75 122" fill="none" xmlns="http://www.w3.org/2000/svg">
<path d="M38.3435 120.951C38.1376 120.945 37.9352 120.917 37.7341 120.863C37.5342 120.811 37.3403 120.733 37.1512 120.634C36.9633 120.534 36.7851 120.413 36.6165 120.271C36.4479 120.127 36.2925 119.966 36.1504 119.788C36.0071 119.608 35.8806 119.413 35.7698 119.203C35.659 118.993 35.5663 118.773 35.4904 118.54C35.4158 118.309 35.3592 118.069 35.323 117.824C35.2869 117.579 35.2701 117.331 35.2737 117.081L33.101 65.3714L25.6197 72.021C24.3527 73.1387 23.4712 73.7474 22.4186 73.7474C22.1356 73.743 21.8586 73.6918 21.5876 73.5952C21.3166 73.4986 21.0601 73.3596 20.8204 73.1782C20.5796 72.9968 20.364 72.7803 20.1725 72.5272C19.981 72.2755 19.8208 71.9961 19.692 71.6903C18.7779 69.4241 20.0015 67.506 20.8939 66.1044L26.417 57.3832L3.43946 54.9341C3.20582 54.9107 2.97941 54.8536 2.75781 54.7614C2.56632 54.6839 2.38446 54.583 2.20983 54.4615C2.03521 54.3386 1.87142 54.1967 1.71967 54.0358C1.56792 53.8748 1.43063 53.6978 1.30779 53.5047C1.18374 53.3116 1.07776 53.1053 0.987434 52.8858C0.897109 52.6664 0.824849 52.4396 0.771858 52.204C0.717663 51.967 0.683942 51.7271 0.668286 51.4828C0.653833 51.2399 0.658651 50.9956 0.682738 50.7527C0.706824 50.5098 0.75018 50.2714 0.812806 50.0387C0.971778 49.4901 1.21987 49.0088 1.55588 48.5947C1.89309 48.1792 2.28571 47.872 2.73493 47.6715C2.96616 47.575 3.20341 47.5135 3.44669 47.4872L26.1412 45.1522L22.2331 38.4061C21.0348 36.3315 19.6775 33.9833 20.6976 31.5941C20.8301 31.2884 20.9939 31.0075 21.1902 30.7558C21.3853 30.5042 21.6057 30.2877 21.8501 30.1092C22.0946 29.9307 22.3548 29.7961 22.6293 29.7054C22.9051 29.6132 23.1845 29.5693 23.47 29.5708C24.5936 29.5708 25.6534 30.2043 27.6719 32.0828L33.3311 37.3366L35.5952 3.87679C35.6024 3.77584 35.6133 3.67343 35.6277 3.57248C35.659 3.35741 35.706 3.14673 35.7674 2.94044C35.8301 2.73561 35.9059 2.5381 35.9963 2.34791C36.0878 2.15918 36.1902 1.98068 36.307 1.8139C36.4238 1.64565 36.5515 1.49349 36.69 1.35304C36.8285 1.21259 36.9766 1.08969 37.1332 0.981425C37.2897 0.87316 37.4523 0.782452 37.6221 0.709299C37.7919 0.636147 37.9666 0.580551 38.1436 0.545438C38.3218 0.508862 38.5013 0.492769 38.6807 0.494232C39.7803 0.494232 41.6566 1.36328 41.7831 4.62148L43.5246 37.3673L50.8481 31.044C51.2552 30.6212 51.7056 30.2862 52.2006 30.0404C52.6956 29.7931 53.2098 29.6468 53.7434 29.6015C54.0179 29.6073 54.2877 29.6556 54.5527 29.7449C54.8164 29.8356 55.0669 29.9658 55.3042 30.134C55.5402 30.3037 55.7558 30.5056 55.9497 30.7427C56.1436 30.9797 56.3086 31.2416 56.4471 31.5312C57.4045 33.6629 56.3447 35.6673 55.7775 36.7441C54.2841 39.5868 52.6859 42.3592 50.9939 45.0468L71.9144 47.5355C72.1576 47.5633 72.3937 47.6291 72.6225 47.7301C72.9116 47.8603 73.1789 48.0402 73.4234 48.2685C73.6679 48.4982 73.8786 48.7659 74.0569 49.0717C74.2339 49.3789 74.37 49.7096 74.4651 50.0665C74.5603 50.4235 74.6097 50.7893 74.6133 51.1638L74.5976 51.7227C74.5916 51.9583 74.5663 52.1923 74.5242 52.422C74.482 52.6517 74.4218 52.8756 74.3447 53.0921C74.2664 53.3086 74.1737 53.5135 74.0641 53.708C73.9545 53.9041 73.8305 54.0841 73.6932 54.2508C73.5559 54.4176 73.4065 54.5669 73.2452 54.6985C73.0838 54.8302 72.9152 54.9429 72.7357 55.0365C72.5575 55.1287 72.3732 55.2004 72.1841 55.2516C71.9939 55.3013 71.8024 55.3306 71.6085 55.3364L50.4049 57.4973C52.0886 60.3152 53.6892 63.2032 55.191 66.1381C55.7642 67.2544 56.8301 69.3392 55.8594 71.4592C55.7221 71.7445 55.5559 72.0034 55.3632 72.2375C55.1705 72.4716 54.9561 72.672 54.7213 72.8403C54.4852 73.0071 54.2359 73.1358 53.9734 73.2251C53.712 73.3143 53.4435 73.3626 53.1713 73.3684C52.604 73.3158 52.0585 73.1504 51.537 72.8739C51.0155 72.5974 50.5458 72.2229 50.1279 71.7518L43.4005 65.5675C42.1588 82.5841 41.4868 99.832 41.4037 116.893C41.4194 117.13 41.4158 117.365 41.3941 117.601C41.3724 117.838 41.3327 118.069 41.2749 118.296C41.2171 118.522 41.1436 118.74 41.0521 118.95C40.9605 119.159 40.8533 119.356 40.7317 119.542C40.6089 119.726 40.474 119.896 40.3246 120.05C40.1765 120.205 40.0175 120.341 39.8477 120.458C39.6779 120.575 39.5009 120.673 39.3166 120.749C39.1324 120.827 38.9433 120.882 38.7494 120.914C38.7494 120.914 38.4892 120.947 38.4411 120.948C38.4085 120.951 38.3748 120.951 38.3435 120.951Z" fill="#EE7700"/>
<path d="M71.6239 51.1077L45.5898 48.0075C45.5224 48.0002 45.4754 47.9578 45.4501 47.8817C45.4248 47.8042 45.4345 47.7354 45.479 47.6725C48.3225 43.6023 50.9286 39.3185 53.2988 34.8226C54.2731 32.9792 54.0238 32.6939 52.5533 33.9667L41.5902 43.4341C41.5228 43.4926 41.4481 43.5248 41.3662 43.5336C41.2831 43.5423 41.2048 43.5248 41.1302 43.4809C41.0567 43.437 40.9965 43.3741 40.9495 43.2907C40.9038 43.2073 40.8785 43.1151 40.8736 43.0142L38.8467 4.79509C38.8299 4.38837 38.7624 4.06942 38.695 4.07527H38.6805C38.589 4.07527 38.5384 4.10892 38.53 4.17622L35.8672 43.535C35.8395 43.9476 35.6878 44.0266 35.4132 43.7691L25.8857 34.9221C22.9074 32.1525 22.4943 32.6266 24.6452 36.3442L31.2907 47.8188C31.4389 48.0646 31.3883 48.2007 31.1402 48.2255L3.69701 51.058C3.65245 51.0755 3.62354 51.1107 3.60909 51.1648C3.59705 51.2087 3.59945 51.2511 3.61632 51.2935C3.63318 51.3345 3.66088 51.3623 3.69701 51.3769L31.3871 54.3206C31.4569 54.3308 31.5184 54.363 31.5738 54.4157C31.6111 54.4493 31.6412 54.4903 31.6641 54.54C31.687 54.5883 31.7014 54.6395 31.7074 54.6966C31.7135 54.7522 31.7099 54.8063 31.6966 54.8604C31.6846 54.9146 31.6641 54.9643 31.6352 55.0082L23.2229 68.3C21.8343 70.4784 22.0547 70.7579 23.8841 69.1368L35.2337 59.0506C35.2867 59.0038 35.3457 58.9774 35.412 58.9716C35.4589 58.9657 35.5047 58.9731 35.5505 58.9906C35.5962 59.0082 35.6372 59.0345 35.6733 59.0725C35.7094 59.1091 35.7384 59.1545 35.76 59.2057C35.7829 59.2569 35.795 59.311 35.7986 59.3695L38.2121 116.858C38.2301 117.215 38.2759 117.389 38.3494 117.378H38.3638C38.4276 117.378 38.4602 117.208 38.4602 116.87C38.5517 97.969 39.3477 79.1148 40.8459 60.3073C40.929 59.3359 41.2915 59.1457 41.9323 59.7382L51.9029 68.9027C53.4565 70.3321 53.7191 70.0424 52.6894 68.0308C50.4939 63.744 48.1165 59.6109 45.5597 55.6329C45.4814 55.513 45.4357 55.3769 45.4212 55.2262C45.4128 55.1223 45.4212 55.0199 45.4453 54.9204C45.4706 54.8195 45.5103 54.7288 45.5645 54.6483C45.6187 54.5678 45.6838 54.502 45.7596 54.4522C45.8343 54.4025 45.915 54.3732 46.0005 54.3615L71.4288 51.7822C71.5758 51.7705 71.6492 51.709 71.6492 51.5964L71.6637 51.178C71.6661 51.1414 71.6528 51.118 71.6239 51.1077Z" fill="#FFD53F"/>
<mask id="mask0_86_6505" style="mask-type:luminance" maskUnits="userSpaceOnUse" x="0" y="0" width="75" height="122">
<path d="M0 0H75V121.351H0V0Z" fill="white"/>
</mask>
<g mask="url(#mask0_86_6505)">
<path d="M38.3438 121.397C38.1149 121.392 37.8897 121.362 37.6657 121.303C37.4417 121.245 37.2249 121.161 37.0154 121.052C36.8058 120.94 36.6059 120.807 36.418 120.649C36.2301 120.493 36.0555 120.314 35.8965 120.115C35.7376 119.916 35.5955 119.7 35.4702 119.467C35.3462 119.234 35.2414 118.989 35.1559 118.731C35.0716 118.474 35.0078 118.207 34.9668 117.934C34.9247 117.662 34.9042 117.387 34.9078 117.109L32.7725 66.2211L25.8403 72.3805C24.5144 73.5553 23.5762 74.1932 22.4236 74.1932C22.1057 74.1888 21.795 74.1347 21.4903 74.0264C21.1856 73.9196 20.8978 73.7646 20.628 73.5627C20.3582 73.3593 20.1161 73.1164 19.9006 72.8326C19.6862 72.5488 19.5067 72.2357 19.3622 71.8919C18.3482 69.3769 19.7055 67.2438 20.6039 65.8349L25.7163 57.7589L3.40839 55.3814C3.14585 55.3536 2.89053 55.2878 2.64123 55.1868C2.42806 55.099 2.22333 54.9864 2.02702 54.8503C1.83192 54.7128 1.64886 54.5548 1.47905 54.3748C1.30924 54.1949 1.15508 53.9959 1.01779 53.7794C0.879287 53.5629 0.760058 53.3317 0.658894 53.0859C0.55773 52.8416 0.477039 52.587 0.418027 52.3222C0.35781 52.0588 0.319271 51.7896 0.302411 51.5161C0.28555 51.2425 0.291571 50.9703 0.318067 50.6982C0.345767 50.4261 0.39394 50.1598 0.463792 49.8994C0.551708 49.5951 0.664916 49.3054 0.804619 49.0318C0.945526 48.7582 1.10811 48.5066 1.29478 48.2783C1.48146 48.0486 1.68619 47.8467 1.90899 47.6726C2.133 47.4985 2.36905 47.3581 2.61835 47.2484C2.87848 47.1416 3.14464 47.0728 3.41803 47.045L25.4742 44.7685L21.9359 38.6574C20.7388 36.5872 19.249 34.0137 20.3739 31.3831C20.522 31.0408 20.7051 30.7277 20.9242 30.4453C21.1422 30.1629 21.3879 29.9215 21.6613 29.7226C21.9347 29.5221 22.2261 29.3714 22.5332 29.269C22.8403 29.1666 23.1547 29.1154 23.4726 29.1183C24.6878 29.1183 25.8054 29.7752 27.8986 31.7225L33.0218 36.4789L35.2306 3.83986C35.2378 3.72282 35.2498 3.60578 35.2655 3.49312C35.3016 3.25172 35.3534 3.01471 35.4232 2.78501C35.4919 2.55531 35.5774 2.33439 35.6786 2.12225C35.7797 1.91011 35.8953 1.71113 36.0266 1.52386C36.1567 1.3366 36.2988 1.16542 36.4542 1.00887C36.6095 0.852328 36.7745 0.713339 36.9503 0.591906C37.125 0.470474 37.308 0.369524 37.4983 0.287593C37.6886 0.204199 37.8825 0.144215 38.0812 0.10325C38.2799 0.0622846 38.4811 0.0432648 38.6822 0.0461911C39.9082 0.0461911 42.0158 1.00448 42.1543 4.59918L43.85 36.5403L50.6352 30.6823C51.0724 30.2317 51.5577 29.8747 52.0888 29.6143C52.6212 29.3539 53.1727 29.2017 53.7448 29.1593C54.0531 29.1622 54.3554 29.2149 54.6529 29.3158C54.9491 29.4153 55.231 29.5602 55.4971 29.7504C55.7621 29.9406 56.0029 30.1688 56.2197 30.4351C56.4365 30.7013 56.6208 30.9983 56.7737 31.3231C57.8359 33.6874 56.6557 35.92 56.0896 36.991C54.7131 39.604 53.2342 42.1892 51.6854 44.6866L71.952 47.0977C72.2253 47.1284 72.4915 47.2015 72.7504 47.3171C73.0756 47.4634 73.3743 47.6653 73.6489 47.9214C73.9234 48.1789 74.1595 48.4788 74.3594 48.8226C74.5581 49.1664 74.7111 49.5395 74.8171 49.9389C74.9242 50.3398 74.9784 50.7494 74.9821 51.1708L74.9664 51.7458C74.9604 52.0091 74.9327 52.2695 74.8845 52.527C74.8375 52.7831 74.7701 53.0332 74.6846 53.2746C74.5979 53.5175 74.4943 53.7472 74.3715 53.9652C74.2498 54.1832 74.1113 54.3851 73.9584 54.5709C73.8042 54.7567 73.638 54.9249 73.4586 55.0727C73.2791 55.2205 73.0888 55.3463 72.8901 55.4516C72.6914 55.5555 72.4855 55.636 72.2735 55.693C72.0615 55.7501 71.8472 55.7838 71.6304 55.7911L51.0856 57.8774C52.6284 60.4904 54.1133 63.1853 55.5055 65.9007C56.074 67.017 57.2603 69.3257 56.1848 71.6739C56.0318 71.9943 55.8476 72.2869 55.632 72.5488C55.4164 72.8121 55.1768 73.0374 54.913 73.2247C54.6493 73.412 54.3699 73.5568 54.076 73.6563C53.7821 73.7558 53.4823 73.8084 53.1764 73.8128C52.567 73.7631 51.9829 73.5919 51.4228 73.2993C50.8616 73.0067 50.3582 72.6087 49.909 72.1055L43.7103 66.4084C42.5059 83.1573 41.8544 100.137 41.7737 116.894C41.7894 117.157 41.7845 117.42 41.7605 117.682C41.7352 117.944 41.6906 118.202 41.6256 118.453C41.5605 118.706 41.4774 118.948 41.3739 119.18C41.2715 119.414 41.1523 119.632 41.0162 119.839C40.8789 120.044 40.7283 120.232 40.5621 120.402C40.3959 120.573 40.2189 120.724 40.0298 120.853C39.8407 120.983 39.6432 121.09 39.4373 121.174C39.2314 121.259 39.0206 121.319 38.805 121.356C38.7906 121.356 38.5088 121.392 38.4558 121.394L38.3438 121.397ZM33.1061 64.9234C33.1615 64.9234 33.2133 64.938 33.2639 64.9673C33.3963 65.0434 33.4662 65.1706 33.4722 65.3477L35.6448 117.057C35.6412 117.278 35.6545 117.498 35.6858 117.714C35.7171 117.932 35.7653 118.145 35.8315 118.351C35.8965 118.556 35.9784 118.753 36.076 118.939C36.1735 119.126 36.2843 119.299 36.4096 119.458C36.5361 119.618 36.6721 119.763 36.8215 119.888C36.9696 120.016 37.1274 120.124 37.2936 120.215C37.4598 120.304 37.6308 120.373 37.809 120.421C37.9861 120.469 38.1655 120.497 38.3474 120.501H38.4305C38.4871 120.501 38.7171 120.471 38.7183 120.471C38.8893 120.439 39.0555 120.389 39.2181 120.319C39.3807 120.25 39.5373 120.162 39.6866 120.057C39.8347 119.951 39.9744 119.83 40.1057 119.692C40.2358 119.555 40.3538 119.404 40.461 119.239C40.5682 119.075 40.6609 118.899 40.7404 118.714C40.8211 118.528 40.8849 118.335 40.9355 118.134C40.9849 117.932 41.0186 117.729 41.0367 117.52C41.0547 117.312 41.0559 117.103 41.0415 116.894C41.1246 99.8433 41.7942 82.5618 43.0395 65.5276C43.0539 65.355 43.1262 65.2336 43.2562 65.1619C43.3875 65.0916 43.5104 65.1077 43.6248 65.2116L50.3522 71.3974C50.7388 71.8363 51.1748 72.1859 51.6589 72.4464C52.1418 72.7068 52.6477 72.8648 53.1752 72.9204C53.4148 72.9145 53.6497 72.8721 53.8809 72.7931C54.1109 72.7141 54.3301 72.6014 54.5373 72.4551C54.7444 72.3074 54.9335 72.1318 55.1033 71.9255C55.2743 71.7207 55.42 71.4925 55.5417 71.2423C56.4052 69.3535 55.4513 67.4837 54.8805 66.3762C53.3847 63.4516 51.7793 60.5533 50.1089 57.7589C50.0234 57.6184 50.0102 57.4677 50.0704 57.3082C50.1306 57.1488 50.2318 57.0625 50.3763 57.0478L71.5762 54.8971C71.7472 54.8928 71.917 54.8679 72.0844 54.8255C72.2518 54.7816 72.4144 54.7201 72.5722 54.6382C72.7299 54.5577 72.8805 54.4597 73.0226 54.3441C73.1659 54.2285 73.2972 54.0983 73.42 53.952C73.5417 53.8057 73.6513 53.6477 73.7488 53.4765C73.8464 53.3054 73.9295 53.1239 73.9993 52.9337C74.068 52.7435 74.1222 52.5475 74.1607 52.3441C74.1992 52.1408 74.2209 51.936 74.2281 51.7282L74.2438 51.1532C74.2402 50.8255 74.1956 50.5066 74.1125 50.1949C74.0282 49.8833 73.9078 49.5936 73.7524 49.3259C73.5971 49.0581 73.4116 48.8255 73.1972 48.6251C72.9841 48.4261 72.7504 48.2696 72.4975 48.1554C72.2976 48.0662 72.0904 48.0106 71.8785 47.9857L50.9556 45.4986C50.8122 45.4825 50.7111 45.3932 50.6545 45.2323C50.5955 45.0714 50.6111 44.9221 50.699 44.7831C52.3791 42.1087 53.9833 39.3245 55.4622 36.5096C56.0282 35.4401 56.9748 33.6508 56.121 31.7518C56.0005 31.4987 55.8536 31.2675 55.6838 31.0598C55.514 30.852 55.3249 30.6735 55.1165 30.5258C54.9082 30.3765 54.6878 30.2624 54.4554 30.182C54.2241 30.1015 53.9869 30.0591 53.7448 30.0532C53.2498 30.1015 52.7741 30.2419 52.3153 30.4746C51.8564 30.7057 51.4397 31.0188 51.0627 31.4124L43.7356 37.7342C43.6175 37.8395 43.4935 37.8527 43.361 37.7781C43.2297 37.702 43.1599 37.5762 43.1515 37.3992L41.4124 4.64893C41.2727 1.04252 38.9435 0.940111 38.6786 0.940111C38.5196 0.938648 38.3618 0.951815 38.2053 0.984002C38.0487 1.01473 37.8957 1.06301 37.7464 1.12738C37.5959 1.19029 37.4525 1.27076 37.3141 1.36586C37.1756 1.45949 37.0455 1.56922 36.9238 1.69211C36.801 1.81501 36.6878 1.94961 36.5854 2.09591C36.4831 2.24222 36.3915 2.39877 36.3108 2.56555C36.2314 2.73234 36.1639 2.90644 36.1085 3.0864C36.0531 3.26781 36.0122 3.45362 35.9833 3.64235C35.9712 3.7316 35.9616 3.82523 35.9556 3.91448L33.701 37.3655C33.689 37.5411 33.6155 37.6654 33.4831 37.7371C33.3494 37.8117 33.2253 37.7927 33.1109 37.683L27.4505 32.4292C25.5055 30.6209 24.5023 30.0093 23.4726 30.0093C23.2221 30.0079 22.974 30.0474 22.732 30.1278C22.4887 30.2083 22.2599 30.3268 22.0443 30.4848C21.8287 30.6414 21.6336 30.8315 21.4614 31.0539C21.2892 31.2763 21.1434 31.5221 21.0266 31.7928C20.1077 33.9405 21.3434 36.0736 22.5369 38.1395L26.4437 44.887C26.5256 45.0275 26.5377 45.1767 26.4774 45.3332C26.4172 45.4898 26.3161 45.5746 26.1739 45.5878L3.47945 47.9243C3.26628 47.9477 3.05913 48.0004 2.85681 48.0852C2.46178 48.2637 2.11494 48.5344 1.81867 48.8987C1.5224 49.2644 1.30442 49.6873 1.16231 50.1701C1.10691 50.3749 1.06837 50.5856 1.04789 50.7992C1.02622 51.0142 1.0214 51.2278 1.03465 51.4429C1.04789 51.6594 1.078 51.8701 1.12497 52.0779C1.17194 52.2871 1.23457 52.4875 1.31405 52.6806C1.39354 52.8738 1.48748 53.0552 1.59707 53.2264C1.70546 53.3961 1.8271 53.5526 1.96078 53.6945C2.09446 53.8364 2.23898 53.9608 2.39314 54.0691C2.54609 54.1759 2.70747 54.2651 2.87608 54.3339C3.06997 54.4143 3.26869 54.4656 3.47222 54.486L26.4497 56.9322C26.5955 56.9469 26.6966 57.0361 26.7556 57.1971C26.8134 57.3595 26.799 57.5101 26.7099 57.6506L21.188 66.3718C20.3052 67.7558 19.2105 69.4764 20.0234 71.491C20.1378 71.7587 20.2799 72.0031 20.4485 72.2254C20.6171 72.4464 20.8074 72.6366 21.0194 72.796C21.2302 72.9555 21.4554 73.0769 21.6938 73.1632C21.9323 73.2481 22.1768 73.2935 22.4249 73.2978C23.3775 73.2978 24.2073 72.7229 25.4092 71.6578L32.8905 65.0082C32.9544 64.9526 33.0266 64.9234 33.1061 64.9234Z" fill="#FF7403"/>
</g>
<path d="M38.3631 117.82C38.2571 117.814 38.1607 117.775 38.074 117.7C37.9018 117.466 37.8259 117.194 37.8452 116.881L35.4317 59.3861L24.1025 69.4943C22.8356 70.6121 22.3839 70.8257 22.0829 70.4497C21.7818 70.0737 21.9721 69.528 22.9319 68.0196L31.343 54.7307L3.66495 51.8164C3.49755 51.7798 3.37229 51.673 3.2904 51.493C3.25668 51.414 3.23861 51.3292 3.235 51.2399C3.23139 51.1507 3.24343 51.0644 3.27113 50.981C3.29883 50.899 3.33857 50.8273 3.39277 50.7659C3.44576 50.7044 3.50718 50.6591 3.57703 50.6298L30.8287 47.8032L24.3458 36.5992C22.8416 33.9921 22.7404 33.2781 23.0921 32.8729C23.445 32.4676 24.0267 32.6198 26.1162 34.5612L35.516 43.2883L38.1631 4.13431C38.1704 4.08164 38.1824 4.03044 38.2005 3.98215C38.2173 3.93387 38.2402 3.88998 38.2679 3.84902C38.2944 3.80659 38.3257 3.77148 38.3607 3.73929C38.3968 3.70857 38.4341 3.68223 38.4751 3.66321C38.5148 3.64419 38.557 3.63102 38.6003 3.62517C38.6437 3.61932 38.687 3.61932 38.7292 3.6281C38.7725 3.63541 38.8147 3.64858 38.8544 3.67053C38.8942 3.69101 38.9315 3.71734 38.9664 3.74953C39.0206 3.80659 39.1844 3.98508 39.2169 4.76488L41.2438 42.9796C41.2438 43.0396 41.2667 43.0805 41.3366 43.0805L52.343 33.5956C53.2173 32.8392 53.7545 32.5042 54.0977 32.8948C54.4409 33.2869 54.188 33.9599 53.6075 35.0587C51.2976 39.4405 48.7625 43.6218 46.0034 47.6028L71.6593 50.6576C71.6846 50.662 71.7099 50.6679 71.734 50.6781C71.8183 50.7191 71.887 50.7834 71.9399 50.8727C71.9941 50.9605 72.0242 51.06 72.0327 51.1697L72.0194 51.6071C72.0158 51.6935 71.999 51.7754 71.9676 51.8544C71.9363 51.9319 71.8942 51.9992 71.8412 52.0578C71.7882 52.1148 71.7268 52.1572 71.6593 52.185C71.5919 52.2128 71.522 52.2231 71.451 52.2158L46.0347 54.7995C45.9588 54.8097 45.8974 54.8522 45.8504 54.9239C45.8022 54.997 45.783 55.0789 45.7902 55.1711C45.7974 55.2384 45.8167 55.2984 45.8504 55.3511C48.4157 59.3437 50.8002 63.49 53.0042 67.7899C53.7027 69.1549 53.8316 69.7313 53.5148 70.0839C53.1993 70.435 52.7368 70.2229 51.683 69.2544L41.7135 60.0884C41.4413 59.8382 41.3318 59.847 41.3209 59.8441C41.2511 60.0006 41.2149 60.1689 41.2125 60.3474C39.7228 79.0524 38.9207 98.0719 38.8291 116.878C38.8291 117.13 38.8291 117.82 38.3631 117.82ZM35.4389 58.5156C35.5305 58.5156 35.6184 58.5347 35.7039 58.5756C35.7882 58.6166 35.8653 58.6736 35.9327 58.7497C36.0002 58.8243 36.0532 58.9121 36.0941 59.0116C36.1338 59.1111 36.1579 59.2164 36.1652 59.3276L38.1945 107.648C38.4642 91.8394 39.2314 75.939 40.4791 60.2581C40.502 60.0123 40.5634 59.2676 41.0343 59.0204C41.2342 58.9575 41.4341 58.9589 41.634 59.0218C41.834 59.0848 42.0086 59.2033 42.1579 59.3759L52.1274 68.5404C52.4056 68.7979 52.614 68.9705 52.7693 69.089C52.6862 68.8857 52.5634 68.6209 52.3791 68.261C50.1908 63.9903 47.8231 59.8704 45.2747 55.9026C45.1531 55.7154 45.0821 55.5018 45.0616 55.2648C45.0483 55.1009 45.0604 54.9414 45.0989 54.7834C45.1375 54.6269 45.1989 54.4849 45.2844 54.3577C45.3687 54.2304 45.4711 54.128 45.5903 54.0504C45.7083 53.9729 45.8348 53.9246 45.9697 53.9085L70.5008 51.4184L45.5529 48.4484C45.453 48.4367 45.3627 48.3943 45.282 48.3211C45.2013 48.248 45.1435 48.1544 45.1061 48.0402C45.0688 47.9261 45.0592 47.8091 45.0772 47.6891C45.0953 47.5677 45.1375 47.4623 45.2037 47.3716C48.0339 43.3175 50.6292 39.0513 52.9885 34.5759C53.1487 34.2715 53.2583 34.0433 53.3354 33.8648C53.1945 33.9672 53.009 34.115 52.7669 34.3257L41.8039 43.793C41.6762 43.9028 41.5353 43.9627 41.3799 43.9759C41.2703 43.9847 41.1643 43.9671 41.0608 43.9247C40.9572 43.8808 40.8645 43.815 40.7814 43.7272C40.6995 43.6394 40.6344 43.5355 40.5875 43.4156C40.5393 43.2956 40.5128 43.1698 40.5068 43.0366L38.6449 7.92506L36.235 43.5692C36.241 43.7228 36.2121 43.8662 36.1483 44.0008C36.0857 44.1339 35.9977 44.2363 35.8857 44.308C35.7641 44.3607 35.6413 44.3709 35.5148 44.3373C35.3896 44.3036 35.28 44.2319 35.1884 44.1207L25.6609 35.2737C25.0612 34.6768 24.4205 34.153 23.7388 33.7039C24.0796 34.5451 24.4819 35.3396 24.9456 36.0886L31.5923 47.5633C31.6706 47.6598 31.7199 47.7754 31.7392 47.9086C31.7585 48.0432 31.744 48.1719 31.6971 48.2948C31.6489 48.4192 31.5766 48.5143 31.4791 48.583C31.3827 48.6503 31.278 48.6781 31.166 48.6664L6.41445 51.2209L31.4201 53.8749C31.561 53.8924 31.6874 53.9539 31.7994 54.0592C31.962 54.2114 32.0536 54.4103 32.0752 54.6576C32.0969 54.8961 32.0451 55.1053 31.9199 55.2896L23.5148 68.5667C23.3366 68.8462 23.1969 69.0744 23.0873 69.2661C23.2438 69.1373 23.4365 68.9779 23.6726 68.7716L35.0198 58.6839C35.1282 58.5902 35.2499 58.5347 35.3823 58.52C35.3992 58.5186 35.4197 58.5156 35.4389 58.5156Z" fill="#FF7403"/>
</svg>
