<svg class="svg-icon" style="width: 1em; height: 1em;vertical-align: middle;fill: currentColor;overflow: hidden;" viewBox="0 0 1024 1024" version="1.1" xmlns="http://www.w3.org/2000/svg"><path d="M672 448.032h-192c-53.024 0-128 33.344-128 96v128h448v-128c0-63.36-74.976-96-128-96z" fill="#434854" /><path d="M608 128.032h-64c-52.992 0-96 43.008-96 96v64a128 128 0 0 0 256 0v-64c0-52.992-43.008-96-96-96z" fill="#EDD87E" /><path d="M576 384.032c-49.76 0-93.536-23.648-122.176-59.84 15.68 52.96 64.16 91.84 122.176 91.84s106.496-38.88 122.176-91.84c-28.64 36.192-72.416 59.84-122.176 59.84z" fill="" /><path d="M448 224.032v32h32a128 128 0 0 0 128-128h-64c-52.992 0-96 43.008-96 96zM608 128.032a127.68 127.68 0 0 0 96 123.456v-27.456c0-52.992-43.008-96-96-96z" fill="#434854" /><path d="M512 448.032l32 64 32-64 32 64 32-64z" fill="#EDD87E" /><path d="M608 512.032l-32 160-32-160 32-64z" fill="#469FCC" /><path d="M320 0.032H64a64 64 0 0 0-64 64v160a64 64 0 0 0 64 64h256l64 64v-288a64 64 0 0 0-64-64z" fill="#84BF56" /><path d="M288 736.032H224c-52.992 0-96 43.008-96 96v64a128 128 0 0 0 256 0v-64c0-52.992-43.008-96-96-96zM608 736.032h-64c-52.992 0-96 43.008-96 96v64a128 128 0 0 0 256 0v-64c0-52.992-43.008-96-96-96zM928 736.032h-64c-52.992 0-96 43.008-96 96v64a128 128 0 0 0 256 0v-64c0-52.992-43.008-96-96-96z" fill="#EDD87E" /><path d="M112 128.032h160a16 16 0 0 0 0-32h-160a16 16 0 0 0 0 32zM272 160.032h-160a16 16 0 0 0 0 32h160a16 16 0 0 0 0-32z" fill="" /><path d="M256 960.032a156 156 0 0 1-128-66.912v2.912a128 128 0 0 0 256 0v-2.912a156 156 0 0 1-128 66.912zM576 960.032a156 156 0 0 1-128-66.912v2.912a128 128 0 0 0 256 0v-2.912a156 156 0 0 1-128 66.912zM896 960.032a156 156 0 0 1-128-66.912v2.912a128 128 0 0 0 256 0v-2.912a156 156 0 0 1-128 66.912z" fill="" /></svg>