<svg width="900" height="217" viewBox="0 0 900 217" fill="none" xmlns="http://www.w3.org/2000/svg">
<path opacity="0.7" d="M802.142 60.6101C781.751 58.8385 749.735 57.7248 720.957 59.8695C718.956 60.0319 716.863 59.7043 715.626 59.0037C693.99 47.7048 662.073 41.2308 628.247 41.2308C600.806 41.2308 574.312 45.5202 553.638 53.3129C551.637 54.0535 548.681 54.1361 546.588 53.4781C520.667 45.4775 490.08 41.2735 458.163 41.2735C443.965 41.2735 429.958 42.0966 416.425 43.7885C413.568 44.1189 410.613 43.5008 409.566 42.3046C387.082 16.9868 329.909 0 267.305 0C193.459 0 130.474 22.7601 117.33 54.1361C117.33 56.4887 117.994 60.0319 119.995 62.7548C127.525 72.8147 152.485 78.3402 175.74 75.0818C184.409 73.8457 191.557 71.2482 195.651 67.7021C199.844 64.1561 200.509 60.1572 197.751 56.4061C193.269 50.4277 178.406 47.1693 164.682 49.1061C154.302 50.5502 148.483 55.4149 151.919 59.9521C152.867 61.2709 151.248 62.6295 148.2 63.0852C145.153 63.4953 142.006 62.7947 140.96 61.4759C135.622 54.3839 144.672 46.7165 161.062 44.4066C164.873 43.8711 168.783 43.6233 172.686 43.6233C188.602 43.6233 203.372 48.0352 208.612 54.9193C212.324 59.9521 211.376 65.3096 205.847 70.012C200.318 74.7116 190.886 78.2149 179.262 79.8241C150.01 83.9056 118.567 76.9788 109.135 64.3213C107.035 61.5585 106.179 58.2603 105.896 55.5801C90.8362 52.9825 74.8283 51.6638 58.4452 51.6638C-12.353 51.5812 -70 76.5259 -70 107.201C-70 137.877 -12.353 162.824 58.5373 162.824C62.3484 162.824 66.1595 162.741 69.9706 162.616C68.7332 152.434 74.8283 142.083 87.5978 133.26C101.605 123.487 122.852 116.15 147.437 112.604C157.06 111.2 166.874 110.542 176.497 110.542C214.996 110.542 250.915 121.098 263.784 137.714C270.07 145.917 268.641 154.658 259.782 162.411C250.823 170.121 235.579 175.892 216.616 178.615C184.791 183.232 150.201 175.769 139.531 161.958C130.856 150.659 144.962 138.415 171.067 134.661C178.597 133.59 186.601 133.465 194.315 134.291C197.369 134.621 199.179 135.982 198.416 137.301C197.652 138.62 194.506 139.403 191.458 139.073C185.936 138.455 180.124 138.537 174.687 139.321C154.585 142.206 143.724 151.648 150.392 160.349C159.061 171.562 187.075 177.623 212.995 173.872C229.003 171.562 241.964 166.658 249.586 160.144C257.109 153.587 258.347 146.165 253.015 139.238C241.773 124.684 210.323 115.447 176.596 115.447C168.118 115.447 159.541 116.025 151.156 117.261C106.087 123.778 77.0202 143.567 81.7857 164.348C100.94 195.354 166.117 217 240.437 217C309.425 217 371.548 198.116 394.987 170.039C395.559 169.421 396.606 168.885 398.041 168.637C399.469 168.347 401.088 168.347 402.517 168.595C420.236 171.605 439.009 173.132 458.255 173.132C511.525 173.132 560.786 161.092 588.418 141.505C568.119 137.877 550.873 131.445 539.249 123.077C526.289 113.675 521.622 102.749 526.289 92.3164C533.819 75.3297 568.217 63.4953 606.809 63.4953C611.857 63.4953 617.097 63.7032 622.244 64.1162C658.354 67.1239 682.175 82.2565 675.224 97.8847C669.603 110.665 640.918 119.075 611.476 116.603C587.273 114.581 571.265 104.438 575.932 93.9257C579.269 86.2554 594.803 80.9378 612.239 80.9378C614.523 80.9378 616.906 81.0204 619.197 81.2255C622.336 81.4733 624.337 82.792 623.771 84.1136C623.199 85.4722 620.144 86.338 617.097 86.0902C603.281 84.9367 589.846 88.8957 587.273 94.8741C583.843 102.667 595.659 110.252 613.766 111.738C637.107 113.675 659.69 107.036 664.166 96.9362C669.886 83.9882 650.159 71.4133 620.243 68.9382C582.033 65.7653 545.061 76.6484 537.729 93.1823C529.343 112.066 556.113 131.693 598.614 137.837C608.329 138.99 618.334 139.568 628.53 139.568C664.647 139.568 697.709 132.394 719.437 119.901C719.529 119.859 719.529 119.819 719.628 119.819C725.44 116.808 730.39 113.593 735.155 110.46C751.545 99.8215 768.409 88.8131 820.625 83.1651C851.785 79.7843 879.608 81.3907 900 83.9484C879.036 74.9993 846.546 64.4438 802.142 60.6101Z" fill="#FBFFFF"/>
</svg>
