<svg width="170" height="180" viewBox="0 0 170 180" fill="none" xmlns="http://www.w3.org/2000/svg">
<mask id="mask0_714_1340" style="mask-type:luminance" maskUnits="userSpaceOnUse" x="0" y="0" width="170" height="180">
<path d="M0 0H170V179.422H0V0Z" fill="white"/>
</mask>
<g mask="url(#mask0_714_1340)">
<path d="M107.653 131.756C101.089 125.781 91.1997 126.048 83.3074 122.499C89.0165 119.746 96.1109 120.181 100.793 116.536C119.487 104.617 99.995 67.3089 82.4666 82.203C74.7654 89.6229 76.6143 107.274 69.2379 112.897C66.9925 110.103 67.4703 105.667 66.9495 102.208C67.991 54.5108 1.18345 84.2673 53.2717 117.641C56.7354 119.153 59.3295 122.933 53.4485 120.996C47.4051 117.428 42.1833 112.978 34.6971 112.122C20.3266 109.506 7.81452 131.227 24.1629 137.13C32.1985 141.576 57.9393 128.864 48.6997 144.274C45.2934 150.381 41.5527 156.135 42.4843 163.469C43.1723 170.209 49.1966 177.906 57.1988 178.526C78.6972 179.286 73.2271 153.907 73.4946 140.833C80.1352 145.655 81.7787 155.075 89.5372 158.874C107.013 168.059 123.452 143.414 107.653 131.756ZM90.249 153.346C85.4143 148.932 83.3934 142.01 78.6733 137.723C68.1964 129.248 66.1947 141.929 67.2792 149.616C67.0833 156.443 68.9656 164.483 64.3267 170.318C57.9488 177.982 46.7362 169.25 47.4481 161.395C46.9273 151.504 64.4748 139.819 52.708 131.802C44.1612 126.577 25.8493 138.588 21.4684 127.836C20.5511 118.646 32.1077 114.255 39.9905 119.465C44.8874 122.01 49.0963 126.831 54.9868 127.066C59.5111 127.736 64.8904 122.761 61.5128 118.447C55.2162 111.892 46.4544 107.183 41.3138 99.7001C33.7607 90.3291 44.6198 75.684 55.5171 83.3347C63.9827 90.8044 60.2659 104.205 63.7678 113.295C68.1248 122.621 76.4279 114.789 77.9806 108.188C81.1241 100.882 81.5971 76.0054 95.251 84.7155C107.83 93.996 105.962 115.418 87.6071 116.672C82.9778 117.03 75.0998 120.23 79.2753 125.604C84.7311 130.521 92.9578 130.91 99.5173 134.047C116.19 141.114 104.366 163.337 90.249 153.346ZM167.858 33.6591C164.285 24.8494 152.107 22.1286 145.61 29.5032C142.227 33.057 140.617 37.9507 136.671 40.9748C136.676 30.5625 140.579 10.5709 123.672 11.1595C117.289 11.6529 112.478 17.7871 111.929 23.1743C111.184 28.9916 114.155 33.5821 116.859 38.4306C124.226 50.4545 103.253 40.4089 97.4725 43.9627C82.4953 49.4722 96.8323 76.3766 120.767 56.9147C123.82 55.6199 124.322 57.4262 121.441 58.8432C85.1372 78.6718 118.46 106.382 129.462 82.8322C132.152 77.359 130.399 68.8617 133.246 63.3431C139.38 69.0427 137.326 81.3292 143.632 87.6355C158.241 99.6051 172.879 69.165 158.284 60.2919C154.601 57.4489 149.126 57.6979 144.573 55.6562C148.553 53.8001 153.321 53.4243 157.391 51.9168C165.15 49.6397 171.504 41.1469 167.858 33.6591ZM160.009 70.9486C160.544 76.5622 158.308 82.4293 153.45 85.7613C138.463 93.2943 145.768 58.0329 132.161 59.6174C122.673 63.2933 132.663 89.9443 115.77 88.0565C109.192 86.2321 107.405 79.1064 111.179 73.7554C115.259 67.8295 122.196 64.1082 127.179 58.9111C130.356 54.4248 124.025 50.6628 119.898 52.1703C113.353 54.6783 106.148 63.1621 98.8962 58.3679C94.3624 55.5656 93.8751 48.1593 100.392 47.9963C107.042 47.2448 113.706 51.3011 120.17 48.354C128.927 42.763 117.605 33.9669 116.458 27.208C113.716 20.5396 123.328 11.0417 129.252 17.8097C135.343 24.4102 127.532 40.8254 134.259 45.3842C144.697 47.6885 144.63 31.0967 153.732 29.39C161.743 27.8644 167.142 38.6026 160.998 43.7318C155.681 49.1281 146.599 48.0733 141.105 53.121C135.305 63.3296 159.727 56.6159 160.009 70.9486ZM20.532 45.9954C37.2721 44.6508 26.6615 52.1794 22.3427 59.5449C16.175 68.7168 24.5546 77.436 34.7258 74.267C51.0168 69.414 39.7086 48.1005 44.6915 49.1145C46.3684 55.0767 46.1295 61.6591 49.3543 67.3315C55.7369 81.5103 79.2323 77.6216 75.0664 61.306C72.5391 52.5279 60.5812 49.9792 54.9582 43.5553C63.1945 41.0156 73.657 48.3721 82.4953 45.9591C100.396 39.1866 78.6638 12.8526 63.5814 21.0738C59.2244 22.8755 56.9551 27.5928 52.9469 30.4901C53.0998 25.37 55.5697 20.4445 55.5362 15.3334C55.8229 4.86681 45.3126 -2.59382 35.2465 2.1234C28.8495 4.84418 26.4417 11.6076 28.9021 17.6151C30.6841 22.1014 34.5299 25.6959 35.557 30.4086C-5.12753 2.66665 -10.225 46.9325 20.532 45.9954ZM10.9533 40.3591C1.27422 35.4563 4.87162 22.3323 16.5715 26.633C22.443 28.1496 33.4359 37.584 38.5812 34.4604C44.5338 28.222 34.0713 21.0964 32.552 14.7902C30.0105 7.33407 41.0033 2.31354 46.5547 7.17562C54.2081 13.9798 46.4448 24.1477 48.9768 32.2511C55.8802 41.8033 60.8631 18.1493 74.3641 24.5098C80.613 26.9318 86.9383 33.5459 84.8458 40.2414C79.7291 47.1588 64.7997 37.9598 57.151 39.0553C52.2733 38.838 48.6567 43.3606 52.5026 47.1045C55.7226 50.2237 59.5158 51.9485 63.7821 54.6421C81.6497 64.0765 65.4637 81.2704 54.5951 66.9195C50.9069 60.7627 50.6012 53.2161 48.0166 46.6337C46.0626 42.763 40.2294 44.4969 39.0685 47.8469C36.4122 53.3836 41.1084 60.4458 38.4283 65.9009C36.5937 71.4557 27.2204 73.4295 24.9989 67.7118C24.5164 59.7532 34.8882 55.6833 34.9025 47.6885C33.2591 36.8461 18.1385 44.2705 10.9533 40.3591Z" fill="#01BEDB"/>
</g>
</svg>
