<svg width="178" height="151" viewBox="0 0 178 151" fill="none" xmlns="http://www.w3.org/2000/svg">
<path d="M36.9444 76.0352C29.3046 77.4315 21.0517 79.1757 15.929 85.166C11.2059 90.6894 10.2631 98.5617 9.31101 105.777C9.20882 106.559 9.30629 107.364 9.6454 108.069C11.0154 110.89 14.5218 109.237 15.4043 106.84C16.1752 104.752 15.7387 102.427 15.8409 100.192C16.087 94.7397 19.6119 89.8983 23.9823 86.791C28.3525 83.6887 33.5216 82.0445 38.6024 80.4433C38.0684 81.0438 37.5343 81.6442 36.9444 76.0352Z" fill="#FCDBA2"/>
<path d="M11.8278 110.348C10.5924 110.348 9.54741 109.657 8.953 108.427C8.55357 107.607 8.41424 106.654 8.54429 105.667L8.60466 105.191C9.52886 98.1718 10.5738 90.2177 15.3482 84.6372C20.4568 78.6564 28.4171 76.7836 36.8094 75.2491C37.023 75.2109 37.2366 75.2586 37.4131 75.392C37.585 75.5255 37.6917 75.7256 37.715 75.9448C37.9426 78.1179 38.1516 79.1806 38.2955 79.7049C38.3188 79.6953 38.3466 79.6905 38.3745 79.6762C38.7089 79.5761 39.0711 79.7096 39.2569 80.0146C39.4427 80.3148 39.4101 80.7104 39.1779 80.9773C38.9272 81.2584 38.4581 81.7874 37.7939 81.5586C37.7754 81.5539 37.7615 81.5491 37.7475 81.5444C33.1265 83.0121 28.4218 84.6086 24.423 87.4489C19.7462 90.7657 16.825 95.5458 16.616 100.231C16.5882 100.883 16.6067 101.545 16.6253 102.246C16.6717 103.861 16.7182 105.529 16.1284 107.121C15.4828 108.87 13.7087 110.257 11.9949 110.343C11.9392 110.348 11.8789 110.348 11.8231 110.348H11.8278ZM36.2706 76.9694C28.459 78.4276 21.1303 80.291 16.5138 85.6904C12.0507 90.9087 11.0801 98.2762 10.1465 105.406L10.0815 105.887C9.99326 106.554 10.0815 107.184 10.3416 107.717C10.6946 108.442 11.2287 108.785 11.9207 108.756C13.0168 108.699 14.2568 107.712 14.6794 106.559C15.1577 105.263 15.1205 103.818 15.0742 102.289C15.0555 101.593 15.037 100.874 15.0695 100.154C15.3017 94.9785 18.4691 89.7364 23.5453 86.1336C27.5904 83.2647 32.2348 81.6349 36.814 80.1719C36.6189 79.4904 36.4425 78.4801 36.266 76.9647L36.2706 76.9694Z" fill="#7F4222"/>
<path d="M35.8582 95.3496C29.0682 97.1558 23.0678 101.893 19.6124 108.164C16.1617 114.435 15.3026 122.161 17.2903 129.066C17.7454 130.648 18.4374 132.321 20.2301 132.745C21.6466 133.078 23.0957 132.464 24.0245 131.311C25.7336 129.195 25.5292 126.336 24.9069 123.796C24.3728 121.617 23.5601 119.478 23.4997 117.233C23.3929 113.649 25.2599 110.218 27.8468 107.807C30.429 105.395 33.6706 103.865 36.8845 102.594L35.8582 95.3496Z" fill="#FCDBA2"/>
<path d="M21.0153 133.631C20.6949 133.631 20.3744 133.593 20.0539 133.522C17.5971 132.935 16.8587 130.386 16.5475 129.295C14.5133 122.227 15.405 114.183 18.9393 107.768C22.4689 101.359 28.7202 96.4263 35.6633 94.5725C35.877 94.5203 36.1045 94.5533 36.2856 94.6823C36.4715 94.8058 36.5968 95.0062 36.6247 95.2349L37.6557 102.479C37.7068 102.846 37.5025 103.203 37.1634 103.336C34.2608 104.485 30.9448 105.991 28.3672 108.397C25.6735 110.909 24.1827 114.121 24.2709 117.209C24.3174 118.738 24.7307 120.225 25.1719 121.793C25.3391 122.385 25.5109 122.989 25.6596 123.6C26.5327 127.178 26.1936 129.871 24.6192 131.82C23.6811 132.983 22.3574 133.631 21.0106 133.631H21.0153ZM35.2175 96.3595C29.0081 98.2654 23.4768 102.769 20.2861 108.554C16.9609 114.603 16.1155 122.184 18.0337 128.842C18.4423 130.272 19.0136 131.639 20.4022 131.968C21.4797 132.221 22.6361 131.772 23.4211 130.801C24.6611 129.271 24.8979 127.04 24.1502 123.986C24.0108 123.404 23.8436 122.814 23.6811 122.236C23.2352 120.641 22.7662 118.986 22.7197 117.251C22.6176 113.701 24.2941 110.041 27.3223 107.216C29.9137 104.795 33.1322 103.256 36.0256 102.078L35.2128 96.3549L35.2175 96.3595Z" fill="#7F4222"/>
<path d="M39.5928 116.871C33.9407 119.354 29.5889 124.763 28.2886 130.934C26.9464 137.326 28.9109 144.359 33.3834 149.02C33.6573 149.306 33.9871 149.54 34.3494 149.683C36.3324 150.445 37.5911 148.048 37.5818 146.127C37.5679 141.257 33.7502 136.72 34.7999 131.974C36.0631 126.269 43.3268 124.263 39.5928 116.871Z" fill="#FCDBA2"/>
<mask id="mask0_725_593" style="mask-type:luminance" maskUnits="userSpaceOnUse" x="26" y="114" width="16" height="37">
<path d="M26.1035 114.879H41.5596V150.687H26.1035V114.879Z" fill="white"/>
</mask>
<g mask="url(#mask0_725_593)">
<path d="M35.088 150.622C34.7582 150.622 34.4192 150.56 34.0802 150.431C33.6249 150.255 33.2024 149.969 32.8308 149.578C28.219 144.774 26.143 137.387 27.5317 130.768C28.8878 124.33 33.3927 118.721 39.2863 116.138C39.6626 115.971 40.0944 116.133 40.2802 116.505C42.8717 121.632 40.6007 124.472 38.3993 127.217C37.2104 128.7 35.9843 130.229 35.557 132.155C35.0229 134.571 35.8914 136.988 36.811 139.541C37.568 141.653 38.3528 143.831 38.3621 146.123C38.3667 147.486 37.8188 149.254 36.5881 150.13C36.1282 150.46 35.6174 150.622 35.088 150.622ZM39.226 117.92C34.1172 120.427 30.2486 125.412 29.0503 131.106C27.7639 137.216 29.6866 144.03 33.9361 148.462C34.1498 148.687 34.382 148.844 34.6235 148.939C35.0322 149.097 35.3759 149.058 35.7056 148.825C36.3372 148.372 36.8156 147.214 36.8063 146.132C36.8016 144.121 36.0678 142.072 35.3526 140.094C34.3959 137.43 33.4066 134.681 34.0476 131.798C34.5538 129.51 35.9007 127.832 37.2011 126.207C39.2167 123.686 40.8376 121.671 39.226 117.92Z" fill="#7F4222"/>
</g>
<path d="M39.5918 70.9599C35.5698 68.3578 32.7136 63.9354 31.938 59.1126C31.6175 57.1207 31.5757 54.9046 29.876 53.5751C28.3016 52.3407 26.1188 52.4694 24.5211 53.6656C21.7949 55.71 21.5302 59.5081 22.538 62.5962C23.4018 65.2316 25.0459 67.5 26.5367 69.8161C27.6885 71.6032 28.7706 73.457 30.215 75.001C31.664 76.5403 33.5496 77.7699 35.6302 77.9223C37.7109 78.0748 39.9541 76.9406 40.6925 74.9391C41.4309 72.9375 40.1583 70.2879 39.5871 70.9599H39.5918Z" fill="#FCDBA2"/>
<path d="M36.0247 78.7367C35.876 78.7367 35.7275 78.7271 35.5788 78.7176C32.9594 78.5222 30.9159 76.8924 29.662 75.5533C28.3987 74.2093 27.4095 72.6462 26.4528 71.1356C26.2624 70.8401 26.0766 70.5494 25.8908 70.2587C25.6633 69.9013 25.4311 69.5486 25.1989 69.2008C23.9078 67.223 22.5655 65.1834 21.8039 62.853C20.8193 59.8411 20.8193 55.4569 24.061 53.0264C26.0116 51.5586 28.5335 51.53 30.3447 52.9454C32.0445 54.2797 32.3232 56.3147 32.5693 58.1113C32.6111 58.4067 32.6482 58.6974 32.6947 58.9881C33.4146 63.4487 36.0061 67.5614 39.6657 70.0728C39.8979 70.0395 40.1441 70.0967 40.3717 70.2349C41.5885 70.9783 41.9879 73.6804 41.4167 75.2244C40.6457 77.3118 38.4211 78.7367 36.02 78.7367H36.0247ZM27.3259 53.5125C26.5224 53.5125 25.6911 53.7793 24.9806 54.3083C22.4169 56.2384 22.4588 59.8411 23.2807 62.3431C23.9774 64.4685 25.2546 66.4224 26.49 68.3048C26.7222 68.6622 26.959 69.0197 27.1866 69.3771C27.377 69.6725 27.5674 69.968 27.7532 70.2683C28.6728 71.717 29.6202 73.2134 30.7813 74.4477C32.286 76.0537 34.0322 77.0067 35.6903 77.1307C37.562 77.2641 39.4011 76.2061 39.9723 74.6573C40.3717 73.5755 39.9955 72.2459 39.6937 71.7503C39.5218 71.7789 39.336 71.7408 39.1782 71.6359C34.975 68.9148 31.9795 64.2827 31.1714 59.2455C31.1203 58.9453 31.0785 58.6402 31.0367 58.3353C30.8137 56.6959 30.6002 55.1471 29.4065 54.213C28.8121 53.746 28.0783 53.5125 27.3259 53.5125Z" fill="#7F4222"/>
<path d="M29.1524 57.2813C28.818 54.7556 29.7236 52.2299 30.7546 49.909C31.781 47.5835 32.9745 45.2673 33.2532 42.7273C33.5365 40.192 32.6634 37.3136 30.4759 36.1032C28.9573 35.2644 27.1228 35.374 25.409 35.5551C23.5839 35.7458 21.5775 36.0984 20.4396 37.5709C19.6037 38.6527 19.4226 40.111 19.3065 41.4787C19.0835 44.0235 19.0046 46.5779 19.0789 49.1275C19.1393 51.2767 19.2833 53.488 20.1378 55.4561C20.9459 57.3243 22.5063 58.9637 24.4663 59.3353C26.4308 59.7118 28.6925 58.4918 29.1524 57.2766V57.2813Z" fill="#FCDBA2"/>
<path d="M25.1446 60.1997C24.8566 60.1997 24.5826 60.1759 24.3271 60.1234C22.2651 59.7326 20.4353 58.1076 19.4274 55.782C18.4986 53.6422 18.3593 51.2356 18.3035 49.1531C18.2339 46.5939 18.3082 43.992 18.5311 41.409C18.6658 39.8983 18.8701 38.3161 19.8315 37.0771C21.118 35.4092 23.2358 34.9802 25.3303 34.761C27.0998 34.5752 29.1294 34.456 30.8431 35.4044C33.4532 36.8436 34.3217 40.1652 34.029 42.8196C33.7737 45.1357 32.8169 47.2421 31.8927 49.2817C31.7488 49.601 31.6001 49.9203 31.4608 50.2396C30.4809 52.4556 29.6124 54.8288 29.9236 57.1735C29.9421 57.3118 29.9236 57.4452 29.8771 57.5738C29.2641 59.1893 27.0023 60.1997 25.1492 60.1997H25.1446ZM27.3785 36.2288C26.7561 36.2288 26.1152 36.2813 25.4882 36.348C23.7327 36.5338 21.9772 36.8674 21.0484 38.0683C20.3517 38.9643 20.1938 40.2271 20.0777 41.552C19.8594 44.0729 19.7851 46.6131 19.8547 49.1054C19.9105 51.1308 20.0312 53.261 20.844 55.1339C21.6335 56.9543 23.0732 58.2648 24.6104 58.5555C26.1431 58.851 27.8893 57.9456 28.3538 57.145C28.0751 54.4857 28.9993 51.9409 30.0489 49.5772C30.1883 49.2579 30.3369 48.9338 30.4809 48.6097C31.3539 46.6845 32.255 44.6972 32.4826 42.6385C32.7194 40.5178 32.0738 37.8968 30.1047 36.8102C29.2966 36.367 28.3538 36.2288 27.3785 36.2288Z" fill="#7F4222"/>
<path d="M27.0759 37.0275C20.7086 38.0902 13.8768 36.489 8.84706 32.343C3.8173 28.1921 0.784593 21.4727 1.35584 14.8771C1.75989 10.2021 4.05417 5.72721 7.50486 2.6963C9.80842 0.670931 13.2869 1.00929 15.1865 3.43496L22.2597 12.4514L29.6162 2.68677C31.3207 0.423121 34.6181 0.327809 36.4387 2.49615C38.6494 5.13151 40.651 7.9289 42.0954 11.0599C44.3015 15.8445 45.0678 21.5775 43.0243 26.4384C41.5753 29.8887 38.8073 32.6574 35.6074 34.4732C32.4075 36.2889 28.7803 37.2086 27.0759 37.0371V37.0275Z" fill="#FCDBA2"/>
<mask id="mask1_725_593" style="mask-type:luminance" maskUnits="userSpaceOnUse" x="0" y="0" width="46" height="40">
<path d="M0 0H45.1285V39.2397H0V0Z" fill="white"/>
</mask>
<g mask="url(#mask1_725_593)">
<path d="M23.2373 38.1443C17.7849 38.1443 12.43 36.3143 8.3616 32.9594C2.97888 28.5178 -0.0027529 21.5649 0.582427 14.8025C1.00506 9.93684 3.34113 5.29996 7.00082 2.08796C8.278 0.97282 9.89883 0.443839 11.5661 0.601103C13.2381 0.763133 14.7382 1.58757 15.7924 2.93147L22.2434 11.1616L29.0008 2.1928C29.9575 0.925158 31.4019 0.172201 32.9623 0.129311C34.5228 0.0816558 36.0044 0.758366 37.0261 1.96882C39.6594 5.0998 41.4892 7.8829 42.7942 10.7089C45.3486 16.2465 45.6876 22.0939 43.7324 26.745C42.3066 30.1477 39.5525 33.1357 35.9811 35.161C32.9855 36.8624 29.2051 37.9918 27.1013 37.8298C25.8194 38.0395 24.5237 38.1395 23.2325 38.1395L23.2373 38.1443ZM10.9856 2.17374C9.8942 2.17374 8.84924 2.56452 8.00862 3.30318C4.65546 6.24354 2.51445 10.4897 2.12897 14.9503C1.59952 21.0883 4.42789 27.6695 9.33688 31.7203C14.0509 35.609 20.6318 37.3008 26.9526 36.2428C27.0176 36.2333 27.0874 36.2333 27.1524 36.2381C28.7128 36.4001 32.1589 35.5185 35.2334 33.7695C38.5076 31.9157 41.0202 29.1993 42.3159 26.1207C44.0947 21.8841 43.7557 16.5229 41.3963 11.3952C40.1517 8.69782 38.3915 6.03386 35.8511 3.01248C35.1405 2.16421 34.1048 1.69242 33.0088 1.72102C31.9127 1.74961 30.9003 2.27858 30.2315 3.16975L22.875 12.9392C22.731 13.1298 22.5034 13.2442 22.2666 13.2442C22.0204 13.2537 21.8068 13.1393 21.6535 12.9487L14.5849 3.93224C13.7954 2.9267 12.6715 2.31194 11.4221 2.18804C11.2782 2.17851 11.1296 2.16898 10.9856 2.16898V2.17374Z" fill="#7F4222"/>
</g>
<path d="M141.051 76.0352C148.69 77.4315 156.944 79.1757 162.066 85.166C166.789 90.6894 167.737 98.5617 168.684 105.777C168.787 106.559 168.694 107.364 168.35 108.069C166.98 110.89 163.473 109.237 162.591 106.84C161.82 104.752 162.257 102.427 162.154 100.192C161.908 94.7397 158.383 89.8983 154.013 86.791C149.643 83.6887 144.473 82.0445 139.393 80.4433C139.927 81.0438 140.461 81.6442 141.051 76.0352Z" fill="#FCDBA2"/>
<path d="M166.171 110.347C166.111 110.347 166.055 110.347 165.995 110.343C164.285 110.257 162.511 108.87 161.865 107.121C161.276 105.529 161.322 103.857 161.369 102.246C161.387 101.545 161.406 100.883 161.378 100.23C161.169 95.5457 158.248 90.7657 153.566 87.4489C149.568 84.6086 144.868 83.0121 140.247 81.5443C140.233 81.5491 140.214 81.5539 140.201 81.5587C139.532 81.7826 139.067 81.2584 138.817 80.9773C138.584 80.7104 138.546 80.3196 138.733 80.0146C138.918 79.7096 139.28 79.5714 139.62 79.6763C139.643 79.6858 139.675 79.6953 139.698 79.7048C139.843 79.1854 140.047 78.1179 140.275 75.9448C140.298 75.7256 140.409 75.5254 140.581 75.392C140.752 75.2586 140.971 75.2062 141.185 75.249C149.581 76.7835 157.537 78.6612 162.646 84.6372C167.421 90.2129 168.466 98.1717 169.385 105.191L169.45 105.667C169.58 106.655 169.436 107.607 169.041 108.427C168.442 109.657 167.402 110.347 166.166 110.347H166.171ZM141.185 80.1767C145.764 81.6349 150.409 83.2648 154.453 86.1384C159.525 89.7411 162.697 94.9784 162.929 100.159C162.957 100.874 162.943 101.593 162.92 102.294C162.878 103.819 162.836 105.263 163.314 106.558C163.742 107.712 164.977 108.694 166.073 108.755C166.765 108.785 167.304 108.442 167.652 107.717C167.913 107.188 168.001 106.554 167.917 105.887L167.852 105.406C166.914 98.2815 165.943 90.9134 161.48 85.6952C156.864 80.291 149.535 78.4324 141.728 76.9693C141.551 78.4848 141.375 79.4999 141.181 80.1767H141.185Z" fill="#7F4222"/>
<path d="M142.138 95.3496C148.928 97.1558 154.933 101.893 158.384 108.164C161.839 114.435 162.698 122.161 160.706 129.066C160.251 130.648 159.563 132.321 157.766 132.745C156.35 133.078 154.905 132.464 153.976 131.311C152.267 129.195 152.472 126.336 153.089 123.796C153.623 121.617 154.436 119.478 154.501 117.233C154.603 113.649 152.736 110.218 150.154 107.807C147.567 105.395 144.325 103.865 141.111 102.594L142.138 95.3496Z" fill="#FCDBA2"/>
<path d="M156.981 133.63C155.639 133.63 154.316 132.982 153.377 131.819C151.803 129.87 151.464 127.177 152.337 123.599C152.485 122.988 152.657 122.384 152.819 121.793C153.265 120.22 153.679 118.737 153.725 117.209C153.814 114.12 152.318 110.908 149.629 108.396C147.047 105.99 143.736 104.489 140.829 103.335C140.494 103.202 140.289 102.845 140.341 102.478L141.367 95.2341C141.399 95.0099 141.525 94.8095 141.706 94.6814C141.892 94.557 142.119 94.5195 142.329 94.5716C149.271 96.4208 155.523 101.358 159.057 107.768C162.587 114.182 163.483 122.226 161.449 129.294C161.138 130.38 160.404 132.934 157.938 133.521C157.622 133.592 157.302 133.63 156.981 133.63ZM141.971 102.082C144.865 103.255 148.078 104.798 150.674 107.215C153.702 110.045 155.379 113.7 155.277 117.256C155.225 118.985 154.762 120.64 154.316 122.241C154.153 122.813 153.986 123.408 153.841 123.989C153.099 127.039 153.336 129.27 154.571 130.804C155.36 131.782 156.516 132.224 157.594 131.967C158.978 131.638 159.549 130.271 159.963 128.841C161.881 122.183 161.036 114.602 157.706 108.558C154.52 102.774 148.983 98.2645 142.779 96.3632L141.967 102.082H141.971Z" fill="#7F4222"/>
<path d="M138.403 116.871C144.06 119.354 148.407 124.763 149.707 130.934C151.05 137.326 149.09 144.359 144.613 149.02C144.339 149.306 144.009 149.54 143.647 149.683C141.664 150.445 140.409 148.048 140.415 146.127C140.428 141.257 144.246 136.72 143.196 131.974C141.933 126.269 134.67 124.263 138.403 116.871Z" fill="#FCDBA2"/>
<mask id="mask2_725_593" style="mask-type:luminance" maskUnits="userSpaceOnUse" x="135" y="114" width="16" height="37">
<path d="M135.486 114.879H150.943V150.687H135.486V114.879Z" fill="white"/>
</mask>
<g mask="url(#mask2_725_593)">
<path d="M142.907 150.62C142.377 150.62 141.862 150.458 141.406 150.13C140.176 149.252 139.633 147.485 139.633 146.127C139.641 143.829 140.426 141.652 141.183 139.545C142.098 136.986 142.972 134.57 142.433 132.154C142.01 130.233 140.779 128.699 139.595 127.221C137.394 124.476 135.118 121.636 137.709 116.504C137.896 116.137 138.332 115.98 138.703 116.142C144.602 118.725 149.107 124.329 150.458 130.767C151.852 137.391 149.771 144.773 145.164 149.582C144.792 149.968 144.369 150.253 143.915 150.43C143.576 150.558 143.241 150.625 142.907 150.625V150.62ZM138.773 117.919C137.157 121.669 138.777 123.686 140.794 126.207C142.094 127.832 143.445 129.509 143.951 131.796C144.588 134.679 143.599 137.429 142.642 140.093C141.931 142.071 141.198 144.12 141.189 146.131C141.183 147.213 141.658 148.371 142.293 148.824C142.619 149.058 142.962 149.095 143.371 148.939C143.612 148.842 143.845 148.681 144.058 148.462C148.312 144.03 150.23 137.215 148.944 131.105C147.746 125.41 143.882 120.426 138.773 117.919Z" fill="#7F4222"/>
</g>
<path d="M138.407 70.9599C142.424 68.3578 145.28 63.9354 146.061 59.1126C146.382 57.1207 146.424 54.9046 148.119 53.5751C149.692 52.3407 151.875 52.4694 153.473 53.6656C156.199 55.71 156.464 59.5081 155.456 62.5962C154.592 65.2316 152.948 67.5 151.458 69.8161C150.31 71.6032 149.229 73.457 147.78 75.001C146.331 76.5403 144.445 77.7699 142.364 77.9223C140.289 78.0748 138.045 76.9406 137.302 74.9391C136.563 72.9375 137.841 70.2879 138.412 70.9599H138.407Z" fill="#FCDBA2"/>
<path d="M141.97 78.7375C139.569 78.7375 137.345 77.3126 136.573 75.2252C136.003 73.6764 136.407 70.9791 137.618 70.2262C137.846 70.088 138.092 70.0356 138.325 70.0641C141.984 67.5574 144.575 63.4447 145.296 58.9842C145.342 58.6935 145.384 58.398 145.421 58.1073C145.667 56.3107 145.95 54.2758 147.65 52.9415C149.452 51.5261 151.978 51.5547 153.929 53.0224C157.171 55.4529 157.171 59.8324 156.186 62.8491C155.425 65.1795 154.087 67.2239 152.792 69.1968C152.559 69.5495 152.327 69.9021 152.104 70.2548C151.913 70.5455 151.728 70.841 151.542 71.1364C150.586 72.6471 149.591 74.2102 148.333 75.5541C147.074 76.8885 145.031 78.523 142.411 78.7185C142.263 78.728 142.114 78.7328 141.965 78.7328L141.97 78.7375ZM138.301 71.7512C137.999 72.2468 137.623 73.5717 138.022 74.6582C138.594 76.207 140.438 77.2649 142.304 77.1268C143.963 77.0076 145.709 76.0545 147.218 74.4485C148.375 73.2142 149.322 71.7178 150.241 70.2643C150.432 69.9689 150.618 69.6686 150.808 69.3731C151.04 69.0205 151.273 68.6631 151.505 68.3056C152.741 66.4233 154.022 64.4693 154.719 62.3439C155.536 59.842 155.583 56.2344 153.015 54.3092C151.649 53.2798 149.824 53.2417 148.593 54.2091C147.395 55.1431 147.185 56.6872 146.958 58.3266C146.916 58.6363 146.874 58.9413 146.828 59.2463C146.02 64.2787 143.025 68.9109 138.821 71.6321C138.663 71.7368 138.478 71.775 138.301 71.7464V71.7512Z" fill="#7F4222"/>
<path d="M148.843 57.2813C149.178 54.7556 148.272 52.2299 147.245 49.909C146.214 47.5835 145.025 45.2673 144.742 42.7273C144.459 40.192 145.332 37.3136 147.524 36.1032C149.043 35.2644 150.873 35.374 152.587 35.5551C154.411 35.7458 156.417 36.0984 157.56 37.5709C158.392 38.6527 158.573 40.111 158.694 41.4787C158.911 44.0235 158.991 46.5779 158.921 49.1275C158.861 51.2767 158.717 53.488 157.862 55.4561C157.008 57.4244 155.489 58.9637 153.529 59.3353C151.569 59.7118 149.302 58.4918 148.843 57.2766V57.2813Z" fill="#FCDBA2"/>
<path d="M152.852 60.1985C150.998 60.1985 148.736 59.1929 148.118 57.5727C148.072 57.4439 148.059 57.3105 148.072 57.1723C148.388 54.8277 147.519 52.4544 146.539 50.2384C146.396 49.9191 146.252 49.5998 146.108 49.2806C145.184 47.2456 144.227 45.1345 143.971 42.8184C143.679 40.164 144.547 36.8424 147.157 35.4032C148.871 34.4595 150.901 34.5739 152.665 34.7598C154.764 34.9838 156.882 35.4127 158.169 37.0806C159.13 38.3197 159.334 39.8971 159.469 41.4126C159.692 43.9955 159.771 46.5975 159.697 49.1518C159.641 51.2392 159.502 53.6458 158.573 55.7855C157.565 58.1111 155.731 59.7314 153.673 60.1269C153.413 60.1746 153.14 60.1985 152.856 60.1985H152.852ZM149.642 57.1485C150.111 57.9443 151.857 58.8498 153.386 58.5591C154.923 58.2637 156.362 56.9531 157.152 55.1374C157.965 53.2598 158.09 51.1296 158.141 49.109C158.215 46.6166 158.137 44.0718 157.918 41.5556C157.807 40.2307 157.639 38.9678 156.953 38.0719C156.023 36.8662 154.268 36.5326 152.507 36.3516C150.901 36.1848 149.22 36.0799 147.887 36.8138C145.918 37.9004 145.277 40.5262 145.508 42.6421C145.741 44.7008 146.642 46.688 147.515 48.6133C147.659 48.9374 147.803 49.2567 147.947 49.5808C148.997 51.9445 149.916 54.4893 149.637 57.1485H149.642Z" fill="#7F4222"/>
<path d="M150.925 37.029C157.292 38.0917 164.119 36.4904 169.149 32.3444C174.179 28.1936 177.216 21.4741 176.645 14.8785C176.227 10.0987 173.839 5.52852 170.264 2.49762C168.03 0.605678 164.709 1.01075 162.898 3.32206L155.741 12.4529L148.743 3.15526C146.833 0.62474 143.146 0.562788 141.135 3.00753C139.092 5.49039 137.252 8.12576 135.906 11.0566C133.7 15.8412 132.933 21.5742 134.976 26.4351C136.421 29.8854 139.189 32.6541 142.389 34.4698C145.593 36.2855 149.22 37.2053 150.925 37.029Z" fill="#FCDBA2"/>
<mask id="mask3_725_593" style="mask-type:luminance" maskUnits="userSpaceOnUse" x="131" y="0" width="47" height="40">
<path d="M131.919 0.199219H177.999V39.2388H131.919V0.199219Z" fill="white"/>
</mask>
<g mask="url(#mask3_725_593)">
<path d="M154.764 38.1436C153.473 38.1436 152.182 38.0435 150.895 37.8339C148.796 37.9959 145.011 36.8617 142.016 35.1651C138.444 33.1397 135.69 30.1517 134.264 26.7539C132.309 22.0979 132.653 16.2506 135.202 10.713C136.443 8.02996 138.138 5.41843 140.544 2.49713C141.658 1.13894 143.288 0.381217 145.007 0.419341C146.72 0.457466 148.309 1.27714 149.354 2.66869L155.753 11.1657L162.292 2.82596C163.319 1.52019 164.772 0.705275 166.398 0.538481C167.987 0.371686 169.533 0.848244 170.759 1.88237C174.502 5.05148 176.992 9.88379 177.419 14.8066C178 21.5642 175.022 28.522 169.635 32.9634C165.571 36.3184 160.216 38.1484 154.764 38.1484V38.1436ZM150.923 36.2327C150.96 36.2327 151.002 36.2374 151.044 36.2422C157.365 37.3001 163.951 35.6084 168.66 31.7197C173.569 27.6689 176.402 21.0877 175.867 14.9495C175.478 10.4414 173.197 6.01412 169.765 3.11189C168.864 2.3494 167.726 1.99675 166.551 2.12065C165.344 2.24932 164.261 2.84978 163.5 3.82196L156.343 12.9528C156.195 13.1387 155.976 13.2626 155.73 13.2483C155.493 13.2483 155.27 13.1339 155.126 12.9432L148.123 3.6504C147.361 2.64009 146.214 2.0444 144.974 2.01581C143.724 1.98721 142.536 2.54002 141.722 3.52649C139.41 6.34295 137.78 8.84011 136.6 11.3992C134.241 16.5222 133.907 21.8883 135.686 26.1249C136.977 29.2034 139.493 31.9198 142.763 33.7784C145.842 35.5225 149.293 36.4042 150.845 36.2422C150.868 36.2422 150.895 36.2422 150.923 36.2422V36.2327Z" fill="#7F4222"/>
</g>
<path d="M145.463 94.2479C145.774 110.808 133.551 125.72 118.977 132.82C104.403 139.921 87.3771 140.107 71.6005 136.671C62.1076 134.607 52.7355 131.214 44.882 125.362C37.0239 119.505 30.7727 110.994 28.8499 101.22C25.9101 86.2609 33.7078 70.606 45.4347 61.2321C57.1614 51.8629 70.407 47.0688 86.9313 46.1824C86.9313 46.1824 144.529 44.7051 145.463 94.2433V94.2479Z" fill="#FCDBA2"/>
<path d="M90.977 139.642C83.7409 139.642 77.0067 138.665 71.4428 137.454C60.3662 135.043 51.5282 131.297 44.427 126.008C35.8677 119.631 29.9137 110.658 28.0885 101.384C26.6626 94.1157 27.6473 86.3149 30.9354 78.8091C33.9774 71.8656 38.9607 65.4035 44.9612 60.6094C56.8366 51.1212 70.1564 46.2841 86.8943 45.3881C86.9872 45.3881 94.2647 45.2262 103.549 47.1561C112.141 48.9385 124.281 52.9225 133.31 61.796C141.636 69.9833 145.988 80.8964 146.239 94.2356C146.387 102.223 143.685 110.291 138.427 117.562C133.615 124.206 126.826 129.882 119.312 133.546C109.953 138.102 100.065 139.647 90.977 139.647V139.642ZM87.4099 46.9798C87.1219 46.9798 86.9593 46.9798 86.95 46.9798C70.565 47.8615 57.5193 52.5889 45.9132 61.8675C40.1033 66.5044 35.2917 72.7568 32.3472 79.462C29.1938 86.6628 28.2418 94.1349 29.6071 101.069C31.3534 109.957 37.0844 118.578 45.3326 124.72C52.2573 129.877 60.9003 133.533 71.7587 135.896C84.0846 138.579 102.225 140.099 118.643 132.102C125.934 128.552 132.515 123.048 137.178 116.61C142.231 109.623 144.827 101.893 144.683 94.264C144.442 81.3635 140.252 70.8315 132.236 62.9493C127.411 58.2028 118.466 51.8789 103.28 48.7193C95.4774 47.099 89.1282 46.9751 87.4099 46.9751V46.9798Z" fill="#7F4222"/>
<path d="M70.3978 76.0008C70.2399 76.1151 70.082 76.2248 69.9241 76.3296C62.549 81.2143 52.1365 80.6186 45.3373 74.9285C38.5334 69.2336 35.8676 58.878 39.035 50.4715C40.1775 47.455 42.0306 44.7767 44.3528 42.5941C48.5001 38.7102 54.1196 36.437 59.7439 36.761C68.4983 37.2661 76.584 44.0381 78.8272 52.7495C81.0193 61.2751 77.4572 71.0112 70.4025 76.0008H70.3978Z" fill="white"/>
<path d="M58.643 80.3148C53.7107 80.3148 48.7786 78.6707 44.9285 75.4444C37.883 69.5494 35.1476 58.946 38.4311 50.2393C39.5736 47.2179 41.4685 44.4062 43.916 42.1092C48.342 37.9679 54.1241 35.7758 59.7762 36.1046C68.8511 36.6288 77.1272 43.5579 79.4493 52.5839C81.7019 61.3288 78.0468 71.4079 70.7692 76.55C70.6066 76.6691 70.4441 76.7835 70.2722 76.8931C66.8122 79.1854 62.7299 80.3148 58.643 80.3148ZM58.6662 37.396C53.6922 37.396 48.6856 39.4405 44.7891 43.0909C42.4856 45.2497 40.7068 47.8851 39.6386 50.7158C36.5501 58.9031 39.1184 68.8727 45.7458 74.4151C52.3685 79.9574 62.3909 80.5293 69.571 75.7733C69.7289 75.6732 69.8775 75.5731 70.0261 75.4635C70.0261 75.4635 70.0307 75.4635 70.0354 75.4587C76.8811 70.6216 80.3132 61.1429 78.2001 52.9223C76.0125 44.4348 68.2381 37.9203 59.7065 37.4294C59.3629 37.4056 59.0145 37.396 58.6662 37.396Z" fill="#7F4222"/>
<path d="M127.258 78.2223C126.942 78.4367 126.617 78.6369 126.282 78.8275C118.986 83.0451 109.178 82.2635 102.671 76.8164C95.8717 71.1215 93.2011 60.766 96.3729 52.3642C97.813 48.5327 100.423 45.2445 103.655 42.8474C107.529 39.9738 112.303 38.3773 117.077 38.649C125.836 39.1541 133.918 45.9213 136.161 54.6327C138.404 63.349 134.638 73.3376 127.258 78.2176V78.2223Z" fill="white"/>
<path d="M115.976 82.2106C111.034 82.2106 106.111 80.5522 102.262 77.3306C95.2164 71.4356 92.4851 60.8323 95.7692 52.1256C97.2227 48.2654 99.8229 44.8676 103.278 42.3085C107.408 39.2442 112.321 37.7145 117.114 37.9908C126.189 38.5151 134.46 45.4442 136.787 54.4703C139.114 63.4962 135.255 73.7231 127.615 78.7842C127.303 78.9891 126.973 79.194 126.597 79.4085C123.347 81.2909 119.659 82.2106 115.976 82.2106ZM116.008 39.2871C111.843 39.2871 107.631 40.7215 104.035 43.3903C100.785 45.7969 98.3418 48.9851 96.9766 52.6069C93.8922 60.7894 96.4612 70.7589 103.084 76.3013C106.121 78.8461 110.083 80.4379 114.235 80.7857C118.372 81.1289 122.538 80.2281 125.966 78.2504C126.319 78.0455 126.626 77.8597 126.908 77.6642C134.094 72.9082 137.72 63.2961 135.533 54.8085C133.35 46.3258 125.571 39.8065 117.044 39.3157C116.696 39.2918 116.352 39.2871 116.008 39.2871Z" fill="#7F4222"/>
<path d="M86.4427 78.3274C84.8311 78.3274 83.201 77.3172 82.2536 75.6825C81.4687 74.3291 81.1204 72.5992 81.1854 70.3976C81.1947 70.0306 81.4872 69.7446 81.8542 69.7541C82.2117 69.7637 82.4904 70.0735 82.4765 70.4404C82.4208 72.3847 82.7133 73.8764 83.3636 75.0058C84.1484 76.3593 85.5696 77.1694 86.8282 76.9741C87.8871 76.812 88.8856 75.9637 89.5079 74.7104C90.0741 73.5666 90.2881 72.2895 90.5111 70.7358C90.5574 70.3976 90.8597 70.1449 91.1986 70.1736C91.5374 70.1974 91.7978 70.4833 91.7978 70.8359V70.936C91.7978 71.0218 91.7835 71.0981 91.7559 71.1695C91.5749 72.4419 91.3288 73.9669 90.6644 75.306C89.8566 76.9454 88.4908 78.0558 87.0186 78.2845C86.8282 78.3131 86.6378 78.3274 86.4473 78.3274H86.4427Z" fill="#7F4222"/>
<path d="M61.3643 37.5142C61.1414 37.5142 60.9232 37.3951 60.8024 37.1806C59.8039 35.3745 59.5531 33.1061 60.1382 31.1141C60.2451 30.7614 60.6074 30.566 60.9464 30.6709C61.2901 30.7757 61.4805 31.1475 61.3783 31.5001C60.8953 33.149 61.0997 35.0266 61.931 36.5278C62.1075 36.8423 61.996 37.2521 61.6848 37.4333C61.5873 37.4905 61.4758 37.519 61.3691 37.519L61.3643 37.5142Z" fill="#7F4222"/>
<path d="M68.7677 39.5157C68.6655 39.5157 68.5633 39.4919 68.4658 39.4395C68.15 39.2679 68.0246 38.8676 68.1965 38.5435L70.0263 34.9884C70.1935 34.6643 70.5836 34.5404 70.8994 34.712C71.2152 34.8836 71.336 35.2839 71.1688 35.608L69.3389 39.1631C69.2228 39.3918 68.9999 39.5157 68.7677 39.5157Z" fill="#7F4222"/>
<path d="M74.6844 44.1347C74.5125 44.1347 74.336 44.0632 74.2106 43.9203C73.9691 43.6486 73.9877 43.2293 74.2524 42.9814C75.8594 41.4707 77.9446 40.5367 80.1135 40.3699C80.4711 40.3365 80.7823 40.6129 80.8102 40.9799C80.838 41.3469 80.5686 41.6661 80.2157 41.69C78.3301 41.8424 76.5189 42.6479 75.1256 43.9583C75.0001 44.0776 74.8422 44.1347 74.6844 44.1347Z" fill="#7F4222"/>
<path d="M120.138 39.7172C120.027 39.7172 119.911 39.6887 119.809 39.6267C119.503 39.4408 119.396 39.0357 119.577 38.7213C120.478 37.1486 120.836 35.2138 120.557 33.4124C120.506 33.0502 120.742 32.7119 121.095 32.6547C121.453 32.5975 121.778 32.8453 121.833 33.2074C122.163 35.3377 121.755 37.5346 120.691 39.3932C120.571 39.6029 120.357 39.7172 120.134 39.7172H120.138Z" fill="#7F4222"/>
<path d="M126.867 41.7132C126.779 41.7132 126.695 41.6941 126.612 41.6608C126.283 41.5177 126.134 41.127 126.273 40.7887L128.102 36.3996C128.247 36.0612 128.628 35.9039 128.953 36.0517C129.282 36.1946 129.436 36.5854 129.292 36.9238L127.462 41.3129C127.355 41.5654 127.118 41.7132 126.867 41.7132Z" fill="#7F4222"/>
<path d="M131.391 45.5017C131.274 45.5017 131.154 45.4732 131.047 45.4016C130.746 45.2063 130.653 44.8012 130.843 44.4866C131.744 42.995 133.286 41.899 134.963 41.5558C135.316 41.4844 135.654 41.7179 135.724 42.0753C135.794 42.4327 135.566 42.7854 135.218 42.8569C133.885 43.1333 132.659 44.0006 131.939 45.192C131.818 45.3921 131.609 45.5017 131.391 45.5017Z" fill="#7F4222"/>
<path d="M103.581 82.8773C103.553 82.8773 103.525 82.8773 103.493 82.8725C103.14 82.8248 102.889 82.4913 102.94 82.1243C103.121 80.7471 103.92 79.489 105.081 78.7646C105.388 78.574 105.787 78.6741 105.968 78.9886C106.154 79.3031 106.057 79.713 105.754 79.8988C104.938 80.4087 104.347 81.3285 104.222 82.3006C104.175 82.6342 103.901 82.8773 103.581 82.8773Z" fill="#7F4222"/>
<path d="M109.266 84.5642C108.908 84.5642 108.62 84.264 108.62 83.8971V80.6565C108.62 80.2896 108.908 79.9941 109.266 79.9941C109.624 79.9941 109.911 80.2896 109.911 80.6565V83.8971C109.911 84.264 109.624 84.5642 109.266 84.5642Z" fill="#7F4222"/>
<path d="M52.5597 84.2505C52.23 84.2505 51.942 83.9932 51.9141 83.6452C51.7656 81.8582 52.5644 79.9996 53.9484 78.9083C54.227 78.6843 54.6357 78.7367 54.854 79.0274C55.0723 79.3181 55.0212 79.7375 54.7332 79.9615C53.6929 80.7859 53.0938 82.187 53.2052 83.5308C53.2378 83.8978 52.973 84.2219 52.6155 84.2505C52.5969 84.2505 52.5783 84.2505 52.5597 84.2505Z" fill="#7F4222"/>
<path d="M46.1583 82.0438C46.0654 82.0438 45.9725 82.0247 45.8843 81.9819C45.5638 81.8293 45.4198 81.4338 45.5685 81.1002C46.2883 79.5037 47.5191 78.1741 49.0377 77.3592C49.3489 77.1924 49.7437 77.3163 49.9109 77.6404C50.0734 77.9644 49.9527 78.3647 49.6368 78.5363C48.3736 79.2178 47.3472 80.3282 46.7481 81.6578C46.6366 81.9008 46.4044 82.0438 46.1583 82.0438Z" fill="#7F4222"/>
<path d="M72.2742 69.4158C71.9211 71.67 71.2849 73.8955 70.3978 76.0019C70.2399 76.1163 70.082 76.2258 69.9241 76.3306C62.549 81.2154 52.1365 80.6197 45.3373 74.9296C38.5334 69.2347 35.8676 58.8791 39.035 50.4727C40.1775 47.456 42.0306 44.7778 44.3528 42.5951C45.5231 41.9852 46.7678 41.5086 48.0496 41.2131C55.0717 39.5834 62.7347 42.7858 67.2908 48.5093C71.8515 54.228 73.4352 62.115 72.2742 69.411V69.4158Z" fill="#7F4222"/>
<path d="M58.6384 79.7842C53.827 79.7842 49.0108 78.1782 45.2537 75.0329C38.3755 69.2761 35.7097 58.9252 38.9142 50.4283C40.0242 47.4831 41.8726 44.7429 44.2644 42.4983L44.2923 42.4793C45.4951 41.8502 46.7491 41.3785 48.0217 41.0829C54.8487 39.4961 62.6326 42.4459 67.3929 48.4267C71.7492 53.8928 73.6255 61.7465 72.4041 69.4334C72.0512 71.6875 71.4195 73.9178 70.5185 76.0575L70.5046 76.0909L70.472 76.1099C70.3142 76.2243 70.1563 76.3339 69.9937 76.4388C66.6127 78.6786 62.6279 79.7794 58.6384 79.7794V79.7842ZM44.427 42.708C42.0723 44.9192 40.2517 47.6214 39.1558 50.5235C35.993 58.9205 38.6263 69.1379 45.4162 74.8232C52.2108 80.5086 62.4886 81.0995 69.8544 76.2196C70.003 76.1242 70.1516 76.0194 70.2956 75.9194C71.178 73.8082 71.8003 71.6112 72.1533 69.3952C73.3608 61.7798 71.5031 54.0072 67.1933 48.5935C62.4932 42.6938 54.8115 39.782 48.082 41.3451C46.8373 41.6358 45.6066 42.0933 44.4316 42.708H44.427Z" fill="#7F4222"/>
<path d="M126.282 78.8269C118.986 83.0445 109.178 82.2629 102.671 76.8159C95.8717 71.121 93.2011 60.7654 96.3729 52.3637C97.813 48.5321 100.423 45.2439 103.655 42.8468C106.957 42.1177 110.427 42.213 113.641 43.2519C122.032 45.9635 128.14 54.3747 129.111 63.3531C129.687 68.6572 128.595 74.0327 126.278 78.8222L126.282 78.8269Z" fill="#7F4222"/>
<path d="M115.972 81.6822C111.151 81.6822 106.344 80.0667 102.587 76.9214C95.713 71.1646 93.0432 60.8186 96.2471 52.3168C97.6685 48.552 100.204 45.2446 103.58 42.7427L103.627 42.7237C107.041 41.966 110.514 42.1089 113.682 43.1335C121.833 45.7688 128.232 54.0801 129.24 63.3443C129.803 68.5054 128.817 73.881 126.394 78.8897L126.375 78.9277L126.342 78.9468C123.17 80.7816 119.566 81.6822 115.972 81.6822ZM103.711 42.9714C100.39 45.4401 97.8914 48.7045 96.4932 52.4121C93.3312 60.809 95.9644 71.0264 102.754 76.7117C109.219 82.1254 118.846 82.9547 126.184 78.7276C128.571 73.7761 129.538 68.4673 128.985 63.3681C127.986 54.2039 121.666 45.9833 113.603 43.3766C110.491 42.3758 107.073 42.2329 103.711 42.9714Z" fill="#7F4222"/>
<path d="M135.063 94.7245C135.063 95.1912 135.022 95.6487 134.934 96.1061C134.845 96.5636 134.711 97.0074 134.538 97.4356C134.366 97.8648 134.153 98.2747 133.902 98.6608C133.651 99.0469 133.363 99.4038 133.043 99.7332C132.722 100.062 132.374 100.357 131.998 100.614C131.622 100.871 131.227 101.091 130.809 101.268C130.387 101.449 129.959 101.582 129.513 101.672C129.067 101.763 128.621 101.806 128.166 101.806C127.716 101.806 127.266 101.763 126.824 101.672C126.379 101.582 125.946 101.449 125.529 101.268C125.111 101.091 124.715 100.871 124.335 100.614C123.958 100.357 123.611 100.062 123.295 99.7332C122.974 99.4038 122.686 99.0469 122.435 98.6608C122.185 98.2747 121.971 97.8648 121.799 97.4356C121.623 97.0074 121.493 96.5636 121.405 96.1061C121.316 95.6487 121.274 95.1912 121.274 94.7245C121.274 94.2624 121.316 93.7995 121.405 93.342C121.493 92.8845 121.623 92.4416 121.799 92.0125C121.971 91.5833 122.185 91.1786 122.435 90.7879C122.686 90.4019 122.974 90.0444 123.295 89.7157C123.611 89.3868 123.958 89.0961 124.335 88.834C124.715 88.5767 125.111 88.3575 125.529 88.1811C125.946 88.0048 126.379 87.8666 126.824 87.7761C127.266 87.6855 127.716 87.6426 128.166 87.6426C128.621 87.6426 129.067 87.6855 129.513 87.7761C129.959 87.8666 130.387 88.0048 130.809 88.1811C131.227 88.3575 131.622 88.5767 131.998 88.834C132.374 89.0961 132.722 89.3868 133.043 89.7157C133.363 90.0444 133.651 90.4019 133.902 90.7879C134.153 91.1786 134.366 91.5833 134.538 92.0125C134.711 92.4416 134.845 92.8845 134.934 93.342C135.022 93.7995 135.063 94.2624 135.063 94.7245Z" fill="#F2A9A2"/>
<path d="M48.1744 92.5141C48.1744 92.9761 48.128 93.4382 48.0397 93.8957C47.9515 94.3486 47.8215 94.7924 47.6449 95.2206C47.4731 95.6543 47.2595 96.0596 47.0087 96.4458C46.7579 96.8365 46.4746 97.1942 46.1542 97.5227C45.8337 97.8512 45.4854 98.1422 45.1092 98.4048C44.733 98.6619 44.3336 98.8806 43.9156 99.0572C43.4976 99.2337 43.0657 99.3673 42.6198 99.4579C42.1786 99.5485 41.7281 99.5961 41.2776 99.5961C40.8225 99.5961 40.3767 99.5485 39.9308 99.4579C39.485 99.3673 39.0577 99.2337 38.6397 99.0572C38.2217 98.8806 37.8223 98.6619 37.4461 98.4048C37.07 98.1422 36.7216 97.8512 36.4012 97.5227C36.0807 97.1942 35.7928 96.8365 35.5419 96.4458C35.2912 96.0596 35.0775 95.6543 34.9057 95.2206C34.7339 94.7924 34.6038 94.3486 34.5156 93.8957C34.4273 93.4382 34.3809 92.9761 34.3809 92.5141C34.3809 92.0474 34.4273 91.5844 34.5156 91.1321C34.6038 90.6746 34.7339 90.2314 34.9057 89.8025C35.0775 89.3736 35.2912 88.9637 35.5419 88.5778C35.7928 88.1917 36.0807 87.8343 36.4012 87.5055C36.7216 87.1766 37.07 86.8812 37.4461 86.6238C37.8223 86.3665 38.2217 86.1473 38.6397 85.971C39.0577 85.7899 39.485 85.6565 39.9308 85.5659C40.3767 85.4753 40.8225 85.4277 41.2776 85.4277C41.7281 85.4277 42.1786 85.4753 42.6198 85.5659C43.0657 85.6565 43.4976 85.7899 43.9156 85.971C44.3336 86.1473 44.733 86.3665 45.1092 86.6238C45.4854 86.8812 45.8337 87.1766 46.1542 87.5055C46.4746 87.8343 46.7579 88.1917 47.0087 88.5778C47.2595 88.9637 47.4731 89.3736 47.6449 89.8025C47.8215 90.2314 47.9515 90.6746 48.0397 91.1321C48.128 91.5844 48.1744 92.0474 48.1744 92.5141Z" fill="#F2A9A2"/>
<path d="M122.594 117.481C122.594 117.943 122.511 118.386 122.339 118.81C122.167 119.239 121.921 119.615 121.605 119.939C121.285 120.269 120.922 120.517 120.505 120.692C120.091 120.869 119.659 120.96 119.209 120.96C118.763 120.96 118.331 120.869 117.912 120.692C117.5 120.517 117.132 120.269 116.817 119.939C116.496 119.615 116.255 119.239 116.083 118.81C115.912 118.386 115.823 117.943 115.823 117.481C115.823 117.019 115.912 116.575 116.083 116.151C116.255 115.722 116.496 115.345 116.817 115.021C117.132 114.697 117.5 114.445 117.912 114.268C118.331 114.093 118.763 114.002 119.209 114.002C119.659 114.002 120.091 114.093 120.505 114.268C120.922 114.445 121.285 114.697 121.605 115.021C121.921 115.345 122.167 115.722 122.339 116.151C122.511 116.575 122.594 117.019 122.594 117.481Z" fill="white"/>
<path d="M117.03 124.905C117.03 125.362 116.947 125.81 116.775 126.234C116.603 126.659 116.357 127.035 116.041 127.364C115.72 127.688 115.358 127.941 114.94 128.117C114.527 128.293 114.095 128.379 113.645 128.379C113.199 128.379 112.767 128.293 112.349 128.117C111.936 127.941 111.569 127.688 111.253 127.364C110.933 127.035 110.691 126.659 110.519 126.234C110.347 125.81 110.259 125.362 110.259 124.905C110.259 124.443 110.347 124 110.519 123.571C110.691 123.146 110.933 122.77 111.253 122.446C111.569 122.117 111.936 121.869 112.349 121.687C112.767 121.512 113.199 121.426 113.645 121.426C114.095 121.426 114.527 121.512 114.94 121.687C115.358 121.869 115.72 122.117 116.041 122.446C116.357 122.77 116.603 123.146 116.775 123.571C116.947 124 117.03 124.443 117.03 124.905Z" fill="white"/>
<path d="M108.58 118.51C108.58 118.811 108.523 119.102 108.412 119.378C108.296 119.654 108.138 119.902 107.929 120.112C107.724 120.327 107.483 120.493 107.214 120.608C106.944 120.722 106.662 120.779 106.368 120.779C106.076 120.779 105.793 120.722 105.524 120.608C105.254 120.493 105.013 120.327 104.808 120.112C104.599 119.902 104.441 119.654 104.33 119.378C104.218 119.102 104.162 118.811 104.162 118.51C104.162 118.21 104.218 117.919 104.33 117.643C104.441 117.362 104.599 117.119 104.808 116.905C105.013 116.695 105.254 116.528 105.524 116.413C105.793 116.299 106.076 116.242 106.368 116.242C106.662 116.242 106.944 116.299 107.214 116.413C107.483 116.528 107.724 116.695 107.929 116.905C108.138 117.119 108.296 117.362 108.412 117.643C108.523 117.919 108.58 118.21 108.58 118.51Z" fill="white"/>
<path d="M104.872 128.055C104.872 128.36 104.816 128.646 104.7 128.927C104.589 129.204 104.431 129.447 104.222 129.661C104.017 129.875 103.776 130.037 103.506 130.152C103.237 130.266 102.954 130.328 102.662 130.328C102.368 130.328 102.086 130.266 101.816 130.152C101.547 130.037 101.305 129.875 101.101 129.661C100.892 129.447 100.734 129.204 100.622 128.927C100.511 128.646 100.45 128.36 100.45 128.055C100.45 127.755 100.511 127.469 100.622 127.188C100.734 126.912 100.892 126.664 101.101 126.454C101.305 126.239 101.547 126.077 101.816 125.963C102.086 125.844 102.368 125.787 102.662 125.787C102.954 125.787 103.237 125.844 103.506 125.963C103.776 126.077 104.017 126.239 104.222 126.454C104.431 126.664 104.589 126.912 104.7 127.188C104.816 127.469 104.872 127.755 104.872 128.055Z" fill="white"/>
</svg>
