<svg width="315" height="340" viewBox="0 0 315 340" fill="none" xmlns="http://www.w3.org/2000/svg">
<g clip-path="url(#clip0_174_4758)">
<path d="M231.573 115.995H229.913C229.913 111.08 229.913 108.52 229.983 106.097C229.983 103.676 230.052 101.184 230.052 96.2705C230.052 91.3551 230.052 88.8647 230.052 86.4418C230.052 83.9515 230.052 81.5286 230.052 76.5458C230.052 71.6325 229.913 69.14 229.776 66.7171C229.637 64.2964 229.5 61.7343 229.5 56.821C229.5 51.9078 229.637 49.3457 229.707 46.925C229.846 44.5021 229.913 42.0095 229.913 37.0963C229.913 32.1831 229.846 29.6906 229.776 27.2698C229.707 24.8469 229.637 22.3544 229.637 17.3716H231.297C231.297 22.2848 231.366 24.7773 231.436 27.2002C231.503 29.621 231.573 32.1135 231.573 37.0963C231.573 42.0095 231.436 44.5716 231.366 46.9924C231.227 49.4153 231.159 51.9078 231.159 56.821C231.159 61.7343 231.297 64.2268 231.436 66.6475C231.573 69.0704 231.712 71.6325 231.712 76.5458C231.712 81.459 231.712 83.9515 231.712 86.3722C231.712 88.8647 231.712 91.2876 231.712 96.2705C231.712 101.184 231.712 103.744 231.642 106.167C231.573 108.589 231.573 111.08 231.573 115.995Z" fill="#323332"/>
<path d="M237.104 139.872L228.117 139.596L227.701 105.682L239.661 105.96L237.104 139.872Z" fill="#FFF7D8"/>
<path d="M237.865 140.703L227.356 140.424L226.873 104.853L240.562 105.199L237.865 140.703ZM228.946 138.835L236.345 139.041L238.764 106.791L228.533 106.512L228.946 138.835Z" fill="#323332"/>
<path d="M92.5365 42.0791L83.6191 40.8329L87.0056 7.06006L98.8982 8.72173L92.5365 42.0791Z" fill="#FFF7D8"/>
<mask id="mask0_174_4758" style="mask-type:luminance" maskUnits="userSpaceOnUse" x="82" y="5" width="19" height="39">
<path d="M82.2207 5.6051H100.038V43.4494H82.2207V5.6051Z" fill="white"/>
</mask>
<g mask="url(#mask0_174_4758)">
<path d="M93.1605 42.9796L82.7207 41.5267L86.3159 6.09009L99.8659 8.02798L93.1605 42.9796ZM84.5172 40.1413L91.8468 41.1787L97.9302 9.41343L87.7666 7.96055L84.5172 40.1413Z" fill="#323332"/>
</g>
<path d="M20.8398 35.7805V227.282H160.222V35.7805H20.8398ZM148.053 185.688H33.2154V49.1391H148.053V185.688Z" fill="#CBEBFF"/>
<path d="M160.984 228.112H20.0117V34.9518H160.984V228.112ZM21.6016 226.453H159.325V36.6113H21.6016V226.453ZM148.885 186.449H32.3872V48.3082H148.885V186.449ZM34.0467 184.857H147.295V49.9699H34.0467V184.857Z" fill="#323332"/>
<path d="M155.175 126.446L142.732 317.532L281.767 326.597L294.212 135.511L155.175 126.446ZM272.364 284.311L157.735 276.836L166.653 140.564L281.284 148.039L272.364 284.311Z" fill="#CBEBFF"/>
<mask id="mask1_174_4758" style="mask-type:luminance" maskUnits="userSpaceOnUse" x="141" y="125" width="155" height="203">
<path d="M141.24 125.297H295.471V327.569H141.24V125.297Z" fill="white"/>
</mask>
<g mask="url(#mask1_174_4758)">
<path d="M282.527 327.497L141.764 318.293L154.346 125.545L295.042 134.75L282.527 327.497ZM143.56 316.77L281.007 325.766L293.382 136.272L155.936 127.275L143.56 316.77ZM273.125 285.209L156.904 277.597L165.893 139.733L282.112 147.345L273.125 285.209ZM158.633 276.074L271.605 283.48L280.385 148.87L167.413 141.464L158.633 276.074Z" fill="#323332"/>
</g>
<mask id="mask2_174_4758" style="mask-type:luminance" maskUnits="userSpaceOnUse" x="1" y="16" width="315" height="3">
<path d="M1.82617 16.1666H315.021V18.9506H1.82617V16.1666Z" fill="white"/>
</mask>
<g mask="url(#mask2_174_4758)">
<path d="M158.423 18.6178C153.516 18.6178 151.026 18.5482 148.608 18.4786C146.187 18.409 143.699 18.3416 138.857 18.3416C133.951 18.3416 131.53 18.409 129.109 18.4786C126.69 18.5482 124.2 18.6178 119.291 18.6178C114.382 18.6178 111.964 18.6178 109.476 18.6178C107.055 18.6178 104.567 18.6178 99.6579 18.6178C94.749 18.6178 92.2587 18.5482 89.8401 18.409C87.4194 18.3416 84.9312 18.2024 80.0919 18.2024C75.1831 18.2024 72.7623 18.272 70.3416 18.409C67.923 18.4786 65.4349 18.6178 60.526 18.6178C55.6171 18.6178 53.1268 18.5482 50.7082 18.409C48.2875 18.3416 45.7993 18.2024 40.96 18.2024C36.0511 18.2024 33.5608 18.1328 31.1423 18.1328C28.7215 18.1328 26.2334 18.0632 21.3941 18.0632C16.4852 18.0632 14.0645 18.0632 11.6437 18.0632C9.22517 18.0632 6.73484 18.0632 1.82812 18.0632V16.4037C6.73484 16.4037 9.15557 16.4037 11.5763 16.4037C13.9949 16.4037 16.4852 16.4037 21.3941 16.4037C26.3008 16.4037 28.7911 16.4711 31.2097 16.4711C33.6304 16.4711 36.1186 16.5407 40.96 16.5407C45.8689 16.5407 48.3571 16.6103 50.7756 16.7495C53.1964 16.8191 55.6845 16.9562 60.526 16.9562C65.4349 16.9562 67.8534 16.8866 70.2742 16.7495C72.6927 16.6799 75.1831 16.5407 80.0919 16.5407C85.0008 16.5407 87.489 16.6103 89.9097 16.7495C92.3283 16.8191 94.8164 16.9562 99.6579 16.9562C104.567 16.9562 106.985 16.9562 109.476 16.9562C111.894 16.9562 114.382 16.9562 119.291 16.9562C124.2 16.9562 126.621 16.8866 129.042 16.8191C131.46 16.7495 133.951 16.6799 138.857 16.6799C143.766 16.6799 146.256 16.7495 148.675 16.8191C151.096 16.8866 153.584 16.9562 158.425 16.9562C163.265 16.9562 165.753 16.8191 168.174 16.6103C170.592 16.4711 173.082 16.2645 177.991 16.2645C182.898 16.2645 185.388 16.4037 187.807 16.5407C190.228 16.6799 192.648 16.8191 197.557 16.8191C202.466 16.8191 204.885 16.8191 207.373 16.8191C209.794 16.8191 212.282 16.8191 217.191 16.8191C222.1 16.8191 224.52 16.6799 226.941 16.6103C229.36 16.5407 231.848 16.4037 236.757 16.4037C241.665 16.4037 244.156 16.4037 246.507 16.3341C248.926 16.3341 251.414 16.2645 256.323 16.2645C261.231 16.2645 263.722 16.4037 266.14 16.6103C268.561 16.7495 270.982 16.9562 275.889 16.9562C280.797 16.9562 283.288 16.9562 285.639 16.8866C288.057 16.8866 290.548 16.8191 295.457 16.8191C300.363 16.8191 302.854 16.8191 305.272 16.8866C307.693 16.8866 310.181 16.9562 315.023 16.9562V18.6178C310.114 18.6178 307.623 18.6178 305.205 18.5482C302.784 18.5482 300.296 18.4786 295.457 18.4786C290.548 18.4786 288.057 18.4786 285.706 18.5482C283.288 18.5482 280.797 18.6178 275.889 18.6178C270.982 18.6178 268.491 18.4786 266.073 18.272C263.652 18.1328 261.231 17.9262 256.323 17.9262C251.414 17.9262 248.926 17.9262 246.574 17.9958C244.156 17.9958 241.665 18.0632 236.757 18.0632C231.848 18.0632 229.429 18.2024 227.008 18.272C224.59 18.3416 222.1 18.4786 217.191 18.4786C212.282 18.4786 209.863 18.4786 207.442 18.4786C205.024 18.4786 202.534 18.4786 197.625 18.4786C192.716 18.4786 190.228 18.3416 187.807 18.2024C185.388 18.0632 182.968 17.9262 178.059 17.9262C173.219 17.9262 170.731 18.0632 168.311 18.272C165.892 18.4786 163.402 18.6178 158.423 18.6178Z" fill="#323332"/>
</g>
<path d="M89.0797 41.3875L80.1602 40.4871L81.8893 6.57507L93.7819 7.75173L89.0797 41.3875Z" fill="#FFF7D8"/>
<mask id="mask3_174_4758" style="mask-type:luminance" maskUnits="userSpaceOnUse" x="78" y="5" width="18" height="38">
<path d="M78.8789 5.6051H95.0258V42.3359H78.8789V5.6051Z" fill="white"/>
</mask>
<g mask="url(#mask3_174_4758)">
<path d="M89.8414 42.288L79.332 41.2484L81.0611 5.67468L94.6807 7.06013L89.8414 42.288ZM81.0611 39.7955L88.4582 40.5567L92.882 8.58261L82.651 7.54515L81.0611 39.7955Z" fill="#323332"/>
</g>
<path d="M233.647 139.526L224.658 139.663L222.516 105.751L234.476 105.614L233.647 139.526Z" fill="#FFF7D8"/>
<path d="M223.899 140.494L221.617 104.99L235.306 104.783L234.476 140.357L223.899 140.494ZM223.344 106.582L225.419 138.835L232.816 138.765L233.577 106.443L223.344 106.582Z" fill="#323332"/>
<path d="M275.268 267.492C274.37 271.231 274.922 275.383 275.061 279.189C275.131 281.403 275.2 283.55 275.268 285.764C275.268 286.386 275.477 288.254 275.753 290.401C275.89 291.369 276.79 292.063 277.689 291.854C281.56 291.093 286.262 289.501 289.579 288.187C293.729 286.525 298.016 284.448 301.333 281.403C304.306 278.635 306.45 274.552 305.067 270.4C303.753 266.455 299.606 265.348 296.011 266.661C292.898 267.838 290.893 270.4 289.303 273.236C289.373 270.676 289.166 268.047 287.922 265.763C286.608 263.41 284.048 261.472 281.284 261.541C277.965 261.679 275.96 264.586 275.268 267.492Z" fill="#FFF7D8"/>
<path d="M277.343 292.685C276.858 292.685 276.306 292.546 275.89 292.2C275.338 291.784 274.992 291.162 274.855 290.471C274.576 288.394 274.439 286.456 274.37 285.764C274.3 284.379 274.3 283.065 274.233 281.679L274.163 279.12C274.163 278.289 274.094 277.458 274.024 276.629C273.817 273.515 273.678 270.261 274.37 267.146C275.131 264.032 277.273 260.711 281.145 260.571C284.464 260.434 287.23 262.855 288.544 265.208C289.442 266.87 289.858 268.669 289.995 270.331C291.308 268.532 293.107 266.731 295.665 265.763C297.946 264.932 300.365 265.002 302.301 265.9C303.96 266.731 305.206 268.116 305.828 269.985C307.142 273.93 305.62 278.358 301.818 281.819C298.984 284.448 295.18 286.664 289.858 288.809C286.745 290.055 281.976 291.715 277.828 292.546C277.689 292.685 277.482 292.685 277.343 292.685ZM276.029 267.701C275.338 270.537 275.544 273.652 275.684 276.697C275.753 277.527 275.753 278.358 275.823 279.189L275.89 281.749C275.96 283.135 275.96 284.448 276.029 285.834C276.029 286.386 276.236 288.117 276.514 290.401C276.514 290.608 276.651 290.886 276.858 291.023C277.067 291.162 277.273 291.232 277.482 291.162C281.56 290.331 286.263 288.739 289.236 287.493C294.421 285.418 298.083 283.341 300.711 280.851C304.03 277.806 305.343 273.998 304.239 270.746C303.754 269.293 302.855 268.253 301.611 267.631C300.089 266.87 298.153 266.87 296.287 267.562C293.866 268.462 291.863 270.4 289.995 273.721C289.788 274.067 289.442 274.206 289.097 274.137C288.751 274.067 288.474 273.721 288.474 273.306C288.544 270.331 288.129 268.116 287.161 266.246C286.123 264.308 283.842 262.37 281.214 262.44C278.38 262.509 276.651 265.208 276.029 267.701Z" fill="#323332"/>
<path d="M256.947 295.799C256.323 297.876 256.532 300.16 256.462 302.305C256.462 303.551 256.393 304.727 256.393 305.974C256.393 306.32 256.462 307.357 256.532 308.534C256.532 309.086 257.015 309.501 257.569 309.364C259.712 309.019 262.409 308.325 264.275 307.703C266.626 306.942 269.044 305.904 270.98 304.312C272.709 302.859 274.023 300.643 273.401 298.359C272.779 296.145 270.567 295.384 268.492 296.006C266.763 296.56 265.519 297.944 264.62 299.399C264.76 297.944 264.69 296.56 264.068 295.245C263.446 293.861 262.063 292.754 260.473 292.685C258.674 292.685 257.43 294.207 256.947 295.799Z" fill="#FFF7D8"/>
<path d="M257.431 310.195C257.015 310.195 256.669 310.056 256.324 309.78C255.978 309.502 255.701 309.019 255.701 308.534C255.634 307.357 255.564 306.32 255.564 305.904L255.634 302.235C255.634 301.82 255.634 301.337 255.634 300.852C255.634 299.051 255.634 297.252 256.117 295.523C256.669 293.722 258.053 291.784 260.473 291.854C262.2 291.923 263.929 293.1 264.76 294.829C265.104 295.523 265.243 296.284 265.382 296.976C266.141 296.215 267.042 295.523 268.216 295.177C269.599 294.762 271.05 294.829 272.157 295.523C273.125 296.075 273.817 296.976 274.163 298.083C274.785 300.436 273.817 302.996 271.466 304.864C269.806 306.25 267.594 307.357 264.482 308.394C262.685 309.019 259.988 309.78 257.637 310.126C257.57 310.195 257.5 310.195 257.431 310.195ZM257.776 296.006C257.291 297.528 257.361 299.19 257.361 300.852C257.361 301.337 257.361 301.82 257.361 302.235L257.291 305.904C257.291 306.18 257.291 307.148 257.431 308.394C257.431 308.464 257.431 308.464 257.5 308.464C259.851 308.188 262.409 307.427 264.136 306.872C267.042 305.904 269.045 304.864 270.567 303.62C271.259 303.066 273.401 301.058 272.71 298.498C272.503 297.807 272.088 297.252 271.535 296.906C270.774 296.491 269.806 296.421 268.838 296.7C267.525 297.115 266.487 298.083 265.382 299.745C265.173 300.09 264.76 300.227 264.414 300.09C264.069 299.951 263.86 299.605 263.86 299.26C263.999 297.668 263.86 296.491 263.377 295.523C262.822 294.346 261.648 293.516 260.541 293.446C259.02 293.446 258.122 294.762 257.776 296.006Z" fill="#323332"/>
<path d="M149.643 300.16C149.576 300.16 149.576 300.16 149.643 300.16C149.16 300.16 148.814 299.745 148.814 299.26L151.026 263.825C151.026 263.34 151.442 263.064 151.925 263.064C152.41 263.064 152.686 263.479 152.686 263.962L150.474 299.399C150.404 299.814 150.059 300.16 149.643 300.16Z" fill="#323332"/>
<path d="M285.846 187.765C285.777 187.765 285.777 187.765 285.846 187.765C285.361 187.765 285.016 187.349 285.016 186.864L287.782 146.723C287.782 146.238 288.198 145.962 288.68 145.962C289.165 145.962 289.442 146.377 289.442 146.862L286.675 187.003C286.608 187.486 286.262 187.765 285.846 187.765Z" fill="#323332"/>
<path d="M284.257 209.634C283.772 209.564 283.426 209.218 283.426 208.733L284.394 195.447C284.394 194.962 284.809 194.685 285.294 194.685C285.777 194.685 286.053 195.101 286.053 195.584L285.085 208.873C285.016 209.288 284.672 209.634 284.257 209.634Z" fill="#323332"/>
<path d="M155.659 67.8938C155.174 67.8938 154.83 67.548 154.83 67.063V44.8479C154.83 44.3629 155.174 44.0171 155.659 44.0171C156.142 44.0171 156.487 44.3629 156.487 44.8479V67.063C156.487 67.4784 156.142 67.8938 155.659 67.8938Z" fill="#323332"/>
<path d="M155.452 82.4964C154.967 82.4964 154.621 82.1506 154.621 81.6678V73.3616C154.621 72.8766 154.967 72.5308 155.452 72.5308C155.935 72.5308 156.281 72.8766 156.281 73.3616V81.7352C156.281 82.1506 155.935 82.4964 155.452 82.4964Z" fill="#323332"/>
<path d="M53.6816 218.769H32.3169C31.8341 218.769 31.4883 218.423 31.4883 217.94C31.4883 217.455 31.8341 217.109 32.3169 217.109H53.612C54.0948 217.109 54.4406 217.455 54.4406 217.94C54.4406 218.423 54.0948 218.769 53.6816 218.769Z" fill="#323332"/>
<path d="M73.1782 218.977H60.3873C59.9022 218.977 59.5586 218.632 59.5586 218.147C59.5586 217.662 59.9022 217.316 60.3873 217.316H73.1782C73.661 217.316 74.0069 217.662 74.0069 218.147C74.0069 218.632 73.661 218.977 73.1782 218.977Z" fill="#323332"/>
<path d="M152.065 258.218C151.58 258.218 151.236 257.803 151.236 257.32L152.341 237.317C152.341 236.834 152.757 236.488 153.172 236.556C153.655 236.556 154.001 236.971 153.931 237.386L152.826 257.387C152.826 257.942 152.48 258.218 152.065 258.218Z" fill="#323332"/>
<path d="M35.8433 29.0685C36.7415 32.7355 36.1891 36.7504 36.0521 40.4174C35.9825 42.5641 35.9129 44.7086 35.8433 46.8553C35.8433 47.4774 35.6366 49.2761 35.43 51.3531C35.2908 52.2536 34.46 52.9452 33.4921 52.7386C29.6903 51.9774 25.1272 50.4527 21.8778 49.139C17.8672 47.547 13.65 45.4699 10.4702 42.4945C7.5666 39.7954 5.49168 35.7804 6.80536 31.8372C8.04944 28.031 12.0601 26.9218 15.5857 28.2376C18.6285 29.3447 20.5642 31.9046 22.0845 34.6059C22.017 32.1134 22.2237 29.5535 23.4677 27.3372C24.7118 25.0535 27.2717 23.1852 29.9665 23.2548C33.1463 23.394 35.1516 26.2302 35.8433 29.0685Z" fill="#FFF7D8"/>
<path d="M33.7703 53.5674C33.6311 53.5674 33.4245 53.5674 33.2853 53.4999C29.2073 52.6691 24.5746 51.077 21.5318 49.9004C16.3467 47.8233 12.6123 45.6788 9.84793 43.1167C6.25272 39.7955 4.79985 35.4347 6.0461 31.6285C6.66814 29.8298 7.84262 28.4444 9.43251 27.6831C11.2986 26.7849 13.6498 26.7153 15.8617 27.5461C18.352 28.4444 20.0811 30.2452 21.3252 31.9743C21.4622 30.3823 21.808 28.6532 22.7063 26.9915C23.9526 24.7078 26.6473 22.3545 29.8967 22.4937C33.6311 22.6329 35.7735 25.8844 36.5347 28.8598C37.2263 31.8373 37.0872 35.0193 36.8805 38.0664C36.8109 38.8951 36.8109 39.6563 36.7413 40.4871L36.6739 42.9796C36.6043 44.2933 36.6043 45.6092 36.5347 46.925C36.5347 47.6167 36.3281 49.485 36.0519 51.4924C35.9823 52.1841 35.6365 52.8061 35.084 53.1519C34.7382 53.4303 34.2532 53.5674 33.7703 53.5674ZM12.6819 28.514C11.7836 28.514 10.8854 28.7228 10.1242 29.0686C8.88007 29.6906 7.98181 30.7303 7.5664 32.1135C6.52894 35.2977 7.77302 39.0343 11.0224 41.9422C13.6498 44.3629 17.1754 46.3704 22.2235 48.3779C25.1966 49.5546 29.7597 51.1466 33.7007 51.9079C33.9074 51.9775 34.1162 51.9079 34.3228 51.7687C34.5294 51.6295 34.6686 51.4228 34.6686 51.214C34.8752 49.2762 35.084 47.4079 35.084 46.7858C35.1514 45.47 35.1514 44.1563 35.221 42.8404L35.2906 40.4175C35.2906 39.5889 35.3602 38.8276 35.4298 37.9968C35.5669 35.0889 35.7735 32.0439 35.084 29.2752C34.4598 26.8545 32.8025 24.2228 29.9663 24.0858C27.4086 24.0162 25.2662 25.8844 24.2288 27.7527C23.2609 29.5536 22.8455 31.6981 22.9847 34.606C22.9847 34.9519 22.7759 35.2977 22.4301 35.3673C22.0843 35.4347 21.671 35.2977 21.5318 34.9519C19.7353 31.6981 17.7996 29.8298 15.4485 28.9294C14.4806 28.7228 13.5802 28.514 12.6819 28.514Z" fill="#323332"/>
</g>
<defs>
<clipPath id="clip0_174_4758">
<rect width="315" height="340" fill="white"/>
</clipPath>
</defs>
</svg>
