<svg width="140" height="280" viewBox="0 0 140 280" fill="none" xmlns="http://www.w3.org/2000/svg">
<mask id="mask0_725_594" style="mask-type:luminance" maskUnits="userSpaceOnUse" x="22" y="0" width="15" height="280">
<path d="M22.9531 0.958984H36.2865V279.464H22.9531V0.958984Z" fill="white"/>
</mask>
<g mask="url(#mask0_725_594)">
<path d="M24.3441 155.786C23.8649 193.697 25.2191 228.807 24.7347 266.713C24.6983 269.671 24.7087 272.802 26.2295 275.343C27.7504 277.885 31.3806 279.406 33.792 277.677C35.8545 276.192 36.0472 273.255 36.0472 270.718C36.0368 185.208 36.0264 99.6974 36.0108 14.1869C36.0108 11.3171 35.9847 8.33801 34.7035 5.7651C33.4222 3.19739 30.4847 1.2078 27.7139 1.99426C23.8597 3.0776 23.0785 8.09843 23.0472 12.0932C22.6566 59.5619 24.2087 157.63 24.3493 155.791L24.3441 155.786Z" fill="#CA9C74"/>
</g>
<mask id="mask1_725_594" style="mask-type:luminance" maskUnits="userSpaceOnUse" x="21" y="0" width="17" height="280">
<path d="M21.6191 0H37.6191V279.464H21.6191V0Z" fill="white"/>
</mask>
<g mask="url(#mask1_725_594)">
<path d="M31.41 279.432C31.009 279.432 30.6027 279.391 30.1913 279.307C28.2433 278.906 26.3892 277.584 25.3579 275.87C23.6392 273.005 23.6861 269.511 23.7225 266.703C23.9621 247.761 23.7433 229.209 23.5246 211.266C23.311 193.313 23.0923 174.745 23.3319 155.781C23.3006 155.495 23.2902 155.151 23.2798 154.75C23.259 154.026 23.2329 152.964 23.2069 151.594C23.1496 148.854 23.0767 144.891 22.9986 139.99C22.8892 133.516 22.686 119.922 22.4673 101.599C22.2121 79.5418 21.811 38.5783 22.0298 12.0887C22.0819 5.73454 23.8996 2.01058 27.4361 1.01579C30.8736 0.047033 34.2121 2.50537 35.6131 5.31787C37.0246 8.1512 37.0246 11.3595 37.0298 14.1877L37.0663 270.719C37.0663 273.761 36.7381 276.807 34.384 278.5C33.5298 279.115 32.5038 279.432 31.41 279.432ZM25.3423 155.578C25.3579 155.651 25.3631 155.724 25.3631 155.802C25.1236 174.74 25.3423 193.292 25.5558 211.24C25.7746 229.193 25.9933 247.755 25.7538 266.724C25.7173 269.412 25.6808 272.453 27.1027 274.823C27.8371 276.052 29.2173 277.031 30.6027 277.313C31.2954 277.453 32.3058 277.49 33.1965 276.849C34.8111 275.688 35.0298 273.214 35.0298 270.714L34.9933 14.1825C34.9933 11.5731 34.9933 8.61995 33.7902 6.2137C32.7433 4.10954 30.2798 2.31787 27.9881 2.9637C24.8006 3.85954 24.0975 8.42724 24.0611 12.0991C23.6861 58.0366 25.1131 151.344 25.3423 155.578Z" fill="#7F4222"/>
</g>
<path d="M138.722 70.135C138.743 70.9319 138.67 71.7079 138.519 72.4579C137.691 76.5829 134.504 80.0413 131.103 82.9736C130.457 83.5309 129.811 84.0673 129.17 84.5829C124.681 88.2027 120.139 91.7548 115.551 95.2444C111.014 98.6923 106.431 102.078 101.801 105.401C92.0037 112.421 82.0037 119.156 71.811 125.588H71.8058C66.9985 128.625 62.1444 131.599 57.2537 134.489C47.8579 140.067 38.311 145.385 28.6287 150.448C25.8475 151.901 22.3215 153.302 19.7642 151.479C17.5506 149.901 17.4517 146.76 17.3215 144.052C17.1704 140.859 17.0037 137.406 16.8215 133.739C16.6652 130.63 16.5037 127.375 16.3319 124.005C16.1027 119.416 15.8631 114.619 15.6287 109.698C15.4725 106.468 15.3162 103.187 15.1704 99.8798C14.9569 95.2027 14.7537 90.4736 14.561 85.76C14.436 82.4684 14.3162 79.1819 14.2017 75.9371C14.0194 70.6871 13.8735 65.5204 13.7642 60.5517C13.6912 57.0465 13.6392 53.6402 13.6079 50.3642C13.5715 46.3486 13.5767 42.5257 13.6235 38.9632C13.6756 35.4371 13.7746 32.1663 13.9256 29.2184C14.3631 20.4267 15.2798 14.4579 16.884 13.01C19.1704 10.9475 23.5975 11.6507 27.2225 13.0673C41.259 18.5517 55.2173 24.2496 69.0819 30.1663C75.8527 33.0517 82.6027 35.9944 89.3319 38.9892C98.1392 42.9007 106.905 46.9007 115.629 50.9944C118.582 52.3694 121.525 53.7652 124.467 55.1663C127.769 56.7392 131.306 58.6767 134.03 61.135C136.728 63.5725 138.634 66.5204 138.722 70.135Z" fill="#C6DCE7"/>
<path d="M89.3333 38.9896C85.7865 39.0781 82.2344 39.3384 78.7188 39.5416C70.3646 40.0155 62.0052 40.0468 53.6406 39.8905C40.3021 39.6509 26.9635 39.2969 13.625 38.9635C13.6771 35.4375 13.776 32.1667 13.9271 29.2188C17.7708 29.3124 21.6146 29.401 25.4583 29.4948C38.9792 29.8177 52.5104 30.3646 66.0313 30.2292C67.0521 30.2187 68.0625 30.1979 69.0833 30.1667C75.8542 33.0521 82.6042 35.9948 89.3333 38.9896Z" fill="white"/>
<path d="M134.031 61.1361C129.375 60.8809 124.708 60.7402 120.036 60.7142C109.969 60.6621 99.8958 61.1361 89.8854 62.1361C79.7604 63.1517 69.7708 65.2975 59.6458 66.1934C44.1458 67.5684 28.6979 64.7611 13.7656 60.5527C13.6927 57.0475 13.6406 53.6413 13.6094 50.3652C20.8229 52.485 28.1198 54.3027 35.5469 55.4954C44.8438 56.9902 54.3646 57.2454 63.7031 56.0059C73.8958 54.6569 83.9792 52.8704 94.2344 51.9954C101.354 51.3913 108.49 51.0579 115.63 50.9954C118.583 52.3704 121.526 53.7663 124.469 55.1673C127.771 56.7402 131.307 58.6777 134.031 61.1361Z" fill="white"/>
<path d="M138.521 72.4587C137.693 76.5837 134.505 80.0421 131.104 82.9744C129.984 83.1567 128.859 83.3442 127.724 83.5265C122.427 84.3754 117.339 84.6671 112 84.0212C107.646 83.4848 103.328 82.6306 98.9427 82.3129C94.2552 81.9796 89.5521 82.1358 84.8698 82.4379C75.6615 83.0265 66.5729 83.7817 57.3385 83.4848C48.3438 83.1983 39.2656 82.5681 30.3333 83.9535C25.9115 84.641 21.4948 85.5265 17.0156 85.7348C16.1927 85.7712 15.3802 85.7817 14.5625 85.7608C14.4375 82.4692 14.3177 79.1827 14.2031 75.9379C16.1198 76.016 18.0573 75.9692 20.026 75.7504C24.8385 75.2244 29.5729 74.1462 34.3958 73.7087C43.6146 72.8806 52.8646 73.7452 62.0938 73.8598C71.1563 73.9744 80.1354 72.8181 89.1771 72.4692C93.7344 72.2921 98.276 72.3962 102.813 72.9692C107.146 73.5056 111.464 74.3858 115.833 74.6462C123.495 75.1046 130.927 72.516 138.521 72.4587Z" fill="white"/>
<path d="M115.552 95.2461C111.016 98.694 106.432 102.079 101.802 105.402C98.6771 105.496 95.5521 105.59 92.4271 105.678C77.4115 106.132 62.3854 106.454 47.375 107.043C40.0417 107.335 32.9688 108.954 25.6823 109.652C22.3333 109.965 18.974 109.939 15.6302 109.699C15.474 106.47 15.3177 103.189 15.1719 99.8815C19.8021 100.23 24.4375 100.194 29.0885 99.4701C36.5469 98.3086 43.8281 97.4024 51.3802 97.1732C58.724 96.9545 66.0625 96.7305 73.401 96.5117C87.4531 96.0899 101.5 95.668 115.552 95.2461Z" fill="white"/>
<path d="M71.806 125.589C66.9987 128.625 62.1445 131.599 57.2539 134.49C53.681 134.323 50.0977 134.177 46.5195 134.057C36.6185 133.74 26.7227 133.63 16.8216 133.74C16.6654 130.63 16.5039 127.375 16.332 124.005C26.1289 123.891 35.9206 123.99 45.7174 124.292C52.2747 124.5 58.832 124.797 65.3789 125.188C67.5039 125.318 69.6549 125.479 71.806 125.589Z" fill="white"/>
<mask id="mask2_725_594" style="mask-type:luminance" maskUnits="userSpaceOnUse" x="12" y="10" width="128" height="145">
<path d="M12.2852 10.293H139.733V154.293H12.2852V10.293Z" fill="white"/>
</mask>
<g mask="url(#mask2_725_594)">
<path d="M22.619 153.355C21.4159 153.355 20.2336 153.063 19.1763 152.308C16.6086 150.485 16.4471 147.053 16.3169 144.292L16.3065 144.105C16.1554 140.912 15.9888 137.459 15.8065 133.792C15.6554 130.688 15.4888 127.433 15.3169 124.058L15.2023 121.725C15.0096 117.85 14.8117 113.845 14.6138 109.746C14.4627 106.522 14.3065 103.235 14.1554 99.9227C13.9419 95.2143 13.7388 90.4591 13.5513 85.8029C13.4211 82.506 13.3013 79.2195 13.1867 75.9747C13.0096 70.6831 12.8638 65.5008 12.7544 60.5737C12.6763 56.9851 12.6242 53.5529 12.5981 50.3758C12.5617 46.3029 12.5669 42.4591 12.6138 38.9539C12.6606 35.3549 12.7648 32.0633 12.9106 29.1674C13.5669 16.0945 15.1034 13.2612 16.2075 12.2612C19.4054 9.37056 25.2336 11.2039 27.5981 12.1258C41.6659 17.6206 55.7596 23.3758 69.4836 29.2404C76.0773 32.0476 82.895 35.0164 89.7492 38.0633C98.52 41.9591 107.374 46.0008 116.062 50.0737C119.192 51.532 122.291 53.0008 124.911 54.2508C127.65 55.5581 131.65 57.6154 134.718 60.3862C137.963 63.3133 139.655 66.5893 139.739 70.1101C139.76 70.9591 139.687 71.8133 139.515 72.657C138.572 77.3706 134.879 81.0581 131.765 83.7456C131.145 84.2768 130.51 84.8081 129.806 85.3758C125.416 88.9174 120.822 92.5112 116.166 96.0529C111.614 99.5112 106.978 102.938 102.39 106.225C92.619 113.23 82.5148 120.032 72.3534 126.443C72.3377 126.459 72.3169 126.47 72.2961 126.475C67.4471 129.542 62.5617 132.527 57.7752 135.365C48.4523 140.897 38.8065 146.272 29.1034 151.345C27.2752 152.298 24.9002 153.35 22.619 153.35V153.355ZM20.9575 12.7351C19.5877 12.7351 18.3846 13.0268 17.5721 13.7612C16.8429 14.4174 15.5409 17.3029 14.9419 29.2664C14.7961 32.1362 14.6919 35.4018 14.645 38.9747C14.5929 42.4643 14.5929 46.2924 14.6294 50.3497C14.6554 53.5216 14.7075 56.9435 14.7804 60.5268C14.8898 65.4487 15.0409 70.6154 15.2179 75.9018C15.3325 79.1466 15.4523 82.4279 15.5773 85.7195C15.7648 90.3758 15.9679 95.1258 16.1867 99.8341C16.3377 103.141 16.494 106.423 16.645 109.647C16.8429 113.74 17.0409 117.746 17.2336 121.621L17.3481 123.954C17.52 127.324 17.6815 130.579 17.8377 133.688C18.02 137.355 18.1867 140.808 18.3377 144.001L18.3481 144.193C18.4679 146.751 18.5929 149.397 20.3586 150.652C22.4888 152.173 25.645 150.855 28.1554 149.548C37.8325 144.49 47.4471 139.131 56.7336 133.621C61.5252 130.787 66.4106 127.798 71.2596 124.73C71.2804 124.72 71.2961 124.709 71.3169 124.699C81.4315 118.318 91.4836 111.548 101.208 104.574C105.78 101.298 110.4 97.8862 114.931 94.4383C119.572 90.907 124.15 87.3289 128.525 83.7924C129.213 83.2456 129.833 82.7247 130.431 82.2091C133.077 79.9279 136.687 76.4174 137.52 72.2612C137.655 71.5633 137.723 70.8549 137.702 70.157C137.629 67.1726 136.208 64.4695 133.343 61.8862C130.478 59.2976 126.65 57.3341 124.025 56.0789C121.411 54.8341 118.317 53.3654 115.192 51.9122C106.515 47.8393 97.6763 43.8081 88.9159 39.9122C82.0669 36.8706 75.2596 33.907 68.6763 31.0997C54.9679 25.2508 40.895 19.5008 26.8429 14.0164C24.9784 13.2872 22.8169 12.7351 20.9471 12.7351H20.9575Z" fill="#7F4222"/>
</g>
<path d="M34.948 160.261C36.4897 162.177 38.0157 164.141 39.047 166.375C40.0834 168.604 40.5991 171.151 40.0313 173.547C39.4688 175.938 37.6772 178.115 35.2918 178.724C33.0678 179.292 30.6303 178.432 28.9636 176.854C27.297 175.281 26.3282 173.089 25.8491 170.844C25.3803 168.604 25.3647 166.297 25.3491 164.005C25.0053 167.255 24.0209 170.511 22.2657 173.292C21.3334 174.771 20.0938 176.182 18.4168 176.693C15.9688 177.443 13.2084 175.922 12.0366 173.656C10.8647 171.386 11.0626 168.599 12.0053 166.224C12.9376 163.849 14.5418 161.797 16.1563 159.818C14.8699 161.677 13.3022 163.13 11.4584 163.943C9.61468 164.755 7.5053 164.932 5.53655 164.505C4.11468 164.198 2.6876 163.526 1.89072 162.302C1.27093 161.354 1.09385 160.172 1.20843 159.047C1.48447 156.349 3.34906 153.99 5.66676 152.573C7.98968 151.156 10.7241 150.568 13.422 150.281C8.95843 150.224 4.74489 148.042 2.41155 144.542C1.65114 143.406 1.07822 142.12 0.968846 140.761C0.859472 139.401 1.2553 137.969 2.22405 136.995C3.53655 135.677 5.60947 135.448 7.45322 135.698C11.4897 136.24 15.2084 138.755 17.198 142.302C14.9428 138.901 12.7918 135.203 12.573 131.13C12.4949 129.583 12.7188 127.958 13.5886 126.677C15.1043 124.448 18.3334 123.802 20.8438 124.792C23.3543 125.781 25.1563 128.099 26.1095 130.615C27.0678 133.136 27.2813 135.865 27.4168 138.557C27.1459 135.99 27.1459 133.485 27.797 131.11C28.448 128.735 29.7918 126.495 31.8334 125.115C33.8699 123.729 36.6407 123.318 38.8595 124.386C41.047 125.443 42.4428 127.797 42.7084 130.208C42.9793 132.615 42.2397 135.063 41.0313 137.167C39.8282 139.271 38.1824 141.094 36.6303 143.136C39.6355 139.787 43.8907 137.578 48.3595 137.047C50.2032 136.828 52.1668 136.901 53.7657 137.839C55.9324 139.104 57.0105 141.833 56.6459 144.313C56.2813 146.792 54.6303 148.964 52.5261 150.328C50.4168 151.693 47.8959 152.307 45.3907 152.474C42.8907 152.641 40.3751 152.386 38.2866 152.292C42.1355 152.115 46.0886 152.203 49.7084 153.521C53.3282 154.833 56.6147 157.563 57.7501 161.24C58.1824 162.641 58.2761 164.208 57.672 165.547C56.7918 167.485 54.6355 168.547 52.5313 168.891C49.1511 169.443 45.6407 168.511 42.672 166.802C39.7084 165.094 37.2293 162.651 34.9584 160.271L34.948 160.261Z" fill="#FCDBA2"/>
<mask id="mask3_725_594" style="mask-type:luminance" maskUnits="userSpaceOnUse" x="0" y="122" width="59" height="59">
<path d="M0 122.293H58.9531V180.96H0V122.293Z" fill="white"/>
</mask>
<g mask="url(#mask3_725_594)">
<path d="M33.8594 179.71C31.9323 179.71 29.9479 178.908 28.401 177.444C26.776 175.913 25.6146 173.689 25.0521 171.012C24.9687 170.626 24.901 170.236 24.8437 169.84C24.3333 171.231 23.7031 172.538 22.9531 173.725C21.6771 175.751 20.2708 176.975 18.651 177.47C15.9531 178.293 12.7344 176.783 11.3073 174.028C10.1302 171.746 10.1094 168.798 11.2396 165.929C11.4114 165.501 11.5989 165.085 11.8021 164.679C11.7917 164.679 11.7864 164.684 11.7812 164.684C9.81249 165.548 7.53124 165.772 5.35936 165.298C4.03645 165.012 2.23957 164.335 1.19791 162.746C0.53124 161.725 0.24999 160.382 0.395823 158.965C0.677074 156.21 2.48436 153.559 5.23436 151.882C6.29686 151.231 7.48957 150.715 8.84895 150.314C5.92707 149.33 3.37499 147.465 1.72395 144.991C0.791656 143.585 0.260406 142.184 0.151032 140.824C0.0156139 139.142 0.567698 137.496 1.63541 136.423C2.94791 135.1 5.05207 134.559 7.55728 134.897C9.57812 135.168 11.5312 135.908 13.25 137.012C12.4271 135.147 11.8594 133.205 11.7552 131.173C11.651 129.173 12.0364 127.507 12.9114 126.22C14.5677 123.772 18.1042 122.835 21.1354 124.033C23.6354 125.022 25.7239 127.314 26.8698 130.324C26.9271 130.481 26.9844 130.632 27.0364 130.788C27.8021 128.069 29.3385 125.814 31.3698 124.434C33.7552 122.814 36.8281 122.507 39.2083 123.647C41.5469 124.772 43.1927 127.246 43.5104 130.111C43.8437 133.111 42.7239 135.819 41.7344 137.564C41.5417 137.897 41.3437 138.225 41.1302 138.543C43.3333 137.33 45.7656 136.533 48.2552 136.236C50.7031 135.944 52.6354 136.236 54.1667 137.137C56.526 138.517 57.875 141.517 57.4427 144.423C57.0677 146.97 55.3906 149.434 52.9583 151.007C51.9271 151.679 50.7656 152.199 49.4792 152.585C49.6458 152.642 49.8125 152.699 49.9792 152.762C54.2031 154.298 57.401 157.382 58.5156 161.007C58.901 162.262 59.1979 164.132 58.401 165.887C57.5104 167.856 55.4114 169.246 52.651 169.694C49.3281 170.236 45.6406 169.46 42.25 167.512C41.3385 166.986 40.4739 166.397 39.651 165.762C39.6927 165.856 39.7396 165.949 39.7812 166.043C40.6458 167.903 41.5312 170.751 40.8229 173.741C40.1458 176.6 38.0521 178.861 35.4844 179.522C34.9583 179.653 34.4062 179.725 33.8594 179.725V179.71ZM25.3437 163.194C25.3437 163.194 25.3698 163.194 25.3854 163.194C25.8125 163.215 26.151 163.564 26.1562 163.996C26.1667 166.21 26.1823 168.507 26.6458 170.673C26.9896 172.314 27.7708 174.616 29.5208 176.262C31.0885 177.741 33.2708 178.397 35.0885 177.934C37.0417 177.434 38.7083 175.595 39.2448 173.356C39.8437 170.819 39.0677 168.345 38.3125 166.71C37.3281 164.59 35.8594 162.689 34.3125 160.767C34.0417 160.429 34.0885 159.939 34.4114 159.647C34.7448 159.361 35.2396 159.387 35.5417 159.699C37.6406 161.908 40.1302 164.397 43.0729 166.095C46.1354 167.856 49.4427 168.564 52.3958 168.085C54.5729 167.725 56.2656 166.653 56.9219 165.21C57.3802 164.199 57.3958 162.871 56.9635 161.47C55.9948 158.33 53.1771 155.637 49.4219 154.278C48.0781 153.793 46.6875 153.481 45.2864 153.288C43.3906 153.403 41.5104 153.288 39.8385 153.189C39.2865 153.158 38.75 153.121 38.2396 153.1C37.8073 153.08 37.4635 152.72 37.4635 152.288C37.4635 151.85 37.8073 151.496 38.2396 151.475C40.4531 151.371 42.8906 151.335 45.3489 151.658C48.026 151.475 50.2917 150.798 52.0781 149.642C54.125 148.314 55.526 146.278 55.8385 144.184C56.1771 141.908 55.151 139.585 53.3542 138.528C52.1354 137.819 50.5364 137.59 48.4583 137.84C44.1927 138.35 40.0989 140.47 37.2344 143.663C36.9427 143.986 36.4531 144.022 36.1146 143.746C35.776 143.47 35.7187 142.975 35.9844 142.632C36.4375 142.038 36.8958 141.46 37.3489 140.892C38.4531 139.507 39.5052 138.194 40.3281 136.751C41.2031 135.215 42.1875 132.85 41.9062 130.283C41.651 128.007 40.3229 125.975 38.5104 125.1C36.6458 124.205 34.2083 124.47 32.2969 125.767C30.5573 126.949 29.2448 128.918 28.5833 131.314C28.2031 132.71 28.0312 134.236 28.0677 136.007C28.1458 136.845 28.1927 137.679 28.2344 138.501C28.2552 138.939 27.9271 139.314 27.4844 139.345C27.0469 139.382 26.6614 139.059 26.6146 138.626C26.5208 137.736 26.4635 136.897 26.4427 136.1C26.2812 134.324 25.9844 132.543 25.3594 130.887C24.3802 128.304 22.625 126.35 20.5469 125.533C18.2448 124.621 15.4896 125.319 14.2708 127.116C13.5989 128.1 13.3073 129.439 13.3906 131.074C13.5729 134.512 15.2292 137.689 16.9948 140.481C17.3281 140.929 17.6354 141.403 17.9062 141.887C18.125 142.272 17.9948 142.746 17.6198 142.975C17.2448 143.205 16.7552 143.095 16.5156 142.731C16.2292 142.298 15.9427 141.861 15.6614 141.418C13.6927 138.772 10.625 136.923 7.34374 136.491C6.19791 136.335 4.07812 136.272 2.79686 137.559C2.05728 138.298 1.68228 139.465 1.77603 140.684C1.86978 141.767 2.30728 142.908 3.08332 144.08C5.2552 147.345 9.21874 149.403 13.4323 149.46C13.8646 149.46 14.2135 149.804 14.2344 150.231C14.2552 150.663 13.9375 151.033 13.5052 151.08C10.3229 151.413 7.96353 152.106 6.08853 153.257C3.76562 154.673 2.24478 156.866 2.01561 159.116C1.90624 160.173 2.09895 161.137 2.56249 161.85C3.33853 163.038 4.86457 163.522 5.70311 163.705C7.54686 164.1 9.47395 163.918 11.125 163.194C12.25 162.699 13.2969 161.923 14.2604 160.876C14.6667 160.345 15.0937 159.824 15.526 159.298C15.8021 158.96 16.2917 158.897 16.6406 159.158C16.9948 159.423 17.0677 159.908 16.8229 160.272C16.4062 160.871 15.9687 161.418 15.5104 161.918C14.3906 163.382 13.4062 164.871 12.7552 166.507C11.7969 168.944 11.7969 171.408 12.7552 173.272C13.8125 175.314 16.2448 176.496 18.1771 175.908C19.401 175.533 20.5156 174.533 21.5729 172.85C23.1562 170.34 24.1823 167.246 24.5312 163.913C24.5781 163.501 24.9271 163.189 25.3437 163.189V163.194Z" fill="#7F4222"/>
</g>
<path d="M29.9947 139.103C26.3124 138.01 22.1457 138.77 19.0311 141.01C15.9165 143.249 13.8853 146.895 13.5155 150.707C13.1145 154.9 14.8592 159.4 18.3905 161.723C20.1457 162.885 22.2395 163.468 24.3436 163.635C28.0624 163.921 32.0259 162.806 34.5467 160.067C36.7863 157.64 37.677 154.223 37.8124 150.921C37.9217 148.353 37.3592 146.098 36.1197 143.848C34.8749 141.603 32.7395 139.916 29.9895 139.103H29.9947Z" fill="white"/>
<path d="M25.5049 164.485C25.0986 164.485 24.6872 164.469 24.2757 164.438C21.8695 164.25 19.6715 163.542 17.9372 162.402C14.3018 160.006 12.2497 155.381 12.7028 150.631C13.0934 146.542 15.2809 142.698 18.5518 140.349C21.8851 137.954 26.359 137.178 30.2184 138.323C33.1299 139.188 35.4736 141.011 36.8278 143.464C38.1663 145.891 38.734 148.266 38.6195 150.954C38.4997 153.766 37.8018 157.73 35.1403 160.62C32.8643 163.084 29.3278 164.49 25.4997 164.49L25.5049 164.485ZM26.557 139.422C24.0674 139.422 21.5518 140.204 19.5049 141.667C16.6143 143.745 14.6768 147.157 14.333 150.782C13.9372 154.886 15.7497 159.011 18.8382 161.047C20.3434 162.042 22.2757 162.657 24.4059 162.823C28.2028 163.12 31.7653 161.886 33.9528 159.516C36.2861 156.99 36.9007 153.433 37.0049 150.886C37.1038 148.506 36.5986 146.396 35.4111 144.24C34.2653 142.172 32.2653 140.62 29.7601 139.881C28.7288 139.568 27.6455 139.422 26.557 139.422Z" fill="#7F4222"/>
<path d="M101.417 38.1473C102.958 40.064 104.484 42.0275 105.516 44.2619C106.552 46.491 107.068 49.0379 106.5 51.4337C105.937 53.8244 104.146 56.0015 101.76 56.6108C99.5364 57.1785 97.1041 56.3192 95.4322 54.7462C93.7656 53.1681 92.7968 50.9754 92.3229 48.7358C91.8489 46.491 91.8333 44.1837 91.8176 41.8921C91.4739 45.1421 90.4895 48.4025 88.7343 51.1785C87.802 52.6577 86.5624 54.0692 84.8854 54.5796C82.4374 55.3296 79.677 53.8087 78.5051 51.5431C77.3333 49.2723 77.5312 46.491 78.4739 44.1108C79.4114 41.7358 81.0104 39.689 82.6301 37.7046C81.3385 39.564 79.7708 41.0171 77.927 41.8296C76.0833 42.6421 73.9791 42.8192 72.0051 42.3921C70.5833 42.0848 69.1562 41.4129 68.3593 40.189C67.7395 39.2462 67.5624 38.0587 67.677 36.9337C67.9531 34.2358 69.8176 31.8765 72.1354 30.4598C74.4583 29.0431 77.1926 28.4546 79.8958 28.1681C75.427 28.1108 71.2135 25.9337 68.8801 22.4285C68.1197 21.2931 67.5468 20.0067 67.4374 18.6473C67.3281 17.2879 67.7291 15.8556 68.6926 14.8817C70.0051 13.564 72.0781 13.34 73.9218 13.5848C77.9583 14.1265 81.677 16.6473 83.6666 20.189C81.4114 16.7879 79.2604 13.09 79.0416 9.01706C78.9635 7.47018 79.1874 5.84518 80.0624 4.56393C81.5729 2.33476 84.802 1.68893 87.3124 2.67851C89.8229 3.6681 91.6249 5.98581 92.5833 8.50143C93.5364 11.0223 93.7551 13.7515 93.8854 16.4442C93.6145 13.8765 93.6145 11.3712 94.2656 9.00143C94.9166 6.62643 96.2656 4.38684 98.302 3.00143C100.338 1.61602 103.109 1.20456 105.328 2.27226C107.521 3.32956 108.911 5.68372 109.177 8.09518C109.448 10.5067 108.708 12.9494 107.5 15.0535C106.297 17.1629 104.651 18.9806 103.099 21.0275C106.104 17.6785 110.359 15.4702 114.833 14.9337C116.672 14.715 118.635 14.7931 120.234 15.7306C122.401 16.9962 123.479 19.7202 123.115 22.1994C122.75 24.6733 121.099 26.8556 118.995 28.215C116.891 29.5796 114.365 30.1994 111.859 30.366C109.354 30.5327 106.844 30.2723 104.755 30.1837C108.604 30.0015 112.557 30.09 116.177 31.4077C119.797 32.7202 123.083 35.4494 124.219 39.1265C124.651 40.5327 124.745 42.0952 124.141 43.439C123.26 45.3712 121.104 46.4337 119 46.7775C115.62 47.3296 112.109 46.3973 109.141 44.689C106.177 42.9806 103.698 40.5379 101.427 38.1577L101.417 38.1473Z" fill="#FCDBA2"/>
<mask id="mask4_725_594" style="mask-type:luminance" maskUnits="userSpaceOnUse" x="65" y="0" width="61" height="59">
<path d="M65.6191 0H125.619V58.2917H65.6191V0Z" fill="white"/>
</mask>
<g mask="url(#mask4_725_594)">
<path d="M100.333 57.5944C98.4062 57.5944 96.4219 56.7871 94.8698 55.3288C93.25 53.7923 92.0885 51.5684 91.5208 48.8965C91.4427 48.5059 91.3698 48.1152 91.3177 47.7246C90.8073 49.1152 90.1771 50.4173 89.4271 51.6048C88.151 53.6309 86.7396 54.8548 85.125 55.3548C82.4271 56.1777 79.2031 54.6621 77.7812 51.9069C76.6042 49.6309 76.5833 46.6777 77.7135 43.808C77.8854 43.3809 78.0677 42.9642 78.276 42.5579C78.2656 42.5579 78.2552 42.5684 78.25 42.5684C76.2864 43.433 74 43.6517 71.8281 43.1829C70.5052 42.8913 68.7135 42.2194 67.6719 40.6257C67 39.61 66.7187 38.2663 66.8646 36.8444C67.1458 34.0892 68.9531 31.4434 71.7083 29.7611C72.7656 29.1152 73.9583 28.5996 75.3177 28.1934C72.3958 27.2142 69.8489 25.3444 68.1927 22.8704C67.2604 21.4642 66.7292 20.0684 66.6198 18.709C66.4844 17.0215 67.0364 15.3809 68.1042 14.3079C69.4219 12.985 71.5208 12.4382 74.026 12.7767C76.0469 13.0475 77.9948 13.7923 79.7187 14.8965C78.8958 13.0267 78.3281 11.084 78.2239 9.05272C78.1198 7.05272 78.5052 5.38605 79.3802 4.0996C81.0364 1.65689 84.5781 0.719383 87.6094 1.9173C90.1042 2.90168 92.1979 5.19335 93.3385 8.20897C93.3958 8.36001 93.4531 8.51626 93.5052 8.6673C94.276 5.94855 95.8073 3.69855 97.8385 2.31835C100.224 0.693341 103.297 0.386049 105.677 1.53189C108.01 2.65689 109.661 5.13084 109.979 7.99022C110.312 10.9902 109.193 13.6986 108.203 15.4434C108.01 15.7819 107.812 16.1048 107.599 16.4277C109.807 15.2142 112.234 14.4121 114.724 14.1152C117.172 13.8236 119.104 14.1152 120.635 15.0163C123 16.3965 124.344 19.3965 123.911 22.3079C123.536 24.8496 121.859 27.3132 119.427 28.8913C118.401 29.5579 117.234 30.084 115.948 30.4694C116.115 30.5267 116.281 30.584 116.448 30.6413C120.672 32.1829 123.87 35.2611 124.984 38.8861C125.37 40.1465 125.667 42.0111 124.87 43.7715C123.979 45.735 121.88 47.1257 119.12 47.5736C115.797 48.1205 112.109 47.3392 108.719 45.3913C107.807 44.8705 106.943 44.2767 106.12 43.6413C106.161 43.735 106.208 43.8288 106.255 43.9225C107.115 45.7871 108 48.6361 107.292 51.6205C106.615 54.4746 104.521 56.7455 101.958 57.4017C101.432 57.5371 100.88 57.6048 100.333 57.6048V57.5944ZM91.8177 41.0788C91.8177 41.0788 91.8437 41.0788 91.8542 41.0788C92.2864 41.0996 92.625 41.4538 92.6302 41.8861C92.6406 44.0996 92.6562 46.3913 93.1198 48.5632C93.4635 50.2038 94.2448 52.5007 95.9896 54.1517C97.5573 55.6309 99.7448 56.2871 101.557 55.8236C103.51 55.3236 105.177 53.485 105.708 51.2455C106.312 48.709 105.531 46.235 104.776 44.5996C103.792 42.4798 102.323 40.5788 100.781 38.6569C100.505 38.3184 100.552 37.8288 100.88 37.5371C101.208 37.2507 101.703 37.2767 102.005 37.5892C104.104 39.7975 106.594 42.2871 109.536 43.985C112.599 45.7455 115.911 46.4538 118.859 45.9746C121.042 45.6152 122.734 44.5423 123.391 43.0996C123.844 42.0892 123.859 40.7611 123.427 39.36C122.458 36.2194 119.641 33.5267 115.891 32.1673C114.542 31.6829 113.151 31.3705 111.75 31.1777C109.859 31.2923 107.974 31.1777 106.307 31.0788C105.75 31.0475 105.214 31.0111 104.708 30.9902C104.271 30.9694 103.927 30.61 103.927 30.1777C103.927 29.7402 104.271 29.3861 104.708 29.3652C106.917 29.2611 109.354 29.2246 111.812 29.5475C114.495 29.3652 116.755 28.6882 118.542 27.5319C120.589 26.209 121.995 24.1673 122.307 22.0736C122.646 19.7975 121.62 17.4746 119.818 16.4173C118.604 15.709 117 15.4798 114.922 15.7298C110.661 16.2402 106.568 18.36 103.703 21.5527C103.406 21.8757 102.917 21.9121 102.578 21.6361C102.24 21.36 102.182 20.8652 102.448 20.5215C102.901 19.9277 103.359 19.3496 103.812 18.7871C104.922 17.4017 105.969 16.0892 106.792 14.6413C107.667 13.11 108.656 10.7402 108.37 8.17251C108.115 5.90168 106.786 3.87043 104.974 2.99543C103.109 2.0996 100.672 2.36001 98.7604 3.6621C97.026 4.84439 95.7083 6.81314 95.0573 9.20376C94.6719 10.5996 94.5 12.1309 94.5364 13.9017C94.6146 14.7402 94.6667 15.5736 94.7031 16.3913C94.7239 16.834 94.3958 17.209 93.9583 17.2402C93.526 17.2767 93.1302 16.959 93.0833 16.5215C92.9896 15.6309 92.9323 14.7923 92.9167 13.9954C92.75 12.2142 92.4531 10.4329 91.8281 8.78189C90.8489 6.19855 89.0937 4.24543 87.0208 3.42772C84.7135 2.51626 81.9583 3.21418 80.7396 5.01105C80.0677 5.99543 79.776 7.32356 79.8594 8.96418C80.0417 12.4017 81.6979 15.584 83.4635 18.3757C83.8021 18.8236 84.1042 19.2975 84.3802 19.7819C84.5989 20.1621 84.4687 20.6413 84.0937 20.8704C83.7187 21.0996 83.2292 20.985 82.9896 20.6257C82.7031 20.1934 82.4167 19.7559 82.1354 19.3079C80.1667 16.6621 77.0989 14.8184 73.8229 14.3809C72.6771 14.2246 70.5521 14.1621 69.2708 15.4486C68.5364 16.1882 68.1562 17.3548 68.2552 18.5736C68.3437 19.6569 68.7864 20.8027 69.5677 21.9694C71.7396 25.235 75.7031 27.2923 79.9114 27.3496C80.3437 27.3496 80.6927 27.6934 80.7135 28.1204C80.7344 28.5527 80.4167 28.9225 79.9844 28.9694C76.8073 29.3027 74.4427 29.9954 72.5677 31.1465C70.25 32.5632 68.7292 34.7559 68.4948 37.0059C68.3854 38.058 68.5833 39.0267 69.0469 39.7402C69.8229 40.9277 71.3489 41.4121 72.1875 41.5944C74.026 41.9902 75.9531 41.8079 77.6042 41.084C78.7292 40.5892 79.7812 39.8132 80.7448 38.7663C81.151 38.235 81.5729 37.7142 82.0052 37.1882C82.2812 36.8496 82.776 36.7871 83.125 37.0475C83.4739 37.3132 83.5521 37.7975 83.3021 38.1621C82.8906 38.7611 82.4479 39.3079 81.9948 39.8079C80.875 41.2663 79.8854 42.7559 79.2396 44.3965C78.276 46.834 78.276 49.2975 79.2396 51.1621C80.2917 53.2038 82.7239 54.3861 84.6562 53.7975C85.8854 53.4225 87 52.4225 88.0573 50.7402C89.6406 48.2298 90.6667 45.1361 91.0156 41.8027C91.0573 41.3913 91.4114 41.0788 91.8229 41.0788H91.8177Z" fill="#7F4222"/>
</g>
<path d="M96.4634 16.9838C92.7811 15.8953 88.6197 16.6505 85.4999 18.8901C82.3853 21.1349 80.354 24.7755 79.9842 28.588C79.5832 32.7859 81.328 37.2807 84.8592 39.6088C86.6145 40.7703 88.7134 41.3484 90.8124 41.5151C94.5311 41.8015 98.4947 40.6922 101.015 37.9526C103.26 35.5203 104.146 32.1088 104.281 28.8015C104.39 26.239 103.828 23.9838 102.588 21.7338C101.344 19.4838 99.2082 17.8015 96.4582 16.9838H96.4634Z" fill="white"/>
<path d="M91.9787 42.3698C91.5725 42.3698 91.161 42.3541 90.7496 42.3229C88.3381 42.1354 86.1506 41.4323 84.411 40.2864C80.7756 37.8906 78.7183 33.2708 79.1766 28.5104C79.5673 24.4271 81.7548 20.5833 85.0256 18.2291C88.3589 15.8385 92.8329 15.0625 96.6923 16.2083C99.6037 17.0677 101.947 18.8906 103.296 21.3437C104.635 23.7708 105.208 26.151 105.093 28.8385C104.974 31.651 104.276 35.6094 101.614 38.5C99.3381 40.9687 95.8016 42.3698 91.9735 42.3698H91.9787ZM93.0256 17.3073C90.536 17.3073 88.0204 18.0885 85.9787 19.5521C83.0829 21.6302 81.1454 25.0416 80.8016 28.6719C80.4058 32.7708 82.2183 36.8958 85.3068 38.9323C86.8173 39.9271 88.7443 40.5416 90.8746 40.7083C94.6714 41.0052 98.2391 39.7708 100.421 37.4062C102.755 34.8802 103.369 31.3177 103.474 28.7708C103.572 26.3906 103.067 24.2812 101.88 22.125C100.734 20.0573 98.7339 18.5052 96.2287 17.7656C95.1975 17.4583 94.1141 17.3073 93.0256 17.3073Z" fill="#7F4222"/>
</svg>
