<svg width="467" height="612" viewBox="0 0 467 612" fill="none" xmlns="http://www.w3.org/2000/svg">
<path d="M458.751 471.522C446.184 440.22 421.536 412.262 394.023 386.703C351.817 347.27 302.505 312.08 247.73 282.082C221.413 267.826 192.719 253.374 180.86 231.16C174.938 220.225 176.828 204.494 192.246 200.976C199.837 199.119 208.373 201.161 215.476 203.94C229.949 209.304 242.281 217.458 256.266 223.374C270.488 229.303 287.797 232.821 302.978 228.565C325.262 222.083 332.617 200.411 324.553 183.941C316.492 167.459 297.528 155.233 279.26 144.126C261.007 133.008 241.557 121.347 231.84 105.235C222.122 89.122 226.39 67.4618 247.258 58.7538C260.77 53.1946 277.842 54.3134 291.829 59.123C305.828 63.9441 317.436 71.7178 328.585 79.4915L311.751 54.6825C295.387 35.7902 274.047 18.5703 246.549 8.75513C219.272 -1.61371 185.128 -3.47064 158.102 7.08273C131.076 17.6476 113.768 41.7185 122.304 63.1943C128.226 78.0151 144.826 92.6399 136.526 106.711C129.408 118.568 107.831 121.716 90.0505 120.413C72.2694 119.121 53.765 115.05 36.6931 118.937C5.3993 126.157 -4.55445 155.603 1.84016 178.751C10.8487 211.16 40.7246 238.566 74.6325 260.79C108.54 283.004 147.188 300.788 181.569 322.634C203.396 336.521 224.485 354.305 223.776 375.411C223.067 397.454 197.696 415.228 170.433 425.226C143.157 435.227 112.808 440.036 86.2549 450.969C59.7017 461.891 36.4567 481.706 40.0158 503.749C68.0015 482.076 118.272 484.855 153.125 500.414C187.978 515.962 211.932 541.152 238.485 563.746C265.038 586.329 298.002 607.816 338.541 611.519C383.126 615.405 427.694 595.222 449.034 566.7C470.612 537.819 471.321 502.815 458.751 471.522Z" fill="#09B4FD"/>
<path d="M74.6325 260.79C108.54 282.819 147.188 300.79 181.569 322.634C203.396 336.52 224.485 354.305 223.776 375.413C223.067 397.454 197.696 415.227 170.433 425.226C143.157 435.226 112.808 440.036 86.2549 450.969C60.1744 461.707 37.4168 481.155 39.7796 502.631C54.016 478.006 82.9323 458.374 116.131 450.415C136.29 445.594 157.393 445.781 177.788 450.037C201.255 455.041 222.831 464.302 245.352 471.338C256.266 474.857 267.416 477.82 279.26 479.297C291.12 480.785 307.245 482.076 317.672 476.334C327.876 470.784 327.168 458.928 324.792 450.601C322.177 441.154 316.727 432.263 311.751 423.554C290.882 388.191 261.007 356.336 227.572 327.64C193.664 298.564 155.961 272.451 117.549 247.273C99.768 235.6 81.0419 224.495 66.569 210.227C53.765 197.643 44.2837 181.531 48.7882 165.233C51.1658 156.895 55.4337 150.044 65.3877 145.603C73.9237 141.901 83.8921 141.163 93.3731 141.532C113.768 142.454 133.203 149.305 153.834 147.46C170.433 145.972 193.9 138.567 190.341 122.27C188.215 112.271 178.497 105.05 172.088 96.527C166.402 88.938 162.37 80.0453 162.606 71.1643C163.079 40.4155 204.578 23.7493 239.667 25.4217C261.007 26.3442 280.929 34.6833 297.528 44.8675C302.978 48.0162 307.954 51.5339 312.931 55.2363L312.46 54.4982C296.096 35.6059 274.756 18.386 247.258 8.57085C219.272 -1.61343 185.128 -3.47036 158.102 7.08301C131.076 17.6479 113.768 41.7187 122.304 63.1947C128.226 78.0155 144.826 92.6401 136.526 106.711C129.408 118.568 107.831 121.717 90.0505 120.413C72.2694 119.122 53.765 115.05 36.6931 118.937C5.3993 126.157 -4.55445 155.603 1.84016 178.751C10.8487 211.161 40.7246 238.749 74.6325 260.79Z" fill="#AEF0FF"/>
<path d="M458.748 471.524C446.181 440.222 421.533 412.265 394.02 386.705C351.814 347.272 302.502 312.082 247.727 282.082C221.41 267.828 192.716 253.376 180.857 231.163C174.935 220.228 176.825 204.496 192.243 200.978C199.834 199.121 208.37 201.163 215.473 203.942C229.946 209.305 242.277 217.46 256.263 223.377C270.485 229.305 287.794 232.824 302.975 228.567C325.259 222.086 332.614 200.413 324.55 183.943C316.486 167.461 297.525 155.235 279.257 144.128C260.767 132.825 241.554 121.349 231.836 105.236C222.119 89.1238 226.387 67.4636 247.254 58.7556C260.767 53.1962 277.839 54.3149 291.826 59.1245C305.825 63.9457 317.433 71.7194 328.582 79.4931L318.142 64.3148C304.393 52.4581 284.485 44.8689 264.09 44.3152C252.704 44.1308 241.318 45.9761 231.836 50.6128C223.064 54.8688 215.946 60.9816 210.733 68.0172C200.306 81.9037 196.747 99.6771 204.102 115.052C205.756 118.754 208.134 122.272 211.205 125.42C215.237 129.676 220.465 132.825 225.678 135.974C235.159 141.718 247.491 147.646 252.231 156.527C255.554 162.64 256.027 170.979 250.577 176.526C247.963 179.306 244.168 180.794 239.9 181.163C233.269 181.901 227.568 180.229 221.646 178.568C207.661 174.496 192.243 168.937 177.061 171.532C163.785 173.747 154.067 183.377 149.799 193.193C144.822 204.68 148.145 217.079 153.595 228.197C158.335 237.458 164.493 246.155 171.612 254.494C184.179 269.303 199.125 282.822 215.237 295.232C247.727 320.422 284.249 342.081 318.392 365.783C351.105 388.563 382.411 414.12 401.375 445.413C410.857 461.34 417.265 478.376 416.792 495.965C416.307 512.999 409.201 530.416 392.602 541.891C373.876 554.855 348.74 556.896 325.024 552.262C299.417 547.266 277.13 535.779 256.972 522.816C236.104 509.299 216.67 494.304 193.188 483.555C172.321 474.119 148.854 469.115 124.664 470.97C98.5831 472.817 72.9753 481.894 53.7617 495.779C82.4563 483.369 123.482 487.269 153.122 500.416C187.975 515.964 211.929 541.154 238.482 563.748C265.035 586.331 297.999 607.818 338.538 611.521C383.12 615.407 427.691 595.225 449.031 566.7C470.609 537.821 471.318 502.815 458.748 471.524Z" fill="#1B83FC"/>
</svg>
