<svg width="426" height="527" viewBox="0 0 426 527" fill="none" xmlns="http://www.w3.org/2000/svg">
<path d="M414.365 306.862C388.631 273.346 332.852 289.771 310.574 253.325C298.689 233.753 301.928 207.654 302.578 184.036C303.229 160.406 297.821 131.613 278.579 123.294C266.477 118.119 253.279 122.842 240.527 125.311C227.774 128.017 212.636 127.115 205.062 115.187C198.15 104.173 201.172 88.8749 200.956 75.1432C200.522 41.4011 177.173 11.2552 149.067 2.03338C120.96 -7.18841 79.0181 16.6553 59.5583 39.3833C39.2315 63.0016 14.5816 102.369 3.33462 133.417L0.528559 139.494C-4.6615 149.618 29.7184 119.697 44.6383 110.464C59.5583 101.242 76.8508 95.1652 93.5047 99.6752C109.93 104.173 124.2 122.617 121.611 141.737C117.288 170.981 80.7406 182.232 77.0676 211.251C74.0449 235.095 96.3106 254.002 117.071 256.695C137.82 259.4 159.013 252.197 179.99 254.002C200.956 255.567 224.088 271.541 223.871 295.837C223.654 310.46 215.009 325.08 219.333 338.812C224.521 355 242.898 357.256 256.963 363.334C282.252 374.358 298.472 404.504 303.446 435.089C308.202 464.786 304.313 495.382 300.206 525.302C299.99 526.43 301.277 527.33 302.145 526.881C351.66 500.332 392.738 453.093 415.447 395.947C426.684 367.381 432.523 330.481 414.365 306.862Z" fill="#1B83FC"/>
<path d="M414.365 306.862C388.632 273.346 332.855 289.771 310.577 253.325C298.691 233.753 301.93 207.654 302.581 184.036C303.231 160.406 297.824 131.613 278.58 123.294C266.477 118.119 253.28 122.842 240.527 125.311C227.776 128.017 212.639 127.115 205.065 115.187C198.152 104.173 201.175 88.8749 200.958 75.1432C200.525 41.4011 177.175 11.2552 149.069 2.03338C120.963 -7.18841 79.2371 16.6553 59.7773 39.3833C39.4507 63.0016 14.8007 102.369 3.55367 133.417L0.530895 139.494C-1.20292 142.865 1.61454 141.737 6.58786 138.366C8.52699 134.984 10.2608 131.613 12.2 128.243C20.6409 112.944 29.5039 97.6458 40.5343 84.3767C51.3363 71.0959 64.7508 60.0702 79.4425 52.2013C93.7237 44.5581 109.716 40.048 125.72 41.6265C139.339 42.9796 152.525 49.0561 163.122 58.0526C173.502 67.0489 181.498 79.4277 183.449 93.5985C186.038 110.915 178.042 127.341 178.475 144.443C178.692 157.938 185.388 168.512 196.418 175.253C205.931 180.879 216.745 183.811 227.126 186.956C247.235 192.807 271.657 200.225 275.774 224.971C278.58 241.621 272.307 258.723 275.774 275.365C277.931 285.487 283.77 294.495 290.899 301.464C306.471 316.31 327.014 324.192 345.607 334.314C361.827 343.085 379.554 354.563 384.742 374.133C389.065 390.547 383.01 407.425 376.098 422.046C368.305 438.473 359.659 454.447 350.364 469.747C340.2 486.612 329.169 502.811 317.066 518.111C359.659 490.659 394.689 447.47 415.016 396.173C426.684 367.381 432.525 330.481 414.365 306.862Z" fill="#AEF0FF"/>
<path d="M299.992 525.303C299.776 526.431 301.063 527.333 301.931 526.882C303.448 525.98 305.17 525.077 306.687 524.189C320.308 506.633 332.855 487.289 339.116 465.689C345.824 442.746 346.258 416.197 336.094 394.382C330.686 382.681 322.04 373.008 311.661 365.802C300.847 358.159 288.744 352.984 277.281 346.684C272.307 343.988 267.551 340.155 263.011 336.334C258.471 332.512 254.147 328.24 250.691 323.29C247.235 318.566 244.636 313.391 243.335 307.767C241.828 301.239 241.828 294.498 242.478 287.97C243.985 273.798 247.019 259.403 240.096 246.12C234.471 235.321 223.874 227.678 212.856 223.856C198.803 218.907 183.666 219.358 168.963 220.248C161.606 220.699 154.476 221.376 147.119 220.925C141.929 220.699 136.75 219.809 132.632 216.201C125.503 210.124 123.769 199.787 124.636 190.553C125.72 179.088 131.127 169.416 136.75 159.956C143.446 148.491 151.659 136.113 151.876 121.942C152.092 109.8 146.047 98.3235 137.172 90.4429C127.876 82.123 115.99 77.625 103.876 77.625C89.823 77.625 76.2035 82.7996 64.1009 89.7782C41.8237 102.822 24.531 122.844 4.85449 139.721C13.9342 133.869 34.0443 116.993 44.6411 110.69C59.561 101.694 76.8535 95.3919 93.5074 99.8902C109.933 104.4 124.203 122.844 121.613 141.964C117.29 170.982 80.7433 182.233 77.0703 211.252C74.0476 235.096 96.3135 254.003 117.074 256.696C137.822 259.403 159.016 252.198 179.993 254.003C200.959 255.568 224.09 271.544 223.874 295.838C223.657 310.461 215.012 325.083 219.336 338.815C224.524 355.003 242.901 357.257 256.966 363.334C282.255 374.361 298.475 404.507 303.448 435.092C308.205 464.786 304.316 495.383 299.992 525.303Z" fill="#09B4FD"/>
</svg>
