<svg width="498" height="531" viewBox="0 0 498 531" fill="none" xmlns="http://www.w3.org/2000/svg">
<path d="M227.275 396.737C228.548 381.967 240.838 366.91 259.545 366.729C274.12 366.576 292.39 377.035 295.042 396.283C299.235 426.583 292.306 451.953 281.212 469.052C263.176 496.813 212.682 475.354 229.867 436.267C223.306 414.503 227.275 396.737 227.275 396.737Z" fill="white"/>
<path d="M219.248 385.794C229.889 358.842 259.652 374.346 258.284 402.486C256.607 435.938 220.911 436.336 218.694 412.209C216.863 392.133 219.248 385.794 219.248 385.794Z" fill="white"/>
<path d="M224.342 110.61C181.045 126.953 152.164 127.921 133.489 134.752C114.822 141.613 89.9728 166.169 86.6933 179.031C83.4221 191.916 190.232 178.626 207.915 158.733C225.569 138.847 224.342 110.61 224.342 110.61Z" fill="#4797BF"/>
<path d="M389.694 137.33C404.647 163.118 409.265 246.998 408.932 264.591C408.626 282.178 388.929 307.255 375.93 311.849C352.657 320.061 158.509 141.856 164.362 135.642C170.217 129.425 184.041 96.2067 192.271 92.1358C217.198 79.8056 285.153 76.5305 298.116 88.9396C305.538 96.0248 321.576 116.612 332.59 121.076C344.626 125.967 381.839 123.741 389.694 137.33Z" fill="#4797BF"/>
<path d="M275.218 134.356C283.977 164.76 345.513 150.72 359.239 165.556C372.966 180.395 386.27 290.729 381.252 307.956C376.232 325.183 133.894 350.063 113.101 333.443C89.1541 314.307 82.6208 200.73 84.6704 184.679C87.3087 164.152 113.275 165.971 147.233 157.172C181.185 148.346 178.282 143.051 188.479 133.459C198.229 124.315 270.693 118.638 275.218 134.356Z" fill="#B6D9EF"/>
<path d="M91.5974 274.164C93.8117 278.863 96.5437 283.184 99.8987 286.809C107.653 295.209 121.619 289.406 122.353 278.438C123.05 268.171 121.434 257.544 123.699 247.437C125.728 238.311 130.812 229.755 136.158 222.21C147.492 206.273 165.968 192.45 185.305 188.36C191.838 186.968 195.761 177.26 190.109 172.457C181.114 164.835 168.488 163.785 159.937 155.945C159.346 155.386 158.715 154.779 158.096 154.112C180.674 147.015 179.52 141.895 188.478 133.459C198.201 124.321 270.664 118.645 275.19 134.363C276.962 140.526 280.933 144.818 286.197 147.945C286.653 152.793 286.196 157.703 284.545 162.456C282.216 169.161 280.304 176.292 282.214 183.436C284.383 191.446 290.39 199.294 294.122 206.684C302.703 223.664 308.639 241.723 308.323 261.02C308.169 270.87 302.516 282.222 313.4 288.886C333.103 300.925 349.981 262.892 347.339 248.823C344.357 232.777 330.477 223.793 322.206 210.91C316.779 202.435 309.48 187.503 316.092 178.043C322.653 168.623 336.324 162.802 349.454 160.405C353.639 161.612 357.049 163.225 359.215 165.593C372.944 180.429 386.248 290.763 381.23 307.989C376.211 325.219 133.873 350.099 113.079 333.477C103.134 325.494 96.1653 301.076 91.5974 274.164Z" fill="#4797BF" fill-opacity="0.42"/>
<path d="M159.34 279.738C176.892 319.025 192.49 354.741 231.475 343.535C262.95 334.5 280.473 308.913 287.256 296.69C299.767 274.083 305.207 246.28 293.402 219.85C275.853 180.562 231.638 162.113 194.607 178.656C191.513 180.038 168.629 189.056 149.018 217.763C128.607 247.635 143.27 243.727 159.34 279.738Z" fill="#4797BF"/>
<path d="M174.038 198.844C172.94 199.335 171.856 199.853 170.788 200.399C169.716 200.946 168.663 201.52 167.621 202.123C166.58 202.726 165.556 203.353 164.547 204.011C163.538 204.666 162.547 205.348 161.572 206.055C160.598 206.762 159.644 207.496 158.704 208.254C157.767 209.013 156.85 209.795 155.95 210.601C155.053 211.41 154.176 212.24 153.318 213.094C152.46 213.948 151.624 214.823 150.809 215.724C149.995 216.622 149.204 217.54 148.435 218.482C147.666 219.424 146.918 220.384 146.198 221.365C145.475 222.348 144.777 223.347 144.105 224.367C143.431 225.386 142.781 226.423 142.16 227.476C141.538 228.532 140.938 229.603 140.368 230.69C139.798 231.777 139.252 232.881 138.734 233.999C138.217 235.116 137.725 236.248 137.262 237.393C136.8 238.537 136.363 239.696 135.955 240.866C135.546 242.035 135.169 243.217 134.817 244.41C134.465 245.601 134.144 246.804 133.851 248.015C133.555 249.227 133.291 250.446 133.056 251.672C132.821 252.901 132.612 254.135 132.437 255.374C132.258 256.615 132.113 257.861 131.994 259.111C131.876 260.365 131.788 261.617 131.729 262.877C131.672 264.136 131.643 265.394 131.644 266.657C131.645 267.92 131.677 269.182 131.738 270.445C131.799 271.711 131.888 272.974 132.008 274.235C132.129 275.496 132.28 276.755 132.459 278.012C132.638 279.27 132.845 280.523 133.085 281.771C133.322 283.019 133.589 284.263 133.883 285.501C134.181 286.738 134.505 287.969 134.859 289.194C135.213 290.418 135.594 291.633 136.004 292.841C136.414 294.05 136.853 295.246 137.318 296.433C137.783 297.62 138.278 298.797 138.797 299.96C139.317 301.126 139.863 302.278 140.437 303.417C141.011 304.556 141.61 305.681 142.234 306.791C142.859 307.904 143.509 309.001 144.185 310.079C144.86 311.161 145.559 312.222 146.285 313.269C147.009 314.317 147.757 315.345 148.527 316.356C149.299 317.366 150.093 318.358 150.907 319.33C151.722 320.303 152.561 321.255 153.42 322.186C154.28 323.116 155.16 324.028 156.058 324.916C156.96 325.805 157.878 326.671 158.82 327.514C159.759 328.358 160.715 329.178 161.692 329.973C162.665 330.769 163.659 331.54 164.67 332.288C165.678 333.036 166.706 333.756 167.748 334.454C168.79 335.148 169.846 335.82 170.915 336.462C171.988 337.107 173.071 337.724 174.171 338.311C175.268 338.902 176.379 339.463 177.5 339.997C178.621 340.531 179.753 341.036 180.898 341.513C182.041 341.991 183.193 342.437 184.354 342.856C185.517 343.275 186.688 343.666 187.866 344.024C189.041 344.386 190.227 344.716 191.417 345.017C192.609 345.315 193.804 345.587 195.005 345.825C196.207 346.064 197.41 346.274 198.62 346.453C199.828 346.63 201.037 346.779 202.25 346.895C203.463 347.011 204.675 347.099 205.89 347.152C207.104 347.208 208.315 347.231 209.528 347.224C210.742 347.218 211.951 347.181 213.16 347.11C214.368 347.042 215.571 346.941 216.773 346.811C217.971 346.68 219.168 346.517 220.359 346.325C221.549 346.133 222.732 345.911 223.908 345.656C225.087 345.404 226.256 345.12 227.418 344.806C228.578 344.492 229.73 344.149 230.873 343.774C232.016 343.402 233.146 342.998 234.269 342.565C235.389 342.132 236.498 341.671 237.593 341.181C238.692 340.69 239.776 340.172 240.844 339.626C241.915 339.079 242.969 338.505 244.01 337.902C245.052 337.302 246.076 336.672 247.085 336.017C248.094 335.362 249.086 334.68 250.06 333.97C251.034 333.263 251.988 332.53 252.928 331.771C253.865 331.013 254.782 330.23 255.682 329.424C256.579 328.618 257.459 327.784 258.314 326.931C259.172 326.077 260.008 325.203 260.824 324.304C261.637 323.406 262.428 322.485 263.197 321.543C263.967 320.604 264.714 319.642 265.434 318.66C266.157 317.68 266.855 316.678 267.53 315.661C268.201 314.642 268.851 313.605 269.474 312.548C270.098 311.495 270.694 310.424 271.264 309.335C271.834 308.248 272.381 307.146 272.898 306.029C273.416 304.911 273.907 303.78 274.369 302.632C274.832 301.488 275.269 300.329 275.677 299.16C276.086 297.99 276.463 296.808 276.815 295.618C277.167 294.424 277.488 293.224 277.782 292.013C278.078 290.801 278.341 289.582 278.576 288.353C278.812 287.127 279.02 285.893 279.195 284.652C279.373 283.41 279.519 282.165 279.638 280.914C279.757 279.663 279.843 278.408 279.903 277.149C279.961 275.892 279.989 274.631 279.988 273.368C279.987 272.105 279.955 270.843 279.894 269.58C279.833 268.317 279.744 267.054 279.623 265.79C279.503 264.529 279.355 263.269 279.173 262.014C278.994 260.758 278.787 259.502 278.547 258.255C278.31 257.006 278.043 255.762 277.748 254.524C277.451 253.287 277.127 252.056 276.773 250.832C276.419 249.607 276.038 248.392 275.628 247.184C275.218 245.978 274.779 244.779 274.314 243.592C273.848 242.405 273.355 241.23 272.835 240.065C272.315 238.902 271.769 237.747 271.195 236.608C270.621 235.469 270.022 234.344 269.398 233.234C268.773 232.123 268.124 231.027 267.446 229.946C266.772 228.867 266.073 227.803 265.349 226.755C264.623 225.708 263.878 224.68 263.105 223.669C262.336 222.658 261.542 221.667 260.724 220.695C259.91 219.723 259.071 218.77 258.211 217.839C257.352 216.909 256.471 215.997 255.574 215.11C254.672 214.22 253.754 213.354 252.815 212.511C251.876 211.669 250.916 210.847 249.943 210.052C248.966 209.256 247.973 208.485 246.962 207.738C245.954 206.99 244.926 206.269 243.884 205.574C242.842 204.877 241.787 204.208 240.717 203.563C239.644 202.921 238.561 202.304 237.464 201.714C236.364 201.124 235.256 200.564 234.132 200.028C233.011 199.494 231.879 198.989 230.736 198.511C229.591 198.034 228.438 197.588 227.278 197.169C226.115 196.75 224.944 196.359 223.769 196C222.591 195.639 221.405 195.309 220.216 195.01C219.023 194.71 217.828 194.438 216.627 194.2C215.425 193.961 214.222 193.752 213.015 193.574C211.804 193.395 210.595 193.246 209.382 193.13C208.169 193.014 206.958 192.929 205.744 192.873C204.528 192.817 203.317 192.795 202.103 192.801C200.89 192.808 199.682 192.847 198.474 192.915C197.264 192.984 196.061 193.085 194.86 193.217C193.661 193.345 192.463 193.508 191.273 193.7C190.083 193.892 188.9 194.117 187.724 194.369C186.545 194.624 185.375 194.905 184.216 195.219C183.054 195.533 181.902 195.879 180.759 196.251C179.617 196.626 178.486 197.027 177.363 197.461C176.242 197.893 175.134 198.355 174.038 198.844Z" fill="#4797BF"/>
<path d="M176.59 207.279C175.615 207.713 174.652 208.175 173.704 208.659C172.752 209.144 171.815 209.654 170.892 210.189C169.969 210.722 169.057 211.283 168.162 211.864C167.267 212.447 166.386 213.052 165.522 213.68C164.658 214.31 163.807 214.959 162.976 215.633C162.143 216.308 161.328 217.001 160.53 217.718C159.732 218.436 158.952 219.172 158.192 219.929C157.429 220.687 156.687 221.466 155.965 222.263C155.243 223.063 154.539 223.878 153.856 224.714C153.174 225.548 152.51 226.403 151.87 227.275C151.23 228.144 150.608 229.032 150.01 229.937C149.412 230.842 148.838 231.762 148.284 232.699C147.731 233.637 147.2 234.587 146.694 235.553C146.186 236.517 145.702 237.496 145.244 238.488C144.784 239.482 144.349 240.486 143.936 241.502C143.524 242.519 143.14 243.548 142.775 244.588C142.414 245.626 142.077 246.674 141.765 247.732C141.454 248.791 141.167 249.858 140.905 250.934C140.646 252.009 140.411 253.092 140.201 254.181C139.991 255.271 139.807 256.365 139.651 257.468C139.495 258.57 139.363 259.676 139.26 260.786C139.154 261.897 139.075 263.01 139.025 264.128C138.972 265.244 138.946 266.365 138.948 267.485C138.95 268.605 138.976 269.728 139.029 270.848C139.083 271.97 139.165 273.092 139.27 274.211C139.378 275.332 139.511 276.451 139.671 277.566C139.829 278.681 140.015 279.793 140.225 280.902C140.436 282.011 140.674 283.117 140.936 284.214C141.198 285.314 141.488 286.407 141.802 287.493C142.116 288.581 142.456 289.66 142.818 290.731C143.182 291.802 143.57 292.867 143.985 293.92C144.399 294.974 144.837 296.019 145.299 297.053C145.76 298.087 146.244 299.11 146.754 300.121C147.262 301.133 147.794 302.131 148.35 303.117C148.903 304.104 149.482 305.077 150.082 306.036C150.68 306.996 151.303 307.938 151.945 308.868C152.588 309.797 153.252 310.71 153.936 311.607C154.622 312.504 155.324 313.385 156.051 314.247C156.775 315.112 157.517 315.955 158.282 316.783C159.043 317.61 159.826 318.419 160.624 319.207C161.422 319.995 162.238 320.765 163.073 321.513C163.907 322.261 164.757 322.991 165.625 323.698C166.489 324.405 167.371 325.088 168.269 325.75C169.164 326.416 170.076 327.055 171 327.674C171.926 328.29 172.862 328.887 173.815 329.456C174.766 330.029 175.728 330.577 176.704 331.099C177.678 331.624 178.662 332.121 179.658 332.595C180.655 333.069 181.66 333.518 182.676 333.942C183.691 334.364 184.713 334.763 185.746 335.135C186.778 335.507 187.816 335.852 188.862 336.172C189.908 336.492 190.96 336.785 192.016 337.051C193.073 337.318 194.135 337.557 195.202 337.77C196.266 337.983 197.339 338.169 198.41 338.326C199.482 338.484 200.555 338.615 201.635 338.719C202.711 338.824 203.787 338.901 204.864 338.948C205.941 338.996 207.019 339.018 208.095 339.012C209.171 339.006 210.247 338.971 211.319 338.909C212.392 338.849 213.46 338.759 214.526 338.644C215.593 338.526 216.655 338.383 217.711 338.214C218.769 338.041 219.818 337.844 220.864 337.619C221.91 337.395 222.947 337.141 223.977 336.863C225.011 336.585 226.033 336.28 227.048 335.949C228.06 335.615 229.067 335.257 230.062 334.873C231.057 334.49 232.04 334.08 233.015 333.647C233.989 333.211 234.952 332.749 235.9 332.264C236.852 331.78 237.787 331.27 238.712 330.734C239.635 330.201 240.545 329.643 241.439 329.06C242.337 328.477 243.215 327.872 244.082 327.244C244.947 326.616 245.794 325.964 246.628 325.29C247.459 324.619 248.276 323.923 249.072 323.206C249.87 322.491 250.649 321.752 251.412 320.994C252.173 320.237 252.917 319.458 253.639 318.661C254.362 317.864 255.065 317.045 255.748 316.212C256.43 315.375 257.091 314.521 257.735 313.651C258.374 312.779 258.993 311.892 259.591 310.987C260.189 310.082 260.766 309.162 261.32 308.224C261.871 307.29 262.401 306.337 262.908 305.373C263.418 304.406 263.899 303.428 264.36 302.435C264.82 301.442 265.255 300.437 265.668 299.421C266.078 298.405 266.465 297.378 266.827 296.339C267.188 295.3 267.527 294.25 267.839 293.191C268.15 292.132 268.437 291.065 268.696 289.99C268.958 288.915 269.193 287.834 269.403 286.742C269.611 285.653 269.794 284.559 269.953 283.456C270.109 282.356 270.239 281.248 270.344 280.137C270.45 279.027 270.526 277.914 270.579 276.796C270.632 275.68 270.655 274.559 270.656 273.439C270.654 272.319 270.626 271.199 270.572 270.076C270.518 268.954 270.439 267.832 270.331 266.713C270.226 265.591 270.094 264.475 269.933 263.358C269.775 262.242 269.589 261.13 269.379 260.021C269.166 258.913 268.931 257.809 268.665 256.71C268.403 255.61 268.117 254.519 267.802 253.431C267.489 252.345 267.149 251.266 266.784 250.193C266.42 249.122 266.032 248.06 265.619 247.003C265.205 245.95 264.767 244.907 264.306 243.873C263.845 242.839 263.358 241.817 262.85 240.805C262.34 239.794 261.81 238.793 261.254 237.806C260.698 236.82 260.123 235.849 259.522 234.89C258.922 233.931 258.301 232.985 257.659 232.056C257.016 231.126 256.352 230.213 255.666 229.317C254.982 228.419 254.277 227.539 253.553 226.676C252.829 225.812 252.087 224.968 251.322 224.141C250.561 223.313 249.779 222.507 248.98 221.716C248.18 220.929 247.363 220.159 246.529 219.411C245.697 218.662 244.848 217.935 243.98 217.228C243.113 216.522 242.233 215.835 241.335 215.173C240.438 214.511 239.529 213.868 238.602 213.25C237.678 212.633 236.739 212.037 235.789 211.467C234.838 210.894 233.877 210.349 232.9 209.825C231.927 209.302 230.942 208.803 229.946 208.329C228.949 207.854 227.942 207.406 226.929 206.984C225.913 206.56 224.888 206.16 223.859 205.788C222.826 205.416 221.788 205.072 220.742 204.752C219.696 204.431 218.644 204.138 217.588 203.872C216.531 203.606 215.469 203.366 214.402 203.153C213.335 202.941 212.266 202.757 211.194 202.597C210.12 202.44 209.046 202.309 207.969 202.204C206.894 202.102 205.815 202.026 204.737 201.976C203.66 201.928 202.583 201.906 201.506 201.912C200.43 201.918 199.357 201.952 198.285 202.014C197.212 202.074 196.141 202.165 195.076 202.28C194.011 202.397 192.949 202.54 191.894 202.712C190.835 202.883 189.786 203.079 188.74 203.304C187.694 203.531 186.655 203.783 185.624 204.061C184.593 204.339 183.572 204.646 182.557 204.977C181.541 205.309 180.537 205.666 179.542 206.05C178.547 206.434 177.561 206.844 176.59 207.279Z" fill="#B6D9EF"/>
<path d="M253.462 299.574C250.227 297.715 246.669 296.336 243.368 295.45C237.915 294.015 232.125 293.24 226.488 293.267C221.409 293.311 214.841 295.321 210.307 291.852C207.32 289.559 206.668 284.355 205.18 281.049C199.763 268.867 191.35 262.008 177.799 263.461C170.852 264.196 164.706 266.02 160.843 258.689C157.852 253.013 158.077 245.838 158.844 239.639C162.763 231.177 168.782 223.793 176.592 218.399C177.706 221.849 179.379 225.081 181.487 227.691C192.325 241.17 206.36 224.9 217.401 235.261C222.609 240.14 222.722 248.394 227.73 253.548C231.9 257.825 237.049 259.328 242.862 258.94C249.9 258.473 256.189 257.137 262.073 260.44C264.011 274.469 260.81 288.41 253.462 299.574Z" fill="white"/>
<path d="M175.514 300.034C172.413 299.014 168.615 298.471 164.823 298.594C162.516 295.363 160.491 291.864 158.808 288.084C156.521 282.938 155.014 277.669 154.234 272.406C162.216 279.162 171.072 275.668 181.966 276.365C192.746 277.06 193.549 289.441 198.522 296.687C202.108 301.941 207.228 305.07 213.598 305.714C223.1 306.644 236.881 303.926 246.112 308.452C241.93 312.517 237.007 315.881 231.424 318.388C218.314 324.254 203.964 324.124 191.195 319.198C191.084 310.073 184.719 303.06 175.514 300.034Z" fill="white"/>
<path d="M145.855 140.84C146.073 142.338 146.347 143.823 146.679 145.298C147.011 146.772 147.402 148.228 147.847 149.662C148.292 151.096 148.792 152.506 149.345 153.889C149.899 155.273 150.504 156.624 151.162 157.941C151.82 159.257 152.523 160.538 153.277 161.778C154.031 163.015 154.831 164.21 155.676 165.361C156.517 166.51 157.401 167.609 158.328 168.658C159.251 169.705 160.213 170.697 161.212 171.636C162.209 172.572 163.239 173.449 164.299 174.265C165.358 175.084 166.447 175.836 167.558 176.523C168.673 177.212 169.806 177.834 170.963 178.388C172.117 178.94 173.287 179.425 174.475 179.838C175.66 180.252 176.856 180.594 178.062 180.863C179.267 181.132 180.476 181.329 181.691 181.453C182.906 181.575 184.117 181.623 185.327 181.6C186.535 181.575 187.739 181.477 188.933 181.303C190.125 181.131 191.306 180.886 192.476 180.568C193.642 180.247 194.79 179.859 195.918 179.396C197.049 178.936 198.152 178.404 199.231 177.804C200.313 177.204 201.363 176.539 202.383 175.807C203.402 175.073 204.388 174.278 205.341 173.419C206.292 172.56 207.204 171.646 208.076 170.668C208.949 169.694 209.778 168.664 210.563 167.582C211.35 166.496 212.087 165.365 212.781 164.184C213.472 163.004 214.112 161.778 214.701 160.513C215.292 159.244 215.829 157.94 216.312 156.599C216.795 155.259 217.222 153.885 217.595 152.485C217.966 151.082 218.281 149.655 218.54 148.206C218.795 146.756 218.992 145.29 219.132 143.807C219.271 142.323 219.351 140.83 219.372 139.329C219.392 137.824 219.355 136.318 219.256 134.813C219.158 133.304 218.999 131.801 218.782 130.306C218.567 128.807 218.292 127.32 217.96 125.848C217.626 124.374 217.238 122.918 216.793 121.484C216.347 120.047 215.848 118.64 215.295 117.257C214.738 115.874 214.133 114.522 213.478 113.205C212.82 111.889 212.114 110.609 211.36 109.369C210.606 108.129 209.808 106.936 208.964 105.785C208.12 104.637 207.236 103.538 206.312 102.488C205.386 101.442 204.424 100.449 203.426 99.5106C202.428 98.5747 201.401 97.697 200.34 96.8813C199.279 96.0629 198.192 95.3101 197.079 94.6236C195.967 93.9337 194.831 93.3121 193.676 92.7576C192.519 92.2037 191.35 91.721 190.165 91.3075C188.978 90.8946 187.781 90.5522 186.575 90.2832C185.369 90.0115 184.161 89.8172 182.946 89.693C181.734 89.5708 180.522 89.52 179.313 89.5454C178.102 89.5715 176.901 89.6692 175.706 89.8425C174.512 90.0157 173.331 90.26 172.164 90.578C170.997 90.896 169.85 91.2865 168.719 91.7501C167.591 92.2103 166.487 92.7417 165.406 93.3423C164.326 93.9395 163.277 94.6067 162.254 95.3391C161.235 96.0736 160.249 96.8686 159.298 97.727C158.347 98.5826 157.435 99.5003 156.563 100.477C155.691 101.452 154.859 102.482 154.074 103.564C153.29 104.649 152.55 105.781 151.859 106.962C151.168 108.142 150.527 109.368 149.936 110.634C149.348 111.902 148.811 113.206 148.327 114.547C147.842 115.888 147.415 117.261 147.042 118.662C146.671 120.065 146.359 121.491 146.1 122.94C145.842 124.391 145.645 125.856 145.505 127.34C145.366 128.823 145.286 130.316 145.265 131.818C145.245 133.322 145.285 134.827 145.381 136.333C145.482 137.841 145.638 139.345 145.855 140.84Z" fill="white"/>
<path d="M209.986 139.549C210.203 141.047 210.478 142.535 210.81 144.007C211.142 145.481 211.532 146.937 211.978 148.371C212.423 149.805 212.922 151.215 213.476 152.598C214.032 153.981 214.638 155.332 215.293 156.65C215.95 157.966 216.657 159.246 217.411 160.486C218.164 161.723 218.962 162.919 219.807 164.07C220.651 165.218 221.535 166.317 222.459 167.367C223.385 168.413 224.347 169.406 225.345 170.344C226.342 171.28 227.369 172.158 228.43 172.973C229.492 173.792 230.578 174.545 231.692 175.231C232.806 175.92 233.939 176.543 235.093 177.094C236.251 177.648 237.421 178.134 238.608 178.547C239.793 178.96 240.99 179.302 242.195 179.571C243.401 179.841 244.61 180.037 245.825 180.162C247.036 180.284 248.248 180.332 249.46 180.309C250.669 180.283 251.869 180.183 253.064 180.012C254.259 179.839 255.439 179.592 256.606 179.274C257.773 178.956 258.923 178.565 260.051 178.105C261.18 177.644 262.286 177.112 263.365 176.512C264.444 175.912 265.494 175.248 266.516 174.513C267.536 173.781 268.521 172.986 269.472 172.128C270.423 171.269 271.334 170.352 272.207 169.377C273.079 168.4 273.91 167.37 274.696 166.288C275.481 165.205 276.219 164.071 276.911 162.89C277.602 161.71 278.243 160.487 278.834 159.218C279.422 157.95 279.96 156.649 280.442 155.305C280.925 153.965 281.356 152.594 281.727 151.191C282.099 149.787 282.412 148.364 282.67 146.912C282.925 145.465 283.125 143.996 283.264 142.512C283.404 141.029 283.484 139.536 283.505 138.034C283.525 136.532 283.486 135.027 283.386 133.519C283.288 132.011 283.13 130.51 282.915 129.012C282.697 127.514 282.422 126.029 282.09 124.554C281.758 123.08 281.369 121.627 280.923 120.19C280.477 118.756 279.978 117.346 279.424 115.963C278.868 114.58 278.263 113.231 277.608 111.911C276.95 110.595 276.244 109.315 275.49 108.078C274.736 106.838 273.938 105.642 273.094 104.494C272.25 103.343 271.366 102.244 270.442 101.197C269.516 100.148 268.554 99.1553 267.556 98.2195C266.558 97.2809 265.532 96.4059 264.47 95.5875C263.409 94.7718 262.323 94.0191 261.209 93.3298C260.094 92.6405 258.962 92.021 257.807 91.4665C256.65 90.9126 255.48 90.4299 254.292 90.0143C253.107 89.6008 251.911 89.2612 250.705 88.9894C249.5 88.7204 248.291 88.5235 247.076 88.4019C245.864 88.277 244.653 88.2289 243.441 88.255C242.232 88.2804 241.032 88.3781 239.837 88.5514C238.642 88.7219 237.461 88.9689 236.294 89.2869C235.127 89.605 233.977 89.996 232.849 90.4563C231.721 90.9192 230.615 91.4486 229.536 92.0485C228.457 92.6485 227.405 93.3163 226.385 94.048C225.365 94.7798 224.379 95.5748 223.428 96.4332C222.477 97.2915 221.566 98.2092 220.693 99.1835C219.821 100.161 218.99 101.191 218.205 102.273C217.42 103.358 216.681 104.49 215.99 105.671C215.299 106.851 214.658 108.077 214.066 109.343C213.478 110.61 212.941 111.915 212.458 113.256C211.972 114.597 211.545 115.97 211.173 117.37C210.801 118.774 210.489 120.2 210.231 121.648C209.975 123.099 209.775 124.565 209.636 126.049C209.497 127.532 209.417 129.025 209.396 130.527C209.375 132.031 209.415 133.536 209.515 135.042C209.612 136.55 209.771 138.053 209.986 139.549Z" fill="white"/>
<path d="M227.825 177.555C231.423 141.025 189.326 151.908 201.569 179.739L227.825 177.555Z" fill="#4797BF"/>
<path d="M251.369 197.566C260.219 203.195 275.649 206.492 286.67 194.827C296.825 184.056 294.774 171.299 290.674 164.573C289.727 164.472 288.85 164.937 288.228 166.007C273.012 193.203 253.065 186.752 250.04 192.689C249.347 193.95 249.925 195.698 251.369 197.566Z" fill="white"/>
<path d="M107.24 177.396C106.738 177.643 106.253 177.915 105.78 178.209C105.306 178.504 104.849 178.821 104.406 179.163C103.965 179.501 103.541 179.861 103.133 180.244C102.725 180.626 102.338 181.026 101.971 181.447C101.606 181.865 101.259 182.302 100.933 182.756C100.61 183.21 100.308 183.679 100.029 184.163C99.7527 184.646 99.4965 185.141 99.269 185.65C99.0387 186.159 98.8333 186.677 98.656 187.206C98.476 187.735 98.3228 188.269 98.1978 188.814C98.0721 189.356 97.9733 189.904 97.902 190.459C97.8273 191.013 97.7843 191.567 97.7649 192.125C97.7481 192.682 97.7576 193.241 97.7948 193.797C97.832 194.353 97.8941 194.907 97.9873 195.458C98.0772 196.008 98.1947 196.554 98.3421 197.093C98.4861 197.63 98.6571 198.161 98.8519 198.683C99.0495 199.205 99.2734 199.718 99.5199 200.217C99.7669 200.719 100.036 201.204 100.333 201.677C100.628 202.151 100.945 202.611 101.284 203.054C101.623 203.495 101.986 203.919 102.365 204.327C102.748 204.735 103.148 205.122 103.569 205.489C103.988 205.857 104.424 206.204 104.878 206.527C105.333 206.852 105.802 207.155 106.282 207.434C106.766 207.713 107.261 207.967 107.77 208.197C108.28 208.427 108.797 208.63 109.326 208.81C109.852 208.988 110.389 209.14 110.932 209.269C111.474 209.394 112.022 209.493 112.578 209.567C113.13 209.639 113.686 209.685 114.243 209.702C114.8 209.721 115.357 209.71 115.913 209.672C116.469 209.638 117.022 209.573 117.571 209.483C118.123 209.39 118.666 209.273 119.206 209.128C119.743 208.984 120.274 208.813 120.795 208.616C121.317 208.418 121.828 208.198 122.326 207.949C122.828 207.702 123.314 207.433 123.787 207.138C124.26 206.84 124.718 206.524 125.161 206.185C125.604 205.843 126.028 205.483 126.433 205.101C126.841 204.719 127.228 204.319 127.596 203.9C127.963 203.479 128.308 203.043 128.633 202.588C128.956 202.134 129.259 201.668 129.538 201.185C129.814 200.702 130.07 200.203 130.298 199.697C130.528 199.188 130.734 198.67 130.911 198.141C131.091 197.612 131.243 197.075 131.369 196.533C131.494 195.988 131.593 195.44 131.668 194.887C131.74 194.334 131.785 193.779 131.801 193.22C131.818 192.663 131.809 192.106 131.772 191.55C131.735 190.994 131.672 190.438 131.58 189.889C131.489 189.337 131.372 188.793 131.227 188.254C131.08 187.715 130.909 187.184 130.714 186.661C130.517 186.14 130.296 185.629 130.046 185.128C129.8 184.629 129.53 184.141 129.236 183.667C128.941 183.193 128.622 182.737 128.282 182.293C127.943 181.85 127.583 181.425 127.201 181.017C126.819 180.612 126.419 180.226 125.998 179.858C125.579 179.49 125.143 179.143 124.688 178.818C124.234 178.495 123.768 178.192 123.284 177.913C122.801 177.634 122.306 177.38 121.797 177.15C121.29 176.919 120.769 176.715 120.243 176.537C119.714 176.357 119.177 176.204 118.635 176.078C118.092 175.95 117.544 175.851 116.992 175.779C116.439 175.707 115.884 175.662 115.327 175.645C114.769 175.625 114.21 175.635 113.654 175.672C113.098 175.709 112.545 175.774 111.996 175.864C111.443 175.954 110.901 176.074 110.361 176.219C109.824 176.363 109.293 176.534 108.771 176.731C108.249 176.926 107.739 177.149 107.24 177.396Z" fill="#4797BF"/>
<path d="M320.397 254.294C320.546 254.938 320.721 255.576 320.929 256.204C321.135 256.835 321.368 257.451 321.628 258.058C321.891 258.665 322.176 259.258 322.489 259.835C322.803 260.413 323.143 260.973 323.506 261.52C323.868 262.063 324.254 262.587 324.662 263.095C325.072 263.599 325.5 264.081 325.952 264.542C326.404 265.005 326.872 265.441 327.361 265.853C327.85 266.267 328.355 266.653 328.875 267.014C329.397 267.373 329.933 267.705 330.482 268.009C331.032 268.316 331.591 268.588 332.164 268.835C332.734 269.08 333.317 269.296 333.904 269.48C334.495 269.666 335.089 269.817 335.69 269.94C336.291 270.061 336.893 270.15 337.5 270.206C338.106 270.266 338.713 270.288 339.319 270.282C339.925 270.276 340.528 270.234 341.128 270.164C341.727 270.091 342.322 269.988 342.91 269.852C343.5 269.716 344.077 269.548 344.65 269.35C345.22 269.15 345.78 268.924 346.328 268.663C346.875 268.403 347.41 268.117 347.93 267.797C348.45 267.48 348.952 267.136 349.439 266.764C349.923 266.39 350.393 265.994 350.839 265.568C351.289 265.145 351.716 264.696 352.123 264.225C352.53 263.752 352.913 263.262 353.273 262.745C353.633 262.231 353.969 261.697 354.278 261.147C354.589 260.593 354.874 260.026 355.132 259.438C355.391 258.854 355.62 258.256 355.824 257.642C356.025 257.031 356.2 256.409 356.345 255.777C356.492 255.141 356.609 254.501 356.696 253.853C356.783 253.203 356.84 252.551 356.868 251.895C356.896 251.238 356.895 250.58 356.863 249.92C356.833 249.26 356.773 248.603 356.681 247.946C356.589 247.291 356.47 246.64 356.321 245.996C356.172 245.349 355.993 244.712 355.788 244.083C355.583 243.455 355.349 242.836 355.086 242.229C354.827 241.625 354.539 241.033 354.225 240.452C353.912 239.874 353.575 239.314 353.212 238.77C352.85 238.224 352.463 237.7 352.053 237.196C351.646 236.691 351.214 236.206 350.766 235.745C350.314 235.285 349.846 234.848 349.357 234.434C348.868 234.022 348.362 233.634 347.84 233.276C347.32 232.914 346.784 232.581 346.235 232.278C345.686 231.974 345.126 231.698 344.553 231.452C343.981 231.207 343.401 230.993 342.81 230.808C342.223 230.624 341.626 230.471 341.028 230.35C340.426 230.226 339.824 230.137 339.218 230.081C338.612 230.024 338.004 229.999 337.398 230.005C336.793 230.013 336.189 230.053 335.59 230.126C334.988 230.197 334.396 230.302 333.806 230.438C333.218 230.574 332.638 230.739 332.068 230.939C331.498 231.137 330.938 231.366 330.39 231.624C329.843 231.884 329.308 232.173 328.788 232.49C328.268 232.807 327.766 233.151 327.279 233.525C326.792 233.897 326.325 234.296 325.875 234.719C325.429 235.145 324.999 235.592 324.594 236.062C324.188 236.535 323.805 237.028 323.445 237.542C323.085 238.056 322.749 238.589 322.438 239.143C322.129 239.694 321.844 240.264 321.585 240.848C321.328 241.435 321.098 242.033 320.894 242.645C320.69 243.256 320.518 243.881 320.37 244.514C320.226 245.146 320.108 245.786 320.022 246.436C319.935 247.084 319.874 247.736 319.847 248.393C319.819 249.052 319.823 249.71 319.852 250.368C319.885 251.027 319.946 251.686 320.037 252.341C320.126 252.996 320.247 253.647 320.397 254.294Z" fill="#4797BF"/>
<path d="M371.409 133.447C380.453 136.163 366.215 155.81 354.691 152.016C345.78 149.124 359.907 129.993 371.409 133.447Z" fill="#B6D9EF"/>
<path d="M394.198 192.777C397.823 208.469 400.649 258.543 400.203 265.13C399.76 271.717 390.208 286.606 389.434 278.995C388.66 271.386 382.54 232.498 380.888 206.678C380.048 193.524 392.706 186.318 394.198 192.777Z" fill="#B6D9EF"/>
<path d="M335.523 389.045C361.979 397.123 382.85 430.606 378.933 446.971C373.286 470.628 298.938 486.554 287.97 472.76C268.672 448.467 293.771 399.559 293.771 399.559L335.523 389.045Z" fill="white"/>
<path d="M321.838 382.278C347.065 382.53 346.565 405.548 319.627 412.665C286.118 421.534 288.285 390.954 303.211 387.447C318.169 383.935 321.838 382.278 321.838 382.278Z" fill="white"/>
<path d="M41.0507 169.567C35.9426 178.13 38.7922 186.59 45.955 189.541C53.9498 192.847 72.2361 188.218 76.8902 181.814C81.8767 174.959 72.2423 165.69 72.2423 165.69L41.0507 169.567Z" fill="white"/>
<path d="M70.3517 140.099C80.4887 115.348 85.7974 90.2359 75.0848 87.8172C64.3723 85.3986 57.7517 131.892 57.7517 131.892C57.2735 103.773 54.3898 81.0177 44.3594 85.5643C34.3289 90.1109 41.937 126.049 48.1023 136.088L70.3517 140.099Z" fill="white"/>
<path d="M34.1655 156.042C40.5622 152.047 29.0376 121.818 18.3761 130.014C7.70769 138.181 26.4024 160.875 34.1655 156.042Z" fill="white"/>
<path d="M46.7499 149.141C53.7836 144.767 41.1193 111.616 29.4184 120.572C17.7487 129.552 38.2312 154.467 46.7499 149.141Z" fill="white"/>
<path d="M61.3674 147.298C55.5 158.845 37.8765 153.565 37.059 147.644C36.2421 141.725 46.2023 132.244 52.1459 129.163C58.093 126.11 77.6301 132.279 80.4338 141.417C83.2471 150.585 79.1346 159.582 73.2876 168.722C71.6058 175.712 44.7714 181.417 42.3457 174.421C37.7514 170.937 30.8349 167.67 28.0363 156.677C36.5716 158.817 37.0527 147.617 37.0527 147.617L61.3674 147.298Z" fill="white"/>
<path d="M444.129 283.33C460.187 272.932 458.313 254.545 429.096 240.912C411.713 232.797 398.335 240.258 397.036 249.041C374.332 255.965 372.975 259.606 369.557 262.337C366.135 265.066 356.689 267.131 355.883 272.036C355.05 276.948 361.302 286.593 373.243 282.677C364.942 292.587 363.779 292.306 363.928 295.716C364.079 299.125 370.343 309.577 380.676 303.835C380.241 314.357 393.968 321.175 400.281 314.447C403.304 322.523 415.717 320.523 419.707 314.999C428.661 318.691 440.929 299.906 444.129 283.33Z" fill="white"/>
<path d="M229.351 205.578C242.473 211.406 254.091 221.374 262.075 234.643C263.669 237.286 265.117 240.048 266.419 242.932C274.199 260.331 275.114 279.575 269.004 297.085C263.73 312.201 253.78 324.488 240.593 332.282C238.458 333.556 236.234 334.705 233.955 335.725C232.092 336.56 230.206 337.287 228.299 337.93C226.319 338.618 224.278 339.175 222.272 339.638C216.861 340.888 211.369 341.404 205.893 341.252C204.725 340.826 203.599 340.333 202.481 339.753C201.425 339.823 200.366 339.865 199.313 339.934C199.286 340.2 199.262 340.468 199.292 340.721C198.071 340.569 196.87 340.382 195.656 340.14C195.259 340.175 194.856 340.182 194.459 340.214C194.222 340.067 194.046 339.933 193.836 339.779C190.28 339.038 186.769 337.996 183.362 336.641C182.954 336.504 182.567 336.332 182.179 336.162C180.204 335.372 178.32 334.475 176.451 333.518C162.35 326.208 150.389 314.001 143.253 298.019C135.999 281.773 134.964 264.379 139.172 248.785C139.796 246.354 140.585 244.002 141.493 241.676C147.608 225.819 159.431 212.492 175.684 205.205C193.193 197.337 212.54 198.052 229.351 205.578ZM144.021 248.361C143.395 250.416 142.893 252.502 142.487 254.62C140.709 263.833 140.809 273.539 143.024 283.13C144.034 287.502 145.477 291.859 147.382 296.11C155.366 314.009 169.819 326.855 186.341 332.885C189.405 333.999 192.556 334.866 195.746 335.517C206.184 337.623 217.011 337.033 227.342 333.403C228.925 332.864 230.486 332.241 232.066 331.559C247.381 324.72 258.954 311.941 264.662 295.568C270.39 279.16 269.523 261.123 262.222 244.8C248.865 214.908 217.42 199.009 188.361 205.721C184.679 206.572 181.056 207.785 177.519 209.383C160.699 216.858 149.008 231.372 144.021 248.361Z" fill="#3A0E05"/>
<path d="M227.29 211.437C241.564 217.376 252.99 228.634 259.468 243.149C261.921 248.633 263.515 254.287 264.298 259.926C264.304 259.953 264.336 260.091 264.336 260.091C264.406 260.654 264.479 261.216 264.546 261.751C264.601 262.374 264.653 262.969 264.709 263.595C264.817 264.813 264.864 266.02 264.884 267.23C264.969 269.731 264.857 272.246 264.588 274.712C264.464 275.927 264.289 277.182 264.105 278.385C263.926 279.612 263.679 280.799 263.377 281.998C263.185 282.795 262.992 283.592 262.767 284.368C262.541 285.145 262.315 285.918 262.062 286.701C260.974 290.137 259.574 293.472 257.83 296.683C257.482 297.314 257.131 297.917 256.756 298.554C256.298 299.324 255.835 300.07 255.343 300.819C253.191 304.153 250.638 307.261 247.744 310.014C247.73 310.077 247.703 310.083 247.703 310.083C247.556 310.202 247.438 310.318 247.321 310.431C246.994 310.766 246.654 311.05 246.347 311.351C245.894 311.772 245.409 312.176 244.95 312.572C244.47 313 243.957 313.409 243.417 313.822C242.952 314.192 242.486 314.559 241.99 314.904C241.519 315.247 240.993 315.599 240.521 315.939C239.876 316.407 239.212 316.792 238.557 317.203C237.9 317.617 237.236 318.001 236.539 318.365C235.178 319.112 233.804 319.806 232.363 320.458C231.44 320.845 230.545 321.226 229.616 321.586C228.419 322.036 227.241 322.451 225.996 322.827C224.834 323.181 223.694 323.504 222.514 323.777C218.502 324.703 214.412 325.155 210.295 325.122C209.687 325.117 209.106 325.106 208.497 325.101C207.828 325.082 207.153 325.035 206.475 324.989C205.8 324.943 205.146 324.863 204.462 324.79C203.78 324.716 203.125 324.634 202.435 324.534C201.748 324.433 201.08 324.296 200.42 324.189C199.722 324.06 199.062 323.953 198.382 323.762C197.708 323.598 197.039 323.465 196.365 323.301C195.005 322.919 193.67 322.535 192.345 322.057C191.686 321.833 191.048 321.575 190.382 321.324C190.316 321.282 190.288 321.289 190.218 321.245C189.777 321.087 189.336 320.93 188.888 320.742C185.652 319.377 182.529 317.754 179.628 315.847C176.241 313.704 173.125 311.238 170.253 308.457C167.612 305.911 165.248 303.069 163.107 300.062C163.041 300.02 162.994 299.943 162.955 299.895C161.751 298.203 160.588 296.415 159.561 294.597C159.03 293.679 158.561 292.775 158.083 291.841C157.602 290.88 157.161 289.97 156.734 288.997C156.346 288.074 155.932 287.157 155.565 286.198C155.338 285.584 155.087 285.006 154.921 284.408C154.7 283.821 154.497 283.203 154.33 282.603C154.105 281.874 153.879 281.144 153.684 280.437C153.349 279.356 153.068 278.264 152.848 277.185L152.651 276.333C152.613 276.168 152.608 276.023 152.583 275.915C152.525 275.666 152.462 275.392 152.432 275.137C152.275 274.335 152.121 273.532 152.011 272.688C151.792 271.492 151.631 270.287 151.529 269.093C151.248 266.001 151.206 262.942 151.392 259.86C151.701 254.433 152.802 249.052 154.605 243.831C155.202 242.159 155.873 240.556 156.627 238.933C156.656 238.812 156.691 238.716 156.75 238.588C157.075 237.874 157.431 237.156 157.791 236.466C158.868 234.364 160.054 232.353 161.374 230.426C162.047 229.461 162.721 228.492 163.463 227.568C164.107 226.726 164.79 225.93 165.476 225.136C166.159 224.342 166.882 223.596 167.635 222.843C167.656 222.807 167.676 222.774 167.733 222.761C168.296 222.197 168.888 221.627 169.487 221.081C169.63 220.963 169.77 220.813 169.937 220.661C170.104 220.505 170.301 220.346 170.467 220.19C171.084 219.615 171.743 219.086 172.402 218.557C172.867 218.188 173.36 217.814 173.825 217.445C174.297 217.105 174.793 216.759 175.292 216.413C177.958 214.551 180.803 212.967 183.844 211.6C197.554 205.565 213.009 205.471 227.29 211.437ZM173.787 223.418C173.308 223.848 172.822 224.249 172.369 224.673C169.56 227.289 167.108 230.202 164.93 233.425C164.56 233.947 164.226 234.515 163.89 235.057C162.861 236.74 161.907 238.498 161.046 240.288C160.433 245.265 160.032 252.307 162.85 257.618C165.419 262.468 168.82 262.29 175.113 261.475C175.9 261.379 176.743 261.273 177.566 261.197C191.226 259.721 200.963 265.926 207.283 280.129C207.775 281.262 208.182 282.528 208.585 283.767C209.367 286.278 210.202 288.893 211.722 290.076C214.357 292.103 218.318 291.709 222.135 291.321C223.606 291.184 225.106 291.04 226.515 291.002C232.239 290.983 238.286 291.731 243.995 293.278C247.043 294.079 250.019 295.186 252.736 296.557C252.781 296.489 252.801 296.456 252.815 296.393C253.173 295.82 253.527 295.216 253.845 294.593C254.22 293.956 254.552 293.272 254.867 292.62C255.205 291.963 255.511 291.285 255.818 290.604C256.109 289.986 256.366 289.348 256.624 288.71C256.659 288.616 256.717 288.486 256.747 288.365C257.003 287.724 257.228 287.065 257.431 286.439C257.703 285.74 257.914 285.024 258.126 284.311C258.312 283.746 258.467 283.16 258.626 282.602C258.768 282.078 258.906 281.553 259.017 281.034C259.156 280.512 259.263 279.965 259.347 279.452C259.459 278.936 259.543 278.423 259.621 277.884C259.726 277.34 259.798 276.774 259.882 276.261C259.946 275.784 260.036 275.298 260.06 274.771C260.18 273.788 260.292 272.779 260.302 271.821C260.353 271.288 260.37 270.733 260.374 270.242C260.407 269.769 260.41 269.278 260.383 268.791C260.377 268.011 260.377 267.258 260.344 266.485C260.317 265.738 260.287 264.992 260.233 264.252C260.153 263.401 260.07 262.667 260.009 261.9C256.021 260.041 251.63 260.448 246.637 260.877C245.472 260.972 244.288 261.103 243.09 261.175C236.25 261.625 230.542 259.588 226.176 255.093C223.384 252.265 222.018 248.731 220.682 245.332C219.385 242.099 218.189 239.045 215.93 236.904C211.572 232.815 206.626 233.697 200.896 234.702C194.059 235.904 186.361 237.278 179.757 229.105C178.098 227.056 176.672 224.634 175.575 222.022C174.903 222.496 174.315 222.949 173.787 223.418ZM234.988 314.032C235.936 313.494 236.895 312.896 237.795 312.283C238.12 312.063 238.446 311.845 238.772 311.624C239.297 311.272 239.789 310.896 240.303 310.489C240.795 310.113 241.308 309.707 241.794 309.304C236.631 307.861 230.384 308.001 224.289 308.166C220.376 308.26 216.694 308.358 213.378 308.023C206.45 307.336 200.678 303.89 196.658 298.015C195.046 295.667 193.884 292.896 192.741 290.206C190.18 284.254 188.002 279.083 181.836 278.682C178.72 278.475 175.75 278.642 172.894 278.808C168.892 279.008 164.976 279.217 161.258 278.399C160.011 278.137 158.732 277.737 157.51 277.209C157.706 278.059 157.96 278.899 158.184 279.745C158.646 281.375 159.185 282.958 159.815 284.549C160.167 285.455 160.541 286.323 160.922 287.219C161.318 288.055 161.68 288.869 162.102 289.698C162.213 289.932 162.327 290.165 162.432 290.375C163.49 292.446 164.679 294.458 165.984 296.358C167.14 296.35 168.309 296.4 169.44 296.543C171.81 296.777 174.146 297.25 176.18 297.909C186.105 301.177 192.544 308.635 193.364 317.567C193.96 317.777 194.511 318.027 195.103 318.206C195.692 318.389 196.252 318.551 196.87 318.725C197.463 318.907 198.042 319.033 198.626 319.189C199.205 319.315 199.791 319.47 200.398 319.589C201.588 319.865 202.762 320.059 203.949 320.189C204.543 320.254 205.144 320.347 205.731 320.385C206.913 320.488 208.088 320.565 209.284 320.605L211.052 320.633C211.627 320.614 212.235 320.619 212.834 320.569C213.345 320.537 213.86 320.506 214.371 320.474L214.852 320.42C215.361 320.362 215.872 320.329 216.374 320.242C216.937 320.172 217.532 320.12 218.115 320.014C218.62 319.954 219.115 319.84 219.618 319.755C220.227 319.643 220.837 319.53 221.441 319.391C224.546 318.674 227.578 317.654 230.55 316.36C231.253 316.024 231.963 315.715 232.634 315.357C233.42 314.888 234.195 314.475 234.988 314.032Z" fill="#3A0E05"/>
<path d="M216.132 136.45C215.723 133.679 215.643 130.948 215.861 128.263C215.854 127.974 215.879 127.709 215.932 127.434C216.058 126.102 216.251 124.814 216.533 123.532C216.934 121.76 217.458 120.019 218.116 118.361C218.625 117.058 219.243 115.843 219.921 114.643C219.983 114.543 220.048 114.439 220.104 114.312C221.422 112.009 223.046 110.014 224.806 108.362C228.034 105.301 231.964 103.406 236.248 102.793C244.223 101.618 251.967 105.33 257.49 111.959C256.445 112.2 255.428 112.552 254.512 112.966C253.406 113.452 252.326 114.281 251.408 115.071C247.159 118.833 246.499 125.877 249.355 130.601C252.609 136.046 259.322 139.186 265.389 136.886C265.075 142.171 263.66 147.189 261.121 151.479C257.686 157.399 252.574 161.329 246.67 162.692C246.121 162.819 245.538 162.925 244.982 163.025C242.83 163.348 240.67 163.268 238.564 162.914C239.192 162.25 239.622 161.483 239.877 160.586C239.989 159.95 240.105 159.316 240.197 158.716C240.133 158.066 240.07 157.413 240.005 156.761C239.804 155.767 239.396 154.877 238.734 154.132C238.429 153.567 238.005 153.114 237.432 152.753C236.759 152.099 235.927 151.624 235 151.376C234.366 151.26 233.733 151.147 233.133 151.055C233.072 151.04 232.988 151.059 232.927 151.042C231.554 150.983 230.289 151.275 229.083 151.93C227.929 152.573 227.024 153.421 226.329 154.536C225.998 154.989 225.799 155.497 225.624 156.002C223.71 154.098 222.053 151.934 220.66 149.533C220.015 148.496 219.467 147.379 218.974 146.247C218.192 144.489 217.567 142.662 217.069 140.75C216.932 140.405 216.856 140.078 216.774 139.721C216.483 138.599 216.299 137.541 216.132 136.45Z" fill="#3A0E05"/>
<path d="M165.986 160.716C166.461 159.882 166.688 158.988 166.698 158.031C166.631 157.236 166.691 156.498 166.499 155.79C166.214 154.552 165.644 153.469 164.766 152.543L163.37 151.388C162.587 150.874 161.758 150.546 160.842 150.467C159.917 150.218 158.993 150.227 158.072 150.499C157.859 150.577 156.414 151.085 156.234 151.183C156.108 151.269 156.061 151.312 156.034 151.318C154.422 148.476 153.168 145.29 152.38 141.882C152.145 140.865 151.965 139.837 151.811 138.8C151.508 136.612 151.356 134.446 151.442 132.313C151.498 130.68 151.623 129.086 151.897 127.517C152.561 123.629 153.851 119.943 155.762 116.696C159.563 110.229 165.326 106.118 171.933 105.171C174.395 104.805 176.793 104.918 179.172 105.44C180.691 105.754 182.166 106.252 183.616 106.903C185.293 107.645 186.877 108.611 188.414 109.761C186.688 110.682 185.174 112.015 184.064 113.717C182.852 115.62 182.023 118.041 182.059 120.32C182.102 123.64 183.213 126.945 185.536 129.36C187.624 131.512 190.063 132.802 192.981 133.286C195.694 133.76 198.257 133.342 200.721 132.105C201.807 139.933 200.439 147.662 196.785 153.89C194.902 157.133 192.53 159.766 189.795 161.7C188.458 162.677 187.042 163.437 185.566 164.069C184.507 164.484 183.434 164.849 182.335 165.103C181.785 165.23 181.202 165.336 180.646 165.436C175.298 166.207 170.045 164.757 165.504 161.754C165.687 161.421 165.87 161.09 165.986 160.716Z" fill="#3A0E05"/>
<path d="M98.8876 181.715C101.555 177.856 105.537 174.938 110.453 173.802C117.759 172.115 125.076 174.856 129.59 180.24C130.702 181.546 131.613 182.986 132.355 184.58C132.89 185.76 133.32 186.992 133.618 188.283C136.018 198.673 129.535 209.061 119.151 211.459C108.797 213.851 98.3879 207.364 95.9882 196.975C95.1247 193.237 95.4386 189.46 96.6607 186.11C97.1958 184.538 97.9523 183.06 98.8876 181.715ZM118.116 206.979C126.026 205.152 130.99 197.199 129.162 189.284C128.819 187.801 128.257 186.368 127.504 185.122C126.509 183.441 125.221 182.002 123.684 180.852C120.323 178.326 115.932 177.227 111.509 178.249C108.902 178.851 106.593 180.137 104.764 181.863C103.376 183.11 102.286 184.665 101.49 186.354C100.1 189.222 99.6915 192.589 100.459 195.914C102.267 203.865 110.206 208.806 118.116 206.979Z" fill="#3A0E05"/>
<path d="M333.27 228.243C344.423 225.667 355.732 233.42 358.525 245.515C361.325 257.637 354.532 269.571 343.409 272.14C332.286 274.709 320.977 266.957 318.178 254.835C315.378 242.713 322.147 230.813 333.27 228.243ZM342.375 267.66C351.053 265.656 356.297 256.164 354.075 246.543C351.847 236.895 342.984 230.719 334.305 232.724C325.626 234.728 320.406 244.186 322.628 253.807C324.85 263.427 333.723 269.658 342.375 267.66Z" fill="#3A0E05"/>
<path d="M369.865 149.438C367.022 152.034 363.941 153.729 360.893 154.433C358.503 154.985 356.174 154.916 353.956 154.213C350.205 152.995 348.699 149.491 350.09 145.118C352.461 137.593 362.732 128.445 372.057 131.242C374.327 131.932 375.879 133.515 376.38 135.686C377.388 140.173 373.826 145.8 369.865 149.438ZM370.734 135.659C364.36 133.744 356.189 140.957 354.463 146.509C353.593 149.259 354.817 149.672 355.409 149.851C358.726 150.939 362.997 149.519 366.795 146.036C370.548 142.619 372.334 138.588 371.924 136.687C371.835 136.303 371.631 135.914 370.734 135.659Z" fill="#3A0E05"/>
<path d="M349.9 421.105C329.572 412.513 303.479 426.181 297.069 436.869C296.836 437.243 296.571 437.478 296.238 437.669C296.059 437.77 295.873 437.841 295.711 437.879C295.144 438.067 294.49 437.987 293.916 437.626C292.84 436.979 292.489 435.583 293.136 434.507C294.263 432.624 295.822 430.73 297.688 428.911C309.102 417.82 332.941 408.926 351.672 416.875C352.825 417.361 353.368 418.713 352.891 419.895C352.405 421.048 351.053 421.592 349.9 421.105Z" fill="#3A0E05"/>
<mask id="mask0_174_4757" style="mask-type:luminance" maskUnits="userSpaceOnUse" x="0" y="0" width="498" height="531">
<path d="M395.781 0.832336L0.775792 92.0698L102.086 530.685L497.092 439.448L395.781 0.832336Z" fill="white"/>
</mask>
<g mask="url(#mask0_174_4757)">
<path d="M16.1816 127.77C18.2675 126.159 20.5884 125.566 22.9606 126.059C23.3092 122.938 24.7532 120.29 27.2838 118.345C30.1606 116.146 33.3655 115.751 36.6292 117.227C36.847 117.294 37.0232 117.427 37.2473 117.521C37.8377 117.818 38.3907 118.212 38.9832 118.654C36.6279 108.456 35.4209 96.8362 37.6183 89.6963C38.6149 86.3695 40.3316 84.148 42.6622 83.0907C45.8312 81.663 48.2463 82.4653 49.6727 83.3819C54.2781 86.2845 57.0895 95.3328 58.407 111.937C60.9702 101.357 64.7741 89.7655 69.813 86.2862C71.4111 85.1929 73.1498 84.8198 74.8524 85.1793C77.3918 85.7789 79.4406 87.3901 80.7378 89.8706C85.514 99.0183 79.8693 118.677 75.0294 132.041C78.9708 134.576 81.6785 137.657 82.6406 140.822C85.5504 150.284 81.6371 159.526 76.776 167.54C79.5607 171.325 82.7983 177.7 78.7805 183.231C78.1087 184.198 77.1616 185.11 75.9973 185.958C77.2661 188.821 78.2513 196.469 82.2453 200.614C82.0399 192.7 82.155 186.939 82.4445 184.44C82.9055 180.918 83.9403 178.015 85.5162 175.567C91.5171 161.093 115.483 138.968 132.74 132.638C135.885 131.478 139.33 130.48 143.08 129.554C143.499 120.974 145.832 112.793 149.896 105.832C155.92 95.5817 164.952 89.093 175.398 87.6068C181.194 86.7614 186.903 87.5556 192.246 89.6519C218.284 77.4987 285.832 73.9696 299.736 87.319C301.814 89.3 304.489 92.2433 307.589 95.6391C315.354 104.21 325.993 115.939 333.528 119.006C337.358 120.554 344.496 121.394 352.022 122.29C367.935 124.173 385.991 126.315 391.715 136.196C397.341 145.9 401.493 163.122 404.481 181.947C424.987 192.063 446.045 215.717 448.445 251.033C453.357 255.892 456.102 261.135 456.458 266.439C456.931 273.364 453.28 279.853 446.183 284.706C443.298 298.401 435.102 312.136 427.281 316.346C424.932 317.584 422.634 318.027 420.481 317.597C418.553 319.52 415.791 320.97 412.825 321.655C410.903 322.099 408.911 322.24 406.992 321.959C403.828 321.532 401.27 320.096 399.572 317.882C396.384 319.747 392.258 319.919 388.131 318.209C385.349 317.055 382.603 314.941 380.725 312.072C380.519 312.18 380.292 312.318 380.085 312.423C377.994 313.775 374.72 315.256 369.437 316.938C365.609 318.142 360.977 319.385 355.647 320.616C346.419 322.748 335.113 324.895 322.301 326.93C324.126 336.323 329.57 375.425 330.834 381.155C336.16 382.673 339.443 385.477 341.124 388.621C351.948 393.273 362.408 402.12 370.427 413.527C372.429 416.306 374.156 419.152 375.589 421.975C375.623 421.998 375.635 422.053 375.669 422.073C375.681 422.128 375.714 422.148 375.721 422.178C375.767 422.253 375.823 422.357 375.868 422.432C380.732 431.848 382.706 440.887 381.125 447.448C378.081 460.196 358.241 469.874 339.549 475.118C336.944 475.865 334.368 476.489 331.863 477.039C314.856 480.821 292.639 482.335 286.139 474.107C285.082 472.788 284.15 471.384 283.356 469.945L283.143 470.282C276.584 480.34 263.346 486.899 248.738 482.777C246.227 482.054 243.647 481.028 241.094 479.618C229.023 473.085 218.321 457.81 227.476 436.066C226.722 433.432 226.091 430.826 225.568 428.312C222.349 426.275 219.594 423.236 217.93 419.047C210.394 416.849 161.376 411.174 160.495 341.227C137.762 341.382 117.655 340.004 111.694 335.245C97.8254 324.174 89.8505 285.018 85.7726 249.191C64.6548 244.574 46.1812 216.443 45.3946 191.755C45.3003 191.716 45.1768 191.688 45.0768 191.626C44.6016 191.444 44.1742 191.224 43.7475 191.006C40.4832 189.268 38.0418 186.475 36.9091 182.942C35.895 179.934 35.8863 176.637 36.8954 173.364C32.7854 170.347 28.0483 165.998 25.7969 157.251C25.8115 157.191 25.6755 157.108 25.6755 157.108C22.3148 155.335 19.0069 152.161 16.5156 148.511C10.7769 140.196 10.6258 132.036 16.1816 127.77ZM134.279 136.916C121.132 141.746 105.16 155.395 95.973 167.101C102.936 163.927 112.136 162.179 122.767 160.099C129.978 158.753 138.117 157.164 146.661 154.957C146.853 154.913 147.075 154.861 147.231 154.797C145.518 150.502 144.259 145.931 143.585 141.134C143.25 138.81 143.045 136.539 142.976 134.24C139.843 135.081 136.914 135.931 134.279 136.916ZM176.003 92.1007C175.249 92.2179 174.5 92.3594 173.758 92.5308C165.656 94.4022 158.666 99.8405 153.835 108.108C151.134 112.698 149.292 117.871 148.333 123.362C148.022 125.025 147.814 126.752 147.716 128.454C147.611 130.013 147.536 131.564 147.592 133.174C147.602 135.604 147.791 138.049 148.158 140.514C148.814 145.11 150.035 149.518 151.734 153.614C152.323 155.041 152.969 156.454 153.69 157.822C156.115 162.445 159.174 166.543 162.798 169.963C164.205 171.289 165.695 172.479 167.18 173.525C169.141 174.868 171.172 176.019 173.221 176.877C178.106 178.994 183.255 179.743 188.363 179.057C188.447 179.038 188.562 179.04 188.646 179.02C191.838 178.571 194.928 177.541 197.785 176.011C197.78 175.607 197.704 175.277 197.648 174.913C197.193 172.817 197.009 170.775 197.113 168.841C197.127 168.781 197.138 168.69 197.125 168.636C197.263 166.605 197.687 164.685 198.397 162.87C199.312 160.574 200.681 158.49 202.506 156.737C204.662 154.676 207.253 153.24 209.958 152.555C210.198 152.212 210.491 151.853 210.695 151.489C209.386 147.823 208.402 143.941 207.811 139.877C207.327 136.399 207.136 132.942 207.228 129.59C207.291 127.985 207.382 126.369 207.575 124.819C207.83 122.676 208.161 120.604 208.669 118.545C209.066 116.745 209.581 114.975 210.172 113.276C210.294 112.928 210.403 112.644 210.504 112.329C206.079 104.321 199.74 98.1691 192.559 94.7606C191 94.0202 189.415 93.431 187.805 92.9647C183.931 91.8605 179.986 91.557 176.003 92.1007ZM137.348 244.025C131.981 261.247 132.713 280.821 140.849 299.007C148.096 315.226 160.191 328.269 175.339 336.35C175.603 336.494 175.867 336.636 176.118 336.72C177.94 337.72 179.841 338.555 181.732 339.361C182.791 339.813 183.871 340.228 184.972 340.612C189.681 342.333 194.44 343.52 199.234 344.238C200.072 344.361 200.844 344.445 201.703 344.535C211.493 345.575 221.322 344.548 230.658 341.38C232.674 340.712 234.664 339.933 236.635 339.072C238.159 338.401 239.662 337.649 241.128 336.848C244.124 335.287 246.939 333.45 249.607 331.474C260.508 323.31 268.792 311.959 273.506 298.418C279.77 280.441 279.079 260.797 271.509 242.8C271.252 242.192 271.004 241.613 270.753 241.033C269.346 237.942 267.785 234.946 266.058 232.1C257.676 218.228 245.534 207.745 231.837 201.556C228.153 199.889 224.401 198.554 220.543 197.506C209.722 194.62 198.33 194.268 187.261 196.825C183.086 197.789 179.005 199.168 174.967 200.968C165.316 205.281 157.12 211.634 150.692 219.372C144.683 226.551 140.17 234.947 137.348 244.025ZM173.099 196.769C186.341 190.844 200.469 189.26 214.051 191.45C217.086 191.935 220.105 192.598 223.045 193.424C245.005 199.703 264.541 215.89 274.91 239.117C275.037 239.407 275.201 239.746 275.325 240.037C276.566 242.906 277.642 245.812 278.55 248.73C283.767 265.563 283.581 283.41 277.835 299.878C275.611 306.272 272.646 312.226 268.994 317.586C277.105 309.112 282.467 300.634 285.285 295.554C289.382 288.121 294.405 276.915 296.567 263.736C296.859 261.989 297.095 260.255 297.284 258.443C298.447 246.826 297.228 233.905 291.35 220.729C289.292 216.081 286.834 211.696 284.012 207.628C282.766 208.121 281.5 208.528 280.182 208.832C277.767 209.39 275.183 209.61 272.553 209.494C267.579 209.254 262.805 207.867 258.812 205.864C254.962 203.973 251.803 201.578 249.868 199.216C249.789 199.117 249.682 199.028 249.63 198.923C246.955 195.489 247.313 193.031 248.049 191.587C249.503 188.733 252.77 187.978 256.944 187.014C258.292 186.703 259.713 186.346 261.237 185.934C259.034 184.533 256.713 183.247 254.312 182.122C254.002 182.162 253.722 182.198 253.419 182.268C245.276 183.456 237.214 181.38 230.19 176.892C230.172 177.187 230.145 177.453 230.107 177.781C230.02 178.785 229.273 179.565 228.366 179.774C228.12 179.831 227.861 179.834 227.629 179.83C226.351 179.69 225.428 178.571 225.573 177.323C225.671 176.49 225.713 175.668 225.733 174.882C225.747 174.446 225.748 174.069 225.768 173.659C225.767 173.397 225.791 173.132 225.761 172.88C225.736 172.509 225.755 172.097 225.729 171.727C225.703 171.242 225.682 170.782 225.631 170.303C225.511 169.028 225.318 167.827 225.038 166.734C223.955 162.293 221.72 159.134 218.527 157.585C218.493 157.561 218.457 157.541 218.43 157.547C218.382 157.587 218.37 157.532 218.337 157.512C218.043 157.377 217.725 157.248 217.414 157.146C216.719 156.902 216.018 156.744 215.307 156.677C215.041 156.65 214.776 156.626 214.48 156.606C214.303 156.59 214.104 156.607 213.929 156.591C213.553 156.589 213.177 156.591 212.813 156.646C212.752 156.629 212.668 156.648 212.614 156.661C210.14 156.973 207.657 158.125 205.675 160.06C203.921 161.74 202.744 163.777 202.141 166.057C201.547 168.25 201.483 170.726 201.972 173.336L202.035 173.609C202.075 173.919 202.158 174.277 202.234 174.607C202.335 175.046 202.467 175.48 202.609 175.969C202.621 176.023 202.646 176.131 202.686 176.182C202.861 176.692 203.029 177.172 203.213 177.711C203.226 177.765 203.266 177.813 203.278 177.867C203.41 177.808 203.572 177.771 203.71 177.739C203.585 177.828 203.442 177.947 203.337 177.999C203.461 178.29 203.551 178.557 203.705 178.841C204.074 179.682 203.899 180.678 203.292 181.312C203.09 181.561 202.839 181.733 202.552 181.859C201.372 182.391 200.035 181.861 199.536 180.702C199.48 180.598 199.428 180.496 199.403 180.385C197.057 181.623 194.571 182.513 191.991 183.109C191.249 183.281 190.501 183.425 189.774 183.536C181.954 187.629 174.416 193.077 167.487 199.656C169.239 198.587 171.128 197.629 173.099 196.769ZM252.393 194.986C252.457 195.142 252.559 195.324 252.712 195.491C252.764 195.593 252.823 195.725 252.939 195.844C258.362 199.165 267.955 202.364 276.838 198.863C278.271 198.301 279.659 197.547 281.009 196.625C282.359 195.706 283.713 194.555 284.974 193.249C293.673 184.06 292.425 173.781 289.789 167.877C289.025 169.211 288.265 170.427 287.466 171.595C287.206 171.975 286.946 172.354 286.658 172.737C286.336 173.22 285.959 173.711 285.6 174.171C285.277 174.65 284.894 175.115 284.556 175.541C284.194 175.972 283.831 176.401 283.496 176.827C282.042 178.554 280.566 180.053 279.106 181.374C278.766 181.655 278.432 181.963 278.113 182.21C277.025 183.129 275.963 183.924 274.89 184.663C274.239 185.104 273.608 185.509 273.002 185.883C272.269 186.34 271.521 186.744 270.797 187.114C269.998 187.532 269.217 187.915 268.452 188.234C267.874 188.484 267.316 188.699 266.792 188.937C266.532 189.054 266.283 189.112 266.049 189.225C265.215 189.504 264.412 189.778 263.662 190.036C263.146 190.184 262.656 190.326 262.198 190.463C260.646 190.878 259.216 191.209 257.925 191.507C255.15 192.148 252.544 192.75 252.046 193.732C252.011 193.828 251.989 194.238 252.393 194.986ZM281.09 140.73C281.325 136.998 281.162 133.157 280.623 129.315C277.171 105.357 259.001 88.0711 240.162 90.8028C239.38 90.9235 238.659 91.0615 237.891 91.2391C229.101 93.2693 221.858 99.4875 217.233 108.143C216.661 109.171 216.149 110.216 215.677 111.308C215.556 111.539 215.472 111.792 215.412 112.037C214.729 113.583 214.173 115.189 213.692 116.862C213.551 117.388 213.407 117.886 213.295 118.403C212.796 120.254 212.455 122.158 212.176 124.076C211.957 125.632 211.798 127.203 211.735 128.808C211.586 132.173 211.73 135.673 212.233 139.232C212.587 141.643 213.072 143.991 213.714 146.276C214.196 148.103 214.795 149.818 215.481 151.542C215.552 151.728 215.633 151.94 215.698 152.099C217.097 152.269 218.477 152.615 219.767 153.186C219.99 153.277 220.248 153.392 220.472 153.486C223.373 154.9 229.392 159.155 230.191 170.639C230.201 170.927 230.23 171.18 230.246 171.496C236.897 176.501 244.746 178.916 252.693 177.745C253.364 177.65 254.058 177.518 254.773 177.353C262.948 175.551 270.007 170.042 274.889 161.735C277.539 157.185 279.39 152.038 280.361 146.601C280.73 144.691 280.992 142.692 281.09 140.73ZM351.441 126.796C343.233 125.826 336.156 125 331.744 123.182C323.277 119.723 312.687 108.069 304.184 98.6841C301.126 95.3355 298.524 92.4636 296.553 90.5721C287.081 81.4997 241.026 81.396 210.786 88.3807C205.897 89.5099 201.456 90.8237 197.607 92.3201C203.412 95.7868 208.576 100.847 212.601 107.126C218.229 95.9259 227.788 87.9552 239.491 86.2672C260.845 83.1569 281.331 102.197 285.153 128.645C285.939 134.05 285.967 139.43 285.306 144.59C295.028 151.611 311.271 153.157 326.097 154.597C340.568 156.002 353.145 157.209 359.71 162.844C370.373 157.775 380.572 145.197 383.39 137.976C384.201 135.847 384.133 134.936 384.076 134.69C376.903 129.803 362.987 128.184 351.441 126.796ZM368.705 245.625C369.62 250.971 369.336 255.873 368.278 260.431C368.693 260.104 369.047 259.76 369.48 259.372C371.058 257.936 372.914 256.204 377.269 254.012C373.409 219.263 366.09 179.058 358.546 168.323C356.328 169.24 354.146 170.063 352.024 170.901C336.662 176.793 328.722 180.367 330.283 190.631C332.266 203.722 340.6 210.742 349.409 218.206C357.798 225.33 366.562 232.715 368.705 245.625ZM387.929 138.838C385.181 146.855 374.457 160.422 362.715 166.461C370.436 179.098 377.652 217.847 381.555 252.038C382.136 251.787 382.748 251.56 383.41 251.29C381.515 237.077 379.469 220.207 378.636 206.821C377.964 196.409 385.021 188.874 390.318 188.141C393.369 187.699 395.77 189.314 396.449 192.257C398.563 201.409 400.359 221.838 401.462 238.897C401.985 238.517 402.523 238.219 403.109 237.881C403.932 237.431 404.744 237.07 405.625 236.749C404.226 214.78 401.3 185.085 396.151 162.793C393.845 152.932 391.122 144.528 387.929 138.838ZM395.091 247.261C395.501 245.777 396.182 244.345 397.103 243.06C396.093 225.663 394.192 203.026 391.951 193.324C391.837 192.829 391.723 192.595 390.968 192.71L390.695 192.773C387.728 193.458 382.656 198.684 383.146 206.561C383.969 219.516 385.936 235.797 387.787 249.7C389.942 248.883 392.363 248.093 395.091 247.261ZM451.866 266.719C451.303 258.394 442.648 249.737 428.121 242.962C421.861 240.033 415.677 239.061 410.42 240.101C408.815 240.412 407.303 240.878 405.875 241.584C405.666 241.69 405.433 241.804 405.226 241.908C403.865 242.656 402.68 243.54 401.779 244.529C401.056 245.275 400.473 246.134 400.062 246.982C400.656 247.047 401.283 247.133 401.917 247.246C403.383 247.458 404.834 247.73 406.238 248.045C407.854 248.396 409.397 248.821 410.899 249.312C429.621 255.207 441.96 269.557 445.465 279.46C449.917 275.825 452.186 271.364 451.866 266.719ZM389.938 313.999C393.365 315.438 396.62 315.002 398.615 312.862C399.178 312.298 399.985 312.026 400.739 312.169C401.524 312.307 402.178 312.88 402.43 313.603C403.456 316.292 405.8 317.167 407.622 317.414C411.386 317.933 416 316.231 417.884 313.623C418.213 313.171 418.691 312.858 419.213 312.738C419.652 312.636 420.158 312.693 420.6 312.851C421.91 313.389 423.369 313.198 425.122 312.271C431.738 308.716 439.31 295.529 441.806 283.285C440.532 276.399 429.939 260.722 411.093 254.16C409.577 253.612 408.054 253.154 406.463 252.769C405.073 252.394 403.622 252.122 402.183 251.904C400.704 251.638 399.154 251.446 397.596 251.344C397.529 251.3 397.448 251.318 397.358 251.311C393.908 252.398 390.947 253.37 388.438 254.269C386.785 254.882 385.346 255.417 384.059 255.976C383.342 256.256 382.713 256.547 382.108 256.803C380.371 257.552 378.976 258.279 377.794 258.929C375.081 260.451 373.74 261.659 372.573 262.741C372.049 263.238 371.569 263.666 371.008 264.115C369.815 265.086 368.124 265.91 366.324 266.759C366.091 266.873 365.884 266.978 365.65 267.089C363.449 268.09 360.94 269.249 359.426 270.582C358.752 271.171 358.256 271.779 358.174 272.434C358.139 272.531 358.158 272.612 358.163 272.756C358.049 274.142 358.751 276.181 360.28 277.913C360.595 278.274 360.937 278.631 361.335 278.972C363.355 280.707 366.949 282.366 372.603 280.538C373.566 280.199 374.64 280.59 375.207 281.414C375.78 282.265 375.718 283.38 375.061 284.168C372.476 287.257 370.591 289.369 369.212 290.905C366.192 294.237 366.199 294.264 366.254 295.64C366.329 296.841 368.083 300.547 371.212 302.314C373.7 303.706 376.529 303.546 379.61 301.851C379.685 301.805 379.79 301.75 379.898 301.725C380.54 301.491 381.302 301.546 381.885 301.933C382.588 302.349 383.005 303.151 382.996 303.992C382.991 304.341 382.99 304.717 383.039 305.054C383.433 304.76 383.851 304.433 384.259 304.076C384.144 305.58 383.952 306.87 383.699 307.912C383.963 308.547 384.268 309.113 384.62 309.639C385.917 311.626 387.893 313.168 389.938 313.999ZM364.601 313.655C365.661 313.354 366.636 313.068 367.551 312.772C373.545 310.922 376.439 309.415 377.816 308.49C378.335 308.108 378.675 307.827 378.836 307.647C378.771 307.488 378.733 307.323 378.695 307.158C374.54 308.465 371.186 307.472 368.967 306.248C364.381 303.689 361.765 298.502 361.63 295.782C361.477 292.489 362.529 291.291 365.739 287.77C366.248 287.219 366.8 286.598 367.463 285.837C363.011 285.736 359.962 283.806 358.277 282.399C358.022 282.17 357.772 281.965 357.544 281.73C355.92 283.958 354.247 286.11 352.595 288.228C350.474 290.948 348.466 293.524 346.732 296.041C345.813 297.322 344.982 298.615 344.263 299.881C340.728 305.996 339.49 311.782 343.185 318.14C343.279 318.289 343.338 318.421 343.376 318.586C351.515 316.997 358.71 315.335 364.601 313.655ZM340.493 297.336C341.26 296.03 342.07 294.771 342.955 293.466C344.793 290.783 346.9 288.126 348.993 285.413C350.96 282.903 352.89 280.372 354.75 277.77C353.753 275.714 353.342 273.55 353.65 271.626C354.352 267.529 358.598 265.245 362.707 263.369C364.521 258.202 365.256 252.618 364.218 246.37C362.32 235.141 354.615 228.583 346.455 221.697C337.396 214.032 328.009 206.094 325.75 191.301C323.586 176.919 335.999 172.17 350.398 166.615C351.837 166.08 353.27 165.518 354.777 164.907C348.638 161.375 337.451 160.284 325.735 159.166C311.112 157.739 295.194 156.203 284.522 149.578C283.397 154.731 281.512 159.595 278.945 164.011C274.373 171.783 268.092 177.402 260.722 180.322C262.774 181.439 264.77 182.686 266.695 184.009C272.974 181.256 279.994 176.073 286.281 164.835C286.384 164.665 286.491 164.498 286.604 164.355C287.012 163.739 287.533 163.242 288.065 162.917C288.265 162.785 288.492 162.644 288.735 162.56C289.05 162.43 289.401 162.32 289.771 162.292C289.876 162.239 289.99 162.241 290.108 162.243C290.396 162.233 290.656 162.233 290.948 162.251C294.334 162.627 297.823 166.338 299.936 171.843C301.351 175.6 305.15 188.791 293.72 200.929C291.997 202.744 290.125 204.277 288.125 205.521C290.966 209.672 293.476 214.159 295.576 218.855C301.566 232.268 303.528 246.898 301.546 261.861C301.335 263.59 301.039 265.306 300.713 267.032C298.739 277.274 294.932 287.592 289.322 297.747C285.316 304.957 276.517 318.714 262.061 330.16C290.172 327.228 317.4 323.486 338.807 319.468C334.515 311.543 336.36 304.37 340.493 297.336ZM333.441 387.182C333.01 386.934 332.549 386.693 332.066 386.488C332.148 386.845 332.245 387.139 332.321 387.47C332.51 388.41 332.715 389.175 332.854 389.779C333.062 390.54 333.089 391.287 333.007 392.059C332.39 396.778 326.239 400.716 319.647 402.732L318.834 402.977C312.175 404.834 304.122 405.043 301.259 400.03C301.059 399.672 300.889 399.303 300.743 398.932C300.445 398.134 300.1 397.025 299.687 395.731C299.381 394.79 299.059 393.764 298.738 392.62C298.152 393.22 297.591 393.929 297.154 394.666C296.776 395.275 296.462 395.926 296.156 396.604C295.972 397.054 295.806 397.469 295.682 397.931C295.267 399.27 295.114 400.609 295.159 401.93C295.301 404.418 296.195 406.672 297.835 408.378C298.057 408.586 298.283 408.824 298.526 408.999C302.55 412.384 309.796 412.94 319.065 410.48C332.477 406.92 338.712 399.224 337.987 393.458C337.946 393.034 337.85 392.619 337.755 392.208C337.087 390.19 335.621 388.475 333.441 387.182ZM290.482 401.1C290.524 401.033 290.562 400.936 290.603 400.869C290.635 399.502 290.857 398.09 291.279 396.661C291.557 395.727 291.902 394.838 292.307 393.963C291.101 389.001 288.495 384.102 284.746 380.015C288.196 386.572 289.848 394.095 290.482 401.1ZM342.579 394.424C342.561 401.608 336.015 410.474 321.048 414.684L320.235 414.929C309.683 417.714 302.905 416.673 298.612 414.508C296.913 413.658 295.603 412.628 294.579 411.562C294.356 411.351 294.155 411.11 293.987 410.889C293.318 410.117 292.785 409.313 292.322 408.433C291.815 409.623 291.313 410.956 290.767 412.354C287.073 422.038 282.737 436.33 283.002 449.499C283.787 451.143 285.025 452.505 286.674 453.63C287.822 454.465 289.197 455.163 290.755 455.758C300.813 459.6 317.942 458.481 333.482 454.11C333.914 453.982 334.347 453.853 334.788 453.751C354.242 448.043 372.972 436.708 371.556 424.181C365.557 412.741 355.175 400.865 342.579 394.424ZM289.75 471.334C293.825 476.443 311.137 476.99 330.874 472.633C351.682 468.033 373.898 458.122 376.699 446.446C377.607 442.615 376.954 437.528 374.973 431.963C372.555 438.022 366.872 443.358 359.798 447.801C352.696 452.25 344.161 455.755 336.036 458.154C335.574 458.289 335.114 458.424 334.646 458.532C318.152 463.154 300.251 464.306 288.908 459.92C287.416 459.338 286.044 458.669 284.794 457.888C284.421 457.655 284.044 457.394 283.698 457.154C283.809 457.882 283.968 458.569 284.127 459.257C284.609 461.347 285.284 463.392 286.159 465.303C287.091 467.46 288.273 469.445 289.75 471.334ZM279.332 467.806C279.888 466.954 280.479 466.007 281.078 464.971C280.248 462.759 279.639 460.496 279.214 458.162C279.194 458.195 279.173 458.231 279.18 458.258C274.569 467.603 269.366 474.508 263.929 478.658C269.849 477.351 275.387 473.899 279.332 467.806ZM243.29 475.609C245.078 476.585 247 477.387 248.988 477.969L249.136 477.995C249.327 478.065 249.511 478.11 249.728 478.174C250.13 478.284 250.539 478.423 250.927 478.476C260.038 479.848 269.231 468.169 275.072 456.253C276.228 453.873 277.354 451.354 278.385 448.684C278.306 435.181 282.495 421.011 286.248 411.199C286.768 394.287 282.567 378.608 270.704 370.838C270.637 370.796 270.619 370.715 270.558 370.698C270.077 370.492 269.681 370.41 269.253 370.306C266.243 369.436 263.012 368.968 259.634 368.995C254.612 369.054 250.038 370.285 246.087 372.355C254.414 377.207 261.353 387.968 260.62 402.585C259.68 422.055 247.544 431.14 236.688 431.361C234.759 431.401 232.793 431.16 230.847 430.625C231.131 431.977 231.53 433.333 231.944 434.743C241.047 440.342 254.438 438.321 259.322 432.531C260.139 431.561 261.592 431.457 262.556 432.246C263.524 433.066 263.628 434.519 262.838 435.483C257.865 441.379 246.229 444.358 235.987 441.483C234.315 440.999 232.691 440.362 231.113 439.54C224.31 457.556 233.214 470.178 243.29 475.609ZM224.476 421.327C225.913 423.165 227.727 424.514 229.701 425.418C231.866 426.395 234.202 426.868 236.556 426.786C245.663 426.624 255.181 418.983 256.022 402.344C256.683 388.784 249.603 378.549 241.605 375.244C240.743 374.893 239.859 374.575 238.981 374.401C237.952 374.206 236.963 374.058 235.991 374.108C232.347 374.112 229.056 375.653 226.345 378.566C227.82 379.064 229.448 379.472 231.192 379.762C231.895 379.919 232.576 379.992 233.355 380.103C234.301 380.201 235.243 380.391 236.153 380.7C243.31 382.871 247.941 390.022 248.261 399.677C248.551 408.7 244.565 419.119 236.6 420.583C234.355 421.013 231.81 421.139 229.083 420.987C227.594 420.923 226.024 420.767 224.427 420.497C224.252 420.481 224.048 420.471 223.857 420.398C223.966 420.749 224.235 421.035 224.476 421.327ZM221.782 376.726C226.516 370.913 232.879 368.4 239.889 369.937C240.221 370.006 240.529 370.078 240.834 370.152C246.017 366.668 252.348 364.51 259.529 364.417C273.933 364.275 290.094 373.368 295.673 389.131C296.161 388.613 296.725 388.164 297.292 387.745C295.775 382.421 287.697 340.945 285.515 332.125C275.532 333.359 265.124 334.519 254.456 335.564C247.955 339.728 240.539 343.323 232.155 345.724C229.849 346.517 227.568 347.16 225.261 347.693C216.856 349.634 208.185 350.043 199.56 348.91C202.253 373.592 220.04 375.825 221.782 376.726ZM114.542 331.662C119.16 335.371 136.591 336.817 160.501 336.624C160.982 336.57 161.473 336.573 161.945 336.606C162.006 336.624 162.094 336.632 162.178 336.613C163.647 336.59 165.179 336.584 166.706 336.55C153.701 327.972 143.251 315.678 136.656 300.903C123.573 271.555 128.584 238.898 146.917 216.682C147.007 216.576 147.049 216.509 147.071 216.473C156.351 202.924 167.831 191.615 180.329 183.604C175.534 183.004 170.831 181.31 166.442 178.589C164.689 177.516 162.988 176.29 161.33 174.876C160.752 174.374 160.167 173.842 159.586 173.34C155.342 169.37 151.791 164.513 149.091 159.086C148.687 159.211 148.219 159.319 147.786 159.447C139.101 161.684 130.881 163.292 123.587 164.661C106.522 167.935 94.1653 170.299 89.178 178.397C88.1884 179.988 87.4847 181.83 87.0967 183.916C87.0106 184.284 86.9551 184.673 86.9266 185.056C84.845 201.462 92.055 313.722 114.542 331.662ZM35.1113 121.544C34.9816 121.488 34.8783 121.424 34.7242 121.374C33.0681 120.599 31.5826 120.797 30.0616 121.989C28.0168 123.531 27.3269 125.803 27.4619 128.264C27.6691 131.544 29.3901 135.229 31.4402 138.229C32.6819 140.086 34.1222 141.693 35.5958 143.06C35.6978 142.749 35.8595 142.449 36.0156 142.125C37.5785 138.867 40.3791 135.585 43.3336 132.847C41.3081 127.843 38.2453 123.224 35.1113 121.544ZM47.2246 87.1895C46.718 86.873 45.9223 86.5635 44.536 87.2031C43.4605 87.6825 42.5965 88.9542 41.9941 90.9753C39.2652 99.8262 42.8943 119.168 47.0668 129.726C48.5232 128.637 49.9137 127.769 51.1016 127.146C52.08 126.629 53.2567 126.329 54.5798 126.169C53.7235 97.4134 50.1434 89.0616 47.2246 87.1895ZM76.6461 91.9448C75.9447 90.6612 75.081 89.934 73.794 89.621C73.4956 89.5759 73.0585 89.5599 72.3805 90.0074C67.2639 93.5331 62.4977 112.353 60.0722 126.406C63.2215 126.893 66.5692 127.856 69.4533 129.072C69.9438 129.307 70.4524 129.509 70.9068 129.723C77.3229 111.911 79.5347 97.5622 76.6461 91.9448ZM41.2471 181.563C41.8762 183.534 43.127 185.184 44.8484 186.378C45.4374 186.792 46.0986 187.161 46.8069 187.462C47.6055 187.797 48.5602 188.041 49.6037 188.176C55.4471 189.056 64.4463 187.18 70.2643 184.185C71.8449 183.387 73.1883 182.438 74.1826 181.484C74.5101 181.149 74.8168 180.847 75.0202 180.481C76.9617 177.862 75.7833 174.513 74.1891 171.87C72.5896 173.834 69.8925 175.44 66.7521 176.745C62.1726 178.584 56.6691 179.681 52.2334 179.896C50.5418 179.967 49.0598 179.933 47.7845 179.794C45.7912 179.559 44.2682 179.101 43.1505 178.521C42.0925 177.952 41.3592 177.283 40.8784 176.585C40.6091 178.295 40.7373 179.973 41.2471 181.563ZM38.7081 169.065C39.6801 169.767 40.5854 170.428 41.4839 171.058C41.8571 171.292 42.1396 171.514 42.4559 171.761C42.8958 172.035 43.294 172.377 43.7041 172.658C44.0835 172.919 44.3506 173.322 44.506 173.748C44.7648 174.498 46.9884 175.607 52.0201 175.343C60.9185 174.907 70.4112 170.921 71.0685 168.248C71.1407 167.944 71.2406 167.747 71.3676 167.543C72.1268 166.324 72.8596 165.114 73.5521 163.854C77.6366 156.86 80.4758 149.486 78.1999 142.139C77.6138 140.218 75.8767 138.216 73.3166 136.403C72.4479 135.766 71.4649 135.152 70.3832 134.592C70.0495 134.406 69.7192 134.223 69.3383 134.08C68.811 133.797 68.2602 133.548 67.6823 133.305C64.7308 132.045 61.8313 131.269 59.3759 130.909C57.5144 130.615 55.888 130.586 54.6613 130.781C54.0425 130.867 53.529 131.014 53.1404 131.221C51.8984 131.855 50.5925 132.707 49.2818 133.674L48.6163 134.176C47.5422 135.031 46.4847 135.971 45.4696 136.959C45.2884 137.174 45.0713 137.37 44.8562 137.562C42.0986 140.4 39.8684 143.522 39.3755 145.894C39.2548 146.384 39.2151 146.829 39.2831 147.247C39.4724 148.449 41.721 150.419 45.5259 151.362C45.9214 151.445 46.3169 151.528 46.7394 151.604C48.8458 151.959 56.0082 152.648 59.2746 146.248C59.8214 145.109 61.2189 144.641 62.3637 145.215C63.5695 145.806 63.9142 147.175 63.334 148.293C59.6353 155.574 51.9148 157.098 45.9556 156.099C43.249 155.652 40.3399 154.588 38.1739 152.975C37.5014 154.693 36.4591 156.439 34.8361 157.684C33.9972 158.311 32.7615 158.973 31.1587 159.169C33.0621 164.027 35.8546 166.858 38.7081 169.065ZM20.2882 145.931C22.6351 149.327 25.4283 151.779 27.801 153.027C29.616 153.996 31.2389 154.257 32.1715 153.666C32.4969 153.445 33.0833 152.354 32.9281 149.67C32.8554 148.615 32.6855 147.496 32.4191 146.343C30.6833 144.717 29.062 142.833 27.6745 140.838C25.3276 137.442 23.8299 134.081 23.2273 130.978L23.033 130.878C21.5739 130.203 20.3409 130.371 18.9803 131.381C14.7309 134.649 17.0137 141.273 20.2882 145.931Z" fill="#3A0E05"/>
</g>
</svg>
