<svg width="209" height="269" viewBox="0 0 209 269" fill="none" xmlns="http://www.w3.org/2000/svg">
<mask id="mask0_714_1497" style="mask-type:luminance" maskUnits="userSpaceOnUse" x="9" y="0" width="200" height="269">
<path d="M9.12109 0H208.128V268.479H9.12109V0Z" fill="white"/>
</mask>
<g mask="url(#mask0_714_1497)">
<path fill-rule="evenodd" clip-rule="evenodd" d="M12.5205 267.781C12.5205 267.781 10.5662 261.906 9.63067 243C8.69512 224.099 8.94979 212.427 11.2419 208.849C13.5392 205.276 17.0215 205.697 21.8655 207.151C26.7096 208.599 30.2751 208.593 31.5484 198.291C32.8218 187.984 36.7303 169.25 41.4912 164.229C46.2469 159.203 51.855 158.776 54.6617 163.718C57.4631 168.656 65.961 177.765 68.7624 168.145C71.5691 158.52 76.2416 144.468 79.9786 139.447C83.7156 134.421 89.2405 131.187 93.6584 135.359C98.0762 139.531 98.5856 143.703 104.277 143.364C109.968 143.02 110.904 136.041 111.668 131.953C112.432 127.864 115.659 113.64 118.466 111.427C121.267 109.213 124.708 110.364 126.709 112.75C128.705 115.135 132.738 117.307 134.651 114.666C136.564 112.026 136.86 110.447 136.86 104.02C136.86 97.5881 137.286 89.6714 138.133 87.1142C138.986 84.5621 140.431 81.7496 142.468 81.4527C144.511 81.1558 146.719 82.9839 148.164 84.7756C149.609 86.5621 150.498 86.9475 152.452 86.3485C154.407 85.7548 154.744 82.9423 154.235 78.4735C153.726 73.9996 152.239 64.9318 152.619 62.2912C153.003 59.6506 153.897 54.7964 156.574 53.01C159.251 51.2235 162.608 51.7339 164.687 52.9683C166.771 54.2027 171.059 55.0985 172.249 51.2652C173.44 47.4266 173.055 37.635 173.055 34.4006C173.055 31.1662 174.032 21.4162 177.816 19.9683C181.595 18.5204 183.507 19.8381 185.248 20.0933C186.99 20.3485 187.073 20.4371 188.902 17.6662C190.727 14.9006 190.176 13.8746 193.024 12.4735C195.867 11.0673 196.376 9.57768 198.419 6.72352C200.456 3.87456 204.157 0.0412265 206.491 -0.00564952C208.829 -0.0421069 206.62 4.68185 205.727 6.2131C204.833 7.74435 199.609 16.26 203.133 18.8589C206.662 21.4579 210.274 23.2027 206.574 29.7183C202.878 36.2339 196.34 45.9839 196.595 48.3694C196.849 50.7496 197.951 52.1141 200.503 52.7756C203.05 53.4371 206.064 60.0777 197.4 67.911C188.736 75.7496 184.063 82.2183 186.355 84.5204C188.648 86.8173 193.746 90.9892 188.653 95.6767C183.554 100.359 170.046 112.364 172.759 116.963C175.482 121.562 183.128 126.416 176.589 131.953C170.046 137.489 155.602 144.895 152.031 150.859C148.466 156.817 148.934 158.906 150.124 163.161C151.309 167.421 149.911 174.572 139.542 178.828C129.178 183.088 109.126 188.197 104.033 189.984C98.9338 191.776 94.0066 194.666 98.3361 201.14C102.671 207.614 96.9796 214.937 87.5461 216.724C78.1179 218.515 56.1949 221.322 52.9673 224.729C49.7396 228.135 49.485 232.307 51.6939 236.057C53.9028 239.802 56.0286 246.276 45.6596 250.958C35.2958 255.64 21.1067 262.5 17.4113 265.776C13.7159 269.057 12.9103 268.843 12.5205 267.781Z" fill="#496CBE"/>
</g>
<mask id="mask1_714_1497" style="mask-type:luminance" maskUnits="userSpaceOnUse" x="9" y="3" width="199" height="266">
<path d="M9.3125 3.42773H207.565V268.49H9.3125V3.42773Z" fill="white"/>
</mask>
<g mask="url(#mask1_714_1497)">
<path fill-rule="evenodd" clip-rule="evenodd" d="M43.5898 173.026C42.9609 173.036 42.0825 173.588 41.5835 174.187C40.6324 175.323 40.9858 176.541 41.6615 177.62C41.963 178.104 42.3892 178.213 42.5919 178.51C42.7374 178.724 42.6958 180.344 44.2083 180.031C44.6553 179.942 45.8403 179.312 46.2405 178.974C47.1293 178.229 46.7031 177.375 46.5056 176.687C46.2613 175.823 45.3309 172.989 43.5898 173.026ZM41.2457 199.411C38.1844 199.599 38.7041 202.734 39.7904 204.375C40.991 206.187 45.3725 205.422 43.7197 202.541C43.4962 202.156 43.3767 202.073 43.2467 201.651C43.0181 200.885 42.3528 199.349 41.2457 199.411ZM41.2301 200.531C42.2904 200.521 43.6885 204.875 41.8642 204.036C38.6314 202.541 40.0503 200.552 41.2301 200.531ZM70.4764 192.911C70.0865 192.901 69.8423 193.026 69.572 193.177C69.3589 193.297 69.0263 193.51 68.7976 193.677C68.1427 194.151 67.9452 194.838 68.0959 195.635C68.5585 198.067 71.8277 198.963 72.8776 197.802C73.4753 197.14 73.5117 196.312 73.257 195.661C72.8776 194.692 72.1759 192.974 70.4764 192.911ZM69.6863 196.906C69.5928 196.75 69.3017 196.156 69.1978 195.87C69.073 195.541 68.9379 195.062 69.2705 194.63C70.7674 192.682 72.9556 195.812 72.0304 196.948C71.573 197.51 71.3495 196.797 70.7934 196.635C70.3516 196.505 70.0502 196.75 69.6863 196.906ZM103.22 161.39C102.555 161.416 102.087 161.682 101.635 162.396C100.762 163.781 101.427 164.656 102.217 166.005C102.592 166.64 102.696 167.005 103.745 167.015C104.354 167.021 104.982 166.771 105.372 166.166C105.835 165.442 105.549 164.854 105.398 164.271C105.164 163.38 104.889 161.338 103.22 161.39ZM104.463 165.427C101.651 165.333 102.051 163.359 102.799 162.812C104 161.942 104.572 164.666 104.463 165.427ZM95.2216 184.786C93.6 184.677 92.6852 186.208 92.9555 187.442C93.075 187.974 93.3973 188.583 93.6052 189.146C93.9118 189.974 94.2133 189.979 95.206 190.12C98.9586 190.651 97.2902 184.922 95.2216 184.786ZM94.8889 185.776C96.2819 186.614 97.0147 189.187 95.6166 188.995C94.7538 188.875 94.1041 188.015 93.9534 187.515C93.6935 186.625 94.3016 186.234 94.8889 185.776ZM20.4298 223.599C18.7302 223.344 18.6886 224.312 18.6263 225.849C18.5951 226.515 18.5691 227.031 19.1928 227.38C19.8633 227.755 20.3882 227.682 20.9495 227.583C21.9942 227.37 23.0441 227.125 23.1637 225.437C23.2676 223.948 21.6928 224.01 20.4298 223.599ZM19.8633 226.317C19.9932 225.974 20.8092 225.219 21.1315 224.901C21.7552 225.088 21.75 225.291 21.9734 225.63C21.6096 226.187 20.5233 226.864 19.8633 226.317ZM28.0337 251.547C27.4776 252.255 26.7863 253.719 27.3424 254.416C27.909 255.135 29.3591 255.406 30.1387 255.359C32.2853 255.224 33.1844 252.406 31.4173 251.349C30.7416 251.156 30.3154 251.239 29.7541 251.333C29.4786 251.38 29.2395 251.427 28.9277 251.474L28.278 251.547C28.0389 251.557 28.1896 251.557 28.0337 251.547ZM31.2198 253.755C30.2842 254.786 27.4828 254.375 28.7354 253.177C29.1096 252.823 30.014 252.286 30.3778 252.328C30.9651 252.406 31.2406 253.375 31.2198 253.755ZM32.5295 233.307C33.0337 233.719 34.2603 233.713 34.7073 233.578C35.4713 233.344 35.6272 232.687 35.6532 231.812C35.5285 230.713 35.5181 230.182 35.0399 229.375C34.5098 228.505 33.8549 227.948 32.8778 228.474C30.804 229.594 32.3476 233.114 32.5295 233.307ZM34.2655 232.297C32.9453 232.255 32.1813 230.052 33.3559 229.583C34.1719 229.25 34.7696 231.536 34.2655 232.297ZM139.535 148.234C136.843 148.286 137.337 153.302 140.253 153.349C140.752 153.359 141.38 153.021 141.687 152.5C142.17 151.692 141.926 151.328 141.77 150.687C141.599 149.984 140.965 148.208 139.535 148.234ZM138.979 149.995C139.218 149.328 140.06 149.333 140.429 149.859C140.466 149.916 140.835 151.203 140.824 151.406C140.752 152.755 138.636 150.958 138.979 149.995ZM108.236 147.021C108.111 146.172 107.43 145.968 107.711 144.88C108.46 144.125 110.055 144.13 110.445 145.281C110.617 145.786 110.523 146.599 109.993 146.916C109.343 147.312 109.333 146.677 108.631 147.63L108.543 148.041C111.344 149.448 113.47 144.031 109.577 143.271C107.997 142.968 105.533 143.797 107.004 146.521C107.191 146.875 107.961 148.073 108.236 147.021ZM24.5254 209.489C25.1959 209.557 25.6117 209.687 26.3497 209.656C26.9163 209.63 27.54 209.484 28.1169 209.922C28.6262 210.307 29.2447 211.823 27.4516 212.771C23.5171 214.859 23.4703 210.745 24.5254 209.489ZM25.305 211.698C25.357 210.64 26.937 210.057 27.4516 211.172C26.937 211.974 26.1158 212.411 25.305 211.698ZM105.679 151.656C105.133 151.651 104.79 151.963 104.432 152.521C103.486 154.01 104.619 156.255 106.568 156.234C109.39 156.203 107.69 151.687 105.679 151.656ZM105.726 153.989C105.466 153.88 105.331 153.984 105.258 153.666C104.967 152.495 106.911 152.729 106.755 154.932C106.339 154.567 106.271 154.213 105.726 153.989ZM17.8259 245.76C18.6782 244.948 19.4163 244.906 19.0992 243.234C18.8913 242.094 18.4859 241.562 18.2105 240.635C17.3321 240.286 17.0878 240.208 16.4901 240.755C14.4995 242.567 15.7469 244.469 15.6117 245.661C16.8435 245.942 17.3685 245.682 17.8259 245.76ZM17.3945 244.567C16.62 244.286 16.1003 243.817 16.1835 243.166C16.2614 242.541 16.646 241.64 17.2229 241.552C17.7791 241.469 18.7094 243.12 17.3945 244.567ZM14.8789 252.38C14.3228 252.745 13.2053 253.224 13.3352 254.427C13.5275 256.146 17.197 256.234 17.9818 254.802C18.4963 253.87 17.4568 252.781 17.3269 252.448C16.3758 251.974 15.5701 252.094 14.8789 252.38ZM14.4995 254.328L16.1731 253.51C16.4641 253.385 16.3342 253.442 16.5109 253.411C17.5504 255.14 15.0088 254.656 14.4995 254.328ZM15.7469 262.88C15.778 263.583 15.6013 263.922 16.6096 264.088C19.3747 264.552 18.7562 262.791 17.5348 262.724C17.4568 262.719 15.7625 262.875 15.7469 262.88ZM131.308 156.156C129.842 156.255 129.14 158.203 129.619 159.213C130.284 160.599 130.372 161.437 132.165 161.656C134.65 161.958 133.376 156.021 131.308 156.156ZM132.539 160.593C131.131 160.255 131.391 160.531 130.7 159.26C130.201 158.349 130.435 157.75 131.256 157.099C131.963 157.354 131.848 157.479 132.316 158.677C132.555 159.271 132.638 159.734 132.539 160.593ZM58.0648 204.26C55.1958 203.87 56.1625 209.14 58.7664 208.942C61.8849 208.708 60.4348 204.588 58.0648 204.26ZM57.2696 206.265C57.2903 205.578 57.5606 205.177 58.2363 205.427C59.1874 205.776 59.5772 206.974 59.1406 207.734C58.1895 207.646 58.6365 207.229 57.649 207.609C57.4359 207.234 57.2488 206.812 57.2696 206.265ZM131.1 171.656C129.956 171.823 129.359 172.885 129.379 174.323C129.4 175.39 130.429 176.51 131.692 176.406C133.101 176.291 133.205 175.166 132.805 174.078C132.591 173.484 132.139 171.505 131.1 171.656ZM131.781 173.922C131.911 174.385 132.108 174.573 131.786 174.963C131.162 174.958 130.658 174.047 130.554 173.578L131.017 173.015C131.755 173.359 131.625 173.343 131.781 173.922ZM143.116 156.557C141.547 156.364 141.292 157.552 141.547 158.885C141.869 160.604 141.126 160.932 143.272 161.354C146.396 161.974 144.696 156.75 143.116 156.557ZM142.623 157.583C143.756 158.218 143.964 159.093 143.886 160.198C143.137 160.203 142.893 159.948 142.617 159.323C142.347 158.713 142.3 158.432 142.623 157.583ZM97.6904 143.078C95.8972 143.036 96.4326 144.745 96.6717 145.588C96.8224 146.135 97.0719 146.588 97.3941 146.974C98.0178 147.718 99.9409 147.458 100.32 146.828C101.058 145.583 99.4575 143.125 97.6904 143.078ZM97.732 144.192C98.6987 144.354 99.3432 145.125 99.2496 145.989C98.8806 146.052 98.2205 145.854 97.8203 145.599C97.207 145.208 97.3214 144.755 97.732 144.192ZM54.6656 193.052C52.2644 192.651 52.9764 197.396 55.4712 197.672C56.7394 197.807 57.5398 196.51 57.072 195.297C56.781 194.531 55.9078 193.265 54.6656 193.052ZM54.9827 195.755C54.598 195.245 54.6604 195.541 54.1563 195.229C54.1719 194.094 54.3018 193.646 55.3829 194.609C56.0222 195.177 56.3444 195.745 55.8298 196.583C55.1854 196.317 55.2893 196.166 54.9827 195.755ZM87.4513 162.401C88.9326 162.416 89.3484 163.536 89.7954 164.656C90.4347 166.265 89.5459 166.948 88.6312 166.911C87.0303 166.854 86.4482 165.531 86.1883 164.677C86.0376 164.198 85.757 163.703 86.1468 163.078C86.4118 162.646 86.8796 162.39 87.4513 162.401ZM87.2434 163.307C88.6831 163.213 88.8547 165.135 88.7455 165.781C88.1114 165.406 88.0698 165.239 87.8775 164.604C87.8567 164.599 86.1416 164.76 87.2434 163.307ZM31.62 206.344C31.6148 205.802 31.5056 205.505 31.2717 205.161C30.4246 203.922 29.1252 205.219 30.8144 206.844C31.0898 206.734 31.3445 206.64 31.62 206.344ZM85.2164 201.281C84.0626 201.323 83.179 202.166 83.7767 203.416C84.1249 204.14 84.2549 203.916 84.3484 204.76C84.4264 205.427 84.8734 205.573 85.5127 205.479C88.3973 205.062 87.706 201.187 85.2164 201.281ZM84.5615 202.692C84.8474 202.567 85.4919 202.396 85.9129 202.724C86.2091 202.953 86.2455 203.625 85.8557 203.948C85.3516 203.932 84.8162 203.13 84.5615 202.692ZM82.0564 192.291C80.8038 192.338 79.8994 193.734 80.2788 194.807C80.4451 195.26 80.9025 195.724 81.1208 196.13C81.4586 196.771 81.6198 197.036 82.4773 196.963C85.7154 196.703 83.7455 192.224 82.0564 192.291ZM83.1374 195.505C81.4586 196.198 80.627 194.317 81.4275 193.739C81.5886 193.625 82.1707 193.442 82.3942 193.422C82.7736 193.844 83.4701 194.807 83.1374 195.505ZM111.292 179.198C110.086 179.411 109.603 180.031 109.811 181.5C109.998 182.849 110.429 183.224 111.905 183.094C115.804 182.745 112.389 179.01 111.292 179.198ZM110.752 181.401C110.83 179.833 111.916 179.807 112.394 181.666L111.63 181.734C111.121 181.672 111.147 181.692 110.752 181.401ZM87.5761 169.489C86.1676 169.635 86.2819 170.916 86.3547 172.015C86.3962 172.646 86.2299 173.047 86.7185 173.453C87.0823 173.745 87.8723 174.078 88.3505 174.073C89.6083 174.067 89.5407 172.729 89.1925 171.724C88.8131 170.64 88.5272 169.39 87.5761 169.489ZM87.7372 170.698L88.2621 172.224C88.5324 173.239 87.5969 172.786 87.3942 172.073C87.2642 171.614 87.4565 171.182 87.7372 170.698ZM138.953 166.255C138.101 166.146 137.098 167.375 137.17 168.213C137.222 168.781 138.329 170.052 139.062 170.182C141.443 170.62 140.715 166.489 138.953 166.255ZM71.4379 173.234C71.8589 173.422 72.1915 173.328 72.5657 173.323C73.0751 172.453 75.2736 173.135 73.0647 169.859C72.7632 169.422 72.6021 168.932 71.8433 168.937C70.466 168.942 67.8984 170.291 71.4379 173.234ZM71.2404 172.396C71.1312 171.849 70.1437 170.359 71.3028 170.041C72.4774 169.713 72.8932 171.203 72.94 171.802C72.4566 172.078 71.8693 172.307 71.2404 172.396ZM39.0992 194.088C39.4734 193.375 39.1303 193.125 39.016 192.521L39.2031 192.442C39.2239 192.437 39.2655 192.422 39.2915 192.411C40.9235 192 41.0378 194.62 40.4817 194.817C39.6085 194.854 39.1095 194.015 38.6106 195.005C39.1927 196.833 43.1428 196.291 41.4328 192.63C39.7436 189.01 36.3653 193.541 39.0992 194.088ZM123.751 153.458C124.722 153.896 125.793 153.427 126.271 152.552C126.931 151.333 125.892 150.739 125.622 149.995C125.019 149.797 124.348 149.338 123.787 149.526C123.304 149.682 122.919 150.307 122.992 150.906C123.059 151.442 123.428 151.755 123.699 152.203C124.327 153.239 123.33 152.468 123.751 153.458ZM124.91 152.229C124.426 151.953 124.348 151.526 124.312 151.036L125.055 151.37L124.91 152.229ZM129.463 146.208C130.081 145.739 130.663 146.302 130.913 144.745C131.084 143.713 130.674 143.463 130.258 142.76L129.286 142.359C128.304 142.547 127.529 142.995 127.773 144.375C127.867 144.885 127.955 145.135 128.241 145.562C128.745 146.317 128.626 146.114 129.463 146.208ZM42.3268 209.63C41.6459 209.666 41.3964 209.995 41.043 209.948C40.3102 209.854 40.0399 209.161 39.8164 210.375C39.333 212.937 40.5804 212.791 42.1449 212.573C44.2862 212.271 43.7665 209.552 42.3268 209.63ZM40.991 211.297C41.386 210.859 41.5628 210.755 42.1293 210.823C41.9058 211.484 41.6511 211.62 40.991 211.297ZM30.1075 214.901C28.621 215.099 27.9973 218.703 31.0171 218.76C33.2104 218.802 31.7603 214.682 30.1075 214.901ZM30.2322 216.38C30.7104 216.625 30.7156 216.786 30.674 217.265L30.1959 217.005C30.1075 216.567 30.1387 216.812 30.2322 216.38ZM118.039 145.177C116.838 145.291 115.305 149.234 118.304 149.146C119.515 149.104 119.671 148.312 119.473 147.25C119.343 146.604 119.192 145.062 118.039 145.177ZM125.143 174.536C123.725 174.666 123.927 175.817 124.307 176.739C124.567 177.375 124.671 178.817 126.079 178.812C127.025 178.812 127.394 177.104 127.155 176.349C127.015 175.916 125.949 174.458 125.143 174.536ZM125.123 175.833L125.882 176.187L125.908 177.088C125.071 176.75 125.117 176.51 125.123 175.833ZM50.3413 195.745C50.7103 193.984 51.4692 194.969 51.1261 193.333C50.9858 192.661 50.1542 191.771 49.2083 192.067C47.1604 192.713 47.9557 195.364 50.3413 195.745ZM120.954 162.739C118.745 162.396 119.047 166.5 121.084 166.552C122.15 166.578 122.384 165.505 122.264 164.651C122.124 163.692 122.259 162.942 120.954 162.739ZM120.57 164.781C120.502 164.604 120.237 164.406 120.954 163.979C121.11 164.172 121.308 164.328 121.152 164.677C120.965 165.088 120.809 164.922 120.57 164.781ZM11.9683 228.416C11.5161 228.573 11.2822 228.635 11.0275 229.245C10.7729 229.854 11.355 232.161 12.8311 231.948C15.0712 231.625 13.486 227.906 11.9683 228.416ZM119.078 170.906C118.293 170.901 117.358 170.979 117.072 172.041C116.594 173.791 118.647 174.823 119.405 174.343L119.982 173.536C120.081 173.239 120.055 173.234 120.05 173.093C120.045 172.593 119.369 171.39 119.078 170.906ZM25.1023 232.255C24.224 232.39 23.673 232.911 23.7926 233.953C24.068 236.312 27.6387 235.932 26.7811 233.708C26.542 233.094 26.1626 232.088 25.1023 232.255ZM48.0648 207.078C46.386 207.12 46.2041 210.583 48.1947 210.807C49.0627 210.906 49.6604 209.692 49.4785 208.828C49.411 208.489 48.7821 207.057 48.0648 207.078ZM22.3529 250.041C21.5421 250.234 21.1626 250.161 20.7832 251C21.0327 251.427 20.934 251.286 20.9391 251.849C20.9443 252.385 20.8872 252.359 21.1367 252.682C21.7084 253.333 24.7957 253.583 23.6886 250.901C23.3716 250.135 23.1533 250.229 22.3529 250.041ZM38.1532 244.099C37.7062 244.604 36.9994 245.161 37.1709 246.067C37.3164 246.844 38.0077 246.937 38.7197 246.817C40.1127 246.594 41.5991 244.896 39.728 244.015C38.8653 243.786 38.6678 244.052 38.1532 244.099ZM77.2695 201.713C75.4088 201.776 75.6063 204.625 77.9711 205.109C79.1302 205.349 79.073 204.151 78.8859 203.385C78.7559 202.844 78.2726 201.682 77.2695 201.713ZM81.2092 162.942C81.942 162.864 84.338 165.781 82.0408 166.234C81.2715 166.39 79.9202 165.937 79.9877 165.093C80.0085 164.828 80.2892 164.026 80.4087 163.724C80.8349 162.656 81.0688 162.958 81.2092 162.942ZM99.3951 155.218C98.418 155.057 97.8619 155.547 97.8671 156.64C97.8723 157.364 98.0958 158.323 99.1093 158.489C100.637 158.739 101.443 155.557 99.3951 155.218ZM13.8394 217.817C11.6149 217.88 12.9766 221.187 14.5307 221.067C16.2458 220.942 15.5909 217.765 13.8394 217.817ZM78.995 175.838L78.0595 176.354C76.8069 177.703 78.0439 179.031 79.0054 179.12C79.8162 179.192 80.3984 178.229 80.3828 177.375C80.3776 176.854 79.837 175.713 78.995 175.838ZM62.2072 219.635C61.9837 219.286 61.7186 218.203 61.677 217.859C60.2529 217.901 59.0679 217.963 59.7228 220.166C59.8579 220.625 60.2581 221.286 61.0481 221.317C61.9317 221.349 61.9369 220.323 62.2072 219.635ZM83.6312 166.041C83.2102 166.401 82.4098 167.25 82.5397 168.078C82.6437 168.713 83.4285 169.406 84.3017 169.302C85.7777 169.12 85.9908 166.547 83.6312 166.041ZM105.996 169.791C104.858 169.885 104.27 173.073 106.64 173.026C108.345 172.989 107.883 169.635 105.996 169.791ZM87.4461 180.401C85.8609 180.239 85.1644 183.411 87.1395 183.739C88.9534 184.041 88.8858 180.547 87.4461 180.401ZM65.0658 201.015C62.8776 201.156 63.3038 203.984 65.1385 204.156C66.8849 204.317 66.6354 200.916 65.0658 201.015ZM89.4056 191.703C88.1426 191.562 88.0594 192.963 88.1322 193.406C88.1738 193.661 88.4181 194.208 88.5948 194.411C89.3484 195.312 89.2757 194.427 90.0449 194.297C90.0553 194.297 91.3962 194.39 91.0792 193.166C90.9025 192.489 90.3307 191.802 89.4056 191.703ZM72.9919 185.937C71.0169 186.411 72.2695 189.984 73.6208 189.416C75.3568 188.692 74.0418 185.682 72.9919 185.937ZM113.013 166.073C113.257 165.432 113.091 165.333 113.002 164.859C112.888 164.239 113.142 164.333 112.95 163.698C112.217 161.291 109.925 163.099 110.824 164.974C111.214 165.781 112.134 166.073 113.013 166.073ZM44.78 242.896C45.2062 242.114 45.4713 241.177 45.1594 240.562C44.8008 239.844 43.7665 239.651 43.1948 240.041C41.7914 241 42.8309 243.14 44.78 242.896ZM79.4628 152.843C77.9243 152.953 77.9347 155.896 80.0449 155.745C82.389 155.573 80.8401 152.739 79.4628 152.843ZM21.3446 240.661C20.9495 241.125 20.1491 241.802 20.2479 242.656C20.3362 243.37 21.2614 243.666 21.8955 243.578C23.5379 243.338 23.4911 241.213 21.8019 240.557C21.7344 240.609 21.4849 240.656 21.3446 240.661ZM96.5105 164.906C95.0345 165.109 95.3463 168.218 97.3837 167.828C98.0074 167.708 98.6103 166.927 98.3193 166.14C98.127 165.625 97.2954 164.802 96.5105 164.906ZM47.1708 235.521C46.8226 235.828 46.412 235.765 46.1937 236.359C46.0378 236.791 46.2561 237.432 46.5264 237.729C47.2384 238.51 48.4598 237.864 48.9692 237.51C49.7852 235.672 48.5222 235.635 47.1708 235.521ZM98.2049 178.224C98.9897 178.739 99.8161 178.588 100.372 178.094C101.069 177.474 100.674 177.021 100.144 175.948C99.5823 174.817 98.548 175.333 98.3764 175.875C98.2413 176.317 98.4856 176.614 98.4492 177.052C98.4024 177.682 98.1685 177.531 98.2049 178.224ZM104.457 185.823C102.825 186.823 104.286 189.229 105.284 189.005C106.677 188.692 107.061 186.469 104.457 185.823ZM51.36 163.427C49.3486 163.312 49.7072 166.463 51.3756 166.448C52.0461 166.442 52.8465 165.864 52.3164 164.484C52.0929 163.911 52.1292 163.468 51.36 163.427ZM50.3933 172.338C48.5378 172.682 49.6656 175.411 51.1209 175.323C51.9265 175.276 52.2644 174.5 52.0513 173.781C51.9161 173.333 51.017 172.218 50.3933 172.338ZM126.048 162.755C126.438 162.468 127.347 161.541 127.394 161.041C127.42 160.797 127.217 160.166 127.129 160.047C126.874 159.692 126.594 159.682 126.141 159.682C124.218 159.703 124.426 162.13 126.048 162.755ZM91.1779 147.255C89.1717 147.166 89.5147 150.078 90.996 150.297C92.0043 150.442 92.1706 149.724 92.0511 148.906C91.9679 148.359 91.9524 147.286 91.1779 147.255ZM147.295 151.567C145.98 151.687 145.107 154.088 147.529 154.5C148.584 154.682 148.491 153.765 148.35 153.083C148.22 152.474 148.283 151.474 147.295 151.567ZM65.388 215.281C65.0502 215.547 64.5824 215.781 64.3901 216.62C64.4265 217.75 64.7539 218.51 66.178 218.703C66.8485 217.875 66.7186 217.969 66.1728 217.312C66.8693 216.297 66.5523 215.484 65.388 215.281ZM92.2018 214.359C93.0438 213.833 93.2049 213.708 92.7216 212.828C92.5345 212.484 91.9316 211.375 91.3702 211.234C90.0917 210.911 89.9097 213.521 92.2018 214.359ZM37.3788 238.583C38.6002 234.088 34.0992 236.469 35.3933 238.015C35.8351 238.547 36.7499 238.489 37.3788 238.583ZM89.4732 156.448C88.6883 156.375 88.1374 156.573 88.4908 157.593C88.7143 158.239 89.0833 158.703 89.9773 158.771C91.5314 158.88 91.6041 156.635 89.4732 156.448ZM93.3037 204.724C92.6176 204.755 92.0771 205.172 92.2382 206.015C92.3422 206.562 92.4461 207.328 93.3817 207.354C95.232 207.401 94.5199 204.677 93.3037 204.724ZM57.5502 216.474C57.7633 215.948 57.5398 214.916 57.5034 214.385C56.7758 214.005 56.6147 214.031 56.1001 214.375C54.4057 215.531 55.3933 216.958 57.5502 216.474ZM43.1896 222.995C43.4858 224.588 46.2613 224.005 46.8278 222.812C47.0721 222.297 47.0201 222.302 46.9162 222.015L46.7291 221.234C46.5471 220.911 46.4848 220.838 46.0534 220.776C45.7415 220.734 45.4297 220.833 45.1594 220.797C44.6864 220.739 44.7124 220.573 44.2031 220.38C43.1376 221.005 43.0025 221.692 43.1896 222.995ZM45.8975 221.849C45.4401 222.745 45.1386 222.849 44.2187 222.713L44.6033 222.135C45.1646 221.906 45.2374 221.916 45.8975 221.849ZM69.0419 209.651C67.6593 209.937 68.1219 212.364 69.8319 212.078C71.1053 211.864 70.2425 209.401 69.0419 209.651ZM61.781 191.87C62.4307 193.151 64.4317 191.515 63.9275 190.453C63.6936 189.953 61.8018 189.646 61.6666 191.396C61.6302 191.859 61.6302 191.62 61.781 191.87ZM118.548 160.343L118.605 160.187C118.491 159.588 118.626 159.255 118.491 158.729C118.366 158.271 118.21 157.823 117.95 157.453C117.508 156.5 116.973 155.541 115.585 156.192C114.811 156.567 114.655 157.416 114.795 158.182C115.112 159.885 114.655 159.125 114.468 160.281C114.894 161.718 118.07 162.317 118.548 160.343ZM117.046 157.495C117.269 158.125 117.42 158.161 117.566 159.005C117.612 159.291 117.685 159.599 117.607 159.885C117.467 160.406 117.29 160.432 116.916 160.401C116.557 159.885 116.089 159.807 115.814 159.041C115.559 158.343 115.736 157.833 116.173 156.937L117.046 157.495ZM43.3403 186.213C43.4235 187.401 44.437 187.245 45.3101 186.958L46.1781 186.489C45.7415 186.078 45.5492 185.771 44.7748 185.901L43.3403 186.213ZM87.3422 140.364C87.5761 139.661 87.5189 139.578 88.1946 139.62C88.9326 140.031 89.0885 141.151 88.4545 141.948C88.4337 141.963 88.1374 142.432 87.6384 141.359C87.4565 140.968 87.4981 140.76 87.3422 140.364ZM39.3642 226.182C39.7177 225.995 40.1594 225.531 40.331 225.146C40.674 224.385 40.2738 224.276 39.6085 223.948C38.491 223.687 37.6854 224.219 37.3788 225.406L37.727 226.135C38.4339 226.609 38.9588 226.864 39.3642 226.182ZM42.0461 231.187C42.4931 231.521 43.0181 231.791 43.5794 231.703C44.1563 231.609 44.3174 231.229 44.6033 230.573L44.4993 230.495C44.463 230.172 44.5409 230.505 44.4318 230.099C44.4214 230.067 44.3174 229.797 44.307 229.76C44.1719 229.458 44.1511 229.427 43.9432 229.14C43.543 227.995 42.0097 228.646 41.7135 229.932C41.6823 230.479 41.8434 230.505 41.7915 231.026L42.0461 231.187ZM66.2924 177.396C66.6198 177.89 67.7373 178.203 68.6936 176.969L68.5377 176.672C68.5325 176.114 68.4285 176.026 68.3038 175.578L68.231 175.26C66.8381 174.588 65.8714 174.495 65.2217 176.213L65.7051 176.906L66.2924 177.396ZM88.3297 138.218L88.0231 138.125C87.2382 138.349 87.0147 138.26 86.4014 139.187L86.3287 140.406L86.3962 140.432C86.3183 141.823 87.0875 140.64 86.5054 143.015C87.2434 143.651 87.3162 143.5 88.1946 143.328C90.8609 142.797 90.1228 140.422 89.2029 138.791L88.9846 138.745C88.8962 138.442 89.1197 138.718 88.7247 138.406C88.5272 138.26 88.5688 138.317 88.3297 138.218ZM59.5097 182.771C59.6084 182.338 59.5876 181.859 59.4577 181.562C59.3018 181.187 59.0939 180.791 58.9379 180.521C58.834 180.302 58.8392 180.37 58.7404 180.177C58.5845 179.87 58.6365 180.094 58.5533 179.745C57.623 179.255 56.7706 178.729 55.8454 179.588C54.8267 180.536 55.3829 181.687 55.5804 182.422C55.7155 182.812 55.9026 183.067 56.0533 183.359L56.5939 183.067C56.4951 182.37 56.0014 180.948 56.6926 180.437C57.9712 179.901 58.6365 181.594 58.2623 182.771L57.0565 182.489C56.703 183.536 58.465 184.948 59.5097 182.771ZM184.686 65.432C186.204 66.7706 188.059 65.7497 189.015 65.0622C190.424 64.0466 190.606 61.8591 189.202 60.9945C187.997 60.2602 187.555 60.7862 186.858 61.0674C186.198 61.3279 185.403 61.3799 184.748 61.6716C182.773 62.5414 183.454 64.3487 184.686 65.432ZM163.402 132.963C161.952 131.76 163.231 129.896 164.613 129.265C165.621 128.807 166.895 126.911 168.646 128.942C169.047 129.401 169.39 130.229 169.13 131C168.735 132.166 165.003 134.286 163.402 132.963ZM162.862 81.1247C161.24 79.807 161.89 77.5206 164.748 76.6404C165.476 76.4112 166.048 76.5466 166.692 77.2133C169.343 79.932 165.252 83.0726 162.862 81.1247ZM191.541 54.6299C192.139 55.2758 194.343 54.4997 195.195 53.8383C196.817 52.5831 196.521 51.781 195.232 50.4997C194.779 50.0466 194.078 49.2549 193.49 49.9737C192.487 51.1924 193.038 50.557 191.853 51.0154C190.299 51.6195 190.85 53.8956 191.541 54.6299ZM188.288 39.3122C186.942 38.0154 187.472 38.4581 186.65 38.5101C185.491 38.5883 185.866 37.656 186.157 36.8747C186.562 35.7654 186.547 35.7029 187.404 35.0779C187.981 34.656 188.485 34.4737 189.26 35.2081C193.657 39.3747 189.618 40.5883 188.288 39.3122ZM140.622 145.604C138.745 143.661 142.623 140.448 144.728 142.479C145.086 142.823 145.294 143.51 145.149 144.093C144.92 145.005 144.494 145.093 143.932 145.437C143.314 145.817 141.614 146.625 140.622 145.604ZM117.566 124.349C116.879 124.859 116.256 124.521 115.689 125.489C115.689 126.557 116.822 127.677 117.909 127.14C118.387 126.906 118.886 126.26 118.74 125.661C118.553 124.922 118.101 125.359 118.278 124.187L118.506 123.838C121.479 124.817 119.172 130.161 115.882 127.948C114.546 127.052 113.382 124.724 116.339 123.828C116.724 123.713 118.106 123.406 117.566 124.349ZM169.873 100.172C170.658 100.276 171.271 100.547 171.983 100.995C172.69 101.442 172.898 101.765 172.68 102.588C171.942 105.375 167.326 107.047 167.654 103.583C167.799 102.005 168.548 101.515 169.218 100.932C169.468 100.713 169.681 100.375 169.873 100.172ZM155.601 71.2966C155.091 70.8383 154.831 70.4737 154.941 69.7654C155.19 68.1247 156.297 68.0206 157.545 67.6039C158.277 67.3591 158.688 67.4581 159.229 68.182C159.561 68.6351 160.013 69.0987 160.034 69.6247C160.081 71.4112 157.087 72.6351 155.601 71.2966ZM119.016 119.25C118.621 118.864 118.595 118.406 118.735 117.755C119.109 116.031 121.495 115.239 122.862 116.635C124.837 118.651 120.461 120.651 119.016 119.25ZM160.034 91.031C160.284 91.5779 160.803 94.0987 163.246 93.4581C165.668 92.8279 164.779 88.3487 162.451 90.6039L163.491 91.9581C162.363 92.9685 161.562 91.8383 161.334 90.7862C161.91 89.9685 162.737 89.9685 162.986 89.4477C162.134 88.9789 162.092 89.0779 161.489 89.3539C160.518 89.7133 160.299 89.6612 160.034 91.031ZM140.357 134.161C139.385 133.057 140.253 131.182 141.308 130.807C142.753 130.286 143.402 129.76 144.832 130.87C146.807 132.411 141.729 135.724 140.357 134.161ZM174.998 91.1612C174.099 89.9945 174.707 89.6508 175.85 87.906C176.744 86.5414 180.273 87.8852 179.27 89.6768C179.052 90.0674 178.298 90.4789 177.965 90.6768C177.399 91.0154 175.767 92.1612 174.998 91.1612ZM151.11 123.026C150.414 122.099 150.741 120.916 151.765 119.916C152.529 119.177 154.047 119.109 154.868 120.073C155.788 121.146 155.065 122.021 154.026 122.51C153.454 122.781 151.739 123.87 151.11 123.026ZM149.016 142.224C147.768 141.255 148.418 140.229 149.535 139.463C150.975 138.474 150.679 137.718 152.498 138.932C155.149 140.698 150.268 143.203 149.016 142.224ZM204.743 7.02577C204.519 10.0987 200.128 8.36431 200.471 5.93202C201.022 2.02056 204.857 5.44244 204.743 7.02577ZM167.025 115.343C166.619 114.953 166.354 114.468 166.671 113.791C166.957 113.166 167.555 112.984 167.992 112.703C168.885 112.125 168.329 111.666 168.943 111.453C169.566 111.239 170.336 111.797 170.689 112.198C171.796 113.448 171.443 113.953 170.008 114.718C169.005 115.26 167.81 116.12 167.025 115.343ZM195.429 40.5831C194.545 39.8904 194.405 39.0154 195.278 37.9008C196.094 36.8591 196.687 36.5779 197.929 37.5206C200.481 39.4529 196.422 41.3591 195.429 40.5831ZM166.604 89.1247C166.318 88.9008 166.224 88.8018 166.011 88.5518C165.388 87.8383 164.748 88.182 164.909 86.7393C165.019 85.7393 166.505 84.557 167.404 85.1872C167.94 85.5622 168.75 87.2185 168.813 87.8852C168.937 89.2445 167.768 90.0154 166.604 89.1247ZM142.363 103.677C141.656 102.677 141.749 101.896 142.929 101C144.01 100.177 144.577 100.213 145.533 101.349C148.059 104.354 143.007 104.588 142.363 103.677ZM182.576 52.1612C181.38 51.2341 181.713 50.7081 182.654 49.5154C183.012 49.0622 183.205 48.6664 183.787 48.6664C184.218 48.6664 184.956 48.906 185.351 49.1924C187.123 50.4685 184.431 53.6039 182.576 52.1612ZM152.877 132.401C152.196 131.88 152.352 130.302 152.992 129.76C153.433 129.39 155.107 129.271 155.72 129.698C157.716 131.067 154.296 133.479 152.877 132.401ZM133.096 130.739C134.094 131.12 134.52 132.203 134.244 133.166C133.86 134.495 132.701 134.182 131.989 134.521C131.422 134.234 130.627 134.088 130.357 133.552C130.128 133.104 130.294 132.385 130.767 132.015C131.188 131.682 131.672 131.718 132.181 131.593C133.355 131.302 132.103 131.151 133.096 130.739ZM151.656 100.724C150.039 99.182 152.082 98.1143 153.34 97.5883C153.99 97.3174 154.223 97.281 154.634 97.8435C155.32 98.7862 155.299 99.4529 154.197 100.364C153.667 100.807 152.415 101.448 151.656 100.724ZM165.798 55.3851C165.071 56.1508 163.298 56.2185 162.046 55.6508C161.775 55.0831 161.432 54.7758 161.931 53.9529C162.461 53.0726 162.82 53.406 163.605 53.2133C164.338 53.031 164.759 52.8122 165.544 53.5935C165.985 54.0466 166.271 54.6716 165.798 55.3851ZM180.414 43.5727C179.66 42.5362 180.512 41.7758 181.422 41.0831C183.859 39.2393 184.509 41.807 184.4 42.4841C184.213 43.6299 181.152 44.5935 180.414 43.5727ZM123.22 132.578C122.451 131.646 124.135 127.771 126.199 129.953C127.035 130.838 126.588 131.51 125.694 132.12C125.154 132.489 123.958 133.474 123.22 132.578ZM148.906 116.776C147.997 115.677 148.948 115.005 149.868 114.62C150.497 114.354 151.583 113.406 152.581 114.401C153.246 115.073 152.316 116.541 151.609 116.906C151.209 117.114 149.426 117.401 148.906 116.776ZM171.339 73.7445C171.365 73.0466 170.835 72.781 170.897 72.0935C170.97 71.2966 171.593 70.8279 171.921 70.2966C173.657 70.4997 175.658 71.8591 174.696 73.5414C173.792 72.8018 173.75 71.2862 172.144 71.432C171.479 72.531 173.137 72.9424 173.724 73.4893C173.948 73.6976 173.896 73.6456 173.984 73.8331C173.423 74.2341 173.163 73.9581 172.576 74.1195C172.3 74.1976 172.513 74.1351 172.305 74.2185L172.118 74.307C172.098 74.3122 172.061 74.3383 172.03 74.3487C171.661 74.1299 171.552 73.9581 171.339 73.7445ZM192.347 31.2029C192.29 32.2133 191.032 32.4789 190.226 32.1404C189.499 31.8331 188.787 30.5987 188.818 30.0466C188.948 27.682 192.456 29.3956 192.347 31.2029ZM137.643 122.182C135.83 120.864 138.932 118.172 140.414 119.567C141.193 120.307 140.601 121.229 139.915 121.75C139.14 122.333 138.714 122.958 137.643 122.182ZM142.051 115.062C141.49 114.515 140.887 113.797 141.427 112.843C142.321 111.265 144.504 111.979 144.707 112.854L144.546 113.838C144.405 114.12 144.385 114.104 144.286 114.198C143.927 114.552 142.597 114.927 142.051 115.062ZM174.779 82.8539C173.605 81.5727 175.2 79.156 177.066 80.3643C177.846 80.8747 177.467 81.7862 176.812 82.4268C176.256 82.9633 175.512 83.6508 174.779 82.8539ZM158.049 84.3122C158.667 83.781 159.348 83.2029 160.273 83.6247C161.619 84.2549 161.006 85.0779 160.528 85.8852C159.821 85.9685 159.182 86.5987 158.35 86.2602C157.493 85.9112 157.586 85.057 158.049 84.3122ZM155.777 106.39C154.166 104.854 156.609 103.083 157.903 104.088C158.527 104.567 158.563 105.515 157.862 106.093C157.295 106.557 156.505 107.083 155.777 106.39ZM195.06 24.3747C195.122 23.4424 195.512 23.1247 195.964 22.2081C198.111 21.9164 199.005 23.0049 198.345 23.8695C198.142 24.1404 196.25 25.1508 195.06 24.3747ZM184.338 59.3279C182.534 57.9581 185.242 56.2601 186.188 56.932C187.612 57.9372 185.809 60.4424 184.338 59.3279ZM178.859 32.656C179.358 30.5466 182.487 30.6612 182.487 31.7133C182.493 32.8174 181.505 33.1404 180.928 33.2497C179.894 33.4529 179.577 33.307 178.859 32.656ZM142.17 94.1508C141.718 92.2914 144.442 91.6143 144.998 92.4789C145.767 93.682 144.478 95.531 142.17 94.1508ZM141.261 125.771C141.339 126.245 141.328 127.552 141.017 127.937C140.861 128.13 140.273 128.427 140.128 128.453C139.702 128.526 139.489 128.333 139.171 128.015C137.82 126.64 139.67 125.073 141.261 125.771ZM160.149 114.182C158.854 113.01 161.786 111.427 162.768 112.625C163.012 112.927 162.914 112.458 162.867 113.093C162.83 113.547 162.597 114.317 162.16 114.557C161.671 114.828 160.637 114.625 160.149 114.182ZM190.912 46.3747C194.026 49.2497 188.397 50.281 189.379 47.6872C189.66 46.9372 190.299 46.6456 190.912 46.3747ZM164.592 65.5518C164.281 65.1664 164.483 64.2237 165.44 64.0622C165.959 63.9737 166.936 63.8018 167.352 64.3904C168.277 65.682 165.502 66.6872 164.592 65.5518ZM178.34 48.2966C177.04 46.8956 179.286 45.557 180.148 46.307C180.663 46.7602 180.668 47.6612 180.076 48.2497C179.748 48.5779 178.833 48.8279 178.34 48.2966ZM161.136 123.625C160.777 123.12 160.46 122.458 161.245 121.817C161.547 121.573 162.581 121.411 163.121 121.859C164.275 122.817 162.02 124.859 161.136 123.625ZM176.879 62.8956L176.936 62.6351C177.482 62.4164 177.815 62.1039 178.584 62.2758C179.41 62.4529 179.712 63.0206 179.353 63.7706C178.849 64.8331 176.333 64.8435 176.879 62.8956ZM162.882 137.203C161.994 136.151 164.39 134.552 165.237 136.005C166.042 137.38 163.641 138.099 162.882 137.203ZM199.067 57.8331C197.664 56.3226 199.655 55.1456 200.704 56.2081C201.791 57.307 200.076 58.9216 199.067 57.8331ZM152.03 88.057C152.534 87.5727 152.971 87.0883 153.724 87.3799C154.359 87.6247 154.935 88.4581 154.977 88.9529C155.253 89.2133 155.564 89.8799 155.278 90.3747C154.795 91.1195 153.958 91.4685 153.07 91.2706C152.061 91.0414 151.484 90.0258 151.749 89.2914C151.505 88.9164 151.801 88.5154 152.03 88.057ZM174.987 128.974C174.135 127.932 173.688 128.146 173.937 127.531C174.332 126.567 177.643 127.687 176.729 128.708C176.359 129.125 175.408 129.484 174.987 128.974ZM181.411 98.7341C183.277 98.9945 183.62 100.718 182.389 101.099C181.864 101.265 181.048 101.062 180.845 100.453C180.637 99.8227 181.058 99.2029 181.411 98.7341ZM134.249 122.182L134.182 122.333C133.678 122.677 133.537 123.01 133.07 123.286C132.659 123.526 132.243 123.729 131.791 123.807C130.809 124.172 129.754 124.474 129.224 123.036C128.943 122.218 129.431 121.505 130.071 121.062C131.49 120.078 130.632 120.297 131.308 119.343C132.628 118.625 135.299 120.442 134.249 122.182ZM123.309 140.083L123.293 140.073C122.924 140.656 122.254 140.864 121.599 140.505C121.032 140.198 120.871 139.521 120.783 139.036L120.679 138.995L120.767 138.937L120.746 138.833L120.856 138.875C121.256 138.593 121.843 138.229 122.462 138.406C123.179 138.62 123.511 139.239 123.361 139.911L123.376 139.916C123.366 139.942 123.35 139.968 123.335 139.995C123.33 140.026 123.319 140.052 123.309 140.083ZM16.381 266.661C15.9859 266.989 15.6325 267.271 15.3155 267.5C15.3778 267.067 15.6065 266.734 16.2146 266.661C16.2718 266.656 16.329 266.656 16.381 266.661ZM19.7125 264.094C19.2448 264.396 18.8186 264.687 18.4444 264.958C16.9787 265.364 14.8165 265.062 14.4527 264.036C14.2708 263.531 14.3487 262.765 14.7126 262.14C15.2531 261.192 15.3882 261.583 16.2458 261.791C16.7812 261.922 17.3269 261.64 18.0649 261.849C19.1096 262.151 20.0764 263.25 19.7125 264.094ZM52.6906 245.208C52.5087 245.557 52.2904 245.911 52.0409 246.26C52.0149 245.927 51.755 245.692 51.1313 245.604C50.8715 246.031 51.2665 246.229 50.7519 246.573C50.2581 246.906 50.1438 246.427 49.8475 247.489C50.1178 247.692 50.3413 247.838 50.544 247.916C50.201 248.224 49.8216 248.531 49.4058 248.833C48.5586 248.469 48.2519 247.521 48.9744 246.161L49.2758 245.729C49.0575 245.495 49.0004 245.536 48.8184 245.302C49.3538 244.297 51.386 244.255 52.3215 244.864C52.5087 244.989 52.6126 245.099 52.6906 245.208ZM53.1428 224.562C53.0804 224.62 53.018 224.672 52.966 224.729C52.4411 225.286 51.9941 225.864 51.6251 226.453C51.0066 226.448 50.3101 225.859 50.2114 225.219C50.1022 224.51 50.2633 223.276 51.1989 223.297C51.3444 223.224 51.1417 223.12 51.6667 223.192C51.9058 223.229 52.1396 223.364 52.3579 223.453L52.3164 223.599C52.7997 223.755 53.044 224.135 53.1428 224.562ZM81.6146 217.755L79.1821 218.161C79.2029 217.859 79.2965 217.541 79.4836 217.198C79.6863 217.135 79.8994 216.854 80.1489 216.75C80.5283 216.583 80.6478 216.719 81.126 216.724C81.3079 217.047 81.443 217.135 81.5678 217.578C81.5834 217.64 81.599 217.698 81.6146 217.755ZM88.7975 216.453C88.4545 216.536 88.1114 216.614 87.758 216.687C87.9295 216.552 88.1426 216.474 88.3869 216.437C88.5324 216.416 88.6675 216.422 88.7975 216.453ZM97.4409 211.521C96.9939 212.031 96.495 212.515 95.944 212.979C96.0116 212.719 96.1415 212.442 96.365 212.14C96.6821 211.708 97.0095 211.552 97.4409 211.521ZM96.734 195.901C96.6509 196.411 96.6509 196.953 96.7548 197.541C96.5521 196.979 96.5209 196.333 96.734 195.901ZM139.608 178.802L139.541 178.828C138.88 179.104 138.174 179.38 137.441 179.656C137.342 178.666 138.028 178.416 138.631 178.317C139.078 178.239 139.405 178.458 139.608 178.802ZM147.451 173.489C147.144 173.843 146.812 174.198 146.448 174.541C146.344 174.567 146.219 174.593 146.037 174.609C146.001 174.75 145.97 174.88 145.949 175.005C145.611 175.297 145.247 175.588 144.868 175.88C144.743 174.578 145.299 173.156 146.812 173.291C147.035 173.317 147.248 173.385 147.451 173.489ZM149.66 169.927C149.431 170.495 149.145 171.067 148.802 171.64C148.491 170.916 148.646 169.984 149.426 169.916C149.504 169.911 149.582 169.916 149.66 169.927ZM155.081 147.354C154.327 148.041 153.662 148.718 153.101 149.385C152.409 148.39 153.324 146.396 155.081 147.354ZM190.304 89.2602C190.762 90.2445 190.98 91.307 190.736 92.4216C190.627 92.4893 190.512 92.5518 190.393 92.6091C189.462 93.0674 187.893 93.8747 187.181 93.1039C186.775 92.6716 186.63 92.4841 186.905 91.406C187.274 89.9685 189.026 89.0987 190.304 89.2602ZM187.227 79.1247C186.365 80.5258 185.866 81.7393 185.788 82.7133C185.351 82.8956 184.967 83.031 184.707 83.2133C183.766 82.7497 182.991 82.7289 182.243 81.3956C182.108 81.1508 182.144 81.2341 182.046 80.9789C181.931 80.682 182.046 80.7341 181.879 80.5831C182.217 79.031 183.101 79.1247 184.343 78.9893C185.647 78.8539 185.138 77.0987 187.02 78.9164C187.087 78.9789 187.16 79.0518 187.227 79.1247ZM207.227 28.4581C207.04 28.8591 206.822 29.2758 206.572 29.7185C206.468 29.906 206.354 30.1039 206.245 30.3018C205.876 30.2914 205.434 30.1247 204.93 29.8904C203.719 29.3279 203.345 28.9112 203.88 27.5935C204.774 25.4164 206.967 26.7081 207.227 28.4581ZM196.853 9.01014C197.274 8.39556 197.721 7.70285 198.293 6.90598C198.823 7.57264 199.15 8.4216 199.15 8.4841C199.239 9.7966 197.929 9.66119 196.853 9.01014ZM192.103 12.9841C192.363 12.8174 192.664 12.6508 193.023 12.4737C193.34 12.3122 193.636 12.156 193.901 11.9945C194.104 11.9685 194.249 12.0258 194.597 12.2393C194.182 12.6768 192.586 13.0622 192.726 14.2237C192.934 14.6091 195.512 14.531 196.469 13.5414C195.507 13.1768 194.587 12.8956 195.18 11.9737C197.737 12.3956 198.75 13.8747 196.645 14.6091L196.131 14.8799C195.507 14.9008 195.076 15.1247 194.442 15.2289C193.995 15.307 193.132 15.4008 192.69 15.2654C192.035 15.0622 191.65 14.4529 191.692 13.9424C191.718 13.5726 191.89 13.2601 192.103 12.9841ZM178.667 19.6768C180.772 19.0518 182.248 19.3174 183.464 19.6508C183.423 19.8695 183.319 20.0779 183.142 20.2706C182.513 20.9633 181.12 21.7445 180.273 21.6872C179.26 21.6195 178.6 20.6299 178.667 19.6768ZM173.558 28.8122C173.698 27.9685 173.87 27.1039 174.078 26.2601C174.291 26.3799 174.514 26.531 174.753 26.7289C175.528 27.3591 176.146 27.8226 175.154 28.5779C174.66 28.9529 174.119 29.0206 173.558 28.8122ZM173.111 41.1404C173.116 40.0831 173.111 39.0622 173.101 38.1247C173.314 38.0362 173.558 37.9893 173.839 37.9945C175.705 38.0206 176.349 41.057 173.158 41.156L173.111 41.1404ZM168.516 54.0258C169.857 54.0101 171.146 53.4997 171.895 52.1143C172.009 52.0987 172.087 52.0466 172.264 51.8851C173.475 52.4476 173.698 53.0935 173.574 54.2758C173.335 54.7341 172.68 55.3435 172.305 55.6612C172.165 55.7862 171.723 56.1299 171.63 56.182C171.1 56.4997 171.261 56.182 170.741 56.5049C170.154 56.2393 169.379 56.1924 168.88 55.656C168.516 55.2654 168.314 54.7185 168.516 54.0258ZM152.753 61.4476C152.893 60.5831 153.085 59.5779 153.361 58.557C154.249 57.932 155.377 57.5154 156.172 58.3904C157.155 59.4685 155.59 61.1768 154.452 61.557L153.896 61.7966C153.558 61.6664 153.122 61.6299 152.753 61.4476ZM152.763 66.7289C152.701 66.1091 152.654 65.5206 152.617 64.9841C152.908 65.0154 153.225 65.1039 153.548 65.2497C153.776 66.2185 153.802 66.4268 152.841 66.7081L152.763 66.7289ZM154.421 80.7081C154.405 80.3122 154.374 79.8956 154.338 79.4581C154.592 78.8435 154.857 78.7185 155.471 78.7393C156.157 78.7601 156.562 78.9945 156.931 79.5049C157.321 80.0466 157.903 81.5883 156.947 82.2497L156.853 82.3122C156.375 82.4997 156.193 82.4164 155.648 82.2133L154.421 80.7081ZM143.787 81.531C144.561 81.7237 145.336 82.1508 146.053 82.6977C145.346 83.057 144.437 83.0674 143.901 82.3695C143.698 82.1091 143.683 81.8174 143.787 81.531ZM137.857 88.2237C137.94 87.7914 138.033 87.4164 138.132 87.1143C138.381 86.3799 138.673 85.6195 139.021 84.906C140.237 86.156 139.229 87.5154 137.857 88.2237ZM130.866 115.64C131.464 115.828 132.061 115.911 132.623 115.854C131.698 116.343 131.1 116.12 130.866 115.64ZM117.555 112.526C117.857 112.041 118.163 111.666 118.465 111.427C118.834 111.14 119.213 110.906 119.598 110.724C119.567 111.692 118.626 112.833 117.555 112.526ZM110.637 136.791C111.001 135.521 111.256 134.218 111.464 133.052C111.973 133.192 112.482 133.422 112.54 133.974C112.612 134.666 112.119 134.963 111.781 135.218C111.838 135.646 111.978 136.203 111.443 136.64C111.199 136.843 110.918 136.864 110.637 136.791ZM80.5335 138.729C81.4586 137.588 82.4721 136.557 83.5376 135.718C83.6988 136.041 83.4753 136.062 83.231 136.578C84.3588 136.442 83.7871 136.26 83.7871 136.25C83.6416 136.745 83.5428 138.807 81.6717 138.901L81.2871 138.916C80.9909 138.896 80.7414 138.833 80.5335 138.729ZM77.9503 142.833C78.0907 142.557 78.231 142.286 78.3713 142.031C78.3973 142.041 78.4285 142.052 78.4545 142.062C79.125 142.37 79.7643 143.359 79.837 143.807C79.6551 143.89 79.8578 143.739 79.572 143.948C79.546 143.968 79.4524 144.047 79.4264 144.073C79.2809 144.208 79.2601 144.255 79.1406 144.422C78.9846 143.823 78.9327 142.859 78.0283 142.833H77.9503ZM76.5886 145.708C76.6562 145.552 76.7237 145.396 76.7913 145.245C76.8485 145.5 76.9004 145.797 76.9576 146.005C76.7393 146.041 77.1031 146.385 76.677 145.859C76.651 145.823 76.6198 145.771 76.5886 145.708ZM58.0856 168.328C58.3714 168.63 58.6573 168.927 58.9535 169.213C58.7664 169.396 58.7768 169.588 58.7456 170.213C59.1043 170.161 59.4577 170.13 59.7747 169.968C60.2009 170.333 60.6271 170.672 61.0637 170.974C60.7415 171.713 60.1334 172.218 59.3537 171.948C58.2519 171.567 57.5034 170.416 57.519 169.62C57.5294 169.109 57.7581 168.666 58.0856 168.328ZM32.0358 194.802C32.1813 193.823 32.3528 192.802 32.5295 191.75C33.4807 192.578 33.5223 194.63 32.2956 194.812C32.2073 194.823 32.1189 194.823 32.0358 194.802ZM29.1148 206.114C29.6397 205.448 30.1023 204.547 30.4973 203.37C30.7312 203.349 30.9755 203.385 31.2146 203.495C31.6927 203.713 32.067 204.422 32.3528 204.812C33.1636 205.942 32.9557 207.078 31.6668 207.755C31.2302 207.984 30.6584 208.26 30.2998 208.411C30.0399 207.916 29.9152 207.427 29.6397 206.932C29.4578 206.599 29.2603 206.375 29.1148 206.114ZM9.87891 213.12C9.99845 212.437 10.1284 211.812 10.2791 211.255C11.1055 211.005 11.9683 212.13 12.514 212.89C13.9122 214.844 11.3706 215.239 10.3675 214.734C10.2479 214.354 10.1856 213.859 10.0192 213.437C9.97766 213.317 9.93088 213.219 9.87891 213.12ZM44.4318 178.672C44.0264 178.255 44.0264 178.13 43.3403 177.703C42.7894 177.359 42.4307 177.047 42.2592 176.578C42.1345 176.224 42.0253 175.552 42.2176 175.192C42.41 174.833 43.0804 174.276 43.3819 174.224C44.4889 174.031 45.1698 175.807 45.3205 176.291C45.8767 178.146 45.2894 178.182 44.4318 178.672Z" fill="#85D4A7"/>
</g>
<path fill-rule="evenodd" clip-rule="evenodd" d="M15.2432 260.673C31.7088 205.563 69.2502 196.266 107.712 165.678C137.925 141.646 153.808 117.261 167.919 87.2663C175.71 70.7194 183.668 53.8236 188.428 36.1517C190.404 28.8132 192.488 22.9225 194.686 18.4746C188.574 28.6413 183.236 46.3965 177.976 58.6465C167.82 82.2819 154.952 109.881 139.827 130.266C131.204 141.881 120.83 152.693 106.677 163.844C71.8334 191.313 22.5924 209.355 15.2432 260.673Z" fill="#FEF0D1"/>
<mask id="mask2_714_1497" style="mask-type:luminance" maskUnits="userSpaceOnUse" x="0" y="74" width="52" height="162">
<path d="M0 74.0938H51.8917V235.427H0V74.0938Z" fill="white"/>
</mask>
<g mask="url(#mask2_714_1497)">
<mask id="mask3_714_1497" style="mask-type:luminance" maskUnits="userSpaceOnUse" x="-55" y="74" width="167" height="163">
<path d="M48.8826 74.541L111.793 151.921L8.32146 236.4L-54.5889 159.02L48.8826 74.541Z" fill="white"/>
</mask>
<g mask="url(#mask3_714_1497)">
<mask id="mask4_714_1497" style="mask-type:luminance" maskUnits="userSpaceOnUse" x="-55" y="74" width="167" height="163">
<path d="M111.793 151.921L48.8826 74.541L-54.5889 159.02L8.32146 236.4L111.793 151.921Z" fill="white"/>
</mask>
<g mask="url(#mask4_714_1497)">
<mask id="mask5_714_1497" style="mask-type:luminance" maskUnits="userSpaceOnUse" x="-55" y="74" width="167" height="163">
<path d="M111.793 151.921L48.8826 74.541L-54.5889 159.02L8.32146 236.4L111.793 151.921Z" fill="white"/>
</mask>
<g mask="url(#mask5_714_1497)">
<mask id="mask6_714_1497" style="mask-type:luminance" maskUnits="userSpaceOnUse" x="-55" y="74" width="167" height="163">
<path d="M111.762 151.884L48.9136 74.582L-54.5527 159.056L8.29523 236.358L111.762 151.884Z" fill="white"/>
</mask>
<g mask="url(#mask6_714_1497)">
<path fill-rule="evenodd" clip-rule="evenodd" d="M7.48908 234.821C7.48908 234.821 10.3737 233.733 17.9516 228.144C25.5347 222.561 29.9526 218.79 30.6023 216.774C31.2572 214.759 29.9942 213.535 27.9048 212.113C25.8206 210.686 24.6928 209.3 28.2634 205.561C31.8289 201.827 37.8164 194.41 38.2478 190.983C38.6844 187.556 37.0784 185.243 34.2873 185.707C31.4963 186.17 25.3009 185.738 28.1283 181.623C30.9505 177.504 34.8902 171.269 35.6438 168.238C36.4027 165.202 35.9037 162.04 32.8996 161.634C29.8954 161.233 28.1283 162.347 26.4599 160.03C24.7967 157.712 27.1927 155.149 28.5233 153.566C29.8591 151.983 34.3185 146.254 34.2873 144.472C34.2561 142.686 32.7281 141.712 31.174 141.686C29.6252 141.66 27.515 140.774 27.9308 139.202C28.3414 137.629 28.8559 137.019 31.3351 134.993C33.8091 132.972 36.7301 130.316 37.4474 129.181C38.1594 128.045 38.7883 126.597 38.2582 125.712C37.728 124.827 36.3247 124.545 35.1813 124.545C34.0378 124.55 33.6064 124.327 33.2218 123.379C32.832 122.431 33.8091 121.415 35.6906 120.207C37.5773 118.998 41.5378 116.722 42.437 115.743C43.3309 114.764 44.9214 112.889 44.7654 111.285C44.6095 109.686 43.3517 108.54 42.2187 108.123C41.0856 107.702 39.386 106.316 40.4879 104.649C41.5898 102.978 45.4879 100.045 46.7353 99.0296C47.9827 98.0088 51.4286 94.5609 50.7945 92.639C50.1552 90.7171 49.043 90.389 48.3985 89.7901C47.7488 89.1963 47.6864 89.1911 48.175 87.6078C48.6687 86.0296 49.2353 85.9203 48.8766 84.3734C48.5232 82.8265 48.9338 82.1599 49.3912 80.4671C49.8434 78.7796 50.1552 76.139 49.4328 75.2171C48.7103 74.2953 47.5877 76.639 47.2758 77.4671C46.9692 78.2953 45.3372 83.0088 43.2218 82.4567C41.1064 81.9046 39.2925 81.0505 37.9515 84.5349C36.6054 88.0192 34.9162 93.6286 33.9183 94.2796C32.9204 94.9307 32.042 94.9307 30.9817 94.1494C29.9266 93.3682 26.4131 94.2849 26.1273 100.118C25.8466 105.946 24.8279 109.8 23.2167 109.634C21.6054 109.462 18.3882 108.795 18.1907 112.248C17.9984 115.702 17.6346 124.728 15.0046 125.118C12.3747 125.514 8.09199 124.066 8.02442 128.353C7.95686 132.634 9.66163 140.577 8.4922 143.837C7.32276 147.097 6.36643 147.571 4.3498 148.452C2.33318 149.327 0.0202991 152.123 1.65751 157.488C3.28952 162.858 7.65021 172.254 8.57016 174.795C9.49011 177.337 9.9319 180.16 6.07017 180.514C2.20844 180.868 1.18454 185.384 3.47143 189.613C5.75832 193.837 11.6003 203.233 11.3092 205.561C11.013 207.889 9.48492 209.3 7.34355 209.618C5.20219 209.941 2.03692 211.155 3.50781 216.655C4.9735 222.155 6.81341 229.821 6.71986 232.29C6.6211 234.754 6.95894 235.004 7.48908 234.821Z" fill="#496CBE"/>
</g>
</g>
</g>
</g>
</g>
<mask id="mask7_714_1497" style="mask-type:luminance" maskUnits="userSpaceOnUse" x="0" y="76" width="52" height="159">
<path d="M0 76.7598H51.8917V234.093H0V76.7598Z" fill="white"/>
</mask>
<g mask="url(#mask7_714_1497)">
<mask id="mask8_714_1497" style="mask-type:luminance" maskUnits="userSpaceOnUse" x="-55" y="74" width="167" height="163">
<path d="M48.8826 74.541L111.793 151.921L8.32146 236.4L-54.5889 159.02L48.8826 74.541Z" fill="white"/>
</mask>
<g mask="url(#mask8_714_1497)">
<mask id="mask9_714_1497" style="mask-type:luminance" maskUnits="userSpaceOnUse" x="-55" y="74" width="167" height="163">
<path d="M111.793 151.921L48.8826 74.541L-54.5889 159.02L8.32146 236.4L111.793 151.921Z" fill="white"/>
</mask>
<g mask="url(#mask9_714_1497)">
<mask id="mask10_714_1497" style="mask-type:luminance" maskUnits="userSpaceOnUse" x="-55" y="74" width="167" height="163">
<path d="M111.793 151.921L48.8826 74.541L-54.5889 159.02L8.32146 236.4L111.793 151.921Z" fill="white"/>
</mask>
<g mask="url(#mask10_714_1497)">
<path fill-rule="evenodd" clip-rule="evenodd" d="M34.1941 192.936C34.3916 193.181 34.454 193.697 34.3812 194.082C34.2461 194.806 33.664 195.056 33.0351 195.129C32.7544 195.166 32.5777 195.035 32.3958 195.051C32.271 195.061 31.6577 195.588 31.2991 194.9C31.1952 194.697 31.0652 194.041 31.0652 193.78C31.0756 193.197 31.5382 193.098 31.8656 192.957C32.271 192.78 33.6588 192.249 34.1941 192.936ZM24.7659 202.15C25.6598 203.395 24.2877 204.181 23.3106 204.275C22.2347 204.379 21.1484 202.436 22.7804 202.171C22.9987 202.14 23.0663 202.16 23.2742 202.077C23.6432 201.926 24.4436 201.697 24.7659 202.15ZM24.3397 202.509C24.0122 202.093 21.8917 202.921 22.7908 203.364C24.3865 204.15 24.7035 202.973 24.3397 202.509ZM18.0403 188.749C18.1703 188.9 18.1963 189.03 18.2222 189.181C18.243 189.306 18.269 189.499 18.2742 189.645C18.3002 190.046 18.0975 190.338 17.7441 190.53C16.6578 191.114 15.2805 190.129 15.3948 189.353C15.4624 188.916 15.769 188.64 16.1017 188.535C16.5954 188.374 17.479 188.108 18.0403 188.749ZM16.7514 190.311C16.8397 190.301 17.162 190.228 17.3023 190.176C17.4686 190.124 17.6973 190.025 17.7597 189.759C18.0351 188.561 16.1381 188.697 15.9925 189.416C15.925 189.77 16.268 189.634 16.5071 189.796C16.6942 189.926 16.6942 190.119 16.7514 190.311ZM19.8439 166.114C20.0466 166.379 20.0933 166.645 19.9582 167.046C19.7035 167.817 19.1526 167.838 18.3834 167.952C18.0247 168.009 17.848 168.082 17.5102 167.676C17.3179 167.442 17.2191 167.119 17.3283 166.78C17.4634 166.369 17.7753 166.296 18.0507 166.171C18.4665 165.983 19.3397 165.447 19.8439 166.114ZM17.9 166.9C18.82 167.963 19.4592 167.186 19.4333 166.723C19.3865 165.983 18.1599 166.619 17.9 166.9ZM13.3574 176.582C13.9083 177.176 13.6121 178.009 13.0455 178.296C12.8065 178.416 12.4686 178.483 12.188 178.582C11.7722 178.723 11.6734 178.608 11.3044 178.265C9.91666 176.973 12.6505 175.822 13.3574 176.582ZM13.0819 177.02C12.3179 176.744 11.0965 177.27 11.611 177.749C11.9281 178.046 12.4634 178.03 12.7025 177.931C13.1287 177.754 13.0871 177.395 13.0819 177.02ZM22.0216 217.843C22.6557 218.426 22.2919 218.749 21.7201 219.254C21.4759 219.473 21.2836 219.645 20.9561 219.515C20.5975 219.374 20.4572 219.145 20.3168 218.895C20.0725 218.421 19.8335 217.936 20.4468 217.358C20.9873 216.853 21.4603 217.483 22.0216 217.843ZM21.1536 218.921C21.242 218.765 21.2732 218.207 21.294 217.983C21.0289 217.796 20.9509 217.864 20.7482 217.884C20.6495 218.202 20.7274 218.838 21.1536 218.921ZM8.84598 223.681C8.74723 224.124 8.40419 224.853 7.96241 224.858C7.50503 224.864 6.9437 224.384 6.71501 224.067C6.08612 223.192 6.88653 221.952 7.85326 222.306C8.13912 222.509 8.24307 222.702 8.38341 222.947C8.45617 223.072 8.51334 223.176 8.5913 223.317L8.76802 223.588C8.84078 223.686 8.79401 223.629 8.84598 223.681ZM6.99048 223.14C6.88653 223.827 7.93122 224.791 7.99879 223.926C8.01438 223.666 7.93642 223.15 7.80648 223.02C7.58819 222.817 7.13081 223.015 6.99048 223.14ZM14.4541 216.197C14.137 216.134 13.7524 215.655 13.664 215.436C13.5133 215.067 13.716 214.801 14.0487 214.515C14.506 214.218 14.7191 214.051 15.1817 213.989C15.6807 213.916 16.1017 213.999 16.2108 214.541C16.4343 215.702 14.5892 216.213 14.4541 216.197ZM14.2981 215.207C14.7295 215.707 15.821 215.311 15.6339 214.707C15.4988 214.285 14.4333 214.775 14.2981 215.207ZM13.451 147.864C14.2774 148.926 12.188 150.317 11.2472 149.197C11.0913 149.009 11.0237 148.655 11.1277 148.374C11.2836 147.931 11.5019 147.91 11.7982 147.77C12.1256 147.614 13.0092 147.301 13.451 147.864ZM12.9468 148.634C13.1287 148.332 12.8584 148.009 12.5414 148.03C12.505 148.035 11.8969 148.296 11.8189 148.364C11.32 148.817 12.6817 149.072 12.9468 148.634ZM23.7991 159.64C24.1682 159.426 24.4592 159.624 24.7919 159.176C24.849 158.645 24.3397 158.03 23.7732 158.239C23.5237 158.327 23.243 158.624 23.2846 158.926C23.3418 159.301 23.586 159.108 23.4405 159.681L23.3106 159.843C21.8813 159.197 23.3002 156.671 24.823 157.942C25.4363 158.457 25.8989 159.676 24.3865 159.963C24.1838 160.004 23.4821 160.082 23.7991 159.64ZM26.164 211.817C25.9249 211.577 25.743 211.452 25.5247 211.155C25.3532 210.931 25.2129 210.64 24.8646 210.556C24.5528 210.478 23.7732 210.713 23.9759 211.713C24.4124 213.895 26.0133 212.619 26.164 211.817ZM25.0673 212.207C25.4571 211.853 25.1817 211.056 24.5944 211.207C24.4436 211.66 24.5372 212.119 25.0673 212.207ZM22.822 162.098C22.9987 162.306 22.9883 162.535 22.8844 162.848C22.6089 163.686 21.3875 163.952 20.7794 163.186C19.901 162.082 22.1775 161.322 22.822 162.098ZM21.9073 162.811C22.032 162.879 22.032 162.963 22.1827 162.89C22.7233 162.634 22.0164 161.952 21.2212 162.707C21.4915 162.754 21.6526 162.671 21.9073 162.811ZM14.3033 225.827C14.3449 225.244 14.1266 224.942 14.8699 224.541C15.3792 224.265 15.7067 224.254 16.1536 224.067C16.5642 224.301 16.6734 224.369 16.6526 224.775C16.585 226.119 15.4572 226.233 15.0362 226.66C14.5372 226.27 14.4749 225.983 14.3033 225.827ZM14.8959 225.624C15.2493 225.832 15.5923 225.89 15.821 225.65C16.0341 225.426 16.2628 224.994 16.1121 224.739C15.9717 224.499 15.0414 224.655 14.8959 225.624ZM12.6817 229.056C12.7181 229.39 12.8844 229.973 12.3803 230.301C11.6578 230.765 10.4624 229.369 10.769 228.614C10.9666 228.124 11.7098 228.181 11.8813 228.129C12.3647 228.348 12.5726 228.697 12.6817 229.056ZM12.0476 229.817L11.8397 228.91C11.793 228.759 11.8137 228.827 11.767 228.749C10.7742 228.89 11.7618 229.723 12.0476 229.817ZM8.35742 232.02C8.07675 232.233 8.00399 232.405 7.61938 232.067C6.56948 231.14 7.44266 230.827 7.85846 231.28C7.88445 231.306 8.35742 232.015 8.35742 232.02ZM12.9936 153.556C13.4198 154.155 12.8896 155.041 12.3491 155.171C11.6058 155.348 11.2524 155.577 10.6027 154.952C9.70357 154.082 12.3907 152.707 12.9936 153.556ZM10.8938 154.473C11.4707 154.916 11.2836 154.9 11.9905 154.77C12.4998 154.676 12.6557 154.395 12.6505 153.874C12.3283 153.676 12.3127 153.765 11.7046 153.957C11.3979 154.051 11.1952 154.166 10.8938 154.473ZM17.583 197.14C18.6432 198.134 16.3096 199.416 15.5611 198.343C14.6672 197.056 16.7098 196.322 17.583 197.14ZM17.0632 198.082C17.3231 197.853 17.3906 197.624 17.084 197.442C16.6474 197.181 16.0653 197.405 15.9094 197.817C16.242 198.155 16.2628 197.853 16.4239 198.358C16.637 198.322 16.8605 198.259 17.0632 198.082ZM7.08403 158.515C7.38029 159.009 7.162 159.577 6.60067 160.02C6.18487 160.348 5.42604 160.301 5.06741 159.775C4.6672 159.197 5.06741 158.801 5.61315 158.614C5.9094 158.509 6.81896 158.061 7.08403 158.515ZM5.99776 158.963C5.77947 159.056 5.64433 159.041 5.59755 159.285C5.79506 159.525 6.30441 159.436 6.51751 159.327L6.59027 158.973C6.22645 158.796 6.27323 158.838 5.99776 158.963ZM9.11105 149.093C9.67758 149.645 9.30336 150.119 8.71085 150.436C7.94682 150.848 8.05077 151.244 7.21397 150.546C5.98737 149.525 8.53413 148.541 9.11105 149.093ZM8.87197 149.608C8.26906 149.369 7.86366 149.561 7.46345 149.942C7.70253 150.233 7.87405 150.249 8.20149 150.155C8.52374 150.072 8.64848 149.999 8.87197 149.608ZM28.6536 162.499C29.2357 163.181 28.4093 163.515 28.0039 163.686C27.7492 163.796 27.4945 163.843 27.2451 163.838C26.7565 163.832 26.2523 163.004 26.3771 162.655C26.6214 161.978 28.0767 161.827 28.6536 162.499ZM28.2066 162.832C27.8428 162.509 27.3386 162.499 27.0372 162.806C27.1307 162.973 27.4166 163.166 27.6401 163.239C27.9831 163.353 28.1234 163.171 28.2066 162.832ZM22.9779 194.936C23.8927 195.739 21.8397 196.957 20.9457 196.072C20.4935 195.629 20.7378 194.905 21.3563 194.702C21.7409 194.577 22.505 194.52 22.9779 194.936ZM21.8345 195.66C22.1567 195.65 22.0216 195.718 22.3023 195.817C22.7337 195.452 22.8636 195.265 22.1515 195.145C21.7305 195.077 21.4135 195.129 21.2524 195.593C21.559 195.759 21.585 195.671 21.8345 195.66ZM24.4384 172.556C23.9655 171.983 23.3989 172.176 22.8272 172.353C22.006 172.614 22.0216 173.171 22.3283 173.515C22.8532 174.119 23.5497 173.926 23.9603 173.765C24.1941 173.671 24.4696 173.624 24.5892 173.275C24.6723 173.035 24.6203 172.775 24.4384 172.556ZM24.1526 172.921C23.7368 172.332 22.9416 172.869 22.7285 173.119C23.0715 173.244 23.1495 173.207 23.4561 173.082C23.4613 173.088 23.9447 173.806 24.1526 172.921ZM25.1349 208.067C25.3428 207.9 25.4935 207.848 25.7014 207.832C26.4447 207.77 26.3563 208.681 25.1973 208.541C25.1557 208.395 25.1089 208.27 25.1349 208.067ZM10.1609 185.655C10.5092 186.119 10.4624 186.728 9.79192 186.884C9.40211 186.983 9.44889 186.858 9.09026 187.088C8.8096 187.27 8.61209 187.14 8.44578 186.864C7.69734 185.608 9.40731 184.66 10.1609 185.655ZM9.82311 186.358C9.78153 186.207 9.6412 185.9 9.38132 185.838C9.19941 185.796 8.92914 185.994 8.92914 186.244C9.09546 186.436 9.57363 186.395 9.82311 186.358ZM14.6204 184.056C14.9998 184.556 14.7503 185.348 14.215 185.535C13.9863 185.619 13.664 185.582 13.4354 185.629C13.0871 185.697 12.9312 185.718 12.6869 185.364C11.767 184.025 14.1162 183.379 14.6204 184.056ZM13.0455 184.645C13.3054 185.515 14.2929 185.249 14.2618 184.754C14.2566 184.655 14.1422 184.374 14.0798 184.28C13.7992 184.265 13.2067 184.296 13.0455 184.645ZM10.4364 168.577C10.7327 169.114 10.6495 169.499 10.0154 169.879C9.43849 170.233 9.15783 170.181 8.74203 169.567C7.64536 167.942 10.1609 168.093 10.4364 168.577ZM9.75554 169.483C10.3377 168.963 10.005 168.53 9.13704 168.926L9.35014 169.249C9.53205 169.426 9.52165 169.421 9.75554 169.483ZM21.663 174.739C22.0528 175.332 21.5226 175.686 21.0809 176.009C20.821 176.192 20.717 176.379 20.4104 176.317C20.1817 176.27 19.8075 176.067 19.6567 175.879C19.2617 175.39 19.7971 174.994 20.296 174.811C20.8314 174.619 21.4031 174.338 21.663 174.739ZM21.1484 175.056L20.3948 175.332C19.9218 175.546 20.3896 175.765 20.7274 175.619C20.9457 175.525 21.0497 175.317 21.1484 175.056ZM6.68903 153.765C7.00087 154.061 6.83975 154.838 6.49672 155.072C6.25764 155.228 5.42084 155.197 5.14018 154.957C4.22022 154.171 6.03934 153.155 6.68903 153.765ZM25.322 182.186C25.1141 182.082 25.0465 181.921 24.9322 181.775C25.1037 181.301 24.1474 180.666 26.1068 180.489C26.3719 180.468 26.611 180.379 26.8501 180.676C27.2815 181.213 27.5725 182.634 25.322 182.186ZM25.7066 181.994C25.9509 181.869 26.8345 181.78 26.5954 181.233C26.3511 180.671 25.6442 180.978 25.4 181.15C25.4415 181.426 25.5403 181.723 25.7066 181.994ZM27.4945 201.306C27.6557 200.936 27.8584 200.994 28.1286 200.848L28.0975 200.749C28.0923 200.739 28.0871 200.718 28.0819 200.707C27.7232 199.942 26.6785 200.723 26.7773 200.999C27.0372 201.353 27.5205 201.28 27.297 201.785C26.4083 202.134 25.3688 200.431 27.323 199.942C29.2513 199.457 28.5704 202.197 27.4945 201.306ZM16.4187 155.64C15.9457 155.4 15.7898 154.838 15.9769 154.379C16.2316 153.739 16.7929 153.952 17.1672 153.822C17.4322 153.999 17.8168 154.114 17.926 154.39C18.0195 154.624 17.8948 154.973 17.6401 155.134C17.4166 155.275 17.1775 155.233 16.9177 155.265C16.32 155.348 16.9333 155.494 16.4187 155.64ZM16.5279 154.801C16.7877 154.905 16.9748 154.801 17.1775 154.66L16.8137 154.478L16.5279 154.801ZM17.4114 151.14C17.3958 150.754 16.9956 150.707 17.5154 150.119C17.8584 149.728 18.0871 149.806 18.4873 149.749L18.9499 149.999C19.189 150.442 19.2565 150.879 18.6484 151.223C18.4249 151.348 18.3002 151.39 18.0455 151.41C17.5933 151.457 17.7129 151.436 17.4114 151.14ZM20.4883 204.947C20.6858 205.218 20.6391 205.421 20.769 205.546C21.0393 205.796 21.3927 205.681 20.9925 206.155C20.1609 207.15 19.8231 206.614 19.4125 205.942C18.8511 205.015 20.0621 204.364 20.4883 204.947ZM20.2649 205.989C20.3116 205.697 20.296 205.598 20.0881 205.395C19.9062 205.692 19.9322 205.832 20.2649 205.989ZM22.3127 211.348C22.7077 211.989 21.5174 213.364 20.5403 212.213C19.8335 211.369 21.8761 210.64 22.3127 211.348ZM21.7046 211.765C21.4603 211.655 21.3979 211.707 21.2264 211.874L21.4759 211.978C21.6734 211.874 21.5694 211.942 21.7046 211.765ZM21.4187 155.254C21.7513 155.759 20.717 157.593 19.8023 156.4C19.4333 155.916 19.6931 155.608 20.1661 155.353C20.452 155.197 21.0964 154.77 21.4187 155.254ZM7.85846 161.733C8.25347 162.322 7.74931 162.608 7.27114 162.749C6.9437 162.848 6.35639 163.265 5.9146 162.713C5.61315 162.348 6.15369 161.666 6.52271 161.52C6.7358 161.442 7.63497 161.395 7.85846 161.733ZM7.3647 162.15L6.98528 161.968L6.63185 162.239C7.02686 162.457 7.10483 162.364 7.3647 162.15ZM23.3054 197.463C23.8667 196.765 23.2482 196.78 23.9914 196.4C24.2929 196.244 24.8958 196.285 25.0829 196.744C25.4779 197.744 24.2097 198.27 23.3054 197.463ZM13.7264 159.65C14.558 160.4 12.8792 161.572 12.2191 160.796C11.8709 160.39 12.2088 159.963 12.5778 159.744C12.9884 159.494 13.2379 159.207 13.7264 159.65ZM13.0611 160.442C13.1495 160.41 13.3106 160.452 13.2483 160.041C13.1235 160.041 13.004 160.009 12.9208 160.181C12.8169 160.384 12.9312 160.39 13.0611 160.442ZM22.8324 222.645C22.9208 222.874 22.9675 222.983 22.8116 223.275C22.6609 223.561 21.585 224.067 21.2004 223.421C20.6183 222.452 22.5517 221.895 22.8324 222.645ZM11.1745 162.947C11.4239 163.249 11.6838 163.64 11.3668 164.082C10.847 164.817 9.79712 164.348 9.74515 163.9L9.87508 163.421C9.95824 163.291 9.96864 163.301 10.0206 163.254C10.2181 163.103 10.8938 162.983 11.1745 162.947ZM17.2087 218.754C17.4322 219.14 17.4062 219.515 16.9644 219.796C15.9717 220.431 14.9894 218.926 16.1173 218.556C16.4291 218.457 16.9385 218.291 17.2087 218.754ZM19.6567 201.91C20.1713 202.577 18.8979 203.739 18.1807 203.035C17.8688 202.728 18.1495 202.114 18.5393 201.91C18.69 201.832 19.4385 201.629 19.6567 201.91ZM11.2212 225.421C11.4031 225.791 11.5539 225.916 11.346 226.327C11.1017 226.364 11.19 226.358 10.9718 226.535C10.7639 226.702 10.7898 226.718 10.5871 226.723C10.1557 226.702 9.08506 225.582 10.4676 225.171C10.8626 225.051 10.899 225.166 11.2212 225.421ZM8.52374 217.41C8.46656 217.744 8.47696 218.192 8.07156 218.41C7.72852 218.598 7.47385 218.358 7.29713 218.046C6.9437 217.436 7.12561 216.322 8.05596 216.775C8.41459 217.035 8.37821 217.197 8.52374 217.41ZM12.505 188.879C13.0663 189.624 11.9073 190.442 10.9718 189.676C10.5144 189.301 10.9925 188.947 11.346 188.78C11.5954 188.66 12.1984 188.478 12.505 188.879ZM26.2004 175.15C26.0029 174.843 24.1214 174.827 24.6671 175.864C24.8542 176.213 25.4519 176.593 25.7586 176.301C25.8573 176.213 26.0756 175.848 26.1536 175.707C26.4291 175.207 26.2368 175.213 26.2004 175.15ZM23.4353 165.655C23.8043 165.989 23.7887 166.358 23.3677 166.697C23.0871 166.926 22.6453 167.14 22.2659 166.796C21.6838 166.28 22.6557 164.968 23.4353 165.655ZM26.3303 218.588C27.006 219.473 25.3012 219.978 24.8594 219.343C24.3657 218.634 25.795 217.89 26.3303 218.588ZM21.928 180.067L22.0268 180.593C21.9021 181.504 20.9977 181.442 20.6599 181.098C20.3792 180.801 20.5663 180.275 20.8989 180.009C21.1016 179.853 21.7098 179.702 21.928 180.067ZM10.3533 200.369C10.5612 200.348 11.0601 200.108 11.2056 200.015C11.637 200.582 11.9905 201.061 10.9302 201.504C10.7119 201.593 10.3325 201.645 10.0726 201.348C9.78153 201.015 10.1713 200.692 10.3533 200.369ZM24.2409 175.186C24.2357 175.463 24.163 176.041 23.7991 176.249C23.5237 176.405 23.0091 176.322 22.7752 175.952C22.375 175.322 23.3002 174.426 24.2409 175.186ZM15.7326 167.676C16.0549 168.15 15.0154 169.379 14.2825 168.447C13.7576 167.77 15.1973 166.895 15.7326 167.676ZM17.505 178.218C18.0663 178.785 17.0632 180.056 16.3148 179.39C15.6235 178.78 16.9904 177.707 17.505 178.218ZM16.6266 193.4C17.2607 194.296 16.0393 195.02 15.3948 194.358C14.7815 193.733 16.1692 192.759 16.6266 193.4ZM12.5258 181.015C12.9832 181.463 12.4686 181.936 12.2763 182.046C12.162 182.114 11.8761 182.186 11.741 182.181C11.1537 182.176 11.5175 181.921 11.3252 181.582C11.3252 181.582 10.8626 181.088 11.4343 180.827C11.7514 180.681 12.1984 180.686 12.5258 181.015ZM19.9322 185.577C20.374 186.494 18.6017 187.129 18.3938 186.426C18.1235 185.525 19.6983 185.088 19.9322 185.577ZM14.9478 163.78C15.1193 163.483 15.2077 163.52 15.4208 163.405C15.6963 163.254 15.5819 163.186 15.8834 163.056C17.0424 162.588 17.0736 164.046 16.0653 164.285C15.6287 164.39 15.2285 164.124 14.9478 163.78ZM6.89173 214.457C7.05805 214.046 7.33871 213.65 7.67135 213.577C8.06116 213.489 8.46657 213.832 8.49255 214.176C8.56532 215.02 7.41147 215.291 6.89173 214.457ZM30.6442 172.65C31.086 173.285 29.953 174.207 29.3449 173.338C28.6692 172.374 30.2492 172.082 30.6442 172.65ZM15.1557 222.858C15.1038 223.155 15.0934 223.681 14.7347 223.91C14.4281 224.103 14.0227 223.838 13.8564 223.561C13.4302 222.848 14.267 222.197 15.0518 222.65C15.0518 222.692 15.1141 222.801 15.1557 222.858ZM20.6131 169.827C20.9977 170.463 19.7035 171.317 19.2098 170.405C19.059 170.124 19.1682 169.645 19.5632 169.509C19.8231 169.426 20.4052 169.489 20.6131 169.827ZM8.98112 211.207C8.97072 211.442 9.12665 211.577 8.96552 211.853C8.84598 212.046 8.53413 212.166 8.33143 212.155C7.80649 212.124 7.66615 211.447 7.64536 211.134C8.09754 210.239 8.50814 210.718 8.98112 211.207ZM14.9426 173.358C14.4956 173.213 14.2929 172.848 14.3085 172.473C14.3293 172.009 14.6256 172.02 15.2077 171.89C15.821 171.749 15.9509 172.311 15.795 172.551C15.6651 172.744 15.478 172.739 15.3168 172.895C15.0934 173.108 15.2233 173.15 14.9426 173.358ZM10.0414 173.322C10.1713 174.265 8.78361 174.457 8.55492 173.999C8.23268 173.358 8.97072 172.509 10.0414 173.322ZM35.4415 186.9C36.1172 187.645 34.7918 188.494 34.2721 187.843C34.059 187.582 34.033 187.088 34.7346 186.858C35.0205 186.765 35.1816 186.614 35.4415 186.9ZM32.3126 190.077C32.7648 190.905 31.3563 191.327 30.9353 190.733C30.6962 190.405 30.8885 190.03 31.2315 189.89C31.4446 189.796 32.1619 189.796 32.3126 190.077ZM12.11 157.671C12.0996 157.431 12.1724 156.785 12.3491 156.608C12.4322 156.525 12.7389 156.405 12.8169 156.4C13.03 156.39 13.1235 156.494 13.2638 156.671C13.8667 157.421 12.8688 158.108 12.11 157.671ZM29.1006 166.343C29.7658 167.093 28.534 167.874 27.9831 167.369C27.6089 167.025 27.8324 166.733 28.1858 166.525C28.4197 166.384 28.8407 166.051 29.1006 166.343ZM9.71396 145.9C10.083 146.447 9.4333 147.546 8.50814 146.733C8.10794 146.379 8.48736 146.124 8.7992 145.968C9.06947 145.827 9.43849 145.489 9.71396 145.9ZM11.0237 197.765C11.0289 197.978 11.0913 198.233 10.8262 198.572C10.3792 198.916 9.98423 199.025 9.45928 198.535C9.56323 198.015 9.56843 198.093 9.99463 198.098C10.1661 197.509 10.5819 197.379 11.0237 197.765ZM2.91565 187.056C2.85328 186.567 2.84809 186.463 3.33665 186.374C3.52896 186.338 4.14746 186.223 4.38134 186.4C4.90629 186.796 3.96035 187.686 2.91565 187.056ZM10.8938 215.978C12.2399 214.088 12.7441 216.582 11.7358 216.567C11.3927 216.561 11.1277 216.192 10.8938 215.978ZM26.0964 169.895C26.3667 170.176 26.4654 170.452 25.9613 170.64C25.6442 170.754 25.348 170.759 25.0413 170.431C24.506 169.864 25.348 169.129 26.0964 169.895ZM6.27842 183.598C6.48113 183.874 6.49152 184.218 6.1173 184.421C5.87302 184.551 5.54558 184.749 5.24413 184.395C4.63602 183.692 5.9146 183.114 6.27842 183.598ZM13.0404 201.186C13.1755 200.936 13.6433 200.697 13.8616 200.546C14.241 200.707 14.2825 200.78 14.3085 201.088C14.4021 202.108 13.5393 202.171 13.0404 201.186ZM15.0674 208.811C14.3553 209.197 13.7056 207.936 13.9863 207.343C14.1058 207.088 14.1214 207.108 14.2618 207.056L14.6256 206.884C14.8075 206.853 14.8543 206.853 15.0154 207.004C15.1297 207.114 15.1921 207.265 15.2909 207.358C15.4624 207.525 15.5144 207.463 15.7482 207.598C15.847 208.207 15.6235 208.478 15.0674 208.811ZM14.6516 207.4C14.4489 207.864 14.506 208.009 14.8491 208.327L14.9478 207.994C14.8595 207.702 14.8335 207.681 14.6516 207.4ZM12.0424 194.572C12.3699 195.202 11.2888 195.785 10.8574 195.03C10.5404 194.468 11.7618 194.03 12.0424 194.572ZM21.1848 191.801C20.4883 191.947 20.4883 190.655 21.0549 190.52C21.3251 190.452 22.0372 191.093 21.4083 191.697C21.242 191.858 21.3303 191.78 21.1848 191.801ZM15.4104 159.827L15.452 159.759C15.7223 159.614 15.8054 159.457 16.0497 159.343C16.268 159.249 16.4863 159.166 16.715 159.15C17.2191 159.025 17.7597 158.931 17.9468 159.671C18.0455 160.093 17.7701 160.421 17.427 160.608C16.6682 161.02 17.11 160.957 16.7254 161.395C16.0341 161.681 14.8023 160.634 15.4104 159.827ZM16.9852 159.515C16.6682 159.629 16.611 159.582 16.2368 159.785C16.1121 159.858 15.9665 159.931 15.8834 160.051C15.7274 160.27 15.7742 160.343 15.9042 160.483C16.216 160.457 16.3927 160.614 16.7721 160.483C17.1256 160.358 17.2659 160.129 17.4738 159.681L16.9852 159.515ZM29.1941 197.181C28.7056 197.525 28.4457 197.082 28.2794 196.65L28.191 196.166C28.4873 196.207 28.664 196.186 28.8563 196.525L29.1941 197.181ZM32.9623 165.666C33.165 165.353 33.2118 165.348 32.9831 165.098C32.5933 164.942 32.1099 165.233 32.0008 165.728C32.006 165.744 31.9176 166.004 32.4893 165.864C32.692 165.811 32.7648 165.728 32.9623 165.666ZM15.0466 211.301C15.005 211.108 15.0466 210.791 15.1349 210.603C15.322 210.228 15.4936 210.348 15.8262 210.504C16.2836 210.858 16.3304 211.338 15.9717 211.832L15.5767 211.926C15.1713 211.801 14.9062 211.676 15.0466 211.301ZM12.2659 211.838C12.0009 211.77 11.7254 211.65 11.5851 211.4C11.4395 211.15 11.5331 210.968 11.6994 210.65L11.7618 210.666C11.8969 210.577 11.7462 210.65 11.9333 210.567C11.9489 210.561 12.084 210.515 12.1048 210.509C12.2607 210.468 12.2815 210.463 12.4582 210.452C13.0248 210.249 13.2586 211.051 12.8584 211.572C12.6557 211.754 12.5934 211.697 12.4115 211.884L12.2659 211.838ZM25.3428 185.494C25.0465 185.52 24.5736 185.181 24.7503 184.426L24.9114 184.395C25.1297 184.218 25.1973 184.233 25.4052 184.14L25.5507 184.067C26.2523 184.395 26.5902 184.744 26.138 185.535L25.717 185.567L25.3428 185.494ZM33.4769 164.603L33.612 164.692C33.7731 165.072 33.8771 165.129 33.7159 165.66L33.269 166.072L33.2378 166.051C32.7284 166.52 32.9415 165.848 32.2087 166.822C31.7305 166.739 31.7669 166.66 31.5538 166.265C30.9145 165.061 32.0631 164.603 32.9831 164.447L33.0714 164.515C33.217 164.457 33.0403 164.457 33.2845 164.515C33.4041 164.541 33.3677 164.541 33.4769 164.603ZM25.4104 189.822C25.5507 189.645 25.7378 189.504 25.8937 189.457C26.086 189.4 26.3043 189.358 26.4602 189.332C26.5746 189.301 26.5486 189.322 26.6526 189.301C26.8241 189.265 26.7201 189.317 26.8812 189.239C27.3646 189.447 27.8324 189.614 27.796 190.239C27.7544 190.931 27.1307 191.082 26.7877 191.233C26.5954 191.306 26.4395 191.311 26.2783 191.348L26.216 191.046C26.5174 190.864 27.2243 190.608 27.2035 190.176C27.006 189.515 26.1432 189.785 25.8054 190.306L26.2939 190.681C26.0029 191.15 24.901 190.91 25.4104 189.822ZM31.1016 104.275C30.1037 104.108 29.9114 103.067 29.875 102.478C29.823 101.608 30.6078 100.848 31.3823 101.124C32.0475 101.364 31.9852 101.702 32.0995 102.056C32.2035 102.395 32.4374 102.723 32.5309 103.067C32.8168 104.108 31.9072 104.41 31.1016 104.275ZM11.7982 133.791C12.7181 133.973 13.0352 132.895 12.8376 132.155C12.6973 131.619 13.03 130.53 11.689 130.489C11.3876 130.478 10.9614 130.603 10.7431 130.947C10.4208 131.468 10.7794 133.582 11.7982 133.791ZM31.9488 117.692C32.9623 117.905 33.6432 116.931 33.0766 115.546C32.9363 115.192 32.7024 115.015 32.245 114.973C30.3584 114.796 30.4415 117.374 31.9488 117.692ZM33.0974 98.2125C32.6608 98.1813 32.2658 97.0823 32.2502 96.5458C32.2243 95.5198 32.6245 95.3844 33.5236 95.4781C33.8407 95.5146 34.3656 95.5354 34.2773 95.9885C34.1265 96.7646 34.1941 96.3479 34.3916 96.9521C34.6515 97.749 33.6016 98.249 33.0974 98.2125ZM40.0309 94.6552C40.956 94.775 40.6182 94.7073 40.8573 95.0406C41.1899 95.5146 41.4342 95.0771 41.6421 94.7177C41.9384 94.2125 41.9695 94.1969 41.9384 93.6656C41.9228 93.3115 41.8292 93.0563 41.3043 92.9885C38.3105 92.5927 39.1161 94.5406 40.0309 94.6552ZM14.1214 146.614C15.4624 146.733 15.4728 144.218 14.0279 144.035C13.7836 144.009 13.451 144.145 13.269 144.384C12.9936 144.759 13.0923 144.952 13.1391 145.28C13.1859 145.64 13.4146 146.551 14.1214 146.614ZM29.5943 148.884C29.6099 149.311 29.9374 149.447 29.7451 149.973C29.3345 150.306 28.5444 150.223 28.4093 149.629C28.3469 149.369 28.4405 148.973 28.716 148.843C29.059 148.681 29.033 148.994 29.428 148.556L29.4904 148.358C28.1754 147.515 26.8449 150.093 28.7367 150.671C29.506 150.91 30.769 150.629 30.1816 149.197C30.1037 149.015 29.7866 148.379 29.5943 148.884ZM22.3906 120.957C22.0996 120.686 21.8033 120.535 21.4031 120.4C21.0133 120.265 20.821 120.285 20.5715 120.629C19.7347 121.796 20.5455 124.114 21.7773 122.895C22.3386 122.343 22.2919 121.895 22.3075 121.452C22.3127 121.285 22.3698 121.098 22.3906 120.957ZM38.0246 117.416C38.3625 117.473 38.586 117.457 38.8251 117.192C39.376 116.582 39.0693 116.119 38.8355 115.499C38.6951 115.14 38.5288 115.009 38.0818 115.03C37.8012 115.041 37.4789 115.009 37.271 115.171C36.5642 115.713 37.0423 117.265 38.0246 117.416ZM31.1016 146.718C31.3719 146.749 31.559 146.614 31.7617 146.358C32.3074 145.671 31.8604 144.494 30.8937 144.4C29.4904 144.265 30.1037 146.598 31.1016 146.718ZM29.0226 121.905C28.7316 121.983 27.5933 122.572 27.0684 121.421C26.5486 120.28 28.5548 119.218 28.4197 120.832L27.5725 120.853C27.5361 121.614 28.2274 121.567 28.7056 121.322C28.8355 120.843 28.5756 120.52 28.6952 120.259C29.1473 120.442 29.1214 120.489 29.2097 120.811C29.376 121.301 29.4644 121.369 29.0226 121.905ZM18.6121 143.119C19.3449 143.15 19.7919 142.223 19.6048 141.692C19.3501 140.973 19.3449 140.551 18.4665 140.348C17.2503 140.067 17.5778 143.077 18.6121 143.119ZM24.2409 116.134C24.979 116.114 24.9218 115.77 25.2284 114.78C25.4727 114.004 23.8407 113.056 23.4665 114.004C23.3833 114.213 23.4665 114.64 23.4925 114.827C23.5393 115.155 23.6172 116.15 24.2409 116.134ZM19.5112 135.436C20.0829 135.416 20.4364 134.921 20.4987 134.207C20.5455 133.676 20.0881 133.067 19.4592 133.051C18.7576 133.03 18.6484 133.588 18.7836 134.145C18.8615 134.452 18.9863 135.457 19.5112 135.436ZM12.7701 142.296C13.5393 142.473 13.7264 141.895 13.6692 141.223C13.5965 140.353 13.9811 140.228 12.9416 139.905C11.4239 139.431 12.0009 142.114 12.7701 142.296ZM47.2762 78.1083C46.1587 79.1604 48.2169 80.3219 49.0485 79.4208C50.3791 77.9781 47.8479 77.5615 47.2762 78.1083ZM17.4426 126.843C17.7233 126.874 17.9936 126.822 18.1547 126.489C18.3002 126.181 18.1859 125.89 18.1547 125.634C18.0975 125.103 18.4457 125.176 18.3366 124.869C18.2222 124.561 17.7649 124.436 17.4998 124.426C16.6682 124.39 16.585 124.686 16.741 125.483C16.8501 126.046 16.8969 126.775 17.4426 126.843ZM37.2814 92.2854C37.8271 92.4104 38.2118 92.1865 38.3677 91.499C38.508 90.8531 38.43 90.5354 37.6764 90.3479C36.1276 89.9625 36.6733 92.1448 37.2814 92.2854ZM27.6817 118.754C27.8584 118.796 27.9259 118.796 28.0871 118.801C28.56 118.822 28.6328 119.176 29.1318 118.66C29.4852 118.301 29.4696 117.353 28.9446 117.202C28.6328 117.114 27.7388 117.322 27.4582 117.504C26.8968 117.884 26.9696 118.582 27.6817 118.754ZM29.7243 132.749C30.3376 132.707 30.6078 132.426 30.5819 131.686C30.5559 131.009 30.3636 130.796 29.6203 130.785C27.6713 130.749 29.1733 132.785 29.7243 132.749ZM36.8812 100.921C37.6192 101.093 37.7128 100.796 37.8791 100.056C37.9363 99.775 38.0298 99.5771 37.8479 99.3479C37.7076 99.1813 37.3854 98.9677 37.1515 98.9052C36.0964 98.6188 35.743 100.655 36.8812 100.921ZM15.3376 137.702C15.7534 137.801 16.3148 137.244 16.32 136.827C16.3252 136.541 15.8366 135.853 15.4832 135.744C14.3241 135.405 14.4749 137.489 15.3376 137.702ZM22.2243 144.864C21.7617 144.598 21.2108 144.77 20.9249 145.181C20.5351 145.749 21.0237 146.098 21.1172 146.483C21.4083 146.614 21.7149 146.874 22.006 146.811C22.2503 146.759 22.4738 146.468 22.4686 146.166C22.4634 145.9 22.2971 145.723 22.1827 145.489C21.928 144.942 22.3802 145.379 22.2243 144.864ZM27.9311 128.213C29.033 128.353 28.8043 127.223 28.6068 126.567C28.5081 126.233 28.4457 126.129 28.1027 126.145C27.5205 126.176 27.2711 126.395 27.2659 127.108C27.2659 127.452 27.4114 128.14 27.9311 128.213ZM40.9404 108.452C40.8729 108.973 41.4082 109.681 42.0215 109.994C42.323 109.921 42.5517 109.957 42.7128 109.504C42.8843 109.02 42.64 108.983 42.4685 108.619C42.3074 108.28 42.2554 108.046 41.7097 107.989C41.3926 107.957 41.0652 108.046 40.9404 108.452ZM40.8729 99.0563C41.5122 99.025 41.5381 98.4521 41.5122 97.8792C41.455 96.3531 40.2596 96.9104 40.0361 97.1656C39.6515 97.5979 40.2492 99.0927 40.8729 99.0563ZM24.6359 149.28C25.2388 149.285 26.2004 147.41 24.7035 147.296C24.1006 147.249 23.9811 147.634 24.033 148.171C24.059 148.499 24.059 149.275 24.6359 149.28ZM22.6141 134.327C23.321 134.338 23.2794 133.754 23.1391 133.275C23.0455 132.947 23.0663 132.228 22.3698 132.155C21.8969 132.103 21.6266 132.931 21.7098 133.322C21.7565 133.541 22.2087 134.322 22.6141 134.327ZM32.1151 112.077C32.375 111.843 32.6401 111.968 32.8895 111.728C33.1702 111.447 33.1546 111.061 33.2586 110.765C32.6297 110.155 31.4758 109.806 31.1328 110.707C31.6993 110.827 32.297 110.364 32.7492 111.035C32.5361 111.64 31.8552 111.124 31.455 111.067C31.3095 111.046 31.3407 111.051 31.2419 111.072C31.2627 111.421 31.455 111.436 31.5746 111.713C31.6369 111.843 31.5902 111.744 31.6213 111.848L31.6473 111.947C31.6525 111.957 31.6577 111.983 31.6629 111.999C31.8604 112.072 31.9644 112.061 32.1151 112.077ZM41.8708 90.525C41.5018 90.8688 41.798 91.4417 42.1826 91.6448C42.5309 91.8323 43.2325 91.7229 43.43 91.5354C44.3032 90.7438 42.5361 89.9156 41.8708 90.525ZM24.085 140.405C25.1661 140.697 25.2232 138.64 24.2201 138.504C23.69 138.436 23.5185 138.957 23.5341 139.384C23.5549 139.869 23.4509 140.233 24.085 140.405ZM25.4363 136.452C25.8262 136.499 26.2939 136.504 26.4914 135.994C26.8189 135.155 25.8521 134.53 25.4519 134.728L25.1245 135.098C25.0569 135.239 25.0725 135.244 25.0673 135.311C25.0413 135.561 25.3168 136.197 25.4363 136.452ZM27.5153 113.603C28.3781 113.655 28.8095 112.275 27.7544 111.931C27.3126 111.791 27.0788 112.223 27.0372 112.681C27.006 113.067 26.98 113.572 27.5153 113.603ZM32.2347 120.561C32.245 120.155 32.2554 119.707 31.7981 119.483C31.1328 119.155 31.008 119.655 30.8469 120.093C31.0392 120.395 30.9977 120.843 31.3927 121.056C31.7981 121.28 32.0943 120.978 32.2347 120.561ZM24.4488 128.39C25.5455 128.535 25.4571 127.025 24.6619 126.838C24.2773 126.749 23.9031 127.035 23.9031 127.489C23.9031 127.853 23.9499 128.327 24.4488 128.39ZM43.6483 87.3271C43.9862 87.0094 43.9862 86.7594 44.1993 86.2906C43.6327 85.3688 42.9311 85.3635 42.8063 85.8896C42.7648 86.0563 42.9727 87.1083 43.6483 87.3271ZM33.5652 102.489C34.6619 102.759 34.4592 101.171 33.903 101.015C33.0662 100.78 32.666 102.27 33.5652 102.489ZM45.5714 96.2281C46.2263 95.3688 45.1972 94.1917 44.7866 94.5198C44.3604 94.8635 44.5527 95.3479 44.6878 95.6083C44.9373 96.0719 45.0932 96.15 45.5714 96.2281ZM33.4613 129.827C34.3188 129.416 33.7211 128.145 33.2118 128.202C32.5049 128.28 32.1983 129.364 33.4613 129.827ZM21.559 140.129C21.3511 140.249 20.8522 140.66 20.8002 140.905C20.7794 141.025 20.847 141.348 20.8834 141.41C20.9925 141.603 21.1328 141.624 21.3563 141.645C22.3127 141.739 22.3334 140.525 21.559 140.129ZM20.0621 129.145C20.9197 129.28 20.6079 127.645 19.8335 127.64C19.6412 127.64 19.8542 127.53 19.6256 127.744C19.4592 127.905 19.2357 128.239 19.2825 128.483C19.3345 128.754 19.7399 129.098 20.0621 129.145ZM36.481 95.8583C34.3864 95.5563 35.7689 98.0667 36.455 96.8688C36.6577 96.525 36.5694 96.1813 36.481 95.8583ZM37.401 112.119C37.6452 112.119 37.9467 111.744 37.7076 111.322C37.5777 111.093 37.3334 110.655 36.9748 110.681C36.1847 110.728 36.6785 112.124 37.401 112.119ZM39.7086 101.348C40.6598 101.41 40.4675 100.119 39.9061 100.02C39.5683 99.9625 39.2201 100.244 39.1785 100.66C39.1525 100.89 39.3448 101.322 39.7086 101.348ZM16.1121 131.733C16.4187 131.713 16.7721 131.629 16.7721 131.124C16.7721 130.926 16.5071 130.473 16.164 130.405C15.4312 130.259 15.3584 131.775 16.1121 131.733ZM34.5423 106.509L34.6255 106.405C34.5371 106.124 34.5527 105.895 34.2461 105.65C33.9134 105.39 33.6016 105.447 33.4249 105.822C33.1754 106.353 33.9654 107.332 34.5423 106.509ZM10.3273 135.327C11.0133 135.343 10.873 133.905 10.0466 134.035C9.26178 134.155 9.73995 135.311 10.3273 135.327ZM29.4852 96.2958C30.5143 96.3688 30.3376 95.2229 29.5943 95.15C28.8303 95.0719 28.7523 96.249 29.4852 96.2958ZM32.692 124.077C32.7232 123.728 32.77 123.41 32.4218 123.207C32.1255 123.035 31.6213 123.077 31.4186 123.218C31.2315 123.192 30.8729 123.28 30.7742 123.546C30.639 123.968 30.7742 124.405 31.1276 124.686C31.533 125.004 32.1099 124.91 32.3074 124.577C32.5309 124.551 32.5881 124.311 32.692 124.077ZM9.67758 128.035C10.3481 128.035 10.4052 128.28 10.5612 127.989C10.8106 127.53 9.33454 126.598 9.2254 127.275C9.18382 127.551 9.34494 128.03 9.67758 128.035ZM19.2981 116.025C18.6121 115.379 17.8376 115.791 18.0819 116.39C18.1859 116.645 18.5185 116.9 18.82 116.785C19.1266 116.671 19.2306 116.311 19.2981 116.025ZM25.1609 141.723L25.1245 141.796C25.1505 142.103 25.0621 142.259 25.1037 142.525C25.1453 142.759 25.1973 142.989 25.3064 143.186C25.4779 143.686 25.6962 144.192 26.4187 143.942C26.8189 143.796 26.9436 143.379 26.9124 142.994C26.8397 142.134 27.0268 142.535 27.1827 141.973C27.0424 141.233 25.4987 140.77 25.1609 141.723ZM21.7149 151.603L21.7253 151.608C21.6162 151.936 21.7461 152.259 22.0892 152.4C22.3906 152.525 22.7025 152.374 22.9156 152.254L22.9623 152.285V152.233L23.0039 152.207L22.9571 152.176C22.9364 151.931 22.8948 151.588 22.6297 151.405C22.3231 151.197 21.9748 151.259 21.7669 151.53L21.7565 151.525C21.7513 151.541 21.7461 151.551 21.7409 151.567C21.7305 151.577 21.7201 151.593 21.7149 151.603ZM6.69942 232.968C6.69942 233.223 6.70462 233.447 6.71501 233.645C6.86054 233.483 6.91772 233.291 6.7514 233.03C6.741 233.009 6.72021 232.983 6.69942 232.968ZM6.63705 230.864C6.66824 231.14 6.69422 231.4 6.70462 231.629C7.01127 232.327 7.81168 233.072 8.32623 232.89C8.57571 232.801 8.84598 232.53 8.97072 232.192C9.16303 231.686 8.97072 231.754 8.62249 231.483C8.40419 231.322 8.34183 231.02 8.02478 230.801C7.5778 230.489 6.85015 230.457 6.63705 230.864ZM3.50297 212.114C3.42501 212.291 3.35744 212.489 3.30027 212.697C3.4406 212.603 3.61212 212.629 3.84081 212.843C3.75765 213.077 3.56014 212.983 3.59133 213.296C3.61731 213.593 3.83561 213.483 3.52376 213.936C3.35744 213.895 3.2327 213.853 3.13915 213.801C3.12875 214.03 3.12875 214.275 3.14434 214.53C3.54975 214.744 4.01232 214.567 4.30858 213.853L4.38134 213.603C4.54246 213.614 4.54246 213.65 4.688 213.645C4.90629 213.119 4.28259 212.317 3.75245 212.15C3.6485 212.114 3.57054 212.108 3.50297 212.114ZM11.3148 205.442C11.3148 205.483 11.3148 205.525 11.3096 205.561C11.2576 205.942 11.1797 206.296 11.0653 206.624C11.2628 206.864 11.7098 206.947 11.9905 206.785C12.2971 206.608 12.7233 206.155 12.4167 205.796C12.4011 205.718 12.505 205.765 12.3075 205.582C12.2191 205.504 12.0944 205.452 11.9905 205.395L11.9489 205.457C11.7358 205.322 11.5123 205.343 11.3148 205.442ZM4.94787 192.239L5.56117 193.311C5.67032 193.207 5.76387 193.072 5.83664 192.89C5.79506 192.796 5.83664 192.624 5.80026 192.494C5.74308 192.296 5.65473 192.291 5.4988 192.103C5.32209 192.134 5.23893 192.114 5.03103 192.202C5.00504 192.218 4.97386 192.228 4.94787 192.239ZM3.18073 189.035C3.25869 189.197 3.33665 189.358 3.41981 189.515C3.41981 189.41 3.37823 189.301 3.31586 189.192C3.27948 189.129 3.2327 189.082 3.18073 189.035ZM2.35433 184.129C2.29715 184.463 2.26597 184.811 2.26597 185.171C2.34393 185.061 2.4063 184.921 2.45308 184.744C2.52064 184.483 2.47387 184.306 2.35433 184.129ZM8.5965 179.489C8.42498 179.681 8.21709 179.853 7.95721 179.999C8.23787 179.9 8.49775 179.707 8.5965 179.489ZM1.64227 157.457L1.65786 157.489C1.76181 157.832 1.87616 158.192 2.0009 158.567C2.4167 158.291 2.29196 157.947 2.14123 157.681C2.02688 157.483 1.83977 157.426 1.64227 157.457ZM1.21608 152.739C1.1745 152.968 1.14331 153.207 1.12772 153.457C1.14851 153.509 1.1797 153.567 1.23167 153.64C1.19009 153.697 1.14851 153.749 1.10693 153.796C1.10173 154.02 1.10173 154.254 1.11213 154.494C1.65267 154.134 2.02169 153.468 1.49154 152.926C1.41358 152.843 1.32003 152.78 1.21608 152.739ZM1.89175 150.759C1.74622 151.025 1.61109 151.317 1.50194 151.629C1.87616 151.525 2.18801 151.171 1.96971 150.848C1.94892 150.817 1.92293 150.785 1.89175 150.759ZM8.87717 141.551C8.85118 142.061 8.7992 142.53 8.72124 142.957C9.31895 142.916 9.80232 141.931 8.87717 141.551ZM20.1453 109.593C19.6204 109.718 19.1422 109.968 18.7888 110.416C18.794 110.478 18.8096 110.541 18.8251 110.608C18.9395 111.114 19.1266 111.978 19.6464 112.015C19.9426 112.035 20.0621 112.03 20.3896 111.588C20.8262 110.989 20.6079 110.035 20.1453 109.593ZM25.0205 107.598C24.7555 108.369 24.4436 108.947 24.0954 109.285C24.1578 109.509 24.2305 109.702 24.2409 109.864C24.7191 110.082 24.9686 110.374 25.717 110.249C25.8573 110.223 25.8158 110.233 25.9457 110.192C26.0964 110.145 26.0393 110.114 26.1484 110.129C26.6422 109.509 26.3251 109.197 25.9821 108.676C25.6235 108.124 26.4603 107.77 25.1661 107.608C25.1193 107.603 25.0725 107.598 25.0205 107.598ZM38.2325 83.8844C38.1338 84.0823 38.0402 84.301 37.9519 84.5354C37.9103 84.6396 37.8739 84.7438 37.8323 84.8479C37.9519 84.9885 38.1546 85.1083 38.4041 85.2281C39.0018 85.5198 39.2824 85.5354 39.6203 84.9104C40.1764 83.8792 38.9914 83.4365 38.2325 83.8844ZM49.0017 81.7958C49.1057 81.4417 49.2304 81.0458 49.3604 80.5771C48.9342 80.5771 48.5028 80.7177 48.482 80.7385C47.9466 81.1188 48.4144 81.5823 49.0017 81.7958ZM48.9706 84.8896C48.955 84.7385 48.9238 84.5667 48.877 84.374C48.8354 84.1969 48.8094 84.0354 48.7834 83.8792C48.7315 83.7958 48.6639 83.7594 48.4716 83.6917C48.43 83.9885 48.7886 84.7281 48.2949 85.0406C48.0818 85.0823 47.297 84.051 47.3801 83.374C47.8219 83.6292 48.2221 83.9 48.3884 83.3792C47.4165 82.5146 46.5277 82.5875 46.9072 83.6396L46.9695 83.926C47.1566 84.1708 47.2086 84.4104 47.3645 84.6865C47.4789 84.8896 47.718 85.249 47.9103 85.3792C48.1909 85.5719 48.5496 85.5302 48.7315 85.3531C48.8666 85.2229 48.9342 85.0615 48.9706 84.8896ZM50.6337 92.2177C50.2127 91.2021 49.641 90.7125 49.1317 90.3427C49.0589 90.4313 49.0121 90.5354 48.9913 90.6656C48.9238 91.124 49.0641 91.9156 49.3552 92.2281C49.6982 92.5979 50.2907 92.5406 50.6337 92.2177ZM48.7263 97.0771C49.0069 96.7542 49.2876 96.4156 49.5475 96.0719C49.4331 96.025 49.3032 95.9885 49.1525 95.9573C48.6639 95.8531 48.2897 95.7594 48.3157 96.3844C48.3261 96.6917 48.4716 96.9208 48.7263 97.0771ZM44.1213 101.129C44.5215 100.796 44.9165 100.473 45.2855 100.181C45.2492 100.072 45.192 99.9625 45.0984 99.8531C44.5007 99.1396 43.1286 99.8427 44.1005 101.114L44.1213 101.129ZM40.6026 106.968C40.1868 106.442 39.9737 105.78 40.2752 105.051C40.244 105.004 40.2388 104.957 40.244 104.838C39.6463 104.546 39.324 104.66 38.9082 105.082C38.8095 105.317 38.7835 105.765 38.7731 106.009C38.7731 106.103 38.7783 106.384 38.7887 106.436C38.8355 106.744 38.903 106.577 38.9446 106.884C39.2305 107.025 39.4955 107.311 39.8594 107.338C40.1244 107.358 40.3999 107.265 40.6026 106.968ZM42.7232 115.426C43.009 115.098 43.3365 114.707 43.6431 114.28C43.6015 113.739 43.4092 113.171 42.8219 113.134C42.0943 113.093 41.928 114.239 42.1411 114.796L42.2242 115.093C42.3853 115.181 42.5361 115.343 42.7232 115.426ZM40.6806 117.082C40.9404 116.91 41.1795 116.744 41.403 116.588C41.2939 116.489 41.1639 116.39 41.0028 116.311C40.561 116.53 40.4727 116.582 40.665 117.046L40.6806 117.082ZM34.771 120.838C34.9321 120.718 35.0985 120.598 35.2804 120.478C35.4363 120.186 35.3999 120.041 35.1972 119.811C34.9737 119.551 34.7554 119.468 34.4436 119.483C34.1109 119.504 33.3313 119.765 33.3781 120.343L33.3885 120.4C33.4613 120.645 33.5548 120.686 33.8043 120.832L34.771 120.838ZM37.8116 125.228C37.4945 124.989 37.0839 124.822 36.6473 124.713C36.7305 125.103 37.0163 125.457 37.4529 125.447C37.6192 125.442 37.7336 125.358 37.8116 125.228ZM37.1099 129.64C37.245 129.468 37.3646 129.311 37.4477 129.181C37.6504 128.853 37.8531 128.499 38.0195 128.14C37.1515 128.061 36.9436 128.879 37.1099 129.64ZM28.7471 140.978C28.4873 140.806 28.2638 140.598 28.113 140.364C28.2118 140.874 28.4873 141.041 28.7471 140.978ZM34.1525 145.171C34.2409 144.9 34.2929 144.66 34.2877 144.473C34.2825 144.233 34.2513 144.015 34.1993 143.811C33.8355 144.124 33.6951 144.848 34.1525 145.171ZM26.9852 155.494C27.3594 154.947 27.7804 154.442 28.165 153.994C27.9519 153.838 27.7024 153.713 27.4686 153.864C27.1827 154.056 27.2243 154.338 27.2295 154.551C27.0476 154.666 26.7877 154.785 26.7877 155.129C26.7877 155.291 26.8708 155.405 26.9852 155.494ZM35.7481 167.796C35.8937 167.077 35.9716 166.358 35.9561 165.681C35.7793 165.718 35.8469 165.811 35.7222 166.067C35.4207 165.588 35.6702 165.754 35.6754 165.749C35.5299 165.963 34.7658 166.65 35.322 167.405L35.4363 167.561C35.5351 167.671 35.639 167.744 35.7481 167.796ZM34.9789 170.088C35.0413 169.947 35.0985 169.806 35.1556 169.671C35.1452 169.666 35.1297 169.66 35.1193 169.65C34.7866 169.489 34.2045 169.551 34.007 169.666C34.033 169.759 34.0278 169.634 34.0382 169.811C34.0382 169.827 34.0382 169.884 34.0382 169.905C34.0278 170.004 34.0174 170.025 33.9914 170.129C34.2721 169.999 34.6619 169.718 34.9529 170.056L34.9789 170.088ZM34.3032 171.525C34.3396 171.447 34.3812 171.369 34.4176 171.296C34.2981 171.358 34.1681 171.426 34.0746 171.473C34.1265 171.567 33.8771 171.535 34.2149 171.535C34.2409 171.535 34.2669 171.53 34.3032 171.525ZM31.429 185.827C31.2211 185.811 31.0184 185.791 30.8105 185.77C30.8001 185.9 30.7222 185.957 30.4935 186.166C30.3999 186.009 30.3012 185.864 30.2648 185.686C29.9893 185.634 29.7243 185.577 29.4696 185.504C29.2825 185.864 29.2825 186.254 29.6307 186.473C30.1245 186.78 30.8053 186.713 31.112 186.452C31.3043 186.291 31.4031 186.061 31.429 185.827ZM29.454 204.275C29.7814 203.91 30.1245 203.525 30.4727 203.124C29.8542 203.015 29.0486 203.645 29.3656 204.176C29.3916 204.218 29.4176 204.249 29.454 204.275ZM26.0133 208.968C26.1068 208.556 26.3043 208.093 26.637 207.567C26.5694 207.473 26.481 207.39 26.3615 207.327C26.1276 207.213 25.7326 207.291 25.4935 207.301C24.8023 207.343 24.428 207.78 24.5788 208.494C24.6255 208.733 24.6983 209.046 24.7555 209.233C25.0257 209.176 25.2544 209.072 25.5351 209.02C25.7222 208.989 25.8677 208.994 26.0133 208.968ZM29.3916 218.645C29.6151 218.384 29.8126 218.14 29.9841 217.905C29.8178 217.504 29.111 217.52 28.6484 217.551C27.453 217.624 28.1027 218.733 28.612 218.963C28.7991 218.89 29.007 218.759 29.2253 218.692C29.2825 218.671 29.3345 218.655 29.3916 218.645ZM31.7513 194.384C32.0423 194.41 32.0891 194.374 32.4685 194.504C32.7752 194.608 33.0091 194.655 33.2482 194.572C33.4197 194.504 33.7159 194.338 33.7939 194.15C33.8719 193.963 33.8771 193.525 33.7991 193.395C33.5236 192.905 32.6245 193.197 32.3906 193.291C31.5018 193.66 31.6681 193.9 31.7513 194.384Z" fill="#85D4A7"/>
</g>
</g>
</g>
</g>
<mask id="mask11_714_1497" style="mask-type:luminance" maskUnits="userSpaceOnUse" x="9" y="84" width="38" height="149">
<path d="M9.3125 84.7598H46.5681V232.76H9.3125V84.7598Z" fill="white"/>
</mask>
<g mask="url(#mask11_714_1497)">
<mask id="mask12_714_1497" style="mask-type:luminance" maskUnits="userSpaceOnUse" x="-55" y="74" width="167" height="163">
<path d="M48.8807 74.541L111.791 151.921L8.31951 236.4L-54.5908 159.02L48.8807 74.541Z" fill="white"/>
</mask>
<g mask="url(#mask12_714_1497)">
<mask id="mask13_714_1497" style="mask-type:luminance" maskUnits="userSpaceOnUse" x="-55" y="74" width="167" height="163">
<path d="M111.791 151.921L48.8807 74.541L-54.5908 159.02L8.31951 236.4L111.791 151.921Z" fill="white"/>
</mask>
<g mask="url(#mask13_714_1497)">
<mask id="mask14_714_1497" style="mask-type:luminance" maskUnits="userSpaceOnUse" x="-55" y="74" width="167" height="163">
<path d="M111.791 151.921L48.8807 74.541L-54.5908 159.02L8.31951 236.4L111.791 151.921Z" fill="white"/>
</mask>
<g mask="url(#mask14_714_1497)">
<path fill-rule="evenodd" clip-rule="evenodd" d="M9.36914 231.525C25.4086 207.79 17.1342 190.28 16.7756 165.717C16.4949 146.415 20.8764 132.577 27.9761 117.655C31.895 109.426 35.8919 101.02 41.2037 93.6081C43.4075 90.5299 45.0187 87.8685 46.0374 85.6133C44.0519 91.1862 38.8908 98.8477 35.8347 104.743C29.9304 116.129 23.3608 129.811 20.2787 142.103C18.5271 149.103 17.6383 156.535 17.8099 165.54C18.2257 187.717 26.8223 212.525 9.36914 231.525Z" fill="#FEF0D1"/>
</g>
</g>
</g>
</g>
</svg>
