<svg width="238" height="251" viewBox="0 0 238 251" fill="none" xmlns="http://www.w3.org/2000/svg">
<g clip-path="url(#clip0_174_4704)" filter="url(#filter0_i_174_4704)">
<mask id="mask0_174_4704" style="mask-type:luminance" maskUnits="userSpaceOnUse" x="0" y="7" width="239" height="239">
<path d="M0.126953 7.43243H238.11V245.669H0.126953V7.43243Z" fill="white"/>
</mask>
<g mask="url(#mask0_174_4704)">
<path d="M176.639 115.526C176.124 106.267 175.821 96.2243 170.611 88.3236C165.555 80.6542 157.489 76.1802 149.211 73.4513C144.684 71.9582 140.032 70.8888 135.392 69.8622C130.469 68.7706 125.514 67.8389 120.52 67.197C111.193 65.9989 101.685 65.9612 92.4756 68.1027C84.0449 70.0636 75.9027 73.8996 69.3734 79.9213C63.2541 85.5649 58.6209 93.3057 56.8502 101.699C56.5139 103.295 56.2862 104.901 56.1634 106.512C54.9359 111.358 54.3474 116.388 54.3875 121.399C54.4573 130.264 56.5229 138.966 60.2067 146.92C63.7663 154.605 68.8314 161.538 74.8084 167.309C81.2356 173.517 88.7169 178.34 96.744 181.886C104.934 185.504 113.635 187.691 122.455 188.694C131.009 189.668 139.975 189.412 148.16 186.376C152.21 184.875 155.952 182.716 159.299 179.887C162.406 177.263 165.06 174.079 167.303 170.62C171.924 163.493 174.666 155.124 175.959 146.642C177.529 136.341 177.216 125.899 176.639 115.525V115.526ZM127.381 9.96362C126.91 8.80191 125.959 7.865 124.924 7.58561C124.245 7.40109 123.524 7.43487 122.847 7.65968C121.485 7.8468 120.159 8.64077 119.312 9.91944C119.211 10.0715 119.117 10.2287 119.028 10.3898C118.686 10.8135 118.396 11.28 118.149 11.779C117.844 11.2176 117.481 10.6965 117.051 10.2287C115.754 8.8123 114.093 7.89748 112.335 7.90528C108.715 7.92217 105.683 11.5165 105.326 15.8567C104.952 20.3944 107.583 24.424 109.2 28.2262C109.605 29.1787 109.993 30.1416 110.364 31.1162C110.544 31.5866 110.72 32.0596 110.89 32.5352C110.982 32.7886 111.073 33.0433 111.162 33.298C111.163 33.3045 111.174 33.3292 111.184 33.3604C111.213 33.4462 111.29 33.6684 111.3 33.7021C111.969 35.6877 112.569 37.7084 113.098 39.7576C113.695 42.0707 114.2 44.4188 114.613 46.7903C114.813 47.9429 114.992 49.102 115.147 50.2638C115.229 50.8719 115.301 51.48 115.372 52.0882C115.388 52.235 115.403 52.3806 115.419 52.5274C115.452 52.8718 115.486 53.2161 115.517 53.5605C115.626 54.7651 116.309 55.8839 117.412 55.8839C119.147 55.8839 120.224 55.4109 120.415 54.1322C121.554 46.5395 122.692 38.9455 123.829 31.3527C123.957 30.5029 124.084 29.653 124.212 28.8019C125.113 26.1952 125.896 23.5261 126.545 20.8115C127.073 18.605 127.591 16.3336 127.841 14.0491C127.998 12.621 127.911 11.2709 127.379 9.96492L127.381 9.96362ZM112.029 12.5664C112.029 12.5664 112.033 12.5664 112.034 12.5664C111.968 12.6171 111.854 12.6197 111.839 12.6067C111.844 12.6054 111.849 12.6041 111.854 12.6028C111.889 12.5924 111.982 12.5872 112.029 12.5664ZM73.0105 19.0416C72.0624 18.2256 70.7897 17.8305 69.742 18.058C69.0539 18.2074 68.4291 18.5686 67.9299 19.0806C66.8033 19.8746 65.9884 21.1897 65.8177 22.7152C65.7983 22.8971 65.7853 23.0804 65.7802 23.2636C65.6689 23.7964 65.6249 24.3447 65.6327 24.9022C65.105 24.5436 64.5449 24.2473 63.9499 24.029C62.1507 23.3662 60.2571 23.3182 58.6972 24.1342C55.4869 25.8144 54.4314 30.4054 56.0935 34.4285C57.8319 38.6336 62.0085 41.0051 65.1787 43.6404C65.9742 44.3005 66.758 44.9789 67.5315 45.6741C67.9053 46.0093 68.2778 46.3498 68.6477 46.6928C68.8443 46.8761 69.0396 47.0606 69.2362 47.2464C69.2401 47.2516 69.2608 47.2698 69.2841 47.2906C69.3488 47.353 69.5182 47.518 69.5415 47.5401C71.0432 48.9981 72.4983 50.5184 73.903 52.096C75.4875 53.8775 77.0086 55.7319 78.4572 57.6499C79.1609 58.5829 79.8477 59.5289 80.5164 60.4918C80.8656 60.9934 81.2071 61.5015 81.5486 62.0096C81.6288 62.133 81.7103 62.2552 81.7892 62.3786C81.9767 62.6684 82.163 62.9595 82.3466 63.2505C82.9934 64.2706 84.1109 64.9515 85.0926 64.4435C86.6331 63.6469 87.3756 62.7295 86.9616 61.5054C84.5106 54.2323 82.0595 46.9579 79.6084 39.6849C79.3329 38.8701 79.0587 38.0566 78.7845 37.2419C78.3977 34.5091 77.8752 31.7763 77.2142 29.0644C76.6775 26.8592 76.1019 24.602 75.2831 22.4579C74.7709 21.1169 74.0763 19.9565 73.0105 19.039V19.0416ZM60.5507 28.4185C60.5507 28.4185 60.5533 28.4172 60.5559 28.4159C60.5197 28.4913 60.4188 28.5459 60.3994 28.542C60.4033 28.5381 60.4072 28.5342 60.4111 28.5316C60.4395 28.5069 60.5197 28.4588 60.5507 28.4185ZM28.8186 52.1285C27.604 51.84 26.2925 52.0739 25.466 52.7587C24.9227 53.2083 24.5308 53.8165 24.3213 54.5013C23.6823 55.7241 23.5569 57.2691 24.1027 58.7037C24.1674 58.8753 24.2398 59.0442 24.32 59.2092C24.4636 59.7342 24.6757 60.241 24.9357 60.7348C24.3032 60.6581 23.6694 60.6529 23.0421 60.7309C21.1407 60.9713 19.4346 61.799 18.4219 63.2415C16.3342 66.212 17.4893 70.7796 20.8018 73.5903C24.2657 76.5284 29.0592 76.7155 33.0792 77.5992C34.0868 77.8201 35.0931 78.0618 36.0981 78.3217C36.5832 78.449 37.0695 78.579 37.5545 78.7154C37.8132 78.7869 38.0719 78.8623 38.3306 78.935C38.3371 78.9376 38.3629 78.9454 38.394 78.9532C38.4794 78.9792 38.7057 79.0468 38.7368 79.0559C40.7364 79.6614 42.7219 80.3423 44.6892 81.0999C46.9113 81.9537 49.1089 82.9023 51.2716 83.9405C52.3231 84.446 53.3656 84.9723 54.3978 85.5194C54.9372 85.8053 55.4714 86.0989 56.0082 86.3939C56.1362 86.4667 56.263 86.5395 56.391 86.6109C56.6898 86.7825 56.9886 86.9553 57.2861 87.1294C58.326 87.7376 59.6285 87.8285 60.2688 86.9267C61.2751 85.509 61.5157 84.3525 60.5908 83.4545C55.0937 78.1177 49.5978 72.7795 44.102 67.4426C43.4863 66.8461 42.8706 66.2471 42.2562 65.6506C40.6653 63.4 38.9553 61.2104 37.1303 59.104C35.6467 57.3913 34.1062 55.6487 32.4002 54.1192C31.3331 53.1628 30.1871 52.4507 28.8212 52.1272L28.8186 52.1285ZM22.0215 66.1977C22.0215 66.1977 22.0228 66.1951 22.0241 66.1938C22.0267 66.277 21.962 66.3718 21.9426 66.377C21.9452 66.3718 21.9452 66.3666 21.9478 66.3615C21.9607 66.3277 22.0112 66.2471 22.0215 66.1977ZM4.62983 101.876C3.41787 102.178 2.35854 102.989 1.93558 103.979C1.65749 104.629 1.58764 105.35 1.71311 106.055C1.70276 107.436 2.29645 108.867 3.43469 109.892C3.5705 110.014 3.71149 110.13 3.85764 110.243C4.22498 110.642 4.64535 110.995 5.10065 111.314C4.50437 111.537 3.93913 111.824 3.41658 112.183C1.83469 113.271 0.696459 114.792 0.453291 116.541C-0.0472738 120.142 3.06347 123.67 7.28916 124.644C11.7076 125.661 16.0536 123.622 20.0296 122.558C21.0269 122.291 22.0319 122.042 23.0434 121.812C23.5323 121.7 24.0238 121.594 24.5166 121.491C24.7805 121.436 25.0443 121.382 25.3069 121.33C25.3134 121.329 25.3405 121.323 25.3716 121.317C25.4608 121.301 25.691 121.257 25.7234 121.251C27.7761 120.869 29.8534 120.561 31.9474 120.327C34.3119 120.063 36.6983 119.895 39.095 119.824C40.2591 119.789 41.4258 119.776 42.5938 119.787C43.203 119.794 43.8135 119.808 44.424 119.824C44.5689 119.83 44.7164 119.834 44.8625 119.842C45.2053 119.856 45.5506 119.873 45.8934 119.89C47.0963 119.954 48.2966 119.434 48.4531 118.337C48.7002 116.614 48.3872 115.475 47.1558 115.103C39.8362 112.887 32.5166 110.673 25.1969 108.457C24.3769 108.209 23.5569 107.962 22.7381 107.714C20.2987 106.446 17.7803 105.287 15.1973 104.254C13.098 103.414 10.9341 102.575 8.71842 101.999C7.33443 101.64 5.99183 101.535 4.62854 101.876H4.62983ZM5.00364 117.509C5.00364 117.509 5.00364 117.507 5.00364 117.504C5.04374 117.578 5.0308 117.691 5.01528 117.706C5.01528 117.7 5.01269 117.695 5.01269 117.69C5.01011 117.654 5.01787 117.56 5.00364 117.511V117.509ZM5.81592 157.226C4.87688 158.054 4.30518 159.261 4.3802 160.336C4.43064 161.04 4.69709 161.713 5.1291 162.282C5.75125 163.516 6.92958 164.514 8.41058 164.901C8.58649 164.946 8.76628 164.985 8.94607 165.016C9.45569 165.204 9.98859 165.324 10.5409 165.397C10.1115 165.87 9.74024 166.385 9.43887 166.945C8.52958 168.639 8.21268 170.516 8.79344 172.182C9.99117 175.613 14.3643 177.318 18.5654 176.24C22.9567 175.112 25.8902 171.298 28.9389 168.521C29.7033 167.826 30.4833 167.142 31.2774 166.473C31.6629 166.148 32.0496 165.827 32.4403 165.509C32.6498 165.339 32.8593 165.17 33.0702 165.002C33.0753 164.998 33.096 164.981 33.1206 164.962C33.193 164.906 33.3767 164.76 33.4039 164.74C35.0543 163.456 36.7591 162.226 38.5143 161.054C40.4958 159.733 42.5395 158.485 44.6388 157.32C45.6567 156.753 46.6889 156.206 47.7327 155.677C48.2772 155.403 48.8269 155.135 49.3754 154.868C49.5073 154.805 49.6405 154.743 49.7737 154.681C50.0855 154.535 50.3985 154.392 50.7128 154.249C51.8096 153.753 52.64 152.738 52.2791 151.692C51.7139 150.047 50.9146 149.177 49.6496 149.412C42.1333 150.812 34.6171 152.212 27.0996 153.611C26.2589 153.767 25.4168 153.924 24.5748 154.081C21.8275 154.076 19.0595 154.205 16.2941 154.475C14.0448 154.695 11.7373 154.944 9.50742 155.452C8.11179 155.771 6.87138 156.294 5.81463 157.225L5.81592 157.226ZM13.2791 170.951C13.2791 170.951 13.2778 170.948 13.2765 170.946C13.3464 170.993 13.3852 171.1 13.3774 171.119C13.3748 171.113 13.371 171.11 13.3684 171.106C13.349 171.076 13.3127 170.989 13.2778 170.951H13.2791ZM32.1143 205.88C31.6564 207.047 31.6991 208.383 32.2566 209.305C32.6226 209.909 33.1659 210.384 33.8113 210.691C34.925 211.502 36.4292 211.846 37.9219 211.508C38.0991 211.469 38.275 211.421 38.4496 211.367C38.9877 211.298 39.518 211.16 40.0405 210.97C39.8737 211.589 39.7793 212.218 39.7676 212.852C39.7327 214.777 40.3057 216.592 41.581 217.804C44.2106 220.304 48.8761 219.808 52.1175 216.916C55.5063 213.892 56.3742 209.153 57.819 205.281C58.1811 204.312 58.5627 203.345 58.9624 202.385C59.1564 201.92 59.3556 201.455 59.5574 200.992C59.6647 200.745 59.776 200.498 59.8859 200.253C59.8885 200.246 59.9001 200.221 59.9118 200.191C59.9506 200.11 60.0476 199.895 60.0618 199.865C60.944 197.964 61.8985 196.086 62.9242 194.239C64.0831 192.152 65.3313 190.102 66.6636 188.1C67.3116 187.127 67.9777 186.166 68.6658 185.218C69.0241 184.721 69.3902 184.232 69.7562 183.742C69.8468 183.626 69.9347 183.509 70.0252 183.392C70.2361 183.119 70.4495 182.848 70.6629 182.577C71.4118 181.63 71.6873 180.347 70.8893 179.582C69.6359 178.38 68.53 177.975 67.5134 178.766C61.4691 183.469 55.4261 188.173 49.3831 192.876C48.7066 193.402 48.0302 193.929 47.3537 194.454C44.9091 195.715 42.5072 197.103 40.1725 198.617C38.2737 199.847 36.3361 201.13 34.5861 202.607C33.4905 203.532 32.6265 204.569 32.1117 205.882L32.1143 205.88ZM45.0087 214.645C45.0087 214.645 45.0061 214.644 45.0048 214.643C45.0876 214.653 45.1717 214.73 45.1729 214.749C45.1691 214.747 45.1639 214.744 45.1587 214.743C45.1264 214.725 45.0565 214.664 45.0087 214.647V214.645ZM77.6825 237.026C77.8079 238.275 78.4559 239.443 79.3704 240.006C79.9706 240.375 80.6703 240.546 81.383 240.523C82.7437 240.729 84.2376 240.345 85.4095 239.357C85.5492 239.24 85.6837 239.115 85.8144 238.987C86.2606 238.679 86.6693 238.312 87.0483 237.904C87.1828 238.531 87.3846 239.134 87.664 239.703C88.5112 241.43 89.8473 242.779 91.5353 243.27C95.0134 244.282 98.9338 241.694 100.495 237.63C102.129 233.382 100.738 228.772 100.257 224.665C100.137 223.636 100.036 222.602 99.953 221.564C99.9129 221.059 99.878 220.557 99.847 220.052C99.8315 219.782 99.8159 219.513 99.8017 219.244C99.8017 219.238 99.7991 219.21 99.7978 219.178C99.7939 219.088 99.7836 218.852 99.781 218.818C99.6982 216.723 99.6905 214.614 99.759 212.499C99.8379 210.11 100.013 207.714 100.283 205.32C100.415 204.159 100.57 202.997 100.749 201.838C100.84 201.231 100.943 200.628 101.045 200.023C101.072 199.878 101.098 199.734 101.124 199.589C101.187 199.248 101.253 198.909 101.319 198.57C101.553 197.385 101.213 196.116 100.155 195.803C98.4914 195.312 97.3248 195.46 96.7815 196.632C93.5544 203.593 90.3285 210.555 87.1013 217.516C86.7392 218.296 86.3796 219.074 86.0174 219.854C84.42 222.099 82.9183 224.438 81.5318 226.858C80.4052 228.825 79.2682 230.856 78.3861 232.977C77.8351 234.302 77.5389 235.623 77.6812 237.026H77.6825ZM93.1404 238.884C93.1404 238.884 93.1379 238.884 93.1366 238.884C93.2142 238.854 93.3241 238.884 93.3345 238.901C93.3293 238.901 93.3241 238.901 93.3189 238.901C93.2827 238.9 93.1909 238.878 93.1404 238.884ZM132.391 243.744C133.072 244.795 134.182 245.536 135.251 245.614C135.954 245.666 136.655 245.497 137.277 245.148C138.581 244.706 139.732 243.677 140.324 242.259C140.395 242.09 140.457 241.918 140.516 241.743C140.772 241.263 140.967 240.75 141.117 240.214C141.522 240.707 141.977 241.15 142.485 241.529C144.025 242.675 145.828 243.258 147.553 242.919C151.106 242.219 153.41 238.112 152.946 233.782C152.461 229.255 149.122 225.796 146.821 222.367C146.246 221.509 145.683 220.636 145.136 219.75C144.872 219.322 144.609 218.891 144.352 218.455C144.215 218.223 144.079 217.99 143.943 217.758C143.939 217.752 143.926 217.729 143.91 217.7C143.864 217.621 143.748 217.416 143.731 217.387C142.701 215.564 141.734 213.693 140.83 211.781C139.809 209.623 138.872 207.413 138.023 205.159C137.609 204.066 137.217 202.962 136.846 201.85C136.653 201.269 136.467 200.684 136.282 200.101C136.239 199.96 136.198 199.819 136.155 199.679C136.057 199.347 135.96 199.015 135.864 198.683C135.532 197.521 134.651 196.552 133.567 196.761C131.865 197.088 130.895 197.759 130.947 199.049C131.253 206.723 131.561 214.395 131.868 222.068C131.901 222.926 131.936 223.784 131.97 224.645C131.573 227.376 131.305 230.145 131.177 232.934C131.073 235.201 130.991 237.53 131.173 239.82C131.287 241.252 131.627 242.562 132.391 243.744ZM146.981 238.283C146.981 238.283 146.978 238.283 146.976 238.283C147.032 238.22 147.143 238.197 147.16 238.207C147.156 238.21 147.151 238.212 147.146 238.215C147.112 238.232 147.022 238.253 146.981 238.283ZM184.087 224.539C185.172 225.161 186.495 225.309 187.482 224.886C188.129 224.61 188.676 224.137 189.069 223.539C190.026 222.546 190.581 221.101 190.461 219.569C190.447 219.387 190.425 219.205 190.396 219.023C190.406 218.479 190.344 217.932 190.234 217.385C190.819 217.638 191.426 217.823 192.05 217.924C193.941 218.234 195.81 217.924 197.189 216.827C200.028 214.569 200.203 209.861 197.817 206.225C195.32 202.424 190.774 200.884 187.166 198.896C186.262 198.398 185.366 197.881 184.475 197.346C184.045 197.087 183.616 196.823 183.188 196.556C182.96 196.413 182.734 196.268 182.506 196.124C182.501 196.12 182.478 196.106 182.45 196.089C182.375 196.04 182.177 195.912 182.149 195.893C180.402 194.745 178.688 193.528 177.013 192.244C175.122 190.794 173.281 189.262 171.497 187.65C170.632 186.868 169.78 186.068 168.943 185.25C168.506 184.823 168.074 184.389 167.644 183.955C167.542 183.848 167.44 183.743 167.339 183.638C167.1 183.388 166.863 183.139 166.626 182.887C165.8 182.008 164.575 181.551 163.706 182.234C162.342 183.31 161.786 184.351 162.421 185.475C166.193 192.154 169.965 198.832 173.736 205.513C174.159 206.26 174.581 207.007 175.004 207.756C175.897 210.365 176.922 212.951 178.08 215.489C179.021 217.552 180.01 219.661 181.216 221.612C181.971 222.833 182.869 223.84 184.089 224.539H184.087ZM194.564 212.972C194.564 212.972 194.561 212.973 194.56 212.974C194.582 212.894 194.67 212.821 194.689 212.822C194.686 212.826 194.683 212.831 194.68 212.834C194.658 212.864 194.587 212.926 194.564 212.97V212.972ZM221.28 183.681C222.528 183.735 223.771 183.257 224.456 182.428C224.905 181.883 225.176 181.212 225.253 180.499C225.65 179.178 225.485 177.637 224.679 176.331C224.583 176.175 224.481 176.024 224.372 175.875C224.132 175.387 223.829 174.929 223.481 174.495C224.116 174.45 224.74 174.335 225.341 174.139C227.164 173.543 228.683 172.406 229.409 170.799C230.902 167.485 228.911 163.219 225.13 161.086C221.179 158.856 216.436 159.579 212.321 159.472C211.29 159.444 210.257 159.398 209.222 159.331C208.72 159.3 208.218 159.262 207.717 159.222C207.45 159.2 207.182 159.175 206.913 159.152C206.907 159.152 206.881 159.149 206.847 159.145C206.758 159.136 206.524 159.113 206.492 159.11C204.414 158.895 202.336 158.601 200.261 158.231C197.92 157.812 195.584 157.298 193.265 156.686C192.137 156.389 191.016 156.07 189.898 155.728C189.316 155.549 188.734 155.361 188.153 155.173C188.015 155.126 187.875 155.081 187.737 155.033C187.412 154.921 187.086 154.808 186.761 154.692C185.626 154.291 184.328 154.449 183.869 155.456C183.148 157.039 183.128 158.222 184.206 158.928C190.604 163.13 197.003 167.331 203.402 171.532C204.118 172.002 204.835 172.471 205.55 172.943C207.536 174.852 209.624 176.678 211.812 178.401C213.59 179.803 215.429 181.222 217.392 182.402C218.619 183.14 219.878 183.621 221.281 183.681H221.28ZM225.317 168.577C225.317 168.577 225.315 168.58 225.315 168.582C225.297 168.5 225.341 168.395 225.359 168.387C225.359 168.392 225.358 168.398 225.358 168.403C225.351 168.439 225.317 168.526 225.317 168.577ZM235.704 130.247C236.839 129.722 237.726 128.724 237.956 127.673C238.107 126.983 238.041 126.26 237.785 125.592C237.537 124.234 236.686 122.941 235.374 122.149C235.219 122.055 235.058 121.968 234.893 121.886C234.457 121.562 233.98 121.295 233.472 121.069C234.016 120.736 234.517 120.347 234.963 119.897C236.311 118.528 237.144 116.818 237.055 115.056C236.872 111.424 233.155 108.548 228.822 108.392C224.292 108.227 220.405 111.054 216.7 112.852C215.772 113.303 214.831 113.737 213.881 114.154C213.421 114.357 212.958 114.555 212.493 114.748C212.245 114.852 211.997 114.953 211.747 115.056C211.741 115.059 211.716 115.069 211.686 115.081C211.602 115.115 211.384 115.202 211.352 115.213C209.408 115.977 207.426 116.673 205.414 117.298C203.142 118.005 200.829 118.621 198.489 119.144C197.352 119.399 196.209 119.631 195.06 119.842C194.46 119.951 193.857 120.051 193.256 120.153C193.111 120.173 192.966 120.197 192.821 120.218C192.481 120.268 192.141 120.318 191.799 120.364C190.607 120.531 189.526 121.268 189.577 122.375C189.658 124.113 190.179 125.172 191.458 125.306C199.062 126.096 206.666 126.885 214.271 127.676C215.122 127.765 215.973 127.853 216.825 127.942C219.46 128.725 222.15 129.388 224.881 129.913C227.1 130.34 229.383 130.755 231.665 130.9C233.093 130.991 234.431 130.839 235.706 130.247H235.704ZM232.405 114.964C232.405 114.964 232.405 114.968 232.405 114.969C232.352 114.905 232.344 114.791 232.355 114.774C232.358 114.779 232.359 114.785 232.361 114.79C232.372 114.825 232.38 114.918 232.403 114.964H232.405ZM224.158 76.1126C224.925 75.1237 225.26 73.8294 224.984 72.7873C224.803 72.1038 224.415 71.4943 223.882 71.0161C223.041 69.9246 221.696 69.1657 220.169 69.0656C219.988 69.0552 219.805 69.0513 219.622 69.0526C219.086 68.9669 218.539 68.9487 217.984 68.9812C218.318 68.4354 218.585 67.8584 218.776 67.2516C219.351 65.4154 219.311 63.513 218.426 61.9862C216.608 58.8428 211.993 57.9955 208.07 59.8512C203.967 61.7913 201.803 66.0912 199.329 69.3944C198.709 70.2221 198.071 71.0408 197.417 71.8491C197.1 72.2402 196.779 72.63 196.455 73.016C196.283 73.2213 196.107 73.4266 195.932 73.6319C195.927 73.6371 195.91 73.6579 195.889 73.6813C195.83 73.7502 195.676 73.9282 195.654 73.9529C194.274 75.5252 192.829 77.0573 191.326 78.5387C189.628 80.2124 187.853 81.8237 186.013 83.3675C185.119 84.116 184.207 84.8489 183.282 85.5649C182.798 85.9378 182.309 86.3043 181.82 86.6707C181.702 86.7565 181.584 86.8435 181.464 86.9293C181.184 87.132 180.903 87.3308 180.623 87.5296C179.638 88.2262 179.012 89.3788 179.563 90.3391C180.427 91.849 181.374 92.5495 182.573 92.079C189.692 89.2826 196.812 86.4849 203.931 83.6884C204.727 83.3753 205.526 83.0621 206.322 82.7489C209.022 82.233 211.716 81.5833 214.382 80.7945C216.55 80.1526 218.768 79.4717 220.863 78.5504C222.172 77.9747 223.294 77.2236 224.156 76.1113L224.158 76.1126ZM214.254 64.0458C214.254 64.0458 214.255 64.0497 214.256 64.0497C214.18 64.0172 214.12 63.9198 214.124 63.9003C214.128 63.9029 214.132 63.9068 214.136 63.9107C214.162 63.9367 214.212 64.0159 214.254 64.0458ZM189.202 33.3071C189.434 32.0739 189.14 30.7693 188.421 29.9701C187.948 29.4464 187.325 29.0826 186.635 28.9032C185.388 28.3185 183.846 28.2652 182.444 28.8786C182.277 28.9513 182.113 29.0319 181.951 29.119C181.436 29.2879 180.942 29.5231 180.464 29.8077C180.512 29.1696 180.487 28.5342 180.38 27.9079C180.052 26.0106 179.151 24.3369 177.669 23.387C174.617 21.4301 170.128 22.801 167.488 26.2562C164.726 29.8674 164.763 34.6858 164.069 38.7609C163.896 39.7823 163.702 40.8037 163.49 41.8225C163.386 42.3163 163.279 42.8101 163.168 43.3026C163.107 43.565 163.046 43.8275 162.984 44.0913C162.983 44.0978 162.976 44.1238 162.969 44.155C162.947 44.2434 162.891 44.4721 162.883 44.5058C162.374 46.5395 161.789 48.5641 161.128 50.573C160.382 52.8419 159.54 55.0912 158.607 57.3094C158.153 58.3867 157.678 59.4574 157.182 60.5191C156.923 61.074 156.655 61.6249 156.387 62.1759C156.321 62.3071 156.256 62.4384 156.19 62.5696C156.033 62.8776 155.874 63.1843 155.715 63.4909C155.157 64.563 155.128 65.8755 156.055 66.4758C157.511 67.4192 158.673 67.6076 159.524 66.6382C164.576 60.8751 169.63 55.1133 174.682 49.3502C175.248 48.7057 175.814 48.0612 176.38 47.4153C178.544 45.7156 180.642 43.899 182.652 41.9706C184.286 40.4022 185.948 38.7752 187.389 36.9924C188.29 35.8774 188.945 34.6949 189.205 33.3084L189.202 33.3071ZM174.895 27.1373C174.895 27.1373 174.899 27.1399 174.901 27.1412C174.818 27.1477 174.721 27.0866 174.714 27.0684C174.719 27.0697 174.725 27.071 174.73 27.0723C174.765 27.084 174.846 27.1308 174.897 27.1386L174.895 27.1373Z" fill="#FFC717"/>
</g>
</g>
<defs>
<filter id="filter0_i_174_4704" x="0" y="0" width="238" height="255" filterUnits="userSpaceOnUse" color-interpolation-filters="sRGB">
<feFlood flood-opacity="0" result="BackgroundImageFix"/>
<feBlend mode="normal" in="SourceGraphic" in2="BackgroundImageFix" result="shape"/>
<feColorMatrix in="SourceAlpha" type="matrix" values="0 0 0 0 0 0 0 0 0 0 0 0 0 0 0 0 0 0 127 0" result="hardAlpha"/>
<feOffset dy="4"/>
<feGaussianBlur stdDeviation="2"/>
<feComposite in2="hardAlpha" operator="arithmetic" k2="-1" k3="1"/>
<feColorMatrix type="matrix" values="0 0 0 0 0 0 0 0 0 0 0 0 0 0 0 0 0 0 0.25 0"/>
<feBlend mode="normal" in2="shape" result="effect1_innerShadow_174_4704"/>
</filter>
<clipPath id="clip0_174_4704">
<rect width="238" height="251" fill="white"/>
</clipPath>
</defs>
</svg>
