<svg width="333" height="190" viewBox="0 0 333 190" fill="none" xmlns="http://www.w3.org/2000/svg">
<path d="M258.799 97.2402C258.799 97.2402 261.319 140.179 258.604 97.417C258.702 97.3286 258.799 97.2402 258.799 97.2402Z" fill="#545C9E"/>
<mask id="mask0_714_1245" style="mask-type:luminance" maskUnits="userSpaceOnUse" x="131" y="0" width="129" height="122">
<path d="M131.224 0H259.481V121.44H131.224V0Z" fill="white"/>
</mask>
<g mask="url(#mask0_714_1245)">
<path d="M258.418 95.4787C258.418 96.1858 258.508 96.7978 258.508 97.4165C255.315 100.327 216.722 132.951 132.95 114.783C132.95 114.783 184.92 94.7715 185.795 66.6485C186.475 44.4343 176.485 24.1512 172.32 16.7465C170.959 14.2783 170.862 11.3681 172.126 8.89981C174.16 4.93567 178.616 -0.000816762 188.315 0.787933C192.869 1.14151 200.436 5.37764 208.968 12.252C209.454 12.6056 209.933 13.0475 210.419 13.4827C230.975 30.8556 256.377 63.5615 258.418 95.4787Z" fill="#545C9E"/>
</g>
<mask id="mask1_714_1245" style="mask-type:luminance" maskUnits="userSpaceOnUse" x="48" y="86" width="286" height="92">
<path d="M48.9092 86.627H333.001V177.143H48.9092V86.627Z" fill="white"/>
</mask>
<g mask="url(#mask1_714_1245)">
<path d="M50.3477 150.052C50.5421 146.523 52.4863 143.266 55.582 141.233C66.9256 133.828 98.0552 116.728 152.545 110.288C189.193 106.501 210.033 102.972 234.665 94.3298C259.289 85.6943 307.183 83.6612 329.392 100.415C329.392 100.415 292.931 99.0963 295.937 117.428C299.04 135.766 332.689 127.661 332.689 127.661C332.689 127.661 328.322 153.84 295.264 165.304C263.85 176.237 102.901 186.994 56.2625 160.279C52.3891 158.164 50.1532 154.193 50.3477 150.052Z" fill="#44F2C4"/>
</g>
<path d="M295.26 165.393C295.26 165.393 284.013 170.418 265.588 175.973C227.191 187.437 157.678 201.009 94.4621 175.442C89.6166 172.797 85.6385 169.799 82.438 166.63C68.2828 152.698 67.6023 134.802 59.9452 122.63C59.9452 122.63 59.9452 122.63 59.848 122.549C59.1675 121.4 58.3898 120.427 57.5224 119.462C57.5224 119.462 57.5224 119.462 57.4252 119.373C57.0364 118.931 56.6476 118.401 56.1615 117.782C56.1615 117.782 56.1615 117.782 56.1615 117.694C55.7727 117.17 55.2941 116.551 54.808 115.933C54.4192 115.402 54.0304 114.872 53.5443 114.348C53.5443 114.26 53.4471 114.26 53.4471 114.172C51.1216 111.615 48.2127 109.5 45.4984 107.467C39.1947 102.796 32.7938 98.0363 26.206 93.6302C18.4442 88.5169 10.3982 83.7504 3.81037 77.4064C-0.653794 73.0887 -1.13984 67.3566 2.0606 62.2434C5.45546 56.8649 13.307 53.9547 19.5135 52.0168C54.1276 40.9063 87.5752 63.8277 113.463 82.3429C121.606 88.1633 129.562 94.3305 136.831 101.123C155.353 118.401 219.047 154.989 266.561 163.897C270.045 164.597 273.537 165.039 276.835 165.393C283.43 166.277 289.637 166.277 295.26 165.393Z" fill="#545C9E"/>
<path d="M295.26 165.393C295.26 165.393 284.014 170.418 265.589 175.973C227.191 187.437 157.678 201.009 94.4623 175.443C89.6168 172.798 85.6386 169.799 82.4382 166.63C68.283 152.698 67.6025 134.802 59.9454 122.63C59.9454 122.63 59.9454 122.63 59.8482 122.549C59.6537 122.284 58.7789 121.135 57.5226 119.462C57.5226 119.462 57.5226 119.462 57.4254 119.373C57.0366 118.931 56.6477 118.401 56.1617 117.782C56.1617 117.782 56.1617 117.782 56.1617 117.694C55.7728 117.17 55.2943 116.552 54.8082 115.933C54.3222 115.403 53.9333 114.784 53.4473 114.172C45.7901 104.646 32.8912 89.6594 23.0057 83.4038C7.9756 73.966 17.7713 63.1207 29.6982 62.2435C41.6176 61.3596 71.775 59.5101 139.351 114.349C182.886 149.611 234.953 160.545 266.658 163.897C284.014 165.923 295.26 165.393 295.26 165.393Z" fill="#B8CAFF"/>
<path d="M290.796 102.972C290.796 103.367 290.714 103.754 290.55 104.121C290.378 104.489 290.138 104.808 289.832 105.094C289.525 105.372 289.166 105.59 288.763 105.74C288.359 105.896 287.94 105.971 287.499 105.971C287.065 105.971 286.646 105.896 286.243 105.74C285.839 105.59 285.48 105.372 285.173 105.094C284.859 104.808 284.62 104.489 284.455 104.121C284.291 103.754 284.201 103.367 284.201 102.972C284.201 102.578 284.291 102.19 284.455 101.823C284.62 101.456 284.859 101.136 285.173 100.851C285.48 100.572 285.839 100.354 286.243 100.205C286.646 100.048 287.065 99.9736 287.499 99.9736C287.94 99.9736 288.359 100.048 288.763 100.205C289.166 100.354 289.525 100.572 289.832 100.851C290.138 101.136 290.378 101.456 290.55 101.823C290.714 102.19 290.796 102.578 290.796 102.972Z" fill="#545C9E"/>
<path d="M299.135 132.952C299.135 133.346 299.052 133.727 298.888 134.094C298.716 134.461 298.477 134.788 298.17 135.066C297.863 135.352 297.505 135.563 297.101 135.719C296.697 135.869 296.278 135.944 295.837 135.944C295.403 135.944 294.985 135.869 294.581 135.719C294.177 135.563 293.818 135.352 293.511 135.066C293.197 134.788 292.966 134.461 292.794 134.094C292.629 133.727 292.547 133.346 292.547 132.952C292.547 132.551 292.629 132.17 292.794 131.803C292.966 131.435 293.197 131.109 293.511 130.83C293.818 130.545 294.177 130.334 294.581 130.178C294.985 130.028 295.403 129.953 295.837 129.953C296.278 129.953 296.697 130.028 297.101 130.178C297.505 130.334 297.863 130.545 298.17 130.83C298.477 131.109 298.716 131.435 298.888 131.803C299.052 132.17 299.135 132.551 299.135 132.952Z" fill="#545C9E"/>
<path d="M276.352 120.604C276.06 119.197 276.255 117.782 276.935 116.463C277.907 114.525 279.941 112.934 282.558 112.492L282.461 113.553C282.072 117.429 282.85 121.223 284.787 124.663L285.467 125.894C282.947 126.336 280.524 125.717 278.775 124.31C277.518 123.426 276.644 122.107 276.352 120.604Z" fill="#545C9E"/>
<path d="M276.352 120.604C276.06 119.196 276.255 117.782 276.935 116.463C278.393 117.17 279.552 118.666 279.747 120.515C279.941 121.93 279.552 123.337 278.775 124.31C277.518 123.426 276.644 122.107 276.352 120.604Z" fill="#F6CBC9"/>
<path d="M281.861 99.7967C281.906 100.178 281.906 100.551 281.853 100.919C281.808 101.279 281.711 101.605 281.577 101.898C281.435 102.183 281.263 102.415 281.061 102.585C280.851 102.755 280.627 102.85 280.388 102.877C280.141 102.897 279.902 102.85 279.662 102.727C279.416 102.605 279.191 102.415 278.989 102.163C278.78 101.905 278.608 101.605 278.473 101.265C278.339 100.919 278.242 100.551 278.197 100.171C278.152 99.7899 278.152 99.416 278.197 99.0488C278.249 98.6884 278.339 98.362 278.481 98.0696C278.615 97.7841 278.787 97.5529 278.997 97.3829C279.199 97.2129 279.423 97.1177 279.67 97.0905C279.909 97.0701 280.156 97.1177 280.395 97.2401C280.642 97.3625 280.866 97.5529 281.068 97.8045C281.278 98.0628 281.442 98.362 281.584 98.702C281.719 99.0488 281.808 99.4092 281.861 99.7967Z" fill="#F6CBC9"/>
<path d="M290.811 138.093C291.035 138.419 291.215 138.752 291.342 139.099C291.469 139.446 291.544 139.779 291.559 140.092C291.566 140.404 291.522 140.683 291.417 140.914C291.312 141.152 291.155 141.329 290.953 141.445C290.744 141.56 290.505 141.615 290.228 141.594C289.944 141.581 289.652 141.499 289.353 141.35C289.046 141.207 288.747 141.003 288.463 140.744C288.172 140.486 287.917 140.2 287.693 139.867C287.461 139.541 287.289 139.208 287.155 138.861C287.027 138.514 286.96 138.181 286.945 137.868C286.93 137.555 286.975 137.277 287.08 137.045C287.184 136.808 287.342 136.631 287.551 136.515C287.76 136.4 288 136.345 288.276 136.366C288.553 136.379 288.845 136.461 289.151 136.61C289.458 136.753 289.757 136.957 290.041 137.215C290.325 137.474 290.587 137.759 290.811 138.093Z" fill="#F6CBC9"/>
<path d="M237.279 180.025C212.745 178.971 178.138 173.151 152.445 151.46C142.844 143.355 132.375 133.564 121.316 123.249C96.0112 99.6204 67.9924 73.4352 45.0135 62.8551C42.7852 62.5083 40.7513 62.3316 38.9043 62.2432C62.3692 70.5318 92.7136 99.0084 119.962 124.398C131.014 134.801 141.483 144.497 151.084 152.698C177.166 174.824 212.266 180.732 237.182 181.793C239.022 181.881 240.869 181.881 242.611 181.97C245.131 181.44 247.554 180.821 249.887 180.202C246.006 180.29 241.736 180.202 237.279 180.025Z" fill="#C4A2D7"/>
<path d="M93.8817 135.155C91.0701 130.565 88.4529 126.248 85.8357 122.372C71.1944 101.123 36.4831 74.8496 22.0362 64.4463C21.453 64.7115 20.8772 65.065 20.2939 65.4118C34.352 75.5568 69.5493 102 84.1831 123.249C86.8078 127.043 89.425 131.361 92.2366 135.944C102.803 153.317 115.888 174.735 141.006 187.695C142.943 187.96 144.879 188.226 146.824 188.402C118.894 176.061 105.031 153.317 93.8817 135.155Z" fill="#C4A2D7"/>
<path d="M213.717 71.7622C213.717 71.7622 206.254 72.2042 205.185 79.0785C204.601 72.1158 197.139 71.3202 197.139 71.3202C197.139 71.3202 204.601 70.8783 205.671 64.0039C206.254 70.8783 213.717 71.7622 213.717 71.7622Z" fill="#C4A2D7"/>
<path d="M195.301 41.3484C195.301 41.3484 190.545 42.314 190.642 46.8153C189.483 42.4908 184.63 42.5792 184.63 42.5792C184.63 42.5792 189.386 41.6136 189.288 37.1123C190.448 41.5252 195.301 41.3484 195.301 41.3484Z" fill="#F6CBC9"/>
<path d="M244.546 78.3719C244.546 78.3719 239.798 79.3442 239.895 83.8388C238.728 79.521 233.883 79.6094 233.883 79.6094C233.883 79.6094 238.631 78.6371 238.534 74.1426C239.7 78.4603 244.546 78.3719 244.546 78.3719Z" fill="#F6CBC9"/>
<path d="M175.523 100.505C175.523 100.505 170.767 101.477 170.865 105.972C169.706 101.654 164.853 101.742 164.853 101.742C164.853 101.742 169.608 100.77 169.511 96.2754C170.767 100.682 175.523 100.505 175.523 100.505Z" fill="#F6CBC9"/>
<path d="M268.596 141.942C268.401 141.942 268.207 141.853 268.012 141.765C258.703 135.333 253.468 128.186 252.601 120.428C251.434 110.025 258.419 102.531 258.703 102.178C259.092 101.824 259.675 101.743 260.064 102.089C260.453 102.443 260.55 102.973 260.161 103.327C260.064 103.415 253.371 110.643 254.538 120.251C255.413 127.486 260.355 134.183 269.179 140.357C269.568 140.623 269.665 141.235 269.373 141.588C269.179 141.853 268.887 141.942 268.596 141.942Z" fill="#C4A2D7"/>
</svg>
