<svg width="246" height="217" viewBox="0 0 246 217" fill="none" xmlns="http://www.w3.org/2000/svg">
<mask id="mask0_714_833" style="mask-type:luminance" maskUnits="userSpaceOnUse" x="0" y="0" width="246" height="217">
<path d="M0 0H246V217H0V0Z" fill="white"/>
</mask>
<g mask="url(#mask0_714_833)">
<path d="M245.34 190.417C229.537 198.326 213.46 201.729 197.481 199.401C183.491 198.23 167.722 189.364 149.176 179.223C147.952 188.69 145.347 192.307 136.882 193.145C131.364 186.266 129.721 179.483 128.85 172.715C88.1916 169.038 52.757 184.094 21.3352 213.56C20.4449 214.39 19.5546 215.235 18.6774 216.095C18.3894 216.377 18.0686 216.614 17.7282 216.807C17.3878 217 17.0278 217.141 16.6547 217.237C16.2815 217.333 15.9084 217.37 15.5222 217.363C15.1425 217.348 14.7693 217.289 14.3962 217.17C14.0296 217.052 13.6827 216.889 13.3488 216.674C13.015 216.459 12.7138 216.199 12.4324 215.903C12.1574 215.606 11.9217 215.273 11.7123 214.909C11.5093 214.539 11.3522 214.153 11.2278 213.738C-4.83655 158.756 -2.94469 108.489 29.0139 66.1383C24.785 58.0285 22.1076 50.5636 21.8065 44.0624C21.7542 43.0839 21.8654 42.1351 22.1469 41.2084C22.4284 40.2818 22.8539 39.4442 23.4234 38.7103C23.993 37.969 24.6672 37.3834 25.4397 36.946C26.2187 36.5086 27.0369 36.2492 27.901 36.1824C33.413 35.7451 40.2276 37.7614 48.4561 42.6169C52.5606 39.2514 58.6159 32.943 63.3357 30.6079C62.3276 23.8324 61.6795 18.4432 62.4716 13.2467C62.6221 12.2311 62.9233 11.2749 63.388 10.3853C63.8463 9.49574 64.4354 8.72479 65.1424 8.07986C65.856 7.43494 66.6481 6.95309 67.5122 6.63434C68.3828 6.31558 69.2665 6.18214 70.183 6.23403C77.8355 6.67881 84.6436 10.6225 93.8214 15.263C132.104 -2.21676 194.456 -5.99737 224.942 21.2082C225.243 21.4825 225.511 21.7939 225.747 22.1349C225.983 22.4833 226.173 22.8613 226.33 23.2616C226.48 23.6619 226.585 24.0771 226.651 24.507C226.709 24.9444 226.723 25.3743 226.69 25.8117C226.657 26.2491 226.572 26.6716 226.448 27.0867C226.317 27.4944 226.146 27.8873 225.937 28.2506C225.721 28.6138 225.472 28.94 225.184 29.2365C224.903 29.533 224.588 29.7776 224.248 29.9852C223.535 30.4003 222.828 30.8303 222.14 31.2677C181.187 56.835 168.599 95.5159 162.897 137.362C172.258 137.221 180.33 138.852 184.971 145.19C182.248 152.084 178.49 157.622 171.708 159.201C178.994 169.727 186.908 179.334 196.891 185.724C209.375 193.004 226.179 192.366 244.797 188.415C245.026 188.371 245.242 188.415 245.438 188.556C245.641 188.697 245.772 188.89 245.844 189.142C245.909 189.394 245.896 189.646 245.805 189.883C245.707 190.128 245.556 190.306 245.34 190.417Z" fill="#F3F0E2"/>
</g>
<mask id="mask1_714_833" style="mask-type:luminance" maskUnits="userSpaceOnUse" x="0" y="0" width="228" height="217">
<path d="M0 0H227.913V217H0V0Z" fill="white"/>
</mask>
<g mask="url(#mask1_714_833)">
<path d="M224.247 29.9852C223.534 30.4003 222.827 30.8303 222.139 31.2677C104.34 24.974 18.9842 85.3898 21.3539 213.56C20.4702 214.39 19.5799 215.235 18.7027 216.095C18.4147 216.377 18.0939 216.614 17.7535 216.807C17.4131 217 17.0531 217.141 16.6799 217.237C16.3068 217.333 15.9271 217.37 15.5474 217.363C15.1677 217.348 14.7881 217.289 14.4215 217.17C14.0549 217.052 13.7014 216.889 13.3741 216.674C13.0402 216.459 12.7326 216.199 12.4576 215.903C12.1827 215.606 11.9405 215.273 11.7375 214.909C11.5346 214.539 11.3709 214.153 11.2531 213.738C-4.83747 158.756 -2.94562 108.489 29.013 66.1383C24.7841 58.0285 22.1067 50.5636 21.8056 44.0624C21.7532 43.0839 21.8645 42.1351 22.146 41.2084C22.4275 40.2818 22.853 39.4442 23.4225 38.7103C23.992 37.969 24.6663 37.3834 25.4388 36.946C26.2177 36.5086 27.036 36.2492 27.9001 36.1824C33.412 35.7451 40.2266 37.7614 48.4552 42.6169C52.5597 39.2514 58.6149 32.943 63.3348 30.6079C62.3266 23.8324 61.6786 18.4432 62.4707 13.2467C62.6212 12.2311 62.9223 11.2749 63.3871 10.3853C63.8454 9.49574 64.4345 8.72479 65.1415 8.07986C65.855 7.43494 66.6471 6.95309 67.5112 6.63434C68.3819 6.31558 69.2656 6.18214 70.1821 6.23403C77.8346 6.67881 84.6427 10.6225 93.8205 15.263C132.103 -2.21676 194.455 -5.99737 224.941 21.2082C225.242 21.4825 225.511 21.7939 225.746 22.1349C225.982 22.4833 226.172 22.8613 226.329 23.2616C226.479 23.6619 226.584 24.0771 226.65 24.507C226.709 24.9444 226.722 25.3743 226.689 25.8117C226.656 26.2491 226.571 26.6716 226.447 27.0867C226.316 27.4944 226.146 27.8873 225.936 28.2506C225.72 28.6138 225.471 28.94 225.183 29.2365C224.902 29.533 224.588 29.7776 224.247 29.9852Z" fill="#07D59F"/>
</g>
<path d="M44.7952 70.8535C44.7952 71.4465 44.6905 72.0099 44.4941 72.5584C44.2977 73.0996 44.0096 73.5814 43.6431 73.9966C43.2765 74.4117 42.851 74.7379 42.3731 74.9602C41.8887 75.19 41.3912 75.3012 40.8675 75.3012C40.3503 75.3012 39.8463 75.19 39.3684 74.9602C38.884 74.7379 38.465 74.4117 38.0919 73.9966C37.7253 73.5814 37.4438 73.0996 37.2409 72.5584C37.0445 72.0099 36.9463 71.4465 36.9463 70.8535C36.9463 70.2678 37.0445 69.697 37.2409 69.1559C37.4438 68.6147 37.7253 68.1329 38.0919 67.7178C38.465 67.2952 38.884 66.9765 39.3684 66.7541C39.8463 66.5243 40.3503 66.4131 40.8675 66.4131C41.3912 66.4131 41.8887 66.5243 42.3731 66.7541C42.851 66.9765 43.2765 67.2952 43.6431 67.7178C44.0096 68.1329 44.2977 68.6147 44.4941 69.1559C44.6905 69.697 44.7952 70.2678 44.7952 70.8535Z" fill="#E7895C"/>
<path d="M95.1673 29.5703C95.1673 30.1633 95.0691 30.7267 94.8661 31.2678C94.6698 31.8164 94.3817 32.2982 94.0151 32.7134C93.6485 33.1285 93.223 33.4472 92.7452 33.677C92.2607 33.8994 91.7632 34.0106 91.2395 34.0106C90.7224 34.0106 90.2183 33.8994 89.7405 33.677C89.2626 33.4472 88.8371 33.1285 88.4705 32.7134C88.0974 32.2982 87.8159 31.8164 87.6195 31.2678C87.4166 30.7267 87.3184 30.1633 87.3184 29.5703C87.3184 28.9846 87.4166 28.4138 87.6195 27.8727C87.8159 27.3241 88.0974 26.8423 88.4705 26.4272C88.8371 26.012 89.2626 25.6933 89.7405 25.4635C90.2183 25.2411 90.7224 25.1299 91.2395 25.1299C91.7632 25.1299 92.2607 25.2411 92.7452 25.4635C93.223 25.6933 93.6485 26.012 94.0151 26.4272C94.3817 26.8423 94.6698 27.3241 94.8661 27.8727C95.0691 28.4138 95.1673 28.9846 95.1673 29.5703Z" fill="#E7895C"/>
<path d="M44.4615 50.5047C41.3979 46.8575 35.3885 43.2029 31.1792 46.6499C26.6624 50.3416 30.5115 57.2653 33.3984 60.5789C34.5047 61.8614 36.2395 59.8895 35.1332 58.6145C33.0515 56.2201 28.9143 49.1703 34.2363 48.2067C37.4178 47.6359 40.6385 49.9635 42.7268 52.4543C43.82 53.7516 45.5547 51.7575 44.4615 50.4898V50.5047Z" fill="#231F20"/>
<path d="M73.5127 26.3832C72.5963 23.5366 69.7094 15.9087 74.1281 15.3675C77.6368 14.945 80.5172 18.3698 82.7822 20.9199C83.895 22.1949 85.6363 20.2305 84.5104 18.9554C81.4467 15.4861 76.8317 10.8086 72.066 13.0325C67.2153 15.3527 69.8796 23.1882 71.1496 27.1542C71.6863 28.8221 74.0561 28.103 73.5127 26.4203V26.3832Z" fill="#231F20"/>
<path d="M61.4865 63.3734C66.298 67.1466 73.2697 66.3089 77.7931 62.2392C83.1414 57.4208 80.4705 49.8076 77.7015 44.2405C76.929 42.6838 74.8081 44.0848 75.5871 45.6267C77.9764 50.4303 80.6735 57.0056 75.3579 60.7492C71.5153 63.4549 66.5206 63.9442 62.7238 60.9642C61.4211 59.9412 60.1904 62.3504 61.4996 63.3585L61.4865 63.3734Z" fill="#231F20"/>
<path d="M64.3547 107.154C66.1942 112.358 69.6047 116.947 72.6684 121.306C76.0789 126.08 79.7906 130.55 83.7904 134.701C87.6854 138.763 91.8029 142.514 96.1496 145.947C100.084 149.104 105.059 153.382 109.897 154.331C110.231 154.427 110.558 154.397 110.872 154.242C111.193 154.093 111.435 153.849 111.612 153.508C111.782 153.174 111.847 152.811 111.808 152.425C111.769 152.033 111.625 151.699 111.389 151.417C108.26 147.488 103.318 144.783 99.4947 141.699C95.2528 138.282 91.1876 134.605 87.3057 130.676C83.4892 126.873 79.9477 122.788 76.4652 118.578C72.9891 114.36 70.1481 109.549 66.4822 105.716C65.6377 104.827 63.8506 105.716 64.3547 107.103V107.154Z" fill="#536068"/>
<path d="M114.787 159.846C115.697 162.115 118.276 163.434 120.083 164.709C121.883 165.977 124.063 167.593 126.282 167.652C126.524 167.645 126.747 167.578 126.95 167.437C127.153 167.304 127.316 167.118 127.434 166.881C127.552 166.651 127.611 166.399 127.611 166.132C127.611 165.858 127.552 165.606 127.434 165.376C126.262 163.249 123.998 161.974 122.151 160.691C120.305 159.401 118.309 157.43 116.057 157.393C114.833 157.393 114.355 158.779 114.787 159.883V159.846Z" fill="#536068"/>
</svg>
