<svg width="268" height="248" viewBox="0 0 268 248" fill="none" xmlns="http://www.w3.org/2000/svg">
<mask id="mask0_714_1478" style="mask-type:luminance" maskUnits="userSpaceOnUse" x="0" y="0" width="268" height="248">
<path d="M0.625 0H267.557V247.531H0.625V0Z" fill="white"/>
</mask>
<g mask="url(#mask0_714_1478)">
<path d="M175.541 127.948C176.841 135.448 178.436 142.901 180.323 150.292C180.916 152.62 179.19 154.906 176.789 154.984C168.234 155.271 160.037 152.5 155.37 147.854C151.799 155.042 149.003 163.865 143.629 165.479C143.4 166.094 143.145 166.698 142.87 167.286C140.749 171.865 137.563 175.875 133.696 179.109C129.746 182.349 125.271 184.604 120.64 186.182C116.004 187.745 111.248 188.542 106.571 188.964C101.872 189.38 97.2724 189.406 92.6726 189.24C88.0677 189.057 83.4731 188.625 78.9201 187.938C74.3567 187.276 69.8401 186.24 65.521 185.193C61.1915 184.151 56.9763 183.089 52.8184 182.328C50.7394 181.943 48.676 181.625 46.6333 181.438C44.6011 181.245 42.5273 181.135 40.5991 181.193C38.6396 181.26 36.6854 181.443 34.7779 181.854C33.8371 182.01 32.9276 182.286 32.0076 182.526C31.9557 182.536 31.9037 182.552 31.8569 182.568C30.9577 182.875 30.0378 183.13 29.1646 183.51C21.8933 186.38 15.6667 191.958 11.8934 198.969C8.12 205.974 6.80503 214.344 8.42145 222.323C8.83205 224.307 9.36739 226.302 10.0639 228.208C10.7759 230.125 11.6699 232.031 12.647 233.953C14.2478 237.083 16.0462 240.281 17.5898 243.729C18.1771 245.042 17.5638 246.583 16.2437 247.146C15.0119 247.672 13.5981 247.167 12.964 245.984C11.332 242.953 9.36219 239.984 7.4859 236.802C6.33726 234.833 5.2146 232.786 4.24267 230.594C3.28634 228.38 2.5275 226.125 1.92979 223.786C1.34767 221.453 0.98385 219.062 0.781149 216.651C0.640816 214.234 0.625224 211.797 0.890296 209.38C1.37886 204.536 2.76139 199.776 4.91315 195.38C7.05971 190.99 9.98589 186.958 13.541 183.552C17.1012 180.156 21.28 177.375 25.833 175.438C26.9349 174.922 28.0939 174.552 29.2374 174.141C29.2789 174.125 29.3257 174.109 29.3673 174.094C30.5315 173.755 31.6906 173.375 32.8808 173.135C35.2872 172.552 37.756 172.245 40.2145 172.094C42.7144 171.943 45.0689 172.062 47.4493 172.234C49.8142 172.417 52.1375 172.74 54.4192 173.12C58.993 173.88 63.3848 174.911 67.6832 175.87C71.9867 176.839 76.1343 177.698 80.339 178.302C84.5438 178.911 88.7797 179.286 93.0261 179.432C97.2724 179.562 101.545 179.51 105.672 179.115C107.735 178.917 109.778 178.635 111.773 178.25C113.769 177.885 115.729 177.406 117.621 176.818C121.394 175.641 125.027 174.01 128.119 171.844C131.233 169.635 134.039 166.865 136.16 163.641C136.373 163.323 136.571 162.995 136.768 162.667C133.946 157.828 134.528 148.948 134.679 141.938C128.255 143.63 119.668 141.786 112.376 137.047C110.365 135.734 110.063 132.885 111.773 131.198C116.94 126.094 121.898 120.797 126.659 115.328C115.391 96.8542 90.7704 73.0573 43.7955 54.0156C43.0887 53.7292 78.629 31.75 127.86 33.6406C136.966 19.8594 149.351 8.25 163.748 0.171875C164.018 3.58854 164.304 7.07292 165.619 10.2396C166.929 13.401 170.531 16.8021 173.863 17.5938C180.016 19.0677 186.139 13.7917 189.33 7.07812C200.947 16.8385 203.301 26.0833 205.463 38.099C206.513 43.9583 207.142 51.3542 206.986 58.7083C227.282 71.474 247.911 90.0312 267.88 116.432C267.88 116.432 210.037 108.901 175.541 127.948Z" fill="#44F2C4"/>
</g>
<mask id="mask1_714_1478" style="mask-type:luminance" maskUnits="userSpaceOnUse" x="43" y="0" width="225" height="167">
<path d="M43.6758 0H267.557V167H43.6758V0Z" fill="white"/>
</mask>
<g mask="url(#mask1_714_1478)">
<path d="M206.986 58.7083C207.142 51.3542 206.513 43.9583 205.463 38.099C203.301 26.0833 200.947 16.8385 189.33 7.07812C186.139 13.7917 180.016 19.0677 173.863 17.5938C170.531 16.8021 166.929 13.401 165.619 10.2396C164.304 7.07292 164.019 3.58854 163.748 0.171875C149.351 8.25 136.966 19.8594 127.86 33.6406C78.6292 31.75 43.0836 53.7292 43.7957 54.0156C90.7705 73.0573 115.391 96.8542 126.659 115.328C131.789 123.74 134.154 131.052 134.596 136.302C134.731 137.906 134.726 139.839 134.679 141.938C134.528 148.948 133.946 157.828 136.768 162.667C137.418 163.781 138.255 164.677 139.32 165.286C140.931 165.839 142.356 165.865 143.629 165.479C149.003 163.865 151.799 155.042 155.37 147.854C156.176 146.229 157.028 144.682 157.953 143.328C162.366 136.885 168.462 131.854 175.541 127.948C210.037 108.901 267.88 116.432 267.88 116.432C247.911 90.0312 227.282 71.474 206.986 58.7083ZM60.0846 55.6771C57.543 53.9271 59.175 51 61.0253 50.2188C68.9359 46.875 64.57 58.7656 60.0846 55.6771ZM69.9234 55.3021C66.4203 50.4792 79.9546 43.1354 76.1292 53.2031C75.2352 55.5625 71.9088 58.0365 69.9234 55.3021ZM75.8226 64.4479C72.9328 63.3646 73.8059 60.1302 75.412 58.9219C82.2778 53.7552 80.9213 66.3542 75.8226 64.4479ZM167.548 107.109C167.085 109.068 164.481 111.167 162.335 108.948C158.546 105.031 169.523 98.7344 167.548 107.109ZM175.089 38.8698C175.271 37.8281 175.677 36.8802 176.248 36.0625C176.176 35.8333 176.124 35.5938 176.124 35.3385C176.124 33.9792 177.267 32.875 178.676 32.875C179.18 32.875 179.642 33.0208 180.037 33.2604C181.264 32.8594 182.615 32.7396 183.998 32.9948C188.208 33.7812 191.051 37.6771 190.344 41.6979C189.637 45.724 185.651 48.3542 181.441 47.5729C177.225 46.7917 174.382 42.8958 175.089 38.8698ZM151.81 27.0365C152.174 27.0365 152.522 27.1094 152.834 27.2448C154.861 25.8177 157.6 25.3958 160.167 26.3594C164.18 27.8698 166.243 32.1823 164.772 35.9948C163.307 39.8073 158.863 41.6771 154.855 40.1667C151.092 38.7552 149.045 34.875 150.017 31.25C149.549 30.8021 149.258 30.1875 149.258 29.5C149.258 28.1406 150.401 27.0365 151.81 27.0365ZM122.865 85.8646C122.558 73.0677 122.21 60.099 118.234 47.8125C117.657 46.0417 119.689 45.0677 120.968 45.7865C121.077 45.849 121.181 45.9219 121.275 46.0104C121.498 46.2083 121.69 46.474 121.799 46.8281C125.88 59.4115 126.254 72.7552 126.566 85.8646C126.623 88.2604 122.922 88.25 122.865 85.8646ZM133.187 100.073C133.083 101.073 132.423 101.927 131.337 101.927C130.407 101.927 129.383 101.068 129.481 100.073C131.249 83.0833 130.942 65.8958 128.504 48.9948C128.296 47.5312 128.073 46.0677 127.834 44.6146C127.667 43.6198 128.078 42.6198 129.123 42.3281C130.017 42.0833 131.238 42.6354 131.399 43.625C131.789 45.9531 132.137 48.2812 132.449 50.6198C134.622 67.0104 134.897 83.6094 133.187 100.073ZM135.921 105.854C142.189 100.286 141.857 112.641 136.753 111.188C133.858 110.365 134.455 107.156 135.921 105.854ZM139.804 124.708C135.427 125.026 135.089 119.646 136.669 116.781C143.431 104.531 147.511 124.146 139.804 124.708ZM147.064 104.693C144.081 105.484 142.932 102.339 143.546 100.422C146.165 92.2292 152.324 103.297 147.064 104.693ZM164.518 124.536C164.393 127.807 161.332 132.245 157.75 129.708C151.436 125.24 165.027 110.547 164.518 124.536ZM167.246 118.224C162.127 116.828 168.203 106.073 170.708 114.083C171.295 115.953 170.152 119.016 167.246 118.224ZM173.857 113.776C172.938 113.24 172.766 112.146 173.192 111.24C174.975 107.432 176.862 103.677 178.868 99.9844C183.384 91.6667 188.478 83.6771 194.076 76.0573C197.158 71.8646 200.385 67.7812 203.769 63.8281C204.777 62.6406 206.227 63.349 206.695 64.4792C206.919 65.0208 206.913 65.651 206.534 66.2292C206.487 66.3021 206.446 66.3802 206.383 66.4479C203.717 69.5729 201.129 72.776 198.655 76.0573C198.296 76.5365 197.937 77.0208 197.579 77.5052C189.356 88.6302 182.251 100.573 176.389 113.109C175.962 114.021 174.658 114.245 173.857 113.776ZM206.394 80.1302C198.946 88.4583 192.719 97.8125 187.849 107.875C186.804 110.026 183.613 108.146 184.647 106.005C189.294 96.4115 195.193 87.4635 202.132 79.3854C202.678 78.7552 203.223 78.125 203.779 77.5052C204.003 77.2552 204.252 77.099 204.502 77.0104C206.03 76.4635 207.755 78.6094 206.394 80.1302ZM231.669 109.417C226.238 109.745 228.618 97.3021 233.675 104.255C234.855 105.885 234.751 109.234 231.669 109.417ZM238.769 101.615C233.93 99.1146 242.319 89.6302 243.124 98.1979C243.311 100.203 241.513 103.031 238.769 101.615ZM245.962 110.312C240.692 109.682 245.125 98.151 248.779 105.703C249.632 107.469 248.951 110.667 245.962 110.312ZM139.211 165.255C139.247 165.271 139.284 165.276 139.32 165.286C139.419 165.349 139.513 165.411 139.616 165.464C141.119 166.219 137.787 164.75 139.211 165.255Z" fill="#545C9E"/>
</g>
<path d="M154.856 40.167C158.863 41.6774 163.307 39.8076 164.772 35.9951C166.243 32.1826 164.18 27.8701 160.167 26.3597C157.6 25.3962 154.861 25.818 152.834 27.2451C152.522 27.1097 152.174 27.0368 151.81 27.0368C150.401 27.0368 149.258 28.1409 149.258 29.5003C149.258 30.1878 149.549 30.8024 150.017 31.2503C149.045 34.8753 151.093 38.7555 154.856 40.167ZM151.404 31.9274C151.54 31.9482 151.669 31.9691 151.81 31.9691C153.218 31.9691 154.362 30.8649 154.362 29.5003C154.362 29.0368 154.221 28.6045 153.993 28.2347C155.583 27.2399 157.647 26.9743 159.59 27.7034C162.802 28.9118 164.45 32.3597 163.275 35.4118C162.101 38.4639 158.551 39.9535 155.344 38.7503C152.444 37.6566 150.822 34.7347 151.404 31.9274Z" fill="#FFF9D9"/>
<path d="M181.441 47.5737C185.651 48.3549 189.637 45.7247 190.344 41.6987C191.051 37.6778 188.208 33.782 183.998 32.9955C182.615 32.7403 181.264 32.8601 180.037 33.2612C179.642 33.0216 179.18 32.8758 178.676 32.8758C177.267 32.8758 176.124 33.9799 176.124 35.3393C176.124 35.5945 176.176 35.8341 176.248 36.0633C175.677 36.881 175.271 37.8289 175.089 38.8705C174.382 42.8966 177.225 46.7924 181.441 47.5737ZM176.674 39.1466C176.784 38.5164 176.997 37.933 177.288 37.407C177.688 37.657 178.161 37.808 178.676 37.808C180.084 37.808 181.227 36.7039 181.227 35.3393C181.227 35.058 181.17 34.7872 181.077 34.532C181.934 34.3185 182.859 34.2716 183.8 34.4487C187.168 35.0737 189.44 38.1883 188.878 41.407C188.312 44.6258 185.12 46.7299 181.752 46.1049C178.384 45.4799 176.108 42.3653 176.674 39.1466Z" fill="#FFF9D9"/>
<path d="M163.276 35.4124C162.101 38.4645 158.551 39.9541 155.344 38.7509C152.444 37.6572 150.823 34.7353 151.405 31.928C151.54 31.9488 151.67 31.9697 151.81 31.9697C153.219 31.9697 154.362 30.8655 154.362 29.5009C154.362 29.0374 154.222 28.6051 153.993 28.2353C155.583 27.2405 157.647 26.9749 159.591 27.7041C162.803 28.9124 164.45 32.3603 163.276 35.4124ZM183.801 34.4488C182.86 34.2718 181.935 34.3186 181.077 34.5322C181.171 34.7874 181.228 35.0582 181.228 35.3395C181.228 36.7041 180.084 37.8082 178.676 37.8082C178.161 37.8082 177.688 37.6572 177.288 37.4072C176.997 37.9332 176.784 38.5166 176.675 39.1468C176.108 42.3655 178.385 45.4801 181.753 46.1051C185.121 46.7301 188.312 44.6259 188.879 41.4072C189.44 38.1884 187.169 35.0738 183.801 34.4488Z" fill="#383C61"/>
<mask id="mask2_714_1478" style="mask-type:luminance" maskUnits="userSpaceOnUse" x="0" y="41" width="250" height="207">
<path d="M0.625 41.666H249.912V247.531H0.625V41.666Z" fill="white"/>
</mask>
<g mask="url(#mask2_714_1478)">
<path d="M111.773 131.197C116.94 126.093 121.898 120.796 126.659 115.327C131.789 123.739 134.154 131.051 134.596 136.301C134.731 137.905 134.725 139.838 134.679 141.937C128.255 143.629 119.668 141.786 112.376 137.046C110.365 135.734 110.063 132.885 111.773 131.197ZM175.541 127.947C168.462 131.853 162.366 136.885 157.953 143.327C157.028 144.681 156.175 146.228 155.37 147.853C160.037 152.499 168.234 155.27 176.789 154.984C179.19 154.905 180.915 152.619 180.323 150.291C178.436 142.9 176.841 135.447 175.541 127.947ZM139.32 165.286C139.419 165.348 139.512 165.411 139.616 165.463C141.118 166.218 137.787 164.749 139.211 165.254C139.247 165.27 139.284 165.275 139.32 165.286C138.255 164.676 137.418 163.78 136.768 162.666C136.571 162.994 136.373 163.322 136.16 163.64C134.039 166.864 131.233 169.635 128.119 171.843C125.027 174.01 121.394 175.64 117.621 176.817C115.729 177.405 113.769 177.885 111.773 178.249C109.778 178.635 107.735 178.916 105.672 179.114C101.545 179.51 97.2724 179.562 93.0261 179.431C88.7797 179.286 84.5438 178.911 80.339 178.301C76.1343 177.697 71.9867 176.838 67.6831 175.869C63.3848 174.911 58.993 173.879 54.4192 173.119C52.1375 172.739 49.8142 172.416 47.4493 172.234C45.0689 172.062 42.7144 171.942 40.2145 172.093C37.756 172.244 35.2872 172.551 32.8808 173.135C31.6906 173.374 30.5315 173.754 29.3673 174.093C29.3257 174.109 29.2789 174.124 29.2374 174.14C28.0939 174.551 26.9349 174.921 25.833 175.437C21.28 177.374 17.1012 180.155 13.541 183.551C9.98589 186.958 7.05971 190.989 4.91315 195.379C2.76139 199.775 1.37886 204.536 0.890296 209.379C0.625224 211.796 0.640816 214.234 0.781149 216.65C0.983849 219.062 1.34767 221.452 1.92979 223.786C2.5275 226.124 3.28634 228.379 4.24267 230.593C5.2146 232.786 6.33726 234.833 7.4859 236.801C9.36219 239.984 11.332 242.952 12.964 245.984C13.5981 247.166 15.0119 247.671 16.2437 247.145C17.5638 246.583 18.1771 245.041 17.5898 243.728C16.0462 240.28 14.2478 237.083 12.647 233.952C11.6699 232.03 10.7759 230.124 10.0639 228.208C9.36739 226.301 8.83205 224.306 8.42145 222.322C6.80503 214.343 8.12 205.973 11.8934 198.968C15.6667 191.958 21.8933 186.379 29.1646 183.51C30.0378 183.129 30.9577 182.874 31.8569 182.567C31.9037 182.551 31.9556 182.536 32.0076 182.525C32.9276 182.286 33.8371 182.01 34.7779 181.853C36.6854 181.442 38.6396 181.26 40.5991 181.192C42.5273 181.135 44.6011 181.244 46.6333 181.437C48.676 181.624 50.7394 181.942 52.8183 182.327C56.9763 183.088 61.1915 184.15 65.521 185.192C69.8401 186.239 74.3567 187.275 78.9201 187.937C83.4731 188.624 88.0677 189.056 92.6726 189.239C97.2724 189.405 101.872 189.379 106.571 188.963C111.248 188.541 116.004 187.744 120.64 186.181C125.271 184.603 129.746 182.348 133.696 179.109C137.563 175.874 140.749 171.864 142.87 167.286C143.145 166.697 143.4 166.093 143.629 165.478C142.355 165.864 140.931 165.838 139.32 165.286ZM128.504 48.994C130.942 65.895 131.248 83.0825 129.481 100.072C129.382 101.067 130.406 101.926 131.337 101.926C132.423 101.926 133.083 101.072 133.187 100.072C134.897 83.6086 134.622 67.0096 132.449 50.619C132.137 48.2804 131.789 45.9523 131.399 43.6242C131.238 42.6346 130.017 42.0825 129.123 42.3273C128.078 42.619 127.667 43.619 127.834 44.6138C128.073 46.0669 128.296 47.5304 128.504 48.994ZM173.857 113.775C174.658 114.244 175.962 114.02 176.388 113.109C182.251 100.572 189.356 88.6294 197.579 77.5044C197.937 77.02 198.296 76.5356 198.655 76.0565C201.129 72.7752 203.717 69.5721 206.383 66.4471C206.446 66.3794 206.487 66.3013 206.534 66.2283C206.913 65.6502 206.919 65.02 206.695 64.4783C206.227 63.3481 204.777 62.6398 203.769 63.8273C200.385 67.7804 197.158 71.8638 194.076 76.0565C188.478 83.6763 183.384 91.6659 178.868 99.9836C176.861 103.676 174.975 107.431 173.192 111.239C172.766 112.145 172.937 113.239 173.857 113.775ZM136.669 116.78C135.089 119.645 135.427 125.025 139.803 124.708C147.511 124.145 143.431 104.53 136.669 116.78ZM136.752 111.187C141.856 112.64 142.189 100.286 135.921 105.853C134.455 107.155 133.857 110.364 136.752 111.187ZM75.8224 64.4471C80.9211 66.3533 82.2777 53.7544 75.4118 58.9211C73.8058 60.1294 72.9326 63.3638 75.8224 64.4471ZM157.75 129.708C161.331 132.244 164.393 127.806 164.517 124.536C165.027 110.546 151.435 125.239 157.75 129.708ZM167.246 118.223C170.152 119.015 171.295 115.952 170.708 114.083C168.202 106.072 162.127 116.827 167.246 118.223ZM167.548 107.109C169.523 98.7336 158.546 105.03 162.335 108.947C164.481 111.166 167.085 109.067 167.548 107.109ZM143.546 100.421C142.932 102.338 144.081 105.484 147.064 104.692C152.324 103.296 146.165 92.2284 143.546 100.421ZM60.0844 55.6763C64.5699 58.7648 68.9357 46.8742 61.0252 50.2179C59.1749 50.9992 57.5429 53.9263 60.0844 55.6763ZM238.769 101.614C241.513 103.03 243.311 100.202 243.124 98.1971C242.319 89.6294 233.93 99.1138 238.769 101.614ZM76.1291 53.2023C79.9544 43.1346 66.4202 50.4783 69.9233 55.3013C71.9087 58.0356 75.2351 55.5617 76.1291 53.2023ZM248.779 105.702C245.125 98.1502 240.692 109.681 245.962 110.312C248.951 110.666 249.631 107.468 248.779 105.702ZM231.669 109.416C234.751 109.234 234.855 105.885 233.675 104.254C228.618 97.3013 226.238 109.744 231.669 109.416ZM122.865 85.8638C122.922 88.2492 126.623 88.2596 126.565 85.8638C126.254 72.7544 125.879 59.4106 121.799 46.8273C121.69 46.4731 121.498 46.2075 121.274 46.0096C121.181 45.9211 121.077 45.8481 120.968 45.7856C119.689 45.0669 117.657 46.0408 118.234 47.8117C122.21 60.0981 122.558 73.0669 122.865 85.8638ZM204.502 77.0096C204.252 77.0981 204.003 77.2544 203.779 77.5044C203.223 78.1242 202.677 78.7544 202.132 79.3846C195.193 87.4627 189.294 96.4106 184.647 106.004C183.613 108.145 186.804 110.025 187.849 107.874C192.719 97.8117 198.946 88.4575 206.394 80.1294C207.755 78.6086 206.03 76.4627 204.502 77.0096Z" fill="#44F2C4"/>
</g>
</svg>
