<svg width="419" height="190" viewBox="0 0 419 190" fill="none" xmlns="http://www.w3.org/2000/svg">
<path d="M163.068 133.447L149.891 171.926C149.891 171.926 150.214 173.801 151.948 173.182C153.219 172.723 168.297 141.666 172.229 133.958C171.865 133.963 171.495 133.973 171.12 133.973C168.422 133.968 165.729 133.791 163.068 133.447Z" fill="#C5761A"/>
<path d="M190.297 134.688L203.474 173.167C203.474 173.167 203.156 175.042 201.417 174.422C200.146 173.964 185.068 142.906 181.135 135.198C181.5 135.203 181.87 135.214 182.245 135.214C184.948 135.208 187.635 135.031 190.297 134.688Z" fill="#C5761A"/>
<path d="M371.933 131.875C393.604 96.453 392.672 77.4895 382.37 75.4947C372.068 73.4999 353.808 82.8384 371.933 131.875Z" fill="#FBCD00"/>
<path d="M376.422 77.7598L378.823 83.9369L385.011 81.8379" stroke="black" stroke-width="0.760989" stroke-linecap="round"/>
<path d="M376.422 77.7598L378.823 83.9369L385.011 81.8379" stroke="black" stroke-width="0.760989" stroke-linecap="round"/>
<path d="M374.333 81.2188L377.24 88.8073L384.688 86.0104" stroke="black" stroke-width="0.760989" stroke-linecap="round"/>
<path d="M372.1 86.0059L375.417 94.6673L383.902 91.4746" stroke="black" stroke-width="0.760989" stroke-linecap="round"/>
<path d="M371.188 92.5312L374.271 100.563L382.146 97.6042" stroke="black" stroke-width="0.760989" stroke-linecap="round"/>
<path d="M369.35 102.281L373.219 108.578L378.985 103.521" stroke="black" stroke-width="0.760989" stroke-linecap="round"/>
<path d="M368.354 110.266L372.224 116.562L377.985 111.505" stroke="black" stroke-width="0.760989" stroke-linecap="round"/>
<path d="M368.443 117.76L372.313 124.057L378.073 118.999" stroke="black" stroke-width="0.760989" stroke-linecap="round"/>
<path d="M380.719 79.2598C380.719 79.2598 375.078 90.6504 372.933 110.656C370.782 130.661 373.729 152.932 373.729 152.932" stroke="black" stroke-width="0.760989" stroke-linecap="round"/>
<mask id="mask0_256_517" style="mask-type:luminance" maskUnits="userSpaceOnUse" x="376" y="89" width="43" height="43">
<path d="M376.333 89H418.735V131.667H376.333V89Z" fill="white"/>
</mask>
<g mask="url(#mask0_256_517)">
<path d="M389.49 130.739C389.922 130.729 390.354 130.729 390.792 130.739C392.203 130.781 393.62 130.953 395.021 130.776C395.724 130.693 396.417 130.515 397.052 130.203C397.682 129.89 398.255 129.443 398.661 128.864C399.177 128.13 399.406 127.208 399.349 126.312C399.292 125.416 398.958 124.552 398.448 123.812C397.995 123.156 397.406 122.599 396.922 121.963C396.677 121.646 396.458 121.307 396.302 120.937C396.146 120.568 396.052 120.172 396.062 119.771C396.083 119.193 396.328 118.63 396.693 118.177C397.057 117.724 397.536 117.38 398.052 117.109C399.089 116.573 400.25 116.354 401.339 115.948C402.276 115.594 403.177 115.083 403.839 114.323C404.167 113.943 404.432 113.505 404.594 113.031C404.755 112.557 404.812 112.041 404.734 111.547C404.63 110.896 404.302 110.302 404 109.719C403.693 109.135 403.396 108.521 403.359 107.864C403.333 107.359 403.458 106.854 403.682 106.401C403.906 105.948 404.229 105.552 404.589 105.193C405.964 103.838 407.854 103.182 409.573 102.307C411.677 101.239 413.578 99.8123 415.422 98.3383C416.104 97.7967 416.781 97.2446 417.349 96.5883C417.911 95.9269 418.37 95.1508 418.531 94.2967C418.74 93.2029 418.422 92.0102 417.661 91.1977C417.089 90.5831 416.297 90.1977 415.474 90.0206C414.656 89.8488 413.802 89.8644 412.969 89.9686C410.958 90.2133 409.026 90.9217 407.187 91.7706C406.083 92.2811 404.99 92.8488 404.01 93.5727C403.031 94.2967 402.151 95.1873 401.552 96.2446C401.104 97.0467 400.818 97.9269 400.495 98.7863C400.177 99.6456 399.818 100.51 399.24 101.224C398.854 101.708 398.37 102.12 397.802 102.359C397.229 102.599 396.573 102.656 395.99 102.453C395.583 102.312 395.234 102.052 394.87 101.823C394.505 101.599 394.109 101.39 393.677 101.37C393.339 101.354 393 101.458 392.708 101.635C392.411 101.807 392.161 102.047 391.943 102.307C390.974 103.474 390.646 105.021 390.281 106.495C390.042 107.474 389.771 108.453 389.635 109.453C389.531 110.182 389.5 110.922 389.344 111.64C389.182 112.359 388.88 113.073 388.333 113.568C388.016 113.854 387.62 114.052 387.214 114.187C386.802 114.318 386.375 114.385 385.948 114.432C384.865 114.547 383.766 114.515 382.698 114.286C382.458 114.234 382.219 114.177 381.974 114.14C380.953 114.005 379.891 114.39 379.12 115.078C378.344 115.765 377.844 116.724 377.609 117.734C377.224 119.385 377.536 121.146 378.214 122.698C378.896 124.255 379.932 125.625 381.036 126.916C381.76 127.755 382.521 128.578 383.422 129.224C385.151 130.474 387.375 131.026 389.49 130.739Z" fill="#8F3E97"/>
</g>
<path d="M412.027 93.7812C393.245 110.12 379.11 129.411 373.016 153.818" stroke="black" stroke-width="0.688826" stroke-linecap="round"/>
<path d="M383.412 117.541L385.506 124.176L394.683 125.838" stroke="black" stroke-width="0.501391" stroke-linecap="round"/>
<path d="M393.678 104.938L394.704 111.37L400.61 111.349" stroke="black" stroke-width="0.501391" stroke-linecap="round"/>
<path d="M393.678 104.938L394.704 111.37L400.61 111.349" stroke="black" stroke-width="0.501391" stroke-linecap="round"/>
<path d="M405.818 95.2656L405.104 100.401L409.855 99.5104" stroke="black" stroke-width="0.501391" stroke-linecap="round"/>
<path d="M412.027 93.7812C393.245 110.12 379.11 129.411 373.016 153.818" stroke="black" stroke-width="0.688826" stroke-linecap="round"/>
<path d="M357.766 130.563C357.333 130.553 356.901 130.553 356.469 130.563C355.057 130.605 353.635 130.776 352.234 130.605C351.536 130.516 350.838 130.339 350.208 130.026C349.573 129.719 349 129.266 348.594 128.688C348.078 127.954 347.849 127.037 347.911 126.141C347.969 125.245 348.302 124.375 348.812 123.636C349.266 122.98 349.849 122.422 350.338 121.787C350.583 121.469 350.802 121.131 350.958 120.761C351.115 120.396 351.208 119.995 351.193 119.594C351.177 119.016 350.932 118.454 350.568 118.006C350.198 117.553 349.719 117.204 349.203 116.938C348.172 116.401 347.01 116.183 345.922 115.771C344.979 115.417 344.078 114.907 343.417 114.146C343.088 113.771 342.823 113.334 342.661 112.855C342.5 112.381 342.448 111.865 342.526 111.37C342.63 110.719 342.953 110.131 343.26 109.542C343.562 108.959 343.859 108.349 343.896 107.688C343.927 107.188 343.797 106.678 343.573 106.23C343.349 105.776 343.031 105.375 342.672 105.021C341.297 103.667 339.406 103.006 337.687 102.136C335.578 101.063 333.682 99.6359 331.833 98.1671C331.156 97.6255 330.474 97.0734 329.911 96.4119C329.344 95.7557 328.891 94.9796 328.729 94.1255C328.521 93.0265 328.833 91.8338 329.594 91.0213C330.167 90.4067 330.958 90.0213 331.781 89.8494C332.604 89.6723 333.453 89.6932 334.292 89.7921C336.302 90.0369 338.229 90.7505 340.068 91.5994C341.177 92.1098 342.266 92.6723 343.245 93.3963C344.229 94.1202 345.104 95.0109 345.703 96.0734C346.156 96.8702 346.443 97.7505 346.76 98.6098C347.078 99.4744 347.443 100.334 348.016 101.053C348.401 101.532 348.885 101.943 349.458 102.183C350.026 102.422 350.682 102.48 351.266 102.276C351.672 102.136 352.026 101.881 352.391 101.651C352.75 101.422 353.151 101.214 353.578 101.193C353.917 101.178 354.26 101.287 354.552 101.459C354.844 101.631 355.094 101.87 355.312 102.136C356.281 103.297 356.609 104.849 356.974 106.318C357.213 107.297 357.484 108.276 357.625 109.276C357.724 110.006 357.755 110.745 357.917 111.464C358.073 112.183 358.375 112.896 358.922 113.391C359.245 113.678 359.635 113.875 360.042 114.011C360.453 114.146 360.88 114.214 361.307 114.256C362.391 114.37 363.495 114.339 364.557 114.115C364.797 114.063 365.036 114 365.281 113.969C366.307 113.829 367.365 114.219 368.141 114.901C368.911 115.589 369.411 116.553 369.646 117.558C370.031 119.214 369.724 120.969 369.042 122.526C368.359 124.079 367.323 125.454 366.219 126.74C365.5 127.584 364.734 128.401 363.838 129.047C362.104 130.297 359.885 130.855 357.766 130.563Z" fill="#8F3E97"/>
<path d="M335.229 93.6035C354.015 109.942 368.146 129.239 374.239 153.645" stroke="black" stroke-width="0.688826" stroke-linecap="round"/>
<path d="M363.843 117.365L361.75 124.006L352.578 125.662" stroke="black" stroke-width="0.501391" stroke-linecap="round"/>
<path d="M353.578 104.76L352.557 111.197L346.651 111.171" stroke="black" stroke-width="0.501391" stroke-linecap="round"/>
<path d="M353.578 104.76L352.557 111.197L346.651 111.171" stroke="black" stroke-width="0.501391" stroke-linecap="round"/>
<path d="M341.442 95.0938L342.15 100.229L337.4 99.3385" stroke="black" stroke-width="0.501391" stroke-linecap="round"/>
<path d="M335.229 93.6035C354.015 109.942 368.146 129.239 374.239 153.645" stroke="black" stroke-width="0.688826" stroke-linecap="round"/>
<path fill-rule="evenodd" clip-rule="evenodd" d="M364.109 138.787H380.969L376.01 171.146H369.068L364.109 138.787Z" fill="white"/>
<path d="M178.505 104.119C187.688 92.3745 188.333 85.9318 184.927 85.1245C181.521 84.3224 174.828 87.2599 178.505 104.119Z" fill="#8F3E97"/>
<path d="M182.787 85.8223L183.292 87.9473L185.505 87.3119" stroke="black" stroke-width="0.259599" stroke-linecap="round"/>
<path d="M182.787 85.8223L183.292 87.9473L185.505 87.3119" stroke="black" stroke-width="0.259599" stroke-linecap="round"/>
<path d="M181.896 86.9688L182.505 89.5781L185.182 88.724" stroke="black" stroke-width="0.259599" stroke-linecap="round"/>
<path d="M180.896 88.5625L181.583 91.5417L184.636 90.5677" stroke="black" stroke-width="0.259599" stroke-linecap="round"/>
<path d="M180.255 90.7656L180.896 93.526L183.729 92.6198" stroke="black" stroke-width="0.259599" stroke-linecap="round"/>
<path d="M179.13 94.0527L180.13 96.235L182.349 94.5892" stroke="black" stroke-width="0.259599" stroke-linecap="round"/>
<path d="M178.386 96.7441L179.386 98.9316L181.605 97.2858" stroke="black" stroke-width="0.259599" stroke-linecap="round"/>
<path d="M178.037 99.2871L179.031 101.475L181.255 99.8288" stroke="black" stroke-width="0.259599" stroke-linecap="round"/>
<path d="M184.172 86.3848C184.172 86.3848 181.672 90.1764 179.927 96.9316C178.177 103.692 178.526 108.676 178.526 108.676" stroke="black" stroke-width="0.259599" stroke-linecap="round"/>
<path d="M77.6302 134.609L86.5 166.156C86.5 166.156 86 169.255 84.2656 168.635C82.5313 168.016 69.125 141.25 69.125 141.25L77.6302 134.609Z" fill="#C5761A"/>
<path d="M36.4269 134.047L27.5571 165.594C27.5571 165.594 28.0519 168.693 29.7915 168.073C31.5259 167.453 44.9321 140.688 44.9321 140.688L36.4269 134.047Z" fill="#C5761A"/>
<path d="M36.6873 110.808C37.9008 112.49 39.156 114.136 40.4477 115.746C41.7341 117.35 43.0571 118.912 44.406 120.433C45.7602 121.949 47.1352 123.418 48.531 124.829C49.9321 126.24 51.3487 127.595 52.781 128.892C54.2133 130.188 55.6612 131.418 57.1144 132.584C58.5675 133.746 60.0258 134.839 61.4894 135.865C62.9477 136.886 64.406 137.834 65.8591 138.704C67.3123 139.574 68.7602 140.365 70.1925 141.079C71.6248 141.793 73.0362 142.418 74.4373 142.964C75.8331 143.506 77.2081 143.964 78.5571 144.339C79.906 144.709 81.2237 144.996 82.5102 145.194C83.7966 145.386 85.0519 145.496 86.2654 145.517C87.4789 145.532 88.6456 145.464 89.7758 145.308C90.906 145.147 91.9841 144.902 93.0154 144.569C94.0466 144.23 95.0258 143.808 95.9477 143.303C96.8748 142.793 97.7446 142.204 98.5519 141.527C99.3644 140.85 100.109 140.095 100.797 139.256C101.484 138.418 102.104 137.506 102.661 136.511C103.219 135.522 103.708 134.459 104.13 133.324C104.552 132.188 104.906 130.985 105.187 129.72C105.469 128.449 105.682 127.121 105.823 125.73C105.963 124.345 106.031 122.902 106.031 121.402C106.026 119.907 105.953 118.365 105.807 116.777C105.661 115.183 105.448 113.558 105.156 111.892C104.87 110.22 104.515 108.522 104.088 106.793C103.661 105.063 103.166 103.313 102.604 101.537C102.047 99.7665 101.416 97.9801 100.729 96.178C100.036 94.3759 99.281 92.5686 98.4685 90.7561C97.656 88.9384 96.7862 87.1311 95.8539 85.3238C94.9269 83.5217 93.9425 81.7248 92.9112 79.9436C91.8748 78.1623 90.7914 76.4019 89.6612 74.6623C88.531 72.9228 87.3539 71.2092 86.1404 69.5269C84.9216 67.8446 83.6716 66.204 82.38 64.5946C81.0883 62.9853 79.7706 61.4228 78.4164 59.9071C77.0675 58.3863 75.6925 56.9228 74.2914 55.5113C72.8956 54.0946 71.4789 52.7405 70.0466 51.4488C68.6091 50.1519 67.1664 48.9228 65.7133 47.7561C64.2602 46.5946 62.8019 45.5009 61.3383 44.4748C59.8748 43.454 58.4216 42.5061 56.9633 41.6363C55.5102 40.7613 54.0675 39.9696 52.6352 39.2613C51.2029 38.5478 49.7862 37.9228 48.3904 37.3759C46.9946 36.829 45.6196 36.3707 44.2706 36.0009C42.9216 35.6259 41.6039 35.3446 40.3175 35.1467C39.0258 34.9488 37.7758 34.8446 36.5623 34.8238C35.3487 34.803 34.1769 34.8759 33.0519 35.0321C31.9216 35.1936 30.8435 35.4384 29.8123 35.7717C28.781 36.1103 27.8019 36.5269 26.8748 37.0373C25.9529 37.5425 25.0831 38.1363 24.2758 38.8134C23.4633 39.4905 22.7133 40.2457 22.031 41.0842C21.3435 41.9228 20.7185 42.8342 20.1612 43.8238C19.6039 44.8186 19.1196 45.8811 18.6977 47.0165C18.2758 48.1519 17.9216 49.355 17.6404 50.6207C17.3539 51.8915 17.1456 53.2196 17.005 54.605C16.8644 55.9957 16.7914 57.4384 16.7966 58.9332C16.7966 60.4332 16.8696 61.9748 17.0154 63.5634C17.1612 65.1519 17.38 66.7821 17.6664 68.4488C17.9529 70.1155 18.3123 71.8134 18.7394 73.5426C19.1664 75.2717 19.6612 77.0269 20.2185 78.7978C20.781 80.5738 21.406 82.3603 22.0987 84.1623C22.7914 85.9644 23.5414 87.7717 24.3539 89.5842C25.1716 91.3967 26.0414 93.2092 26.9685 95.0113C27.9008 96.8186 28.88 98.6103 29.9164 100.392C30.9529 102.178 32.0362 103.938 33.1664 105.678C34.2966 107.418 35.4685 109.126 36.6873 110.808Z" fill="white"/>
<path d="M19.3752 133.547L10.5054 165.094C10.5054 165.094 11.0002 168.193 12.7397 167.573C14.4741 166.953 27.8804 140.188 27.8804 140.188C25.1668 138.891 22.297 136.396 19.3752 133.547Z" fill="#C5761A"/>
<path d="M71.995 151.303L77.8127 171.985C77.8127 171.985 77.3127 175.084 75.5783 174.464C74.3075 174.011 66.771 159.521 62.8335 151.813C63.2033 151.818 63.5731 151.824 63.9429 151.824C66.646 151.824 69.3335 151.646 71.995 151.303Z" fill="#C5761A"/>
<path d="M25.4375 37.9004C19.5573 87.6712 51.5729 136.406 98.5417 141.52C88.25 148.234 76.2292 151.812 63.9427 151.822C28.8906 151.822 0.46875 123.406 0.46875 88.3535C0.46875 68.5618 9.70313 49.9056 25.4375 37.9004Z" fill="#8F3E97"/>
<path d="M107.312 165.547L112.135 179.349L114.792 184.885L123.708 183.859C121.464 182.365 118.917 181.24 117.177 179.115L116.75 164.281L107.312 165.547Z" fill="#C5761A"/>
<path d="M134.838 156.23C134.984 156.511 148.312 167.199 148.312 167.199L152.26 172.058L159.307 167.35L150.62 165.308L143.026 150.631L134.838 156.23Z" fill="#C5761A"/>
<path d="M88.3385 96.6504L93.5573 104.01L116.422 118.083L117.401 176.051L108.26 175.421L90.875 129.036L59.5469 107.135L77.7969 97.8587L88.3385 96.6504Z" fill="#8F3E97"/>
<path d="M46.1668 87.6719C42.0679 99.7188 36.9377 102.615 40.4689 115.443C43.8179 127.911 54.3231 135.589 90.9741 128.594C104.354 126.042 112.511 138.641 119.906 145.323C131.521 155.813 140.146 165.661 140.146 165.661L146.995 158.438C146.995 158.438 131.495 124.438 119.453 114.974C107.412 105.51 85.0366 96.5052 85.0366 96.5052L79.2033 92.9896L46.1668 87.6719Z" fill="#8F3E97"/>
<path d="M89.125 128.729C89.125 128.729 99.6927 126.525 106.766 132.38C108.859 134.114 118.094 143.479 118.094 143.479" stroke="black" stroke-width="0.501391" stroke-linecap="round"/>
<mask id="mask1_256_517" style="mask-type:luminance" maskUnits="userSpaceOnUse" x="36" y="0" width="53" height="43">
<path d="M36.3335 0.708984H88.3335V42.334H36.3335V0.708984Z" fill="white"/>
</mask>
<g mask="url(#mask1_256_517)">
<path d="M60.719 39.4441C58.4012 40.6316 55.7762 41.2202 53.1721 41.1368C50.5679 41.0483 47.9898 40.2827 45.7554 38.9389C41.9533 36.642 39.2606 32.6993 38.1512 28.4024C37.0367 24.1004 37.4325 19.4806 38.9065 15.2931C40.0002 12.1837 41.6877 9.26703 43.9637 6.8764C46.2346 4.49098 49.0992 2.64203 52.2606 1.71494C55.2554 0.839942 58.4585 0.793067 61.521 1.35036C64.5887 1.90765 67.5315 3.05348 70.2919 4.49619C70.5106 4.61077 70.7294 4.73057 70.9585 4.82953C71.8544 5.23057 72.844 5.35557 73.8231 5.36078C74.7971 5.36078 75.771 5.24098 76.745 5.16807C78.7919 5.0014 80.8908 5.02744 82.8335 5.6889C83.8075 6.01703 84.7294 6.5014 85.5106 7.16286C86.2971 7.82432 86.9377 8.66286 87.3179 9.61598C87.7242 10.6316 87.8283 11.7514 87.7398 12.8399C87.6565 13.9285 87.3856 14.9962 87.0679 16.0431C86.4377 18.1368 85.6096 20.2306 85.6512 22.4129C85.6773 23.9024 86.1044 25.3504 86.4794 26.7931C86.8544 28.2358 87.1773 29.7306 86.9846 31.2045C86.7346 33.1264 85.6096 34.8556 84.146 36.1212C82.6877 37.392 80.9065 38.2358 79.0835 38.8868C73.219 40.9806 66.6981 41.1785 60.719 39.4441Z" fill="black"/>
</g>
<path d="M39.5103 102.433L43.6041 91.7559C43.6041 91.7559 44.6405 92.0215 43.2499 91.5215C41.8593 91.0215 30.1145 89.7975 31.677 74.2194C33.7759 60.6413 37.8697 41.1204 53.1509 39.61C56.9374 39.3288 70.4009 38.2715 70.4009 38.2715C70.4009 38.2715 86.9009 39.1725 90.0468 47.5892C93.1978 56.0111 98.8645 79.2246 98.8645 79.2246L107.198 80.6986L91.9634 91.4642L95.2395 99.2246C95.2395 99.2246 96.328 101.912 92.6093 99.8184C90.1041 98.4069 85.3905 97.084 82.9062 95.5267C78.6197 92.8496 75.3645 92.0944 75.3645 92.0944L65.4426 95.8965C55.2655 101.61 48.1093 106.542 42.8593 107.162" fill="#FBCD00"/>
<path d="M63.2134 38.5781L65.6144 29.6875L68.0936 31.4167L71.3853 38.3229L71.3488 43.6979C71.3488 43.6979 70.4113 45.1458 69.1457 45.0521C67.7186 44.9479 65.9425 43.2865 65.8696 43.1667C65.729 42.9479 63.2186 38.5781 63.2186 38.5781H63.2134Z" fill="#C5761A"/>
<path d="M63.2918 38.6986L69.3908 44.6777L71.3595 38.2246L77.4168 39.3288L81.4741 76.7038L83.4845 95.9642C80.6877 94.1882 77.5939 93.584 74.4272 92.8027L67.0054 95.6569L65.646 95.6465C65.646 95.6465 69.4325 78.4382 69.3543 78.1204C69.2762 77.8079 60.146 39.3288 60.146 39.3288L63.2918 38.6986Z" fill="white"/>
<path d="M111.922 178.464L113.74 187.563L115.229 187.798L115.177 185.824L119.87 187.1L125.641 186.35C126.219 186.287 124.516 183.027 123.302 183.042C122.854 183.053 115.724 185.412 114.979 183.673C114.234 181.928 112.922 178.193 112.922 178.193L111.922 178.464Z" fill="#8F3E97"/>
<path d="M147.156 166.15L152.104 174.005L153.578 173.692L152.823 171.869L158.276 171.057L162.786 168.635C163.193 167.874 160.042 165.947 159.427 166.374C159.057 166.63 153.188 171.286 151.875 169.926C150.557 168.567 148 165.541 148 165.541L147.156 166.15Z" fill="#8F3E97"/>
<path d="M61.3648 20.1255C61.3648 20.1255 65.9689 20.9901 67.7398 19.4172C69.5106 17.8443 70.8856 15.0109 70.8856 15.0109C70.8856 15.0109 71.0471 14.3026 71.7137 13.9484C72.3804 13.5943 75.4116 13.9484 75.4116 13.9484C75.4116 13.9484 76.6304 14.0682 76.7918 15.3651C76.9481 16.662 77.0627 18.7088 77.0627 18.7088C77.0627 18.7088 76.9846 19.4172 76.6721 20.089C76.3543 20.7557 76.3335 21.3963 76.3335 21.3963C76.3335 21.3963 78.7189 21.662 78.6408 24.2193C78.5575 26.7765 77.9116 32.1776 74.9585 32.7661C72.0106 33.3599 67.62 32.5474 65.495 30.1047C62.4585 27.3078 61.6408 25.5526 61.0523 21.5057C60.4116 24.6828 60.9377 26.4484 62.5471 28.9797C62.5471 28.9797 58.3752 28.037 58.7293 24.1411C59.0835 20.2453 61.3648 20.1255 61.3648 20.1255Z" fill="#C5761A"/>
<path d="M75.3439 47.8699C73.3075 47.5105 71.3387 48.7657 70.8022 50.7553L70.5002 50.7032L70.3543 51.5313L70.6616 51.5886C70.6095 52.599 70.9429 53.5938 71.5991 54.3699L71.4064 54.3542L69.4116 73.448C69.4116 73.448 69.5679 73.5105 69.8075 73.5938L68.8179 81.573L70.8335 81.9324L71.4429 78.4949L72.0054 78.1251L72.8647 73.9428C73.1043 73.9167 73.2554 73.8959 73.2554 73.8959L76.7606 55.1719C77.5679 54.6667 78.1668 53.8855 78.4533 52.974L78.7762 53.0313L78.922 52.2032L78.6095 52.1459C78.7866 50.0886 77.3752 48.2344 75.3387 47.8699H75.3439Z" fill="black"/>
<path d="M66.0731 69.7546C67.5783 68.5983 70.2085 67.4837 70.9845 66.166C70.9845 66.166 72.1772 66.8014 71.1929 68.2806C70.2085 69.7546 70.5366 69.8587 70.5366 69.8587C70.8335 70.3639 71.9585 69.7702 73.047 68.7702C73.3283 68.515 73.2554 67.6504 73.4064 67.4004C73.9377 66.5202 74.5314 66.8066 74.7814 66.89C75.7397 67.2077 77.9897 71.0306 74.5366 74.1348C71.0835 77.2441 66.5418 76.1608 65.9325 75.9264C65.3231 75.6921 64.0522 72.2077 64.0522 72.2077L66.0731 69.7546Z" fill="#C5761A"/>
<path d="M82.2656 86.6198L93.1615 79.1563L118.411 75.75C114.708 78.4115 111.328 81.4635 108.802 85.0938C105.901 83.6927 99.2656 84.401 96.2083 84.8281L82.2656 86.6198Z" fill="white"/>
<path d="M81.9897 85.3385L93.0679 78.6094L117.74 74.8125L107.943 80.9323L81.9897 85.3385Z" fill="white"/>
<path d="M98.2082 78.3845C99.5415 78.3845 101.213 77.6189 101.213 77.6189L102.265 77.2491L103.797 76.9418C103.797 76.9418 101.666 75.947 100.734 76.0043C99.2707 76.072 96.8904 78.3064 98.2082 78.3845Z" fill="#C5761A"/>
<path d="M71.0782 20.5831C70.724 20.4842 70.2396 20.4842 69.724 20.8123C69.3021 21.0883 68.974 21.0935 68.7396 21.0467C68.5105 20.9998 68.3959 20.906 68.3959 20.906C68.2865 20.8175 68.1876 20.8279 68.099 20.9373C68.0157 21.0414 68.0261 21.1404 68.1303 21.2289C68.1303 21.2289 68.3334 21.3904 68.6615 21.4529C68.9844 21.5206 69.4428 21.4894 69.948 21.1612C70.3698 20.8956 70.7032 20.906 70.9688 20.9842C71.099 21.0206 71.2136 21.0779 71.3021 21.13C71.3959 21.1821 71.4428 21.2237 71.5105 21.2602C71.6355 21.3279 71.7292 21.3019 71.7969 21.1821C71.8594 21.0623 71.8334 20.9685 71.7136 20.9008C71.7188 20.9008 71.6251 20.8383 71.5157 20.7706C71.4063 20.7081 71.2605 20.6352 71.0834 20.5831H71.0782Z" fill="black"/>
<path d="M75.7239 20.277C75.5469 20.329 75.401 20.402 75.2917 20.4697C75.1823 20.5322 75.0885 20.5947 75.0937 20.5947C74.9739 20.6624 74.9479 20.7561 75.0104 20.8759C75.0781 21.0009 75.1771 21.027 75.2969 20.9592C75.3698 20.9176 75.4167 20.8759 75.5052 20.8238C75.5937 20.7717 75.7083 20.7145 75.8385 20.678C76.1042 20.6051 76.4375 20.5895 76.8594 20.8603C77.3646 21.1832 77.8229 21.2145 78.1458 21.152C78.4739 21.0842 78.6771 20.9228 78.6771 20.9228C78.7864 20.8342 78.7969 20.7405 78.7083 20.6311C78.6198 20.5217 78.5208 20.5113 78.4167 20.5999C78.4167 20.5999 78.2969 20.6936 78.0677 20.7405C77.8385 20.7874 77.5052 20.7822 77.0833 20.5113C76.5677 20.1832 76.0833 20.178 75.7239 20.277Z" fill="black"/>
<path d="M70.2919 18.9732C69.7346 18.8378 69.0679 18.8586 68.4273 19.2701C68.3075 19.343 68.2919 19.4367 68.3648 19.5565C68.4377 19.6711 68.5315 19.6919 68.6513 19.619C69.1877 19.2753 69.719 19.2596 70.1929 19.3742C70.6721 19.494 71.0836 19.7544 71.3127 19.9419C71.4221 20.0305 71.5211 20.0201 71.6044 19.9107C71.6929 19.8065 71.6825 19.7076 71.5783 19.619C71.3075 19.3951 70.8492 19.1138 70.2919 18.9732Z" fill="black"/>
<path d="M75.0155 23.5527C74.9582 23.5579 74.9114 23.5788 74.8749 23.6204C74.7811 23.7246 74.7864 23.8184 74.8853 23.9121C74.8853 23.9121 75.1249 24.1361 75.2759 24.3757C75.3541 24.4954 75.4009 24.6204 75.4061 24.6934C75.4113 24.7663 75.4113 24.7923 75.3072 24.8496C74.677 25.2038 74.4947 25.3079 74.4947 25.3079C74.3749 25.3757 74.3489 25.4746 74.4166 25.5944C74.4895 25.7142 74.5832 25.735 74.703 25.6673C74.703 25.6673 74.8853 25.5632 75.5103 25.2142C75.7239 25.0944 75.8332 24.8704 75.8228 24.6725C75.8124 24.4746 75.7239 24.3027 75.6249 24.1517C75.4322 23.8444 75.1666 23.6048 75.1666 23.6048C75.1249 23.5684 75.0728 23.5527 75.0155 23.5527Z" fill="black"/>
<path d="M76.4998 18.7606C75.9425 18.8961 75.4894 19.1825 75.2134 19.4065C75.1092 19.495 75.0988 19.5888 75.1873 19.6981C75.2759 19.8075 75.3696 19.8179 75.479 19.7294C75.7082 19.5367 76.1196 19.2815 76.5988 19.1617C77.0727 19.0471 77.604 19.0627 78.1405 19.4065C78.2602 19.4794 78.354 19.4586 78.4321 19.3388C78.505 19.2242 78.4842 19.1304 78.3696 19.0575C77.729 18.6461 77.0571 18.62 76.4998 18.7606Z" fill="black"/>
<path d="M73.0207 27.5573C72.9166 27.4636 72.8176 27.4636 72.7239 27.5678C72.6353 27.6719 72.6405 27.7709 72.7395 27.8594C73.0676 28.1563 73.5884 28.3803 74.1457 28.4636C74.6978 28.5521 75.2968 28.5001 75.7186 28.1511C75.828 28.0626 75.8332 27.9636 75.7447 27.8542C75.6561 27.7501 75.5572 27.7396 75.453 27.8282C75.1718 28.0678 74.6926 28.1303 74.2082 28.0521C73.7239 27.9792 73.2499 27.7657 73.0207 27.5573Z" fill="black"/>
<path d="M63.62 70.1919C63.4794 70.218 63.4273 70.3013 63.4586 70.4367C63.9481 72.7232 65.0054 74.9992 65.8752 76.7023L49.7919 88.3534C49.6773 88.4367 49.6617 88.5305 49.745 88.645C49.8283 88.7544 49.9221 88.77 50.0367 88.6919L66.4013 76.8325L66.3179 76.6763C65.4481 74.9732 64.3544 72.6346 63.8648 70.3534C63.8336 70.218 63.7554 70.1607 63.62 70.1919Z" fill="black"/>
<path d="M47.3593 55.0569C47.2187 55.0674 47.1562 55.1403 47.1666 55.2809L47.4114 59.0569L50.7187 55.8069C50.8229 55.708 50.8229 55.609 50.7239 55.5101C50.625 55.4163 50.5312 55.4111 50.4323 55.5101L47.7656 58.1246L47.5781 55.2549C47.5729 55.1142 47.5 55.0517 47.3593 55.0569Z" fill="black"/>
<path d="M47.6144 58.1409C47.479 58.1201 47.4008 58.1773 47.38 58.3128C46.5154 64.2086 45.9894 70.0732 46.2758 75.8648C46.2862 76.0003 46.3592 76.068 46.4946 76.0628C46.6352 76.0523 46.6977 75.9794 46.6925 75.844C46.406 70.094 46.9269 64.2503 47.7915 58.3753C47.8123 58.2398 47.7498 58.1617 47.6144 58.1409Z" fill="black"/>
<path d="M75.2187 67.1099C75.0833 67.0943 75.0052 67.1516 74.9844 67.2922C74.8906 68.0318 75.0052 68.6933 74.7292 69.3287C74.7239 69.3391 74.5469 69.6672 74.2864 70.0474C74.0208 70.438 73.6562 70.8703 73.3594 71.0318C73.2396 71.0995 73.2135 71.1933 73.276 71.313C73.3437 71.438 73.4375 71.4641 73.5573 71.3964C73.9844 71.1672 74.3489 70.6985 74.6302 70.2818C74.9114 69.8703 75.0989 69.511 75.0989 69.511L75.1042 69.5058V69.4953C75.4427 68.7349 75.3125 68.0005 75.401 67.3443C75.4167 67.2089 75.3542 67.1308 75.2187 67.1099Z" fill="black"/>
<path d="M76.12 68.7974C75.9846 68.7818 75.9064 68.8391 75.8856 68.9745C75.7918 69.7141 75.9064 70.3808 75.6252 71.011C75.6252 71.011 75.6304 71.011 75.6252 71.0162C75.6252 71.0214 75.4481 71.3495 75.1877 71.7349C74.9221 72.1256 74.5575 72.5578 74.2606 72.7193C74.1408 72.7818 74.1096 72.8808 74.1773 73.0006C74.245 73.1203 74.3387 73.1516 74.4585 73.0839C74.8856 72.8495 75.2502 72.3808 75.5314 71.9693C75.8127 71.5578 76.0002 71.1933 76.0002 71.1933L76.0054 71.1881V71.1828C76.3439 70.4172 76.2189 69.6881 76.3023 69.0318C76.3179 68.8912 76.2606 68.8131 76.12 68.7974Z" fill="black"/>
<path d="M117.573 74.7766C117.516 74.7714 117.464 74.7819 117.422 74.8183L107.818 82.2714L82.1096 85.1777C81.969 85.1933 81.9117 85.2714 81.9221 85.4069C81.9377 85.5475 82.0158 85.6048 82.1565 85.5891L107.985 82.6725L117.672 75.1464C117.781 75.0631 117.797 74.9641 117.714 74.8548C117.677 74.8079 117.63 74.7819 117.573 74.7766Z" fill="black"/>
<path d="M109.823 76.9168C109.766 76.9116 109.719 76.9324 109.672 76.9689L105.375 80.672C105.271 80.7658 105.266 80.8595 105.354 80.9637C105.443 81.0731 105.542 81.0783 105.646 80.9897L109.943 77.2814C110.052 77.1928 110.057 77.0939 109.969 76.9897C109.927 76.9481 109.88 76.922 109.823 76.9168Z" fill="black"/>
<path d="M105.266 77.7399L100.969 81.443C100.865 81.5368 100.854 81.6357 100.948 81.7399C101.037 81.8441 101.136 81.8493 101.24 81.7607L105.537 78.0524C105.641 77.9639 105.651 77.8649 105.557 77.7607C105.469 77.6566 105.37 77.6514 105.266 77.7399Z" fill="black"/>
<path d="M101.109 78.1248L96.8125 81.8331C96.7083 81.9217 96.7031 82.0206 96.7917 82.1248C96.8802 82.229 96.9792 82.2394 97.0885 82.1456L101.385 78.4373C101.49 78.3488 101.495 78.2498 101.406 78.1456C101.313 78.0415 101.219 78.0311 101.109 78.1248Z" fill="black"/>
<path d="M96.38 78.8703L94.8227 80.214L92.0831 82.5786C91.979 82.6671 91.9686 82.7661 92.0623 82.8703C92.1509 82.9744 92.2498 82.9848 92.354 82.8911L95.0988 80.5265L96.6509 79.188C96.755 79.0942 96.7654 79.0005 96.6717 78.8963C96.5831 78.7869 96.4842 78.7817 96.38 78.8703Z" fill="black"/>
<path d="M67.5366 31.2087C67.4325 31.3024 67.4273 31.4014 67.5158 31.5003C68.1408 32.2087 69.0314 32.7503 69.0314 32.7503C69.146 32.8232 69.245 32.8024 69.3179 32.6826C69.3908 32.568 69.3648 32.4691 69.2502 32.3962C69.2502 32.3962 68.3908 31.8649 67.8283 31.2295C67.7345 31.1253 67.6408 31.1201 67.5366 31.2087Z" fill="black"/>
<path d="M275.328 136.594L266.458 168.141C266.458 168.141 266.953 171.24 268.693 170.62C270.427 170 283.833 143.234 283.833 143.234L275.328 136.594Z" fill="#C5761A"/>
<path d="M316.531 136.031L325.396 167.578C325.396 167.578 324.901 170.677 323.167 170.057C321.432 169.438 308.021 142.672 308.021 142.672L316.531 136.031Z" fill="#C5761A"/>
<path d="M316.271 112.793C315.052 114.475 313.802 116.115 312.51 117.725C311.219 119.334 309.901 120.897 308.547 122.412C307.198 123.933 305.823 125.397 304.422 126.808C303.026 128.225 301.609 129.579 300.177 130.871C298.74 132.168 297.297 133.397 295.844 134.563C294.391 135.73 292.932 136.824 291.469 137.845C290.01 138.865 288.552 139.813 287.099 140.688C285.641 141.558 284.198 142.35 282.766 143.058C281.333 143.772 279.917 144.402 278.521 144.944C277.125 145.49 275.75 145.949 274.401 146.319C273.052 146.694 271.734 146.975 270.448 147.173C269.156 147.371 267.906 147.48 266.693 147.496C265.479 147.517 264.307 147.444 263.182 147.287C262.052 147.131 260.974 146.881 259.943 146.548C258.911 146.214 257.932 145.793 257.005 145.282C256.083 144.777 255.213 144.183 254.406 143.506C253.594 142.829 252.849 142.074 252.161 141.235C251.474 140.397 250.849 139.485 250.292 138.496C249.74 137.501 249.25 136.438 248.828 135.303C248.406 134.168 248.052 132.97 247.771 131.699C247.484 130.433 247.276 129.1 247.135 127.714C246.995 126.324 246.922 124.881 246.927 123.386C246.927 121.886 247.005 120.345 247.151 118.756C247.292 117.168 247.51 115.537 247.797 113.871C248.083 112.204 248.443 110.506 248.87 108.777C249.297 107.048 249.792 105.293 250.349 103.522C250.911 101.746 251.536 99.9592 252.229 98.1571C252.922 96.3551 253.672 94.5478 254.49 92.7353C255.302 90.9228 256.172 89.1103 257.099 87.3082C258.031 85.5009 259.01 83.7092 260.047 81.928C261.083 80.1467 262.167 78.3811 263.297 76.6415C264.427 74.9019 265.599 73.1936 266.818 71.5113C268.036 69.829 269.286 68.1832 270.578 66.5738C271.865 64.9696 273.187 63.4071 274.536 61.8863C275.891 60.3707 277.266 58.9019 278.661 57.4905C280.062 56.079 281.479 54.7248 282.911 53.428C284.344 52.1311 285.792 50.9019 287.245 49.7405C288.698 48.5738 290.156 47.4801 291.62 46.454C293.078 45.4332 294.536 44.4853 295.99 43.6155C297.443 42.7457 298.891 41.954 300.323 41.2405C301.755 40.5269 303.167 39.9019 304.568 39.3551C305.963 38.8134 307.338 38.3551 308.687 37.9801C310.036 37.6103 311.354 37.3238 312.641 37.1259C313.927 36.9332 315.182 36.8238 316.396 36.803C317.609 36.7873 318.776 36.8551 319.906 37.0113C321.036 37.1728 322.115 37.4176 323.146 37.7561C324.177 38.0894 325.156 38.5113 326.078 39.0165C327.005 39.5269 327.875 40.1155 328.682 40.7926C329.495 41.4696 330.24 42.2248 330.927 43.0634C331.615 43.9019 332.234 44.8186 332.792 45.8082C333.349 46.7978 333.838 47.8603 334.26 48.9957C334.682 50.1311 335.036 51.3342 335.318 52.5998C335.599 53.8707 335.812 55.1988 335.953 56.5894C336.094 57.9748 336.161 59.4176 336.161 60.9176C336.156 62.4123 336.083 63.954 335.937 65.5478C335.792 67.1363 335.578 68.7613 335.292 70.4332C335 72.0998 334.646 73.7978 334.219 75.5269C333.792 77.2561 333.297 79.0061 332.734 80.7821C332.177 82.553 331.547 84.3446 330.859 86.1467C330.167 87.9488 329.417 89.7561 328.599 91.5686C327.786 93.3811 326.917 95.1884 325.984 96.9957C325.057 98.7978 324.073 100.595 323.042 102.376C322.005 104.157 320.922 105.918 319.792 107.657C318.661 109.397 317.484 111.11 316.271 112.793Z" fill="white"/>
<path d="M333.583 135.531L342.453 167.073C342.453 167.073 341.953 170.177 340.219 169.552C338.484 168.932 325.078 142.167 325.078 142.167C327.786 140.875 330.661 138.38 333.583 135.531Z" fill="#C5761A"/>
<path d="M280.958 153.287L275.146 173.969C275.146 173.969 275.641 177.068 277.38 176.449C278.651 175.995 286.188 161.501 290.125 153.792C289.755 153.803 289.386 153.808 289.016 153.808C286.313 153.808 283.62 153.631 280.958 153.287Z" fill="#C5761A"/>
<path d="M242.214 169.9L240.073 183.234L234.854 184.093L234.552 171.572L242.214 169.9Z" fill="#FBCD00"/>
<mask id="mask2_256_517" style="mask-type:luminance" maskUnits="userSpaceOnUse" x="223" y="178" width="19" height="12">
<path d="M223 178.334H241.667V189.35H223V178.334Z" fill="white"/>
</mask>
<g mask="url(#mask2_256_517)">
<path d="M241.083 180.323L239.797 189.161L235.13 189.271L235.313 186.797L232.375 187.969L225.25 187.849C225.25 187.849 221.287 184.651 226.162 183.307C231.037 181.958 234.766 179.297 234.766 179.297C237.813 181.943 236.193 181.396 241.083 180.323Z" fill="black"/>
</g>
<path d="M214.036 160.208L204.307 169.567L199.62 167.114L206.917 156.932L214.036 160.208Z" fill="#FBCD00"/>
<path d="M206.865 167.854L200.516 174.135L196.724 171.416L198.36 169.547L195.308 168.713L189.688 164.328C189.688 164.328 188.448 159.396 193.151 161.255C197.854 163.109 202.433 163.229 202.433 163.229C203.276 167.172 202.313 165.76 206.865 167.854Z" fill="black"/>
<path d="M300.177 52.6977C303.088 51.3852 308.698 49.9321 306.729 41.9946C304.766 34.0623 295.885 34.2811 295.885 34.2811C295.885 34.2811 294.062 29.6925 294.354 27.5467C294.646 25.4008 293.771 17.0258 285.766 16.5883C277.76 16.1561 273.635 17.4581 272.177 20.6404C270.484 24.3488 269.417 33.005 267.771 35.3227C266.12 37.6404 262.26 45.6196 265.401 49.4269C268.542 53.2342 284.755 51.1769 284.755 51.1769L300.177 52.6977Z" fill="#C5761A"/>
<path d="M261.672 98.0215L258.307 105.631L233.583 119.459L232.604 177.423L241.745 176.792L259.13 130.407L290.458 108.511L272.208 99.2298L261.672 98.0215Z" fill="#C5761A"/>
<path d="M303.844 89.041C307.938 101.093 313.068 103.989 309.536 116.812C306.193 129.286 295.682 136.963 259.031 129.968C245.651 127.411 237.495 140.01 230.099 146.692C218.49 157.187 209.859 167.031 209.859 167.031L203.016 159.812C203.016 159.812 218.51 125.807 230.552 116.343C242.599 106.88 262.427 105.624 262.427 105.624L303.844 89.041Z" fill="#C5761A"/>
<path d="M289.99 46.7285L273.802 48.2285C263.99 50.4525 264.964 51.2077 263.13 52.3431C259.526 59.4004 259.745 64.8587 259.917 72.291C263.573 83.3848 257.089 77.6712 257.089 77.6712L252.521 85.791C252.521 85.791 262.328 87.2962 261.599 88.9212C261.271 90.4941 259.849 93.1608 258.5 98.5514C257.396 102.958 254.735 104.911 254.787 106.604L266.485 104.775L265.792 101.463C265.792 101.463 283.219 100.307 283.823 103.551C284.167 105.4 306.198 113.051 306.198 113.051L313.516 101.411C313.193 96.166 301.875 91.2389 300.865 89.8796C301.391 88.3171 301.74 84.4264 301.74 84.4264C306.276 81.9369 305.646 83.4212 308.958 77.8587C312.151 63.5462 304.026 51.0462 289.99 46.7285Z" fill="#8F3E97"/>
<path d="M288.948 31.6613C288.948 31.6613 283.562 29.9842 282.432 28.531C281.307 27.0727 280.797 20.9946 278.323 20.63C275.844 20.2654 272.932 21.4321 272.062 25.0727C271.187 28.7133 270.312 31.2238 272.026 35.5519C273.734 39.8852 273.917 40.5415 274.755 40.5415C275.588 40.5415 279.265 40.2863 279.265 40.2863C279.265 40.2863 278.141 44.4321 278.213 47.9633C278.286 51.4946 278.177 55.755 278.177 55.755L288.583 46.1456L284.109 39.5935C284.109 39.5935 287.312 38.9008 288.109 36.4269C288.911 33.9529 288.948 31.6613 288.948 31.6613Z" fill="#FBCD00"/>
<path d="M277.391 28.73C277.693 28.6467 278.11 28.6467 278.547 28.9279C278.906 29.1571 279.188 29.1675 279.386 29.1259C279.578 29.0842 279.677 29.0061 279.677 29.0061C279.771 28.9332 279.854 28.9384 279.927 29.0321C280.005 29.1207 279.995 29.204 279.901 29.2821C279.901 29.2821 279.729 29.4175 279.453 29.4748C279.177 29.5269 278.787 29.5009 278.354 29.2248C278 29.0009 277.714 29.0061 277.49 29.0686C277.38 29.105 277.281 29.1519 277.203 29.1936C277.125 29.2405 277.089 29.2769 277.026 29.3082C276.922 29.3654 276.844 29.3446 276.787 29.2404C276.729 29.1363 276.75 29.0582 276.854 29.0009C276.854 29.0009 276.932 28.9488 277.026 28.8915C277.12 28.8342 277.245 28.7717 277.396 28.73H277.391Z" fill="black"/>
<path d="M273.443 28.469C273.594 28.5107 273.719 28.5784 273.813 28.6305C273.906 28.6878 273.984 28.7399 273.979 28.7399C274.083 28.7971 274.109 28.8753 274.052 28.9794C273.995 29.0836 273.911 29.1096 273.807 29.0471C273.75 29.0159 273.708 28.9794 273.63 28.9326C273.552 28.8909 273.458 28.844 273.344 28.8128C273.12 28.7451 272.839 28.7346 272.484 28.9638C272.052 29.2399 271.656 29.2659 271.385 29.2138C271.109 29.1565 270.938 29.0211 270.938 29.0211C270.844 28.943 270.833 28.8649 270.906 28.7711C270.984 28.6774 271.068 28.6721 271.156 28.7451C271.156 28.7451 271.255 28.8284 271.453 28.8649C271.651 28.9065 271.932 28.9013 272.292 28.6669C272.729 28.3909 273.141 28.3857 273.443 28.469Z" fill="black"/>
<path d="M278.062 27.3649C278.536 27.2451 279.109 27.2659 279.651 27.6149C279.75 27.6774 279.771 27.7607 279.703 27.8545C279.64 27.9534 279.562 27.9743 279.463 27.9118C279.005 27.6201 278.552 27.6045 278.146 27.7034C277.745 27.8024 277.39 28.0264 277.198 28.1826C277.104 28.2607 277.021 28.2503 276.948 28.1618C276.87 28.068 276.88 27.9847 276.974 27.9118C277.203 27.7243 277.588 27.4795 278.062 27.3649Z" fill="black"/>
<path d="M273.922 31.7351C274.005 31.657 274.089 31.657 274.172 31.7455C274.25 31.834 274.245 31.9174 274.156 31.9955C274.156 31.9955 273.958 32.183 273.823 32.3861C273.76 32.4903 273.719 32.5945 273.714 32.657C273.714 32.7195 273.714 32.7403 273.802 32.7924C274.333 33.0893 274.49 33.183 274.49 33.183C274.594 33.2403 274.615 33.3236 274.557 33.4226C274.495 33.5268 274.417 33.5476 274.312 33.4903C274.312 33.4903 274.156 33.3965 273.625 33.0997C273.448 33.0007 273.354 32.808 273.365 32.6413C273.37 32.4747 273.443 32.3288 273.526 32.1986C273.693 31.9382 273.922 31.7351 273.922 31.7351Z" fill="black"/>
<path d="M272.787 27.1776C273.26 27.2974 273.646 27.5422 273.875 27.7297C273.969 27.8026 273.979 27.8859 273.901 27.9797C273.828 28.0682 273.745 28.0786 273.651 28.0057C273.458 27.8442 273.104 27.6255 272.703 27.5265C272.297 27.4224 271.844 27.438 271.385 27.7297C271.287 27.7922 271.208 27.7765 271.146 27.6776C271.078 27.5786 271.099 27.4953 271.198 27.4328C271.74 27.0838 272.313 27.063 272.787 27.1776Z" fill="black"/>
<path d="M276.172 36.2129C276.224 36.2181 276.266 36.2337 276.297 36.2702C276.375 36.3587 276.375 36.4421 276.287 36.5202C276.01 36.7754 275.563 36.9629 275.094 37.0358C274.62 37.1087 274.109 37.0671 273.75 36.765C273.662 36.6868 273.656 36.6035 273.729 36.515C273.807 36.4264 273.891 36.416 273.979 36.4941C274.219 36.6973 274.625 36.7493 275.037 36.6868C275.448 36.6191 275.854 36.4368 276.047 36.2598C276.083 36.2285 276.125 36.2129 276.172 36.2129Z" fill="black"/>
<path d="M301.739 84.2754L289.182 65.3848C292.943 73.7389 296.276 82.515 300.917 89.9889L301.739 84.2754Z" fill="black"/>
<path d="M290.427 46.9473L288.386 45.9629L278.558 54.6973L278.448 47.3118H276.865L273.245 48.4733C273.245 48.4733 269.969 57.8639 267.276 66.166C266.38 68.9316 265.813 70.8379 265.459 72.1556C264.677 74.1452 264.578 75.5254 265.36 77.6973C266.349 80.1608 268.334 84.1868 267.87 87.7233C267.255 92.4577 265.505 102.854 265.505 102.854C269.87 104.051 273.438 105.739 284.162 103.01C283.584 95.0723 280.88 88.3014 278.724 80.6921C278.224 75.8171 280.401 71.5723 282.354 66.9421C285.042 60.5827 288.287 53.1921 290.427 46.9473Z" fill="white"/>
<path d="M274.781 92.9108L260.583 88.3796L240.042 68.2598C244.979 69.7077 250.042 70.5983 255.026 70.3327C255.792 73.89 261.015 79.3066 263.521 81.7337L274.781 92.9108Z" fill="white"/>
<path d="M273.833 94.0423L260.156 88.8444L239.672 69.5059L251.911 73.985L273.833 94.0423Z" fill="#C5761A"/>
<path d="M250.13 79.4746C250.62 79.5163 251.203 80.5996 252.261 80.6204C253.219 80.6361 254.214 79.5163 255.188 80.0579C255.792 80.3965 255.86 82.2142 256.13 82.8496C256.88 84.5788 254.927 84.8184 254.281 85.0059C253.641 85.1882 251.281 81.9382 251.094 81.7767C250.49 81.2507 250.13 79.4746 250.13 79.4746Z" fill="#FBCD00"/>
<path d="M255.542 80.7023C255.682 80.6919 255.755 80.7544 255.771 80.8898C255.781 81.0304 255.713 81.1033 255.578 81.1137C255.083 81.1554 254.635 81.395 254.099 81.6294C253.562 81.8637 252.932 82.0825 252.114 82.0408C251.974 82.0356 251.906 81.9627 251.917 81.8221C251.922 81.6815 251.995 81.619 252.135 81.6242C252.87 81.6658 253.417 81.4731 253.932 81.2492C254.453 81.02 254.943 80.7544 255.542 80.7023Z" fill="black"/>
<path d="M255.844 81.8956C255.979 81.8852 256.057 81.9477 256.068 82.0884C256.078 82.2238 256.016 82.2967 255.875 82.3071C255.375 82.354 255.026 82.5519 254.573 82.755C254.12 82.9581 253.573 83.1509 252.755 83.104C252.62 83.0988 252.552 83.0259 252.563 82.8904C252.568 82.7498 252.641 82.6821 252.781 82.6925C253.521 82.729 253.974 82.5675 254.401 82.3748C254.833 82.1873 255.25 81.9477 255.844 81.8956Z" fill="black"/>
<path d="M256.11 82.9112C256.25 82.9008 256.323 82.9685 256.334 83.1039C256.344 83.2393 256.281 83.3175 256.146 83.3279C255.651 83.3695 255.49 83.5518 255.188 83.7654C254.891 83.9789 254.469 84.1872 253.651 84.1456C253.516 84.1404 253.448 84.0675 253.459 83.9268C253.464 83.7914 253.537 83.7237 253.672 83.7289C254.417 83.7706 254.683 83.6195 254.948 83.4268C255.219 83.2341 255.511 82.9633 256.11 82.9112Z" fill="black"/>
<path d="M251.818 73.8594C251.875 73.8594 251.927 73.875 251.969 73.9167L273.787 93.7135C273.891 93.8073 273.896 93.901 273.802 94.0052C273.709 94.1094 273.61 94.1146 273.511 94.0208L251.688 74.224C251.589 74.1302 251.584 74.0313 251.672 73.9323C251.714 73.8854 251.761 73.8646 251.818 73.8594Z" fill="black"/>
<path d="M260.88 130.104C260.88 130.104 250.313 127.895 243.24 133.75C241.146 135.484 231.912 144.854 231.912 144.854" stroke="black" stroke-width="0.501391" stroke-linecap="round"/>
<path d="M269.01 103.391C267.318 103.396 264.026 104.396 262.76 103.891C262.76 103.891 262.208 105.109 263.703 105.615C265.198 106.115 265.396 106.047 265.396 106.047C265.458 106.573 264.484 106.802 263.693 106.042C263.448 105.802 262.932 105.365 262.688 105.271C261.833 104.943 261.594 105.901 261.797 106.568C262.063 107.422 261.323 110.776 265.443 111.083C269.568 111.385 272.885 107.646 273.188 107.146C273.49 106.651 271.766 104.016 271.766 104.016L269.01 103.391Z" fill="#FBCD00"/>
<path d="M269.208 112.265C269.698 113.14 268.672 113.437 268.271 113.072L263.25 105.801C263.297 105.676 262.672 105.104 262.995 105.114C263.162 105.119 262.912 105.447 264.583 105.874L269.208 112.265ZM263.271 104.015C263.13 103.958 263.104 104.031 263.021 104.005C262.573 103.874 262.703 104.249 262.776 104.567C262.886 105.025 263.432 105.713 263.25 105.781L261.297 102.718L261.396 102.656L260.708 101.15L261.86 102.354L261.969 102.275L263.271 104.015Z" fill="black"/>
<path d="M308.214 66.6465C310.521 68.5475 309.854 92.8913 304.182 96.0111C298.906 98.9121 274.99 111.266 274.99 111.266L270.953 102.85C270.953 102.85 287.083 93.2975 289.979 91.6309C292.172 90.3652 296.224 86.2194 297.76 84.6777C298.25 84.1882 297.927 84.6829 297.927 84.6829L296.203 73.2194L308.214 66.6465Z" fill="#8F3E97"/>
<path d="M297.23 85.5098L285.141 94.4993" stroke="black" stroke-width="0.501391" stroke-linecap="round"/>
<path d="M327.521 39.8848C333.401 89.6556 301.386 138.39 254.412 143.505C264.703 150.213 276.724 153.796 289.016 153.807C324.068 153.807 352.485 125.39 352.485 90.3379C352.485 70.5462 343.25 51.89 327.521 39.8848Z" fill="#8F3E97"/>
<path d="M219.307 127.072C219.307 127.374 219.245 127.671 219.109 127.973C218.974 128.27 218.776 128.567 218.51 128.864C218.245 129.156 217.911 129.447 217.515 129.739C217.12 130.025 216.661 130.307 216.14 130.583C215.614 130.864 215.031 131.135 214.39 131.4C213.745 131.661 213.047 131.921 212.286 132.171C211.531 132.421 210.719 132.661 209.854 132.895C208.989 133.124 208.073 133.348 207.109 133.562C206.146 133.775 205.135 133.973 204.078 134.166C203.026 134.354 201.932 134.536 200.797 134.702C199.661 134.869 198.495 135.025 197.286 135.166C196.083 135.307 194.854 135.437 193.594 135.551C192.333 135.666 191.052 135.765 189.745 135.854C188.437 135.942 187.114 136.015 185.776 136.072C184.443 136.13 183.094 136.176 181.734 136.202C180.375 136.234 179.015 136.249 177.651 136.249C176.286 136.249 174.927 136.234 173.568 136.202C172.208 136.176 170.864 136.13 169.526 136.072C168.187 136.015 166.864 135.942 165.557 135.854C164.255 135.765 162.969 135.666 161.708 135.551C160.448 135.437 159.219 135.307 158.015 135.166C156.812 135.025 155.64 134.869 154.51 134.702C153.375 134.536 152.281 134.354 151.224 134.166C150.172 133.973 149.161 133.775 148.193 133.562C147.229 133.348 146.318 133.124 145.448 132.895C144.583 132.661 143.771 132.421 143.015 132.171C142.255 131.921 141.557 131.661 140.911 131.4C140.271 131.135 139.687 130.864 139.167 130.583C138.64 130.307 138.182 130.025 137.786 129.739C137.39 129.447 137.062 129.156 136.797 128.864C136.526 128.567 136.328 128.27 136.193 127.973C136.062 127.671 135.995 127.374 135.995 127.072C135.995 126.77 136.062 126.473 136.193 126.171C136.328 125.874 136.526 125.577 136.797 125.281C137.062 124.989 137.39 124.697 137.786 124.411C138.182 124.124 138.64 123.838 139.167 123.562C139.687 123.286 140.271 123.015 140.911 122.749C141.557 122.484 142.255 122.223 143.015 121.973C143.771 121.723 144.583 121.484 145.448 121.255C146.318 121.02 147.229 120.796 148.193 120.588C149.161 120.374 150.172 120.171 151.224 119.979C152.281 119.791 153.375 119.609 154.51 119.442C155.64 119.275 156.812 119.124 158.015 118.984C159.219 118.838 160.448 118.713 161.708 118.598C162.969 118.484 164.255 118.38 165.557 118.291C166.864 118.208 168.187 118.135 169.526 118.072C170.864 118.015 172.208 117.973 173.568 117.942C174.927 117.911 176.286 117.9 177.651 117.9C179.015 117.9 180.375 117.911 181.734 117.942C183.094 117.973 184.443 118.015 185.776 118.072C187.114 118.135 188.437 118.208 189.745 118.291C191.052 118.38 192.333 118.484 193.594 118.598C194.854 118.713 196.083 118.838 197.286 118.984C198.495 119.124 199.661 119.275 200.797 119.442C201.932 119.609 203.026 119.791 204.078 119.979C205.135 120.171 206.146 120.374 207.109 120.588C208.073 120.796 208.989 121.02 209.854 121.255C210.719 121.484 211.531 121.723 212.286 121.973C213.047 122.223 213.745 122.484 214.39 122.749C215.031 123.015 215.614 123.286 216.14 123.562C216.661 123.838 217.12 124.124 217.515 124.411C217.911 124.697 218.245 124.989 218.51 125.281C218.776 125.577 218.974 125.874 219.109 126.171C219.245 126.473 219.307 126.77 219.307 127.072Z" fill="#C5761A"/>
<path d="M172.989 126.26L171.776 164.739C171.776 164.739 172.682 166.609 174.224 165.989C175.354 165.536 180.771 134.473 182.307 126.765C181.943 126.775 181.573 126.781 181.203 126.781C178.5 126.775 175.755 126.604 172.989 126.26Z" fill="#C5761A"/>
<path d="M217.078 125.473C217.078 125.718 217.016 125.958 216.886 126.202C216.761 126.447 216.573 126.687 216.318 126.926C216.068 127.166 215.755 127.4 215.38 127.635C215.005 127.869 214.568 128.098 214.078 128.322C213.584 128.546 213.031 128.77 212.422 128.984C211.813 129.197 211.151 129.406 210.432 129.609C209.714 129.812 208.948 130.01 208.13 130.197C207.308 130.385 206.443 130.567 205.531 130.739C204.615 130.911 203.662 131.072 202.662 131.229C201.667 131.385 200.63 131.531 199.558 131.666C198.479 131.801 197.375 131.926 196.235 132.041C195.099 132.156 193.933 132.26 192.74 132.354C191.547 132.447 190.334 132.531 189.094 132.598C187.86 132.671 186.61 132.729 185.344 132.775C184.078 132.822 182.802 132.859 181.516 132.885C180.229 132.906 178.943 132.921 177.651 132.921C176.36 132.921 175.073 132.906 173.787 132.885C172.5 132.859 171.229 132.822 169.959 132.775C168.693 132.729 167.443 132.671 166.209 132.598C164.974 132.531 163.755 132.447 162.563 132.354C161.37 132.26 160.203 132.156 159.068 132.041C157.927 131.926 156.823 131.801 155.75 131.666C154.677 131.531 153.641 131.385 152.641 131.229C151.641 131.072 150.688 130.911 149.776 130.739C148.86 130.567 147.995 130.385 147.177 130.197C146.354 130.01 145.589 129.812 144.87 129.609C144.151 129.406 143.49 129.197 142.88 128.984C142.271 128.77 141.724 128.546 141.229 128.322C140.735 128.098 140.297 127.869 139.922 127.635C139.547 127.4 139.235 127.166 138.985 126.926C138.735 126.687 138.542 126.447 138.417 126.202C138.292 125.958 138.224 125.718 138.224 125.473C138.224 125.229 138.292 124.984 138.417 124.744C138.542 124.499 138.735 124.26 138.985 124.02C139.235 123.781 139.547 123.546 139.922 123.312C140.297 123.077 140.735 122.848 141.229 122.624C141.724 122.395 142.271 122.176 142.88 121.963C143.49 121.744 144.151 121.536 144.87 121.333C145.589 121.13 146.354 120.937 147.177 120.749C147.995 120.557 148.86 120.38 149.776 120.208C150.688 120.036 151.641 119.869 152.641 119.713C153.641 119.562 154.677 119.416 155.75 119.281C156.823 119.145 157.927 119.02 159.068 118.906C160.203 118.791 161.37 118.687 162.563 118.593C163.755 118.499 164.974 118.416 166.209 118.343C167.443 118.275 168.693 118.213 169.959 118.166C171.229 118.119 172.5 118.083 173.787 118.062C175.073 118.036 176.36 118.025 177.651 118.025C178.943 118.025 180.229 118.036 181.516 118.062C182.802 118.083 184.078 118.119 185.344 118.166C186.61 118.213 187.86 118.275 189.094 118.343C190.334 118.416 191.547 118.499 192.74 118.593C193.933 118.687 195.099 118.791 196.235 118.906C197.375 119.02 198.479 119.145 199.558 119.281C200.63 119.416 201.667 119.562 202.662 119.713C203.662 119.869 204.615 120.036 205.531 120.208C206.443 120.38 207.308 120.557 208.13 120.749C208.948 120.937 209.714 121.13 210.432 121.333C211.151 121.536 211.813 121.744 212.422 121.963C213.031 122.176 213.584 122.395 214.078 122.624C214.568 122.848 215.005 123.077 215.38 123.312C215.755 123.546 216.068 123.781 216.318 124.02C216.573 124.26 216.761 124.499 216.886 124.744C217.016 124.984 217.078 125.229 217.078 125.473Z" stroke="black" stroke-width="0.501391" stroke-linecap="round"/>
<path d="M200.084 134.947C193.719 135.781 185.985 136.265 177.651 136.265C168.724 136.265 160.49 135.708 153.88 134.76" stroke="black" stroke-width="0.501391" stroke-linecap="round"/>
<path d="M87.7868 56.1621L86.917 59.6309L90.0212 79.0996" stroke="black" stroke-width="0.377683" stroke-linecap="round"/>
<path d="M92.125 92.61L90.3906 86.4746" stroke="black" stroke-width="0.377683" stroke-linecap="round"/>
<path d="M35.7397 96.0625C46.3908 116.328 60.6148 127.302 75.9116 135.49" stroke="black" stroke-width="0.377683" stroke-linecap="round"/>
<path d="M178.396 104.203C167.385 94.156 165.672 87.9112 168.901 86.5466C172.125 85.1873 179.213 86.9685 178.396 104.203Z" fill="#FBCD00"/>
<path d="M171.125 86.875L170.985 89.0573L168.693 88.7969" stroke="black" stroke-width="0.259599" stroke-linecap="round"/>
<path d="M171.125 86.875L170.985 89.0573L168.693 88.7969" stroke="black" stroke-width="0.259599" stroke-linecap="round"/>
<path d="M172.193 87.8594L172.032 90.5313L169.245 90.1354" stroke="black" stroke-width="0.259599" stroke-linecap="round"/>
<path d="M173.448 89.2656L173.266 92.3177L170.094 91.8594" stroke="black" stroke-width="0.259599" stroke-linecap="round"/>
<path d="M174.448 91.3281L174.276 94.1563L171.333 93.7396" stroke="black" stroke-width="0.259599" stroke-linecap="round"/>
<path d="M176.099 94.3809L175.479 96.6986L173.021 95.4486" stroke="black" stroke-width="0.259599" stroke-linecap="round"/>
<path d="M177.286 96.9121L176.667 99.235L174.203 97.985" stroke="black" stroke-width="0.259599" stroke-linecap="round"/>
<path d="M178.057 99.3594L177.438 101.682L174.974 100.432" stroke="black" stroke-width="0.259599" stroke-linecap="round"/>
<path d="M169.854 87.6621C169.854 87.6621 172.948 90.985 175.802 97.3548C178.651 103.73 179.141 108.704 179.141 108.704" stroke="black" stroke-width="0.259599" stroke-linecap="round"/>
<path d="M178.677 105.156C178.229 105.156 177.458 105.792 177.026 106.063C176.26 106.542 175.51 105.875 174.63 105.526C173.755 105.172 172.682 106.333 173.187 107.146C173.531 107.703 174.693 108.323 175.307 108.651C174.422 111.057 169.234 125.083 173.484 126.385C178.135 127.813 182.099 127.193 182.969 125.146C183.734 123.344 183.109 113.047 181.208 108.813C182.302 108.443 183.068 108.089 183.354 107.276C183.729 106.224 182.083 105.438 181.713 105.833C181.338 106.224 180.083 106.786 179.62 105.953C179.416 105.589 179.021 105.156 178.677 105.156Z" fill="white"/>
</svg>
