<svg width="970" height="217" viewBox="0 0 970 217" fill="none" xmlns="http://www.w3.org/2000/svg">
<path opacity="0.7" d="M872.142 60.6101C851.751 58.8385 819.735 57.7248 790.957 59.8695C788.956 60.0319 786.863 59.7043 785.626 59.0037C763.99 47.7048 732.073 41.2308 698.247 41.2308C670.806 41.2308 644.312 45.5202 623.638 53.3129C621.637 54.0535 618.681 54.1361 616.588 53.4781C590.667 45.4775 560.08 41.2735 528.163 41.2735C513.965 41.2735 499.958 42.0966 486.425 43.7885C483.568 44.1189 480.613 43.5008 479.566 42.3046C457.082 16.9868 399.909 0 337.305 0C263.459 0 200.474 22.7601 187.33 54.1361C187.33 56.4887 187.994 60.0319 189.995 62.7548C197.525 72.8147 222.485 78.3402 245.74 75.0818C254.409 73.8457 261.557 71.2482 265.651 67.7021C269.844 64.1561 270.509 60.1572 267.751 56.4061C263.269 50.4277 248.406 47.1693 234.682 49.1061C224.302 50.5502 218.483 55.4149 221.919 59.9521C222.867 61.2709 221.248 62.6295 218.2 63.0852C215.153 63.4953 212.006 62.7947 210.96 61.4759C205.622 54.3839 214.672 46.7165 231.062 44.4066C234.873 43.8711 238.783 43.6233 242.686 43.6233C258.602 43.6233 273.372 48.0352 278.612 54.9193C282.324 59.9521 281.376 65.3096 275.847 70.012C270.318 74.7116 260.886 78.2149 249.262 79.8241C220.01 83.9056 188.567 76.9788 179.135 64.3213C177.035 61.5585 176.179 58.2603 175.896 55.5801C160.836 52.9825 144.828 51.6638 128.445 51.6638C57.647 51.5812 0 76.5259 0 107.201C0 137.877 57.647 162.824 128.537 162.824C132.348 162.824 136.16 162.741 139.971 162.616C138.733 152.434 144.828 142.083 157.598 133.26C171.605 123.487 192.852 116.15 217.437 112.604C227.06 111.2 236.874 110.542 246.497 110.542C284.996 110.542 320.915 121.098 333.784 137.714C340.07 145.917 338.641 154.658 329.782 162.411C320.823 170.121 305.579 175.892 286.616 178.615C254.791 183.232 220.201 175.769 209.531 161.958C200.856 150.659 214.962 138.415 241.067 134.661C248.597 133.59 256.601 133.465 264.315 134.291C267.369 134.621 269.179 135.982 268.416 137.301C267.652 138.62 264.506 139.403 261.458 139.073C255.936 138.455 250.124 138.537 244.687 139.321C224.585 142.206 213.724 151.648 220.392 160.349C229.061 171.562 257.075 177.623 282.995 173.872C299.003 171.562 311.964 166.658 319.586 160.144C327.109 153.587 328.347 146.165 323.015 139.238C311.773 124.684 280.323 115.447 246.596 115.447C238.118 115.447 229.541 116.025 221.156 117.261C176.087 123.778 147.02 143.567 151.786 164.348C170.94 195.354 236.117 217 310.437 217C379.425 217 441.548 198.116 464.987 170.039C465.559 169.421 466.606 168.885 468.041 168.637C469.469 168.347 471.088 168.347 472.517 168.595C490.236 171.605 509.009 173.132 528.255 173.132C581.525 173.132 630.786 161.092 658.418 141.505C638.119 137.877 620.873 131.445 609.249 123.077C596.289 113.675 591.622 102.749 596.289 92.3164C603.819 75.3297 638.217 63.4953 676.809 63.4953C681.857 63.4953 687.097 63.7032 692.244 64.1162C728.354 67.1239 752.175 82.2565 745.224 97.8847C739.603 110.665 710.918 119.075 681.476 116.603C657.273 114.581 641.265 104.438 645.932 93.9257C649.269 86.2554 664.803 80.9378 682.239 80.9378C684.523 80.9378 686.906 81.0204 689.197 81.2255C692.336 81.4733 694.337 82.792 693.771 84.1136C693.199 85.4722 690.144 86.338 687.097 86.0902C673.281 84.9367 659.846 88.8957 657.273 94.8741C653.843 102.667 665.659 110.252 683.766 111.738C707.107 113.675 729.69 107.036 734.166 96.9362C739.886 83.9882 720.159 71.4133 690.243 68.9382C652.033 65.7653 615.061 76.6484 607.729 93.1823C599.343 112.066 626.113 131.693 668.614 137.837C678.329 138.99 688.334 139.568 698.53 139.568C734.647 139.568 767.709 132.394 789.437 119.901C789.529 119.859 789.529 119.819 789.628 119.819C795.44 116.808 800.39 113.593 805.155 110.46C821.545 99.8215 838.409 88.8131 890.625 83.1651C921.785 79.7843 949.608 81.3907 970 83.9484C949.036 74.9993 916.546 64.4438 872.142 60.6101Z" fill="#FBFFFF"/>
</svg>
