<svg width="1920" height="206" viewBox="0 0 1920 206" fill="none" xmlns="http://www.w3.org/2000/svg">
<path opacity="0.7" d="M429.777 52.7894C419.729 51.2464 403.952 50.2765 389.771 52.1444C388.785 52.2858 387.753 52.0006 387.143 51.3903C376.482 41.5493 360.753 35.9107 344.085 35.9107C330.562 35.9107 317.507 39.6466 307.318 46.4339C306.332 47.0788 304.876 47.1508 303.844 46.5777C291.071 39.6094 275.998 35.9479 260.27 35.9479C253.273 35.9479 246.371 36.6648 239.702 38.1384C238.295 38.4261 236.838 37.8878 236.322 36.8459C225.242 14.7949 197.068 4.58956e-06 166.218 4.58956e-06C129.828 4.58956e-06 98.7904 19.8233 92.3129 47.1508C92.3129 49.1998 92.6405 52.2858 93.6266 54.6574C97.3373 63.4192 109.637 68.2318 121.097 65.3939C125.368 64.3173 128.891 62.0549 130.909 58.9664C132.975 55.8779 133.302 52.395 131.943 49.1279C129.734 43.9209 122.41 41.083 115.647 42.7699C110.532 44.0276 107.665 48.2646 109.358 52.2164C109.825 53.3649 109.027 54.5482 107.525 54.9451C106.024 55.3024 104.473 54.6921 103.957 53.5436C101.327 47.3666 105.787 40.6885 113.863 38.6767C115.741 38.2103 117.668 37.9945 119.592 37.9945C127.435 37.9945 134.713 41.8371 137.295 47.833C139.125 52.2164 138.658 56.8826 135.933 60.9782C133.208 65.0714 128.56 68.1227 122.832 69.5243C108.417 73.0791 92.9227 67.046 88.2747 56.0218C87.2399 53.6155 86.8183 50.7428 86.6788 48.4085C79.2574 46.1461 71.369 44.9975 63.2957 44.9975C28.4075 44.9256 0 66.6516 0 93.3688C0 120.086 28.4075 141.814 63.3411 141.814C65.2191 141.814 67.0972 141.743 68.9752 141.633C68.3654 132.765 71.369 123.75 77.6616 116.065C84.564 107.553 95.0343 101.163 107.149 98.0747C111.891 96.8517 116.728 96.2787 121.47 96.2787C140.442 96.2787 158.142 105.472 164.483 119.945C167.581 127.089 166.877 134.702 162.511 141.455C158.096 148.17 150.584 153.196 141.239 155.568C125.557 159.589 108.511 153.089 103.254 141.06C98.9785 131.219 105.93 120.555 118.794 117.285C122.504 116.353 126.449 116.243 130.25 116.963C131.755 117.251 132.647 118.436 132.271 119.585C131.895 120.733 130.344 121.416 128.842 121.128C126.121 120.59 123.257 120.662 120.578 121.344C110.672 123.857 105.32 132.08 108.606 139.659C112.877 149.425 126.682 154.704 139.455 151.437C147.344 149.425 153.731 145.154 157.487 139.48C161.194 133.77 161.804 127.305 159.177 121.272C153.636 108.595 138.139 100.55 121.518 100.55C117.341 100.55 113.114 101.054 108.982 102.131C86.7729 107.807 72.4491 125.042 74.7975 143.142C84.2364 170.147 116.355 189 152.978 189C186.974 189 217.587 172.553 229.138 148.098C229.42 147.56 229.936 147.093 230.643 146.878C231.347 146.625 232.145 146.625 232.849 146.84C241.58 149.463 250.831 150.792 260.315 150.792C286.566 150.792 310.841 140.306 324.458 123.246C314.454 120.086 305.956 114.485 300.228 107.196C293.841 99.0074 291.542 89.4915 293.841 80.4046C297.552 65.6097 314.503 55.3024 333.52 55.3024C336.008 55.3024 338.59 55.4835 341.126 55.8432C358.921 58.4628 370.659 71.6428 367.234 85.2544C364.464 96.3853 350.329 103.711 335.82 101.558C323.893 99.7963 316.005 90.9625 318.304 81.8062C319.949 75.1257 327.604 70.4942 336.196 70.4942C337.322 70.4942 338.496 70.5662 339.625 70.7448C341.172 70.9606 342.158 72.1092 341.879 73.2602C341.597 74.4435 340.092 75.1976 338.59 74.9818C331.782 73.9771 325.161 77.4253 323.893 82.6323C322.203 89.4195 328.026 96.0256 336.949 97.3206C348.451 99.0074 359.579 93.2249 361.785 84.4283C364.604 73.1511 354.883 62.1987 340.14 60.043C321.311 57.2795 303.092 66.7583 299.479 81.1588C295.346 97.6058 308.538 114.7 329.482 120.051C334.269 121.056 339.2 121.56 344.224 121.56C362.022 121.56 378.314 115.311 389.022 104.43C389.067 104.393 389.067 104.358 389.116 104.358C391.98 101.736 394.419 98.9355 396.767 96.2067C404.844 86.9413 413.154 77.3534 438.885 72.4341C454.241 69.4895 467.951 70.8887 478 73.1163C467.669 65.3219 451.659 56.1284 429.777 52.7894Z" fill="#FBFFFF" fill-opacity="0.9"/>
<path opacity="0.6" d="M747.922 106.545C738.946 105.418 724.852 104.71 712.184 106.074C711.303 106.177 710.382 105.969 709.837 105.523C700.313 98.3376 686.263 94.2205 671.373 94.2205C659.293 94.2205 647.63 96.9483 638.529 101.904C637.648 102.375 636.347 102.428 635.426 102.009C624.015 96.9212 610.551 94.2477 596.501 94.2477C590.251 94.2477 584.085 94.7711 578.127 95.8471C576.87 96.0572 575.569 95.6641 575.108 94.9034C565.21 78.8026 540.042 68 512.484 68C479.976 68 452.25 82.4742 446.464 102.428C446.464 103.924 446.756 106.177 447.637 107.909C450.952 114.306 461.939 117.82 472.176 115.748C475.992 114.962 479.139 113.31 480.941 111.055C482.787 108.8 483.08 106.257 481.866 103.871C479.892 100.069 473.35 97.9971 467.308 99.2288C462.739 100.147 460.178 103.241 461.69 106.126C462.107 106.965 461.395 107.829 460.053 108.119C458.711 108.38 457.326 107.934 456.866 107.095C454.516 102.585 458.5 97.7091 465.715 96.2401C467.392 95.8996 469.114 95.742 470.832 95.742C477.838 95.742 484.34 98.5477 486.647 102.926C488.281 106.126 487.864 109.533 485.43 112.524C482.996 115.512 478.844 117.74 473.726 118.764C460.85 121.359 447.008 116.954 442.856 108.905C441.932 107.148 441.555 105.05 441.431 103.346C434.801 101.694 427.754 100.855 420.542 100.855C389.377 100.803 364 116.666 364 136.174C364 155.682 389.377 171.547 420.583 171.547C422.261 171.547 423.938 171.495 425.616 171.415C425.071 164.939 427.754 158.357 433.376 152.746C439.541 146.531 448.895 141.865 459.717 139.61C463.953 138.717 468.273 138.299 472.51 138.299C489.457 138.299 505.269 145.011 510.934 155.579C513.701 160.795 513.072 166.354 509.172 171.284C505.228 176.188 498.518 179.857 490.17 181.589C476.16 184.525 460.934 179.779 456.237 170.996C452.418 163.811 458.627 156.024 470.119 153.637C473.434 152.956 476.957 152.876 480.353 153.401C481.698 153.612 482.494 154.477 482.158 155.316C481.822 156.155 480.437 156.653 479.096 156.443C476.665 156.05 474.106 156.102 471.713 156.6C462.864 158.435 458.083 164.44 461.018 169.973C464.834 177.104 477.166 180.959 488.576 178.573C495.623 177.104 501.328 173.985 504.684 169.843C507.996 165.673 508.54 160.953 506.193 156.548C501.244 147.292 487.4 141.418 472.553 141.418C468.821 141.418 465.045 141.785 461.354 142.572C441.515 146.716 428.719 159.301 430.817 172.516C439.249 192.234 467.94 206 500.656 206C531.025 206 558.372 193.991 568.69 176.135C568.942 175.742 569.403 175.402 570.035 175.244C570.663 175.059 571.376 175.059 572.005 175.217C579.805 177.131 588.069 178.102 596.541 178.102C619.991 178.102 641.676 170.446 653.84 157.989C644.904 155.682 637.312 151.592 632.195 146.27C626.49 140.291 624.436 133.343 626.49 126.708C629.805 115.905 644.947 108.38 661.935 108.38C664.158 108.38 666.464 108.512 668.73 108.774C684.626 110.687 695.112 120.311 692.052 130.249C689.578 138.377 676.95 143.725 663.99 142.153C653.336 140.867 646.289 134.417 648.343 127.732C649.812 122.854 656.65 119.472 664.326 119.472C665.331 119.472 666.38 119.524 667.389 119.655C668.771 119.812 669.652 120.651 669.402 121.492C669.15 122.356 667.806 122.906 666.464 122.749C660.382 122.015 654.468 124.533 653.336 128.335C651.826 133.29 657.027 138.114 664.998 139.059C675.273 140.291 685.214 136.069 687.184 129.646C689.702 121.412 681.019 113.415 667.849 111.841C651.029 109.823 634.754 116.744 631.526 127.259C627.834 139.268 639.619 151.749 658.328 155.656C662.605 156.39 667.009 156.758 671.497 156.758C687.396 156.758 701.95 152.195 711.515 144.251C711.556 144.223 711.556 144.198 711.599 144.198C714.158 142.284 716.337 140.239 718.434 138.246C725.649 131.481 733.073 124.48 756.059 120.888C769.776 118.738 782.023 119.76 791 121.387C781.771 115.695 767.469 108.983 747.922 106.545Z" fill="#FBFFFF" fill-opacity="0.9"/>
<path opacity="0.7" d="M1490.22 52.7894C1500.27 51.2464 1516.05 50.2765 1530.23 52.1444C1531.22 52.2858 1532.25 52.0006 1532.86 51.3903C1543.52 41.5493 1559.25 35.9107 1575.92 35.9107C1589.44 35.9107 1602.49 39.6466 1612.68 46.4339C1613.67 47.0788 1615.12 47.1508 1616.16 46.5777C1628.93 39.6094 1644 35.9479 1659.73 35.9479C1666.73 35.9479 1673.63 36.6648 1680.3 38.1384C1681.71 38.4261 1683.16 37.8878 1683.68 36.8459C1694.76 14.7949 1722.93 4.58956e-06 1753.78 4.58956e-06C1790.17 4.58956e-06 1821.21 19.8233 1827.69 47.1508C1827.69 49.1998 1827.36 52.2858 1826.37 54.6574C1822.66 63.4192 1810.36 68.2318 1798.9 65.3939C1794.63 64.3173 1791.11 62.0549 1789.09 58.9664C1787.03 55.8779 1786.7 52.395 1788.06 49.1279C1790.27 43.9209 1797.59 41.083 1804.35 42.7699C1809.47 44.0276 1812.34 48.2646 1810.64 52.2164C1810.17 53.3649 1810.97 54.5482 1812.47 54.9451C1813.98 55.3024 1815.53 54.6921 1816.04 53.5436C1818.67 47.3666 1814.21 40.6885 1806.14 38.6767C1804.26 38.2103 1802.33 37.9945 1800.41 37.9945C1792.57 37.9945 1785.29 41.8371 1782.7 47.833C1780.88 52.2164 1781.34 56.8826 1784.07 60.9782C1786.79 65.0714 1791.44 68.1227 1797.17 69.5243C1811.58 73.0791 1827.08 67.046 1831.73 56.0218C1832.76 53.6155 1833.18 50.7428 1833.32 48.4085C1840.74 46.1461 1848.63 44.9975 1856.7 44.9975C1891.59 44.9256 1920 66.6516 1920 93.3688C1920 120.086 1891.59 141.814 1856.66 141.814C1854.78 141.814 1852.9 141.743 1851.02 141.633C1851.63 132.765 1848.63 123.75 1842.34 116.065C1835.44 107.553 1824.97 101.163 1812.85 98.0747C1808.11 96.8517 1803.27 96.2787 1798.53 96.2787C1779.56 96.2787 1761.86 105.472 1755.52 119.945C1752.42 127.089 1753.12 134.702 1757.49 141.455C1761.9 148.17 1769.42 153.196 1778.76 155.568C1794.44 159.589 1811.49 153.089 1816.75 141.06C1821.02 131.219 1814.07 120.555 1801.21 117.285C1797.5 116.353 1793.55 116.243 1789.75 116.963C1788.24 117.251 1787.35 118.436 1787.73 119.585C1788.11 120.733 1789.66 121.416 1791.16 121.128C1793.88 120.59 1796.74 120.662 1799.42 121.344C1809.33 123.857 1814.68 132.08 1811.39 139.659C1807.12 149.425 1793.32 154.704 1780.54 151.437C1772.66 149.425 1766.27 145.154 1762.51 139.48C1758.81 133.77 1758.2 127.305 1760.82 121.272C1766.36 108.595 1781.86 100.55 1798.48 100.55C1802.66 100.55 1806.89 101.054 1811.02 102.131C1833.23 107.807 1847.55 125.042 1845.2 143.142C1835.76 170.147 1803.65 189 1767.02 189C1733.03 189 1702.41 172.553 1690.86 148.098C1690.58 147.56 1690.06 147.093 1689.36 146.878C1688.65 146.625 1687.86 146.625 1687.15 146.84C1678.42 149.463 1669.17 150.792 1659.68 150.792C1633.43 150.792 1609.16 140.306 1595.54 123.246C1605.55 120.086 1614.04 114.485 1619.77 107.196C1626.16 99.0074 1628.46 89.4915 1626.16 80.4046C1622.45 65.6097 1605.5 55.3024 1586.48 55.3024C1583.99 55.3024 1581.41 55.4835 1578.87 55.8432C1561.08 58.4628 1549.34 71.6428 1552.77 85.2544C1555.54 96.3853 1569.67 103.711 1584.18 101.558C1596.11 99.7963 1604 90.9625 1601.7 81.8062C1600.05 75.1257 1592.4 70.4942 1583.8 70.4942C1582.68 70.4942 1581.5 70.5662 1580.38 70.7448C1578.83 70.9606 1577.84 72.1092 1578.12 73.2602C1578.4 74.4435 1579.91 75.1976 1581.41 74.9818C1588.22 73.9771 1594.84 77.4253 1596.11 82.6323C1597.8 89.4195 1591.97 96.0256 1583.05 97.3206C1571.55 99.0074 1560.42 93.2249 1558.22 84.4283C1555.4 73.1511 1565.12 62.1987 1579.86 60.043C1598.69 57.2795 1616.91 66.7583 1620.52 81.1588C1624.65 97.6058 1611.46 114.7 1590.52 120.051C1585.73 121.056 1580.8 121.56 1575.78 121.56C1557.98 121.56 1541.69 115.311 1530.98 104.43C1530.93 104.393 1530.93 104.358 1530.88 104.358C1528.02 101.736 1525.58 98.9355 1523.23 96.2067C1515.16 86.9413 1506.85 77.3534 1481.11 72.4341C1465.76 69.4895 1452.05 70.8887 1442 73.1163C1452.33 65.3219 1468.34 56.1284 1490.22 52.7894Z" fill="#FBFFFF" fill-opacity="0.9"/>
<path opacity="0.6" d="M1172.08 106.545C1181.05 105.418 1195.15 104.71 1207.82 106.074C1208.7 106.177 1209.62 105.969 1210.16 105.523C1219.69 98.3376 1233.74 94.2205 1248.63 94.2205C1260.71 94.2205 1272.37 96.9483 1281.47 101.904C1282.35 102.375 1283.65 102.428 1284.57 102.009C1295.98 96.9212 1309.45 94.2477 1323.5 94.2477C1329.75 94.2477 1335.92 94.7711 1341.87 95.8471C1343.13 96.0572 1344.43 95.6641 1344.89 94.9034C1354.79 78.8026 1379.96 68 1407.52 68C1440.02 68 1467.75 82.4742 1473.54 102.428C1473.54 103.924 1473.24 106.177 1472.36 107.909C1469.05 114.306 1458.06 117.82 1447.82 115.748C1444.01 114.962 1440.86 113.31 1439.06 111.055C1437.21 108.8 1436.92 106.257 1438.13 103.871C1440.11 100.069 1446.65 97.9971 1452.69 99.2288C1457.26 100.147 1459.82 103.241 1458.31 106.126C1457.89 106.965 1458.61 107.829 1459.95 108.119C1461.29 108.38 1462.67 107.934 1463.13 107.095C1465.48 102.585 1461.5 97.7091 1454.29 96.2401C1452.61 95.8996 1450.89 95.742 1449.17 95.742C1442.16 95.742 1435.66 98.5477 1433.35 102.926C1431.72 106.126 1432.14 109.533 1434.57 112.524C1437 115.512 1441.16 117.74 1446.27 118.764C1459.15 121.359 1472.99 116.954 1477.14 108.905C1478.07 107.148 1478.44 105.05 1478.57 103.346C1485.2 101.694 1492.25 100.855 1499.46 100.855C1530.62 100.803 1556 116.666 1556 136.174C1556 155.682 1530.62 171.547 1499.42 171.547C1497.74 171.547 1496.06 171.495 1494.38 171.415C1494.93 164.939 1492.25 158.357 1486.62 152.746C1480.46 146.531 1471.11 141.865 1460.28 139.61C1456.05 138.717 1451.73 138.299 1447.49 138.299C1430.54 138.299 1414.73 145.011 1409.07 155.579C1406.3 160.795 1406.93 166.354 1410.83 171.284C1414.77 176.188 1421.48 179.857 1429.83 181.589C1443.84 184.525 1459.07 179.779 1463.76 170.996C1467.58 163.811 1461.37 156.024 1449.88 153.637C1446.57 152.956 1443.04 152.876 1439.65 153.401C1438.3 153.612 1437.51 154.477 1437.84 155.316C1438.18 156.155 1439.56 156.653 1440.9 156.443C1443.34 156.05 1445.89 156.102 1448.29 156.6C1457.14 158.435 1461.92 164.44 1458.98 169.973C1455.17 177.104 1442.83 180.959 1431.42 178.573C1424.38 177.104 1418.67 173.985 1415.32 169.843C1412 165.673 1411.46 160.953 1413.81 156.548C1418.76 147.292 1432.6 141.418 1447.45 141.418C1451.18 141.418 1454.95 141.785 1458.65 142.572C1478.49 146.716 1491.28 159.301 1489.18 172.516C1480.75 192.234 1452.06 206 1419.34 206C1388.97 206 1361.63 193.991 1351.31 176.135C1351.06 175.742 1350.6 175.402 1349.97 175.244C1349.34 175.059 1348.62 175.059 1348 175.217C1340.2 177.131 1331.93 178.102 1323.46 178.102C1300.01 178.102 1278.32 170.446 1266.16 157.989C1275.1 155.682 1282.69 151.592 1287.8 146.27C1293.51 140.291 1295.56 133.343 1293.51 126.708C1290.2 115.905 1275.05 108.38 1258.06 108.38C1255.84 108.38 1253.54 108.512 1251.27 108.774C1235.37 110.687 1224.89 120.311 1227.95 130.249C1230.42 138.377 1243.05 143.725 1256.01 142.153C1266.66 140.867 1273.71 134.417 1271.66 127.732C1270.19 122.854 1263.35 119.472 1255.67 119.472C1254.67 119.472 1253.62 119.524 1252.61 119.655C1251.23 119.812 1250.35 120.651 1250.6 121.492C1250.85 122.356 1252.19 122.906 1253.54 122.749C1259.62 122.015 1265.53 124.533 1266.66 128.335C1268.17 133.29 1262.97 138.114 1255 139.059C1244.73 140.291 1234.79 136.069 1232.82 129.646C1230.3 121.412 1238.98 113.415 1252.15 111.841C1268.97 109.823 1285.25 116.744 1288.47 127.259C1292.17 139.268 1280.38 151.749 1261.67 155.656C1257.4 156.39 1252.99 156.758 1248.5 156.758C1232.6 156.758 1218.05 152.195 1208.48 144.251C1208.44 144.223 1208.44 144.198 1208.4 144.198C1205.84 142.284 1203.66 140.239 1201.57 138.246C1194.35 131.481 1186.93 124.48 1163.94 120.888C1150.22 118.738 1137.98 119.76 1129 121.387C1138.23 115.695 1152.53 108.983 1172.08 106.545Z" fill="#FBFFFF" fill-opacity="0.9"/>
</svg>
