<svg width="65" height="64" viewBox="0 0 65 64" fill="none" xmlns="http://www.w3.org/2000/svg">
<path fill-rule="evenodd" clip-rule="evenodd" d="M56.466 32.2506C56.466 45.387 45.8167 56.0363 32.6802 56.0363C19.5438 56.0363 8.89453 45.387 8.89453 32.2506C8.89453 19.1141 19.5438 8.46484 32.6802 8.46484C45.8167 8.46484 56.466 19.1141 56.466 32.2506ZM32.6802 47.4648C31.5757 47.4648 30.6802 46.5694 30.6802 45.4648V34.2506H19.466C18.3614 34.2506 17.466 33.3551 17.466 32.2506C17.466 31.146 18.3614 30.2506 19.466 30.2506H30.6802V19.0363C30.6802 17.9317 31.5757 17.0363 32.6802 17.0363C33.7848 17.0363 34.6802 17.9317 34.6802 19.0363V30.2506H45.8945C46.9991 30.2506 47.8945 31.146 47.8945 32.2506C47.8945 33.3551 46.9991 34.2506 45.8945 34.2506H34.6802V45.4648C34.6802 46.5694 33.7848 47.4648 32.6802 47.4648Z" fill="white"/>
</svg>
