<svg width="22" height="16" viewBox="0 0 22 16" fill="none" xmlns="http://www.w3.org/2000/svg">
<g clip-path="url(#clip0_14_10)">
<mask id="mask0_14_10" style="mask-type:luminance" maskUnits="userSpaceOnUse" x="0" y="0" width="23" height="16">
<path d="M0.0164185 0.00866699H22.0531V15.9897H0.0164185V0.00866699Z" fill="white"/>
</mask>
<g mask="url(#mask0_14_10)">
<path fill-rule="evenodd" clip-rule="evenodd" d="M11.6854 15.6566L17.1158 8.27442L21.7847 1.92773C22.0573 1.55743 22.1003 1.09038 21.9007 0.67321C21.7013 0.256036 21.3162 0.00866699 20.8665 0.00866699H20.7814C20.409 0.00866699 20.0887 0.172968 19.8632 0.479551L17.116 4.21393L11.0354 12.4797L4.95478 4.21393L2.20762 0.479551C1.9821 0.172968 1.6618 0.00866699 1.28943 0.00866699H1.20415C0.754726 0.00866699 0.369459 0.256036 0.169894 0.67321C-0.0296713 1.09038 0.0135303 1.5576 0.285958 1.9279L4.95478 8.27442L10.3854 15.6566C10.545 15.8738 10.7718 15.99 11.0354 15.99C11.299 15.9899 11.5258 15.8736 11.6854 15.6566Z" fill="#2D3436"/>
</g>
</g>
<defs>
<clipPath id="clip0_14_10">
<rect width="22" height="16" fill="white"/>
</clipPath>
</defs>
</svg>
