<svg width="200" height="172" viewBox="0 0 200 172" fill="none" xmlns="http://www.w3.org/2000/svg">
<path d="M146.078 110.057L145.745 111.166L143.052 120.025C142.25 120.416 137.854 122.447 132.042 123.661C126.542 124.796 118.682 125.4 111.49 122.145C111.031 121.932 110.594 121.723 110.141 121.494C116.578 120.416 123.786 118.494 131.693 115.723C136.266 114.104 141.068 112.223 146.078 110.057Z" fill="#C7161C"/>
<path d="M89.8594 121.479C89.4219 121.723 88.9688 121.932 88.5104 122.145C81.3333 125.385 73.4896 124.796 67.9896 123.661C62.1615 122.447 57.7656 120.406 56.9635 120.025L54.2708 111.166L53.9375 110.057C58.9479 112.208 63.75 114.104 68.3229 115.708C76.2135 118.479 83.4219 120.416 89.8594 121.479Z" fill="#C7161C"/>
<mask id="mask0_256_518" style="mask-type:luminance" maskUnits="userSpaceOnUse" x="0" y="72" width="200" height="52">
<path d="M0.192871 72.666H199.807V123.333H0.192871V72.666Z" fill="white"/>
</mask>
<g mask="url(#mask0_256_518)">
<path d="M160.5 73.2539L199.771 81.2227C197.922 82.4154 182.974 92.0352 164.24 101.53C158.032 104.681 152.047 107.499 146.323 109.967L146.11 109.905L146.063 110.072C141.052 112.223 136.25 114.118 131.677 115.723C123.771 118.493 116.563 120.431 110.125 121.493L110.047 121.509L109.745 121.556C106.354 122.098 103.188 122.4 100.25 122.478H99.7503C96.8128 122.415 93.6305 122.113 90.2555 121.556L89.8753 121.493C83.4378 120.415 76.2295 118.493 68.3232 115.723C63.7503 114.118 58.9482 112.238 53.9378 110.072C53.8441 110.046 53.7712 109.999 53.6774 109.967C47.9535 107.499 41.9691 104.681 35.7607 101.53C17.042 92.0352 2.01595 82.3737 0.229492 81.2227L39.5003 73.2539L99.8545 93.9727L99.9951 94.0195L160.5 73.2539Z" fill="#0C0A0A"/>
</g>
<mask id="mask1_256_518" style="mask-type:luminance" maskUnits="userSpaceOnUse" x="50" y="0" width="100" height="85">
<path d="M50 0.0253906H150V84.666H50V0.0253906Z" fill="white"/>
</mask>
<g mask="url(#mask1_256_518)">
<path d="M137.812 11.5827L149.505 65.9577L100.114 84.541L100.005 84.5827L50.4946 65.9577L62.1873 11.5827L99.8696 0.0722656L100.005 0.0253906L137.812 11.5827Z" fill="#0C0A0A"/>
</g>
<path d="M146.125 109.891L146.339 109.953C146.245 109.984 146.172 110.031 146.078 110.057L146.125 109.891Z" fill="black"/>
<path d="M109.76 121.541L110.062 121.494C109.958 121.51 109.854 121.525 109.76 121.541Z" fill="black"/>
<mask id="mask2_256_518" style="mask-type:luminance" maskUnits="userSpaceOnUse" x="14" y="140" width="172" height="32">
<path d="M14 140.666H186V171.702H14V140.666Z" fill="white"/>
</mask>
<g mask="url(#mask2_256_518)">
<path d="M14.604 140.816H185.396V171.702H14.604V140.816Z" fill="#0C0A0A"/>
</g>
<path d="M38.4582 157.224L41.2603 160.646L38.4582 162.677L36.0311 158.948L33.5623 162.677L30.7603 160.646L33.5936 157.224L29.2915 156.01L30.354 152.74L34.5207 154.359L34.2915 149.859H37.7603L37.5311 154.359L41.6509 152.74L42.7134 156.01L38.4582 157.224Z" fill="#C7161C"/>
<path d="M64.0521 157.224L66.8542 160.646L64.0521 162.677L61.6302 158.948L59.1615 162.677L56.3594 160.646L59.1927 157.224L54.8906 156.01L55.9479 152.74L60.1146 154.359L59.8854 149.859H63.3542L63.1302 154.359L67.25 152.74L68.3073 156.01L64.0521 157.224Z" fill="#C7161C"/>
<path d="M89.6458 157.224L92.4479 160.646L89.6458 162.677L87.224 158.948L84.7552 162.677L81.9531 160.646L84.7865 157.224L80.4844 156.01L81.5469 152.74L85.7083 154.359L85.4844 149.859H88.9531L88.724 154.359L92.8438 152.74L93.9063 156.01L89.6458 157.224Z" fill="#C7161C"/>
<path d="M115.245 157.224L118.047 160.646L115.245 162.677L112.823 158.948L110.354 162.677L107.552 160.646L110.38 157.224L106.083 156.01L107.141 152.74L111.307 154.359L111.078 149.859H114.547L114.318 154.359L118.438 152.74L119.5 156.01L115.245 157.224Z" fill="#C7161C"/>
<path d="M140.839 157.224L143.641 160.646L140.839 162.677L138.417 158.948L135.948 162.677L133.146 160.646L135.979 157.224L131.677 156.01L132.735 152.74L136.901 154.359L136.677 149.859H140.141L139.917 154.359L144.037 152.74L145.094 156.01L140.839 157.224Z" fill="#C7161C"/>
<path d="M166.438 157.224L169.24 160.646L166.438 162.677L164.011 158.948L161.542 162.677L158.74 160.646L161.573 157.224L157.271 156.01L158.333 152.74L162.5 154.359L162.271 149.859H165.74L165.511 154.359L169.63 152.74L170.693 156.01L166.438 157.224Z" fill="#C7161C"/>
</svg>
