<svg width="777" height="179" viewBox="0 0 777 179" fill="none" xmlns="http://www.w3.org/2000/svg">
<path opacity="0.7" fill-rule="evenodd" clip-rule="evenodd" d="M777 44.4054C766.919 43.2297 756.266 42.6047 745.253 42.6167C730.745 42.6167 716.569 43.7045 703.232 45.8472C702.981 48.058 702.224 50.7787 700.364 53.0577C692.011 63.4986 664.166 69.2125 638.262 65.8457C627.968 64.5183 619.615 61.6285 614.719 57.7519C609.823 53.8729 608.983 49.4536 612.271 45.3021C616.911 39.6235 629.991 35.9842 644.085 35.9842C647.542 35.9842 651.004 36.1886 654.379 36.6303C668.893 38.5357 676.908 44.8604 672.181 50.7106C671.254 51.7984 668.468 52.3763 665.769 52.038C663.07 51.6621 661.636 50.5414 662.476 49.4536C665.518 45.7109 660.366 41.6981 651.173 40.5069C639.02 38.9093 625.858 41.597 621.889 46.5285C619.446 49.6228 620.035 52.9214 623.748 55.8465C627.374 58.7715 633.704 60.9142 641.381 61.9339C661.974 64.6217 684.078 60.0637 690.746 51.7655C692.518 49.5194 693.107 46.5967 693.107 44.656C681.467 18.7745 625.689 5.30481e-06 560.294 5.30481e-06C504.854 5.30481e-06 454.224 14.0121 434.312 34.8964C433.385 35.8832 430.768 36.393 428.238 36.1205C416.254 34.7249 403.85 34.0459 391.276 34.0459C363.012 34.0459 335.924 37.5137 312.97 44.1133C311.116 44.656 308.499 44.5879 306.727 43.977C288.418 37.5489 264.956 34.0107 240.655 34.0107C210.7 34.0107 182.436 39.351 163.276 48.6712C162.18 49.2492 160.326 49.5194 158.554 49.3855C133.07 47.6163 104.718 48.535 86.6595 49.9963C47.3371 53.1587 18.5653 61.8658 6.79493e-06 69.2477C18.0582 67.1379 42.6973 65.8128 70.2917 68.6016C116.431 73.2503 131.401 82.3011 145.885 91.0583L145.981 91.1164C150.201 93.7008 154.585 96.3534 159.732 98.8367C159.787 98.8367 159.808 98.8501 159.836 98.8689C159.852 98.8796 159.871 98.8921 159.901 98.9049C179.142 109.21 208.421 115.128 240.405 115.128C249.434 115.128 258.294 114.651 266.898 113.699C304.535 108.632 328.242 92.4415 320.816 76.8647C314.322 63.2261 281.581 54.2488 247.743 56.8661C221.251 58.9078 203.781 69.2806 208.847 79.9612C212.81 88.2924 232.81 93.769 253.479 92.1713C269.515 90.9449 279.978 84.6883 276.941 78.2602C274.662 73.3287 262.765 70.063 250.53 71.0145C247.831 71.2189 245.126 70.5047 244.619 69.384C244.118 68.2939 245.89 67.2061 248.67 67.0017C250.699 66.8325 252.809 66.7644 254.831 66.7644C270.272 66.7644 284.029 71.1508 286.984 77.4779C291.117 86.1497 276.941 94.5161 255.508 96.1842C229.435 98.2235 204.032 91.2856 199.054 80.7436C192.899 67.8522 213.994 55.3695 245.971 52.8885C250.53 52.5478 255.17 52.3763 259.64 52.3763C293.816 52.3763 324.278 62.1383 330.946 76.1504C335.079 84.7565 330.947 93.769 319.469 101.524C309.175 108.427 293.903 113.732 275.927 116.725C300.397 132.883 344.021 142.814 391.195 142.814C408.239 142.814 424.863 141.554 440.555 139.071C441.82 138.867 443.253 138.867 444.518 139.106C445.789 139.311 446.716 139.752 447.223 140.262C467.98 163.423 522.994 179 584.088 179C649.903 179 707.621 161.144 724.584 135.568C728.804 118.426 703.063 102.102 663.152 96.7269C655.726 95.7073 648.131 95.2303 640.623 95.2303C610.755 95.2303 582.904 102.85 572.948 114.855C568.227 120.569 569.323 126.692 575.985 132.1C582.735 137.473 594.213 141.519 608.389 143.425C631.343 146.519 656.151 141.519 663.828 132.269C669.733 125.092 660.115 117.303 642.313 114.923C637.499 114.277 632.352 114.209 627.461 114.719C624.762 114.992 621.976 114.345 621.3 113.258C620.624 112.17 622.227 111.047 624.931 110.774C631.763 110.093 638.851 110.196 645.519 111.08C668.637 114.176 681.129 124.277 673.446 133.597C663.997 144.989 633.366 151.145 605.183 147.336C588.389 145.09 574.889 140.33 566.956 133.97C559.11 127.575 557.845 120.365 563.412 113.598C574.808 99.8916 606.617 91.1846 640.71 91.1846C649.232 91.1846 657.923 91.7273 666.445 92.8856C688.217 95.8106 707.033 101.863 719.437 109.924C730.745 117.202 736.143 125.74 735.047 134.14C738.422 134.243 741.797 134.311 745.172 134.311C756.215 134.311 766.896 133.674 777 132.487V44.4054Z" fill="#FBFFFF"/>
</svg>
