<svg width="113" height="122" viewBox="0 0 113 122" fill="none" xmlns="http://www.w3.org/2000/svg">
<path d="M57.7675 120.952C57.4573 120.947 57.1524 120.919 56.8494 120.865C56.5482 120.812 56.2561 120.734 55.9713 120.635C55.6882 120.535 55.4197 120.414 55.1657 120.272C54.9117 120.129 54.6776 119.968 54.4635 119.789C54.2476 119.609 54.0571 119.415 53.8902 119.204C53.7233 118.995 53.5836 118.774 53.4692 118.541C53.3568 118.31 53.2715 118.07 53.217 117.826C53.1626 117.58 53.1372 117.333 53.1427 117.083L49.8695 65.3729L38.5986 72.0224C36.6899 73.1402 35.3617 73.7488 33.776 73.7488C33.3496 73.7444 32.9323 73.6932 32.5241 73.5967C32.1158 73.5001 31.7294 73.3611 31.3683 73.1797C31.0054 72.9983 30.6806 72.7818 30.3922 72.5286C30.1037 72.277 29.8624 71.9976 29.6682 71.6918C28.2911 69.4255 30.1345 67.5075 31.479 66.1059L39.7997 57.3847L5.18317 54.9355C4.83118 54.9121 4.49007 54.8551 4.15623 54.7629C3.86774 54.6854 3.59377 54.5844 3.33069 54.463C3.0676 54.3401 2.82084 54.1982 2.59223 54.0372C2.36362 53.8763 2.15678 53.6993 1.97172 53.5062C1.78483 53.313 1.62517 53.1067 1.48909 52.8873C1.35301 52.6678 1.24415 52.4411 1.16432 52.2055C1.08267 51.9685 1.03187 51.7286 1.00828 51.4842C0.986507 51.2414 0.993765 50.997 1.03005 50.7542C1.06634 50.5113 1.13166 50.2728 1.22601 50.0402C1.4655 49.4916 1.83927 49.0102 2.34548 48.5962C2.8535 48.1807 3.44499 47.8734 4.12175 47.673C4.47012 47.5764 4.82755 47.515 5.19405 47.4887L39.3842 45.1536L33.4966 38.4075C31.6913 36.3329 29.6464 33.9848 31.1832 31.5956C31.3828 31.2898 31.6296 31.0089 31.9253 30.7573C32.2192 30.5056 32.5513 30.2891 32.9196 30.1106C33.2879 29.9321 33.6798 29.7975 34.0935 29.7068C34.509 29.6147 34.9299 29.5708 35.3599 29.5722C37.0527 29.5722 38.6494 30.2057 41.6903 32.0843L50.2161 37.3381L53.6271 3.87825C53.638 3.7773 53.6543 3.67489 53.6761 3.57394C53.7233 3.35887 53.794 3.14819 53.8866 2.94191C53.9809 2.73708 54.0952 2.53957 54.2313 2.34937C54.3692 2.16064 54.5234 1.98215 54.6994 1.81536C54.8754 1.64711 55.0677 1.49496 55.2764 1.3545C55.485 1.21405 55.7082 1.09116 55.9441 0.98289C56.1799 0.874625 56.4249 0.783916 56.6807 0.710764C56.9365 0.637612 57.1996 0.582016 57.4663 0.546903C57.7349 0.510327 58.0052 0.494234 58.2755 0.495697C59.9321 0.495697 62.7589 1.36474 62.9494 4.62294L65.573 37.3688L76.6062 31.0455C77.2195 30.6227 77.8981 30.2877 78.6438 30.0419C79.3895 29.7946 80.1642 29.6483 80.968 29.6029C81.3817 29.6088 81.7881 29.6571 82.1872 29.7463C82.5846 29.837 82.962 29.9672 83.3194 30.1355C83.675 30.3052 83.9998 30.5071 84.2919 30.7441C84.584 30.9811 84.8326 31.243 85.0413 31.5327C86.4837 33.6644 84.887 35.6687 84.0325 36.7455C81.7826 39.5882 79.375 42.3607 76.8258 45.0483L108.343 47.5369C108.71 47.5647 109.065 47.6306 109.41 47.7315C109.846 47.8617 110.248 48.0417 110.617 48.2699C110.985 48.4996 111.303 48.7674 111.571 49.0731C111.838 49.3804 112.043 49.711 112.186 50.068C112.33 50.425 112.404 50.7907 112.409 51.1653L112.386 51.7242C112.377 51.9597 112.339 52.1938 112.275 52.4235C112.212 52.6532 112.121 52.877 112.005 53.0936C111.887 53.3101 111.747 53.5149 111.582 53.7095C111.417 53.9056 111.23 54.0855 111.023 54.2523C110.816 54.4191 110.591 54.5683 110.348 54.7C110.105 54.8317 109.851 54.9443 109.581 55.038C109.312 55.1301 109.035 55.2018 108.75 55.253C108.463 55.3028 108.175 55.332 107.882 55.3379L75.9385 57.4988C78.475 60.3166 80.8863 63.2047 83.1489 66.1395C84.0125 67.2558 85.6182 69.3407 84.1558 71.4606C83.949 71.7459 83.6986 72.0049 83.4083 72.239C83.118 72.473 82.7951 72.6735 82.4413 72.8417C82.0856 73.0085 81.7101 73.1373 81.3145 73.2265C80.9208 73.3158 80.5162 73.364 80.1062 73.3699C79.2516 73.3172 78.4297 73.1519 77.644 72.8754C76.8584 72.5989 76.1508 72.2243 75.5212 71.7532L65.3861 65.5689C63.5155 82.5856 62.503 99.8334 62.3778 116.894C62.4014 117.131 62.396 117.367 62.3633 117.602C62.3307 117.839 62.2708 118.07 62.1837 118.297C62.0966 118.524 61.9859 118.742 61.8481 118.951C61.7102 119.16 61.5487 119.358 61.3654 119.544C61.1804 119.728 60.9771 119.898 60.7522 120.051C60.529 120.206 60.2895 120.342 60.0337 120.459C59.7778 120.576 59.5111 120.674 59.2335 120.751C58.9559 120.828 58.6711 120.884 58.379 120.916C58.379 120.916 57.9871 120.948 57.9145 120.95C57.8655 120.952 57.8147 120.952 57.7675 120.952Z" fill="#EE7700"/>
<path d="M107.904 51.1082L68.6829 48.008C68.5813 48.0007 68.5105 47.9583 68.4724 47.8822C68.4343 47.8047 68.4488 47.7359 68.516 47.673C72.7997 43.6028 76.726 39.319 80.2967 34.8231C81.7646 32.9796 81.389 32.6944 79.1736 33.9672L62.6573 43.4346C62.5557 43.4931 62.4432 43.5253 62.3199 43.534C62.1947 43.5428 62.0767 43.5253 61.9642 43.4814C61.8536 43.4375 61.7628 43.3746 61.6921 43.2912C61.6231 43.2078 61.585 43.1156 61.5778 43.0147L58.5242 4.79558C58.4988 4.38885 58.3972 4.06991 58.2956 4.07576H58.2738C58.1359 4.07576 58.0597 4.10941 58.047 4.17671L54.0354 43.5355C53.9937 43.9481 53.7651 44.0271 53.3514 43.7696L38.9978 34.9226C34.5109 32.153 33.8885 32.6271 37.129 36.3447L47.1408 47.8193C47.3639 48.0651 47.2877 48.2012 46.914 48.226L5.56969 51.0585C5.50256 51.076 5.45902 51.1111 5.43724 51.1653C5.4191 51.2092 5.42273 51.2516 5.44813 51.294C5.47353 51.335 5.51526 51.3628 5.56969 51.3774L47.2859 54.3211C47.3911 54.3313 47.4837 54.3635 47.5671 54.4162C47.6234 54.4498 47.6687 54.4908 47.7032 54.5405C47.7377 54.5888 47.7595 54.64 47.7685 54.6971C47.7776 54.7527 47.7722 54.8068 47.7522 54.8609C47.7341 54.9151 47.7032 54.9648 47.6597 55.0087L34.9862 68.3004C32.8942 70.4789 33.2263 70.7584 35.9823 69.1373L53.081 59.0511C53.1609 59.0043 53.2498 58.9779 53.3496 58.9721C53.4203 58.9662 53.4893 58.9735 53.5582 58.9911C53.6272 59.0087 53.6889 59.035 53.7433 59.073C53.7977 59.1096 53.8413 59.155 53.8739 59.2062C53.9084 59.2574 53.9265 59.3115 53.932 59.37L57.568 116.859C57.5952 117.216 57.6642 117.39 57.7748 117.378H57.7966C57.8928 117.378 57.9418 117.209 57.9418 116.871C58.0797 97.9695 59.279 79.1153 61.536 60.3078C61.6612 59.3364 62.2074 59.1462 63.1726 59.7387L78.1939 68.9032C80.5344 70.3326 80.9299 70.0429 79.3787 68.0312C76.071 63.7445 72.4895 59.6114 68.6375 55.6334C68.5196 55.5134 68.4506 55.3774 68.4289 55.2267C68.4162 55.1228 68.4289 55.0204 68.4652 54.9209C68.5033 54.82 68.5631 54.7293 68.6448 54.6488C68.7264 54.5683 68.8244 54.5025 68.9387 54.4527C69.0512 54.403 69.1728 54.3737 69.3016 54.362L107.61 51.7827C107.832 51.771 107.942 51.7095 107.942 51.5969L107.964 51.1784C107.968 51.1419 107.948 51.1185 107.904 51.1082Z" fill="#FFD53F"/>
<mask id="mask0_1_23" style="mask-type:luminance" maskUnits="userSpaceOnUse" x="0" y="0" width="113" height="122">
<path d="M0 0H112.99V121.351H0V0Z" fill="white"/>
</mask>
<g mask="url(#mask0_1_23)">
<path d="M57.7649 121.397C57.4202 121.393 57.0809 121.362 56.7434 121.304C56.4059 121.245 56.0794 121.162 55.7637 121.052C55.4479 120.941 55.1468 120.808 54.8637 120.65C54.5807 120.493 54.3176 120.315 54.0781 120.116C53.8386 119.917 53.6245 119.7 53.4358 119.468C53.2489 119.235 53.0911 118.989 52.9622 118.732C52.8352 118.474 52.7391 118.208 52.6774 117.934C52.6139 117.662 52.583 117.387 52.5885 117.109L49.3716 66.2216L38.928 72.381C36.9304 73.5558 35.517 74.1937 33.7806 74.1937C33.3016 74.1893 32.8335 74.1352 32.3745 74.0269C31.9154 73.9201 31.4818 73.765 31.0754 73.5631C30.669 73.3598 30.3043 73.1169 29.9795 72.8331C29.6565 72.5493 29.3862 72.2362 29.1685 71.8923C27.6408 69.3774 29.6856 67.2443 31.0391 65.8354L38.7411 57.7593L5.13339 55.3819C4.73786 55.3541 4.35321 55.2883 3.97763 55.1873C3.65648 55.0995 3.34804 54.9869 3.0523 54.8508C2.75837 54.7133 2.48258 54.5553 2.22675 54.3753C1.97093 54.1954 1.73869 53.9964 1.53185 53.7799C1.32319 53.5633 1.14357 53.3322 0.991161 53.0864C0.838754 52.8421 0.71719 52.5875 0.628285 52.3227C0.537567 52.0593 0.479506 51.7901 0.454105 51.5165C0.428704 51.243 0.437775 50.9708 0.477692 50.6987C0.519423 50.4266 0.591998 50.1603 0.697232 49.8999C0.829681 49.5956 1.00023 49.3059 1.2107 49.0323C1.42298 48.7587 1.66793 48.5071 1.94915 48.2788C2.23038 48.0491 2.53883 47.8472 2.87449 47.6731C3.21196 47.499 3.56758 47.3586 3.94316 47.2488C4.33506 47.142 4.73604 47.0733 5.1479 47.0455L38.3765 44.769L33.0458 38.6579C31.2423 36.5877 28.9979 34.0142 30.6926 31.3836C30.9157 31.0413 31.1915 30.7282 31.5217 30.4458C31.8501 30.1634 32.2203 29.922 32.6321 29.7231C33.044 29.5226 33.4831 29.3719 33.9457 29.2695C34.4084 29.1671 34.882 29.1159 35.361 29.1188C37.1917 29.1188 38.8754 29.7757 42.0288 31.723L49.7472 36.4794L53.0747 3.84035C53.0856 3.72331 53.1038 3.60626 53.1274 3.49361C53.1818 3.25221 53.2598 3.01519 53.365 2.7855C53.4685 2.5558 53.5973 2.33488 53.7497 2.12274C53.9021 1.9106 54.0763 1.71162 54.274 1.52435C54.47 1.33708 54.6841 1.16591 54.9182 1.00936C55.1522 0.852816 55.4008 0.713827 55.6657 0.592395C55.9288 0.470962 56.2045 0.370012 56.4912 0.288082C56.7779 0.204688 57.07 0.144703 57.3694 0.103738C57.6688 0.0627728 57.9718 0.0437531 58.2748 0.0466794C60.1218 0.0466794 63.297 1.00497 63.5056 4.59967L66.0603 36.5408L76.2825 30.6828C76.9411 30.2322 77.6723 29.8752 78.4724 29.6148C79.2744 29.3544 80.1054 29.2022 80.9672 29.1598C81.4317 29.1627 81.8871 29.2154 82.3352 29.3163C82.7816 29.4158 83.2061 29.5607 83.6071 29.7508C84.0063 29.941 84.3692 30.1693 84.6957 30.4356C85.0223 30.7018 85.2999 30.9988 85.5304 31.3236C87.1306 33.6879 85.3526 35.9205 84.4998 36.9915C82.426 39.6044 80.1979 42.1896 77.8646 44.6871L108.397 47.0982C108.809 47.1289 109.21 47.202 109.6 47.3176C110.09 47.4639 110.54 47.6658 110.953 47.9218C111.367 48.1793 111.723 48.4793 112.024 48.8231C112.323 49.1669 112.554 49.54 112.713 49.9394C112.875 50.3403 112.957 50.7499 112.962 51.1713L112.938 51.7462C112.929 52.0096 112.888 52.27 112.815 52.5275C112.744 52.7835 112.643 53.0337 112.514 53.2751C112.383 53.518 112.227 53.7477 112.042 53.9657C111.859 54.1837 111.65 54.3856 111.42 54.5714C111.188 54.7572 110.937 54.9254 110.667 55.0732C110.396 55.221 110.11 55.3468 109.81 55.4521C109.511 55.556 109.201 55.6365 108.881 55.6935C108.562 55.7506 108.239 55.7842 107.913 55.7916L76.9611 57.8779C79.2853 60.4909 81.5224 63.1858 83.6198 65.9012C84.4762 67.0175 86.2634 69.3262 84.6431 71.6744C84.4127 71.9948 84.1351 72.2874 83.8103 72.5493C83.4856 72.8126 83.1245 73.0379 82.7271 73.2252C82.3298 73.4125 81.9089 73.5573 81.4662 73.6568C81.0234 73.7563 80.5717 73.8089 80.1108 73.8133C79.1927 73.7636 78.3128 73.5924 77.4691 73.2998C76.6236 73.0072 75.8652 72.6092 75.1884 72.106L65.8498 66.4089C64.0354 83.1578 63.0538 100.138 62.9323 116.894C62.9559 117.157 62.9486 117.421 62.9123 117.683C62.8742 117.945 62.8071 118.202 62.7091 118.454C62.6111 118.707 62.4859 118.948 62.3299 119.181C62.1757 119.415 61.996 119.633 61.791 119.839C61.5842 120.044 61.3574 120.233 61.107 120.402C60.8566 120.574 60.5899 120.724 60.305 120.853C60.0202 120.983 59.7226 121.09 59.4124 121.175C59.1021 121.26 58.7846 121.32 58.4598 121.356C58.438 121.356 58.0135 121.393 57.9337 121.394L57.7649 121.397ZM49.8742 64.9239C49.9576 64.9239 50.0357 64.9385 50.1119 64.9678C50.3114 65.0438 50.4167 65.1711 50.4257 65.3482L53.6989 117.058C53.6934 117.279 53.7134 117.498 53.7606 117.715C53.8078 117.933 53.8803 118.145 53.9801 118.351C54.0781 118.556 54.2015 118.754 54.3484 118.939C54.4954 119.127 54.6623 119.299 54.851 119.459C55.0415 119.618 55.2466 119.763 55.4715 119.889C55.6947 120.016 55.9324 120.125 56.1828 120.215C56.4332 120.304 56.6908 120.373 56.9593 120.422C57.226 120.47 57.4964 120.498 57.7704 120.502H57.8955C57.9808 120.502 58.3274 120.471 58.3292 120.471C58.5868 120.439 58.8372 120.389 59.0822 120.319C59.3271 120.25 59.563 120.163 59.7879 120.057C60.0111 119.952 60.2216 119.83 60.4193 119.693C60.6153 119.555 60.7931 119.405 60.9546 119.239C61.1161 119.076 61.2558 118.9 61.3755 118.714C61.4971 118.528 61.5933 118.335 61.6695 118.135C61.7438 117.933 61.7947 117.73 61.8219 117.52C61.8491 117.313 61.8509 117.103 61.8291 116.894C61.9543 99.8438 62.9631 82.5623 64.8392 65.5281C64.861 65.3555 64.9698 65.234 65.1658 65.1624C65.3635 65.0921 65.5486 65.1082 65.721 65.2121L75.8561 71.3978C76.4385 71.8368 77.0953 72.1864 77.8247 72.4468C78.5523 72.7073 79.3143 72.8653 80.109 72.9209C80.4701 72.915 80.8239 72.8726 81.1722 72.7936C81.5188 72.7146 81.849 72.6019 82.1611 72.4556C82.4731 72.3079 82.758 72.1323 83.0138 71.926C83.2715 71.7212 83.491 71.4929 83.6743 71.2428C84.9752 69.354 83.5382 67.4842 82.6782 66.3767C80.4247 63.4521 78.0061 60.5538 75.4896 57.7593C75.3608 57.6189 75.3408 57.4682 75.4315 57.3087C75.5222 57.1493 75.6747 57.0629 75.8924 57.0483L107.831 54.8976C108.089 54.8932 108.344 54.8684 108.597 54.8259C108.849 54.7821 109.094 54.7206 109.331 54.6387C109.569 54.5582 109.796 54.4602 110.01 54.3446C110.226 54.229 110.424 54.0988 110.609 53.9525C110.792 53.8062 110.957 53.6482 111.104 53.477C111.251 53.3058 111.376 53.1244 111.481 52.9342C111.585 52.744 111.667 52.548 111.725 52.3446C111.783 52.1413 111.815 51.9364 111.826 51.7287L111.85 51.1537C111.844 50.826 111.777 50.507 111.652 50.1954C111.525 49.8838 111.344 49.5941 111.109 49.3264C110.875 49.0586 110.596 48.826 110.273 48.6256C109.952 48.4266 109.6 48.2701 109.219 48.1559C108.918 48.0667 108.606 48.0111 108.286 47.9862L76.7651 45.499C76.5492 45.483 76.3968 45.3937 76.3115 45.2328C76.2226 45.0718 76.2462 44.9226 76.3786 44.7836C78.9097 42.1092 81.3264 39.325 83.5545 36.5101C84.4073 35.4406 85.8334 33.6513 84.547 31.7523C84.3655 31.4992 84.1442 31.268 83.8884 31.0603C83.6325 30.8525 83.3477 30.674 83.0338 30.5263C82.7199 30.377 82.3879 30.2629 82.0377 30.1824C81.6893 30.102 81.3319 30.0595 80.9672 30.0537C80.2215 30.102 79.5048 30.2424 78.8135 30.4751C78.1223 30.7062 77.4945 31.0193 76.9266 31.4129L65.8879 37.7347C65.7101 37.84 65.5232 37.8532 65.3236 37.7786C65.1259 37.7025 65.0206 37.5767 65.0079 37.3996L62.388 4.64941C62.1775 1.04301 58.6685 0.940599 58.2693 0.940599C58.0298 0.939136 57.7921 0.952303 57.5563 0.98449C57.3204 1.01521 57.09 1.06349 56.865 1.12787C56.6382 1.19078 56.4223 1.27125 56.2136 1.36634C56.005 1.45998 55.809 1.56971 55.6258 1.6926C55.4407 1.8155 55.2701 1.9501 55.1159 2.0964C54.9617 2.24271 54.8238 2.39925 54.7022 2.56604C54.5825 2.73283 54.4809 2.90693 54.3974 3.08688C54.314 3.2683 54.2523 3.45411 54.2087 3.64284C54.1906 3.73209 54.1761 3.82572 54.167 3.91497L50.7705 37.366C50.7523 37.5416 50.6417 37.6659 50.4421 37.7376C50.2407 37.8122 50.0538 37.7932 49.8814 37.6835L41.3539 32.4297C38.4236 30.6214 36.9122 30.0098 35.361 30.0098C34.9836 30.0083 34.6098 30.0478 34.2451 30.1283C33.8786 30.2088 33.5339 30.3273 33.2091 30.4853C32.8843 30.6418 32.5904 30.832 32.3309 31.0544C32.0715 31.2768 31.8519 31.5226 31.6759 31.7933C30.2916 33.941 32.1531 36.0741 33.9512 38.1399L39.837 44.8875C39.9604 45.0279 39.9785 45.1772 39.8878 45.3337C39.7971 45.4903 39.6447 45.5751 39.4306 45.5883L5.24044 47.9248C4.91929 47.9482 4.60722 48.0009 4.3024 48.0857C3.70729 48.2642 3.18475 48.5349 2.73841 48.8992C2.29207 49.2649 1.96367 49.6877 1.74957 50.1705C1.66611 50.3754 1.60805 50.586 1.57721 50.7997C1.54455 51.0147 1.53729 51.2283 1.55725 51.4434C1.57721 51.6599 1.62257 51.8706 1.69333 52.0784C1.76409 52.2876 1.85843 52.488 1.97818 52.6811C2.09793 52.8742 2.23945 53.0557 2.40456 53.2268C2.56786 53.3966 2.75111 53.5531 2.95251 53.695C3.1539 53.8369 3.37163 53.9613 3.60387 54.0696C3.83429 54.1764 4.07742 54.2656 4.33143 54.3344C4.62355 54.4148 4.92292 54.466 5.22955 54.4865L39.8461 56.9327C40.0656 56.9474 40.218 57.0366 40.307 57.1975C40.394 57.3599 40.3723 57.5106 40.238 57.6511L31.9191 66.3723C30.5891 67.7563 28.9399 69.4769 30.1646 71.4915C30.3369 71.7592 30.551 72.0035 30.805 72.2259C31.0591 72.4468 31.3457 72.637 31.6651 72.7965C31.9826 72.956 32.3219 73.0774 32.6811 73.1637C33.0404 73.2486 33.4087 73.2939 33.7824 73.2983C35.2176 73.2983 36.4677 72.7234 38.2785 71.6583L49.5494 65.0087C49.6456 64.9531 49.7544 64.9239 49.8742 64.9239Z" fill="#FF7403"/>
</g>
<path d="M57.797 117.821C57.6373 117.815 57.4922 117.776 57.3615 117.701C57.1021 117.467 56.9878 117.195 57.0168 116.882L53.3808 59.3871L36.3129 69.4953C34.4042 70.6131 33.7238 70.8267 33.2702 70.4507C32.8166 70.0747 33.1033 69.5289 34.5493 68.0205L47.221 54.7317L5.52288 51.8173C5.27068 51.7808 5.08199 51.674 4.95861 51.494C4.90781 51.415 4.88059 51.3301 4.87515 51.2409C4.86971 51.1516 4.88785 51.0653 4.92958 50.9819C4.97131 50.9 5.03119 50.8283 5.11283 50.7669C5.19267 50.7054 5.2852 50.6601 5.39043 50.6308L46.4462 47.8042L36.6794 36.6002C34.4133 33.9931 34.2608 33.2791 34.7906 32.8738C35.3223 32.4686 36.1986 32.6207 39.3465 34.5622L53.5078 43.2892L57.4958 4.13529C57.5067 4.08262 57.5248 4.03141 57.552 3.98313C57.5774 3.93485 57.6119 3.89096 57.6536 3.84999C57.6936 3.80757 57.7407 3.77245 57.7933 3.74027C57.8478 3.70954 57.904 3.68321 57.9657 3.66419C58.0256 3.64517 58.0891 3.632 58.1544 3.62615C58.2197 3.6203 58.285 3.6203 58.3485 3.62908C58.4139 3.63639 58.4774 3.64956 58.5372 3.6715C58.5971 3.69199 58.6534 3.71832 58.706 3.75051C58.7876 3.80757 59.0344 3.98606 59.0834 4.76586L62.137 42.9805C62.137 43.0405 62.1714 43.0815 62.2767 43.0815L78.8583 33.5966C80.1755 32.8402 80.9847 32.5052 81.5018 32.8958C82.0189 33.2879 81.6379 33.9609 80.7634 35.0596C77.2834 39.4414 73.4641 43.6228 69.3074 47.6038L107.959 50.6586C107.997 50.663 108.035 50.6688 108.072 50.6791C108.199 50.72 108.302 50.7844 108.382 50.8737C108.464 50.9614 108.509 51.0609 108.522 51.1707L108.502 51.6081C108.496 51.6944 108.471 51.7764 108.424 51.8554C108.376 51.9329 108.313 52.0002 108.233 52.0587C108.153 52.1158 108.061 52.1582 107.959 52.186C107.858 52.2138 107.752 52.2241 107.645 52.2167L69.3546 54.8005C69.2403 54.8107 69.1477 54.8531 69.077 54.9248C69.0044 54.998 68.9754 55.0799 68.9863 55.1721C68.9971 55.2394 69.0262 55.2994 69.077 55.352C72.9416 59.3447 76.5341 63.491 79.8544 67.7908C80.9067 69.1559 81.1009 69.7323 80.6237 70.0849C80.1483 70.436 79.4516 70.2239 77.864 69.2553L62.8446 60.0894C62.4345 59.8392 62.2694 59.848 62.2531 59.8451C62.1479 60.0016 62.0934 60.1698 62.0898 60.3483C59.8454 79.0533 58.637 98.0729 58.4991 116.879C58.4991 117.131 58.4991 117.821 57.797 117.821ZM53.3917 58.5166C53.5296 58.5166 53.662 58.5356 53.7908 58.5766C53.9178 58.6176 54.034 58.6746 54.1356 58.7507C54.2372 58.8253 54.317 58.9131 54.3787 59.0126C54.4386 59.1121 54.4748 59.2174 54.4857 59.3286L57.543 107.649C57.9494 91.8403 59.1051 75.94 60.9848 60.2591C61.0193 60.0133 61.1118 59.2686 61.8213 59.0214C62.1225 58.9584 62.4236 58.9599 62.7248 59.0228C63.026 59.0857 63.2891 59.2042 63.5141 59.3769L78.5335 68.5414C78.9526 68.7989 79.2665 68.9715 79.5006 69.09C79.3754 68.8867 79.1903 68.6218 78.9127 68.2619C75.616 63.9913 72.0489 59.8714 68.2097 55.9036C68.0265 55.7163 67.9194 55.5027 67.8886 55.2657C67.8686 55.1019 67.8867 54.9424 67.9448 54.7844C68.0029 54.6278 68.0954 54.4859 68.2242 54.3586C68.3512 54.2314 68.5054 54.1289 68.6851 54.0514C68.8629 53.9739 69.0534 53.9256 69.2566 53.9095L106.214 51.4194L68.6288 48.4494C68.4782 48.4377 68.3422 48.3953 68.2206 48.3221C68.099 48.249 68.0119 48.1553 67.9557 48.0412C67.8994 47.9271 67.8849 47.8101 67.9121 47.6901C67.9394 47.5687 68.0029 47.4633 68.1027 47.3726C72.3664 43.3185 76.2764 39.0523 79.8308 34.5768C80.0721 34.2725 80.2372 34.0443 80.3533 33.8658C80.1411 33.9682 79.8616 34.116 79.497 34.3266L62.9807 43.794C62.7883 43.9037 62.5761 43.9637 62.342 43.9769C62.1769 43.9857 62.0172 43.9681 61.8612 43.9257C61.7052 43.8818 61.5654 43.8159 61.4403 43.7282C61.3169 43.6404 61.2189 43.5365 61.1481 43.4165C61.0756 43.2966 61.0356 43.1707 61.0266 43.0376L58.2215 7.92603L54.591 43.5702C54.6 43.7238 54.5565 43.8672 54.4603 44.0018C54.366 44.1349 54.2335 44.2373 54.0648 44.309C53.8815 44.3617 53.6965 44.3719 53.506 44.3383C53.3173 44.3046 53.1522 44.2329 53.0143 44.1217L38.6607 35.2747C37.7572 34.6778 36.7919 34.154 35.765 33.7049C36.2784 34.5461 36.8844 35.3405 37.583 36.0896L47.5965 47.5643C47.7145 47.6608 47.7889 47.7764 47.8179 47.9095C47.8469 48.0441 47.8251 48.1729 47.7544 48.2958C47.6818 48.4201 47.5729 48.5152 47.426 48.584C47.2808 48.6513 47.123 48.6791 46.9542 48.6674L9.66511 51.2219L47.3371 53.8758C47.5494 53.8934 47.7399 53.9548 47.9086 54.0602C48.1535 54.2123 48.2914 54.4113 48.3241 54.6586C48.3568 54.897 48.2787 55.1063 48.09 55.2906L35.4275 68.5677C35.159 68.8472 34.9485 69.0754 34.7834 69.2671C35.0193 69.1383 35.3096 68.9788 35.6652 68.7725L52.7603 58.6849C52.9236 58.5912 53.1068 58.5356 53.3064 58.521C53.3318 58.5195 53.3626 58.5166 53.3917 58.5166Z" fill="#FF7403"/>
</svg>
