<svg width="95" height="108" viewBox="0 0 95 108" fill="none" xmlns="http://www.w3.org/2000/svg">
<g clip-path="url(#clip0_32_7)">
<path d="M70.7724 107.249C66.8715 107.249 63.1967 106.431 59.8501 104.818C58.395 104.116 56.9347 103.353 55.5224 102.614C54.6958 102.182 53.8691 101.75 53.0382 101.328C52.7283 101.17 52.4158 101.052 52.0841 100.927C51.9349 100.871 51.7812 100.814 51.6241 100.751L51.1641 100.566L50.6308 101.809C50.0547 103.172 49.0736 103.863 47.7145 103.863C47.4884 103.863 47.2492 103.844 47.0022 103.807C45.7505 103.615 44.5713 103.035 43.2916 101.98C41.4699 100.479 39.787 98.6103 37.8344 95.9175C37.1701 95.0019 36.5006 94.0888 35.8311 93.1767C34.6405 91.5522 33.4089 89.8737 32.2279 88.2039C30.3058 85.4857 27.9543 83.0295 25.0389 80.6954C23.9574 79.8295 22.9448 78.8222 22.0117 77.8629C21.1083 76.9359 20.5139 75.8649 20.2433 74.6795C19.9203 73.2628 18.7402 72.5767 17.8795 72.0766C14.6857 70.2208 11.2055 68.7439 7.53678 67.6878C5.63914 67.1413 3.60621 66.6045 1.45806 66.5644C1.10541 66.5582 1.04082 66.4893 1.04082 66.4893C1.04082 66.4893 1.02336 66.4579 1.02773 66.3645C1.03471 66.2423 1.0382 66.1812 1.52265 66.1759H1.62739C3.37053 66.1759 5.04297 66.5862 6.74508 67.0436C10.6285 68.0858 14.3208 69.5863 17.7206 71.5048C18.0698 71.7012 18.4259 71.8741 18.7795 72.0172C18.9462 72.0844 19.1111 72.0932 19.2517 72.0932L19.3966 72.094L19.6026 72.1098L19.7614 71.9762C19.7806 71.9596 19.7998 71.9457 19.8182 71.9334C19.8915 71.8793 20.0032 71.7981 20.0818 71.6602C21.2846 69.5444 21.2453 69.2834 19.4856 67.6616C14.6307 63.1846 9.62558 59.9052 4.1858 57.6357C4.13517 57.6147 4.08455 57.5955 4.03392 57.5772C3.95973 57.5501 3.87593 57.5196 3.84276 57.4943C3.59399 57.3084 3.6193 57.2604 3.65509 57.1949C3.67866 57.1512 3.73889 57.0491 3.79301 57.0491C3.81221 57.0491 3.85585 57.0535 3.93092 57.0875C4.33594 57.27 4.74444 57.4445 5.15382 57.6191C5.97695 57.9709 6.828 58.334 7.61796 58.7547C12.4397 61.3192 16.5135 64.2285 20.0731 67.6467C20.2171 67.7855 20.3672 67.8972 20.5139 68.0046C20.5732 68.0491 20.6326 68.0936 20.6911 68.139L21.1511 68.5004L21.8433 67.3037L21.7123 67.0567C19.5179 62.8948 17.7268 59.4085 16.3136 55.5914C12.4886 45.2583 10.1737 36.6578 9.02678 28.5235C8.44195 24.3721 8.28047 20.0408 8.54583 15.6494C8.75619 12.1867 9.47457 9.15081 10.7429 6.36807C11.6699 4.33514 12.8299 2.79538 14.2885 1.65889C15.432 0.768557 16.6339 0.316406 17.8612 0.316406C19.0169 0.316406 20.1481 0.720549 21.2218 1.51836C22.1051 2.17476 22.8794 3.00312 23.7269 3.93972C24.5247 4.82133 25.2902 5.76928 26.0304 6.6858L26.5655 7.34744C27.6976 8.74055 29.1335 9.75484 30.5223 10.736C30.8889 10.9952 31.2564 11.2544 31.6195 11.5215L32.0533 11.8419L32.3457 11.388C32.5735 11.0345 32.7935 10.6871 33.0109 10.3432C33.4787 9.60296 33.9213 8.90291 34.3979 8.22032C36.5905 5.07883 38.9255 3.03891 41.7449 1.79768C43.2872 1.11858 44.8244 0.774667 46.3144 0.774667C49.2115 0.774667 51.8737 2.0866 54.0132 4.56907C55.8689 6.72333 57.1712 9.35244 58.1122 12.8431C58.8358 15.5298 59.4783 18.3553 60.0744 21.4837C61.1271 26.9994 63.5337 31.4712 67.4311 35.1556C68.8425 36.4911 70.3194 37.9584 72.0774 39.7731C75.0862 42.8788 76.701 46.75 76.8782 51.2794C77.0013 54.4156 76.1284 57.2822 74.2858 59.7996C73.9567 60.2482 73.5316 60.6515 73.0812 61.0792C72.856 61.293 72.6264 61.5113 72.3986 61.7435L71.764 62.3903L72.6474 62.5919C72.897 62.6495 73.1493 62.7001 73.3998 62.7516C73.9366 62.8599 74.4446 62.9629 74.93 63.1243L75.7836 63.408C77.381 63.9361 79.0325 64.4817 80.5967 65.1381C84.8074 66.9057 87.5911 70.0986 88.8698 74.6306C89.418 76.5719 89.816 78.6005 90.2018 80.5627L90.3319 81.2243C90.7133 83.1534 91.3348 85.1104 92.233 87.2079C93.0212 89.048 93.8365 91.0294 94.4536 93.0405C94.9791 94.754 94.671 96.4229 93.538 98.0037C92.5769 99.3444 91.3305 100.511 89.6153 101.673C86.7898 103.589 83.4082 104.988 78.9731 106.072C76.6198 106.647 73.8214 107.236 70.8981 107.249H70.7724Z" fill="#FF6840"/>
<path d="M62.4031 99.869C62.417 102.427 61.0257 103.436 58.696 102.636C57.3762 102.182 56.299 101.344 55.3118 100.394C53.3697 98.5231 51.7583 96.3802 50.1793 94.1997C47.8286 90.9561 45.4046 87.7657 42.978 84.5771C41.4601 82.5834 39.3765 81.1842 37.526 79.5406C36.7544 78.8554 36.0055 78.1431 35.2766 77.4116C34.1916 76.3232 33.5937 74.9885 33.3554 73.4741C33.0648 71.621 34.3147 70.0323 36.2063 69.8866C37.3043 69.8019 38.3422 70.0306 39.3329 70.4941C41.4732 71.4953 43.2713 72.9573 44.6889 74.8148C46.3412 76.9813 47.8251 79.2744 49.4277 81.4801C51.733 84.6539 54.0365 87.8303 56.4247 90.9421C57.8807 92.8406 59.5296 94.5908 61.0222 96.4631C61.8209 97.4651 62.4965 98.5754 62.4031 99.869Z" fill="#008B53"/>
<path d="M42.8036 78.8894C43.5935 78.6659 44.3783 78.4233 45.1743 78.2225C49.1721 77.2126 53.1533 76.1215 57.1799 75.2408C60.3781 74.5425 63.6357 74.2597 66.8802 75.1055C68.2139 75.4529 69.4726 75.9373 70.4616 76.9577C72.1209 78.6686 71.9525 80.9983 69.9117 82.2229C68.8756 82.8444 67.6326 83.1386 66.4595 83.5034C65.8755 83.685 65.24 83.7234 64.6238 83.7679C64.0625 83.8081 63.647 83.9687 63.5973 84.5972C63.5502 85.1855 63.9569 85.3749 64.4283 85.4919C66.4909 86.0051 68.2096 87.1276 69.724 88.5653C71.084 89.8571 72.2231 91.3078 72.6656 93.202C73.3404 96.0825 71.3231 98.5475 68.358 98.3991C66.449 98.304 64.6936 97.631 63.1801 96.5294C61.1471 95.0499 59.1674 93.4804 57.2951 91.8045C55.421 90.1251 53.7259 88.2475 51.9156 86.4948C50.4622 85.0877 49.0159 83.6623 47.4508 82.387C46.2759 81.4304 44.916 80.6998 43.6398 79.8662C43.3221 79.6584 43.0096 79.4419 42.6953 79.229C42.7311 79.1164 42.7678 79.0029 42.8036 78.8894ZM40.1343 72.4257C42.1088 70.0672 44.3687 68.016 46.8537 66.2091C48.6911 64.8719 50.5286 63.5337 52.3764 62.2087C54.288 60.8383 55.8653 59.1589 56.9564 57.0753C57.3702 56.2854 57.7185 55.409 57.8503 54.5352C58.3321 51.3518 56.1595 49.2491 52.9857 49.6881C51.6781 49.8688 50.5478 50.4249 49.4602 51.1136C49.111 51.3344 48.795 51.6128 48.4319 51.8031C47.8907 52.0859 47.3967 51.7988 47.4272 51.1921C47.4447 50.843 47.614 50.4868 47.7738 50.1621C48.9233 47.8254 49.3414 45.3814 48.7514 42.8291C48.2032 40.4592 45.9189 39.5697 43.851 40.866C42.842 41.4979 42.1419 42.4101 41.5597 43.4252C40.4678 45.3316 39.9746 47.423 39.876 49.579C39.7668 51.9707 39.7922 54.372 39.8375 56.7672C39.9336 61.7696 39.8672 66.7634 39.2195 71.7327C39.1628 72.163 39.079 72.5497 39.814 72.9661C39.9196 72.7845 40.0016 72.5846 40.1343 72.4257ZM27.3886 49.0134C27.3886 48.8231 27.3886 48.632 27.3886 48.4408C27.3947 42.363 27.8459 36.3218 28.8951 30.3295C29.116 29.0699 28.5338 28.2887 27.2568 28.1411C25.8628 27.9805 24.7656 28.5689 23.9049 29.6268C22.6488 31.17 22.4437 32.9952 22.5938 34.8833C22.9439 39.307 24.2471 43.4549 26.294 47.3803C26.5881 47.945 26.8823 48.5089 27.1764 49.0736C27.2472 49.0536 27.3179 49.0335 27.3886 49.0134Z" fill="#F291D6"/>
<path d="M27.1101 18.2026C27.0377 18.9323 26.939 19.6603 26.898 20.3917C26.5401 26.7026 27.1782 32.9149 28.6612 39.0591C29.377 42.0234 29.782 45.068 30.6051 47.9991C31.2545 50.314 31.3052 52.6254 31.3619 54.9708C31.4553 58.8525 31.5801 62.7359 31.2798 66.6124C31.114 68.7492 30.8705 70.8816 30.6261 73.0114C30.5938 73.2951 30.4052 73.7132 30.1931 73.7848C29.9644 73.8616 29.5411 73.6818 29.3447 73.4784C27.9315 72.0155 26.3839 70.7402 24.6896 69.6011C23.6361 68.8941 23.1001 67.6799 22.9474 66.4238C22.6157 63.683 22.3267 60.9334 22.1207 58.1804C21.7454 53.1509 21.7262 48.11 21.9497 43.0752C22.3084 35.0046 23.5296 27.0771 26.1892 19.4132C26.3429 18.9698 26.555 18.5473 26.7391 18.1144C26.8631 18.1441 26.9862 18.1738 27.1101 18.2026ZM52.8557 51.0158C53.705 48.6372 54.288 46.1958 54.3596 43.66C54.3945 42.4633 54.1466 41.4115 52.8879 40.8101C52.2307 40.4959 51.6746 39.9582 51.102 39.4859C49.235 37.9444 47.944 35.9988 47.2719 33.6839C46.5997 31.3699 46.3833 28.9983 46.6373 26.5883C46.7708 25.3191 46.8555 24.0439 46.9384 22.7695C46.9829 22.0965 46.914 21.4497 46.0874 21.0508C45.3009 21.7656 44.4734 22.4447 43.7288 23.205C39.4177 27.6113 37.1412 33.1192 35.3178 38.8636C35.2209 39.1665 35.3047 39.527 35.3047 40.0411C35.8537 39.7513 36.2046 39.5575 36.5625 39.3768C39.2204 38.037 42.128 39.2372 43.0253 42.0688C43.4539 43.4209 43.5726 44.8122 43.3675 46.2237C43.247 47.0582 43.1213 47.8918 43.0035 48.6861C43.1973 48.7769 43.2802 48.8537 43.3422 48.8397C43.8606 48.7175 44.3739 48.5717 44.8915 48.446C48.0478 47.6797 50.7686 48.7629 51.9068 51.3501C51.9514 51.4514 52.0631 51.5221 52.2525 51.722C52.476 51.4679 52.7623 51.2759 52.8557 51.0158ZM64.8595 82.4263C63.6278 83.8447 61.9493 84.372 60.2306 84.8355C60.2507 84.8974 60.2515 84.955 60.2786 84.9734C60.5841 85.1776 60.8931 85.3784 61.2021 85.5774C63.1015 86.7977 64.7512 88.2807 65.934 90.2211C67.0661 92.0803 67.6649 94.0347 66.9072 96.2239C66.5764 97.1814 66.861 97.4581 67.85 97.1683C70.6833 96.3374 73.3395 95.1485 75.6491 93.2613C76.5229 92.5473 77.181 91.6788 77.8077 90.7117C77.4115 90.2613 77.0527 89.8667 76.7088 89.46C75.1236 87.5876 73.7087 85.6254 73.2112 83.1438C73.1431 82.8051 72.8882 82.4857 72.6665 82.1994C71.0351 80.0983 68.8826 78.6616 66.5546 77.4561C66.4202 77.3863 66.25 77.3854 65.6826 77.2641C66.174 79.2438 66.1313 80.9607 64.8595 82.4263ZM53.4379 63.4142C53.8691 63.3714 54.0227 63.3705 54.1711 63.3391C56.3044 62.893 58.4264 62.3815 60.5745 62.0245C61.4456 61.8796 62.1396 61.5314 62.7427 60.9727C63.7911 59.9995 64.5033 58.8228 64.835 57.4026C65.6974 53.7069 64.5007 50.506 62.5263 47.4798C62.494 47.43 62.384 47.43 62.2609 47.3916C60.8599 53.4799 58.2177 58.9092 53.4379 63.4142ZM17.6595 27.1461C19.4122 26.46 20.9144 26.4792 22.3564 27.4725C23.2066 24.4663 24.0315 21.5518 24.8956 18.4985C22.2979 18.055 20.5365 16.1583 18.3132 14.842C18.741 18.9803 18.8579 23.0208 17.6595 27.1461Z" fill="#C0E348"/>
<mask id="mask0_32_7" style="mask-type:luminance" maskUnits="userSpaceOnUse" x="0" y="-1" width="95" height="109">
<path d="M0.0486488 -0.353088H94.9096V107.8H0.0486488V-0.353088Z" fill="white"/>
</mask>
<g mask="url(#mask0_32_7)">
<path d="M20.8258 67.2924C18.8435 63.5329 16.8786 59.7603 15.4008 55.7669C12.131 46.9351 9.4059 37.9549 8.08698 28.5942C7.47946 24.2822 7.3398 19.9544 7.60254 15.618C7.80068 12.3456 8.4728 9.16391 9.84322 6.15772C10.7126 4.25223 11.8683 2.55971 13.539 1.25913C15.9237 -0.597485 18.6523 -0.695248 21.0868 1.11161C22.0382 1.81864 22.8639 2.71509 23.6652 3.60019C24.6629 4.70176 25.5838 5.87316 26.5222 7.02798C27.8996 8.72223 29.7413 9.83253 31.4819 11.1139C32.1976 10.0045 32.8366 8.94307 33.5445 7.92966C35.5146 5.10852 37.8923 2.74651 41.1027 1.33332C45.8948 -0.775553 50.5403 0.270155 53.9593 4.23826C56.0848 6.70501 57.3321 9.62566 58.164 12.7113C58.9347 15.5735 59.5789 18.4758 60.135 21.3886C61.1344 26.6258 63.4528 31.1116 67.3414 34.7872C68.9327 36.2921 70.4794 37.8476 72.0035 39.4205C75.1956 42.7156 76.7703 46.7378 76.9475 51.2593C77.0723 54.4689 76.1776 57.476 74.2564 60.099C73.7327 60.8147 73.0169 61.39 72.3221 62.0979C73.1051 62.2768 73.9011 62.3938 74.6527 62.6443C76.5669 63.2815 78.4977 63.8916 80.3543 64.6711C84.7973 66.5347 87.6228 69.8953 88.9199 74.4927C89.5344 76.6697 89.9525 78.9043 90.3915 81.1266C90.7939 83.163 91.4451 85.1026 92.2612 87.0089C93.087 88.9371 93.8865 90.8897 94.5002 92.8921C95.0859 94.8011 94.6974 96.6455 93.5121 98.2987C92.4114 99.8341 91.0121 101.041 89.4628 102.092C86.1685 104.327 82.4833 105.628 78.6557 106.564C75.9655 107.221 73.2499 107.743 70.462 107.755C66.5183 107.773 62.744 106.986 59.1922 105.274C56.8913 104.164 54.6463 102.938 52.3698 101.779C51.9482 101.564 51.4917 101.419 50.9968 101.221C50.8467 101.571 50.7524 101.789 50.6599 102.007C49.8944 103.818 48.4611 104.609 46.4884 104.308C44.967 104.075 43.6926 103.327 42.5308 102.371C40.3765 100.596 38.6168 98.4637 36.9862 96.2152C35.1183 93.6402 33.2128 91.0931 31.3762 88.4963C29.3774 85.6708 26.9804 83.2494 24.2841 81.0908C23.1921 80.2162 22.1875 79.2211 21.2098 78.2164C20.2776 77.2589 19.6151 76.1241 19.3113 74.793C19.0477 73.6399 18.1094 73.0507 17.1867 72.5148C13.9615 70.6407 10.5433 69.2075 6.95923 68.1748C5.01271 67.6145 3.05484 67.1099 1.01056 67.0715C0.513894 67.0619 0.0512689 66.9467 0.0835653 66.3374C0.115862 65.7413 0.589835 65.674 1.07952 65.6697C2.9178 65.6513 4.68276 66.0817 6.43899 66.5539C10.3233 67.597 14.0269 69.0853 17.5315 71.0632C17.8545 71.2448 18.1897 71.4089 18.5327 71.5476C18.6767 71.6061 18.8557 71.5791 18.9953 71.5887C19.0826 71.5153 19.1656 71.4752 19.2031 71.4089C20.2802 69.5138 20.2933 69.499 18.7038 68.0343C14.205 63.8855 9.2226 60.4682 3.55238 58.1036C3.39963 58.0399 3.23029 57.9971 3.10198 57.9002C2.78774 57.6654 2.54595 57.373 2.77028 56.9557C2.97105 56.5795 3.28004 56.4355 3.70077 56.6249C4.94113 57.1844 6.22077 57.6698 7.41836 58.3078C12.0001 60.7449 16.2344 63.6778 19.9861 67.2819C20.1633 67.4512 20.3719 67.5883 20.5665 67.7401C20.694 67.7646 20.8223 67.7882 20.9506 67.8126C20.9096 67.6389 20.8677 67.4661 20.8258 67.2924ZM20.4112 20.2233C20.4112 19.8357 20.4487 19.2945 20.4042 18.7612C20.261 17.0338 20.1222 15.3055 19.3148 13.7134C18.9884 13.0692 18.5188 12.7244 17.8117 12.5742C15.8809 12.1622 14.1448 12.6842 12.4505 13.5492C10.0536 14.7739 8.80973 16.6584 8.83679 19.4019C8.88043 23.7916 9.41201 28.1254 10.1609 32.4418C11.1744 38.2753 12.9192 43.9106 14.7008 49.5398C16.615 55.5871 19.1376 61.3646 22.2721 66.8769C22.4554 67.1981 22.6405 67.5324 22.8919 67.7978C23.2847 68.2115 24.0397 68.2822 24.5058 68.0299C25.0339 67.7454 24.9292 67.2889 24.8497 66.8358C24.065 62.3519 23.907 57.8155 23.7237 53.2809C23.7002 52.7048 23.6513 52.1872 23.3379 51.6408C22.2686 49.7815 21.181 47.918 20.309 45.9627C18.5807 42.0897 17.4285 38.0527 17.4346 33.7581C17.4373 32.1145 17.7916 30.5747 18.6732 29.1572C18.9735 28.6754 19.1708 28.1132 19.3331 27.5642C20.0271 25.2188 20.515 22.8384 20.4112 20.2233ZM35.024 45.535C35.2274 45.1806 35.3147 45.0863 35.3374 44.979C36.0811 41.4106 37.3563 38.0073 38.5749 34.5865C40.1443 30.1811 42.3378 26.1353 45.5657 22.7127C46.6394 21.5736 47.8213 20.5331 48.9822 19.4796C49.9109 18.6364 50.3125 17.6012 50.2033 16.3791C50.0174 14.3017 49.4858 12.3272 48.3921 10.5204C47.1457 8.4595 45.3938 7.12225 42.996 6.74167C40.6471 6.36895 38.3689 6.44839 36.4538 8.14701C35.1986 9.2608 34.1904 10.5867 33.5724 12.1265C32.4298 14.9738 31.6486 17.9285 31.5936 21.022C31.5561 23.164 31.5072 25.3122 31.6285 27.4481C31.7472 29.5439 31.9602 31.6484 32.3364 33.711C33.0015 37.3614 33.8194 40.9838 34.5876 44.615C34.6408 44.8672 34.811 45.0942 35.024 45.535ZM39.0768 78.8894C39.041 79.0029 39.0043 79.1164 38.9685 79.229C39.2828 79.4419 39.5953 79.6584 39.913 79.8662C41.1891 80.6998 42.5491 81.4304 43.724 82.387C45.289 83.6623 46.7354 85.0877 48.1887 86.4948C49.9991 88.2475 51.6942 90.1251 53.5683 91.8045C55.4406 93.4804 57.4203 95.0499 59.4532 96.5294C60.9668 97.631 62.7222 98.304 64.6312 98.3991C67.5963 98.5475 69.6135 96.0825 68.9388 93.202C68.4963 91.3079 67.3571 89.8571 65.9972 88.5653C64.4828 87.1276 62.7641 86.0051 60.7015 85.4919C60.2301 85.3749 59.8233 85.1855 59.8705 84.5972C59.9202 83.9687 60.3357 83.8081 60.897 83.7679C61.5132 83.7234 62.1487 83.685 62.7326 83.5035C63.9058 83.1386 65.1488 82.8444 66.184 82.2229C68.2257 80.9983 68.3941 78.6686 66.7348 76.9577C65.7458 75.9373 64.4871 75.4529 63.1534 75.1055C59.9089 74.2597 56.6513 74.5425 53.4531 75.2408C49.4265 76.1215 45.4453 77.2126 41.4475 78.2225C40.6514 78.4233 39.8667 78.666 39.0768 78.8894ZM36.5865 77.3741C37.1145 78.3247 37.661 77.8507 38.1149 77.7241C43.3207 76.2743 48.4785 74.6376 53.8197 73.7185C56.6024 73.2402 59.4183 72.9809 62.2011 73.5003C67.0115 74.3985 71.4885 76.1189 75.2436 79.3983C76.0013 80.0599 76.3443 79.9439 76.6018 78.9924C77.0758 77.2414 77.5628 75.493 78.0036 73.7325C78.3755 72.2486 78.6155 70.7638 78.3048 69.2101C77.7854 66.6202 75.4225 64.1387 73.0195 63.724C69.3176 63.0833 65.6166 63.0598 61.9366 63.7624C53.6949 65.3362 46.3452 68.8374 39.9025 74.2064C38.7355 75.1797 37.6968 76.3066 36.5865 77.3741ZM30.382 18.2026C30.2581 18.1738 30.135 18.1441 30.0111 18.1144C29.8269 18.5474 29.6148 18.9698 29.4611 19.4132C26.8015 27.0762 25.5803 35.0046 25.2216 43.0752C24.9981 48.11 25.0173 53.1509 25.3927 58.1804C25.5987 60.9334 25.8876 63.683 26.2193 66.4238C26.372 67.679 26.908 68.8941 27.9615 69.6011C29.6558 70.7402 31.2034 72.0155 32.6166 73.4784C32.813 73.6818 33.2363 73.8616 33.465 73.7848C33.6771 73.7133 33.8657 73.2951 33.898 73.0115C34.1424 70.8816 34.3859 68.7492 34.5518 66.6124C34.852 62.7359 34.7272 58.8525 34.6338 54.9708C34.5771 52.6254 34.5265 50.314 33.877 47.9991C33.0539 45.068 32.6489 42.0234 31.9331 39.0591C30.4501 32.9149 29.812 26.7027 30.1699 20.3917C30.211 19.6603 30.3096 18.9323 30.382 18.2026ZM36.0872 72.9652C36.1928 72.7845 36.2748 72.5846 36.4075 72.4258C38.382 70.0672 40.6418 68.016 43.1269 66.2091C44.9643 64.8719 46.8017 63.5337 48.6496 62.2087C50.5612 60.8383 52.1385 59.1589 53.2296 57.0753C53.6434 56.2854 53.9916 55.409 54.1234 54.5352C54.6053 51.3519 52.4327 49.2491 49.2589 49.6881C47.9513 49.8688 46.8209 50.4249 45.7333 51.1136C45.3842 51.3344 45.0682 51.6128 44.7051 51.8031C44.1639 52.0859 43.6699 51.7988 43.7004 51.1921C43.7179 50.843 43.8872 50.4868 44.0469 50.1621C45.1965 47.8254 45.6146 45.3805 45.0246 42.8282C44.4773 40.4592 42.1921 39.5697 40.1242 40.866C39.1152 41.4979 38.4151 42.4101 37.8329 43.4252C36.741 45.3316 36.2478 47.423 36.1491 49.579C36.04 51.9707 36.0653 54.372 36.1107 56.7672C36.2067 61.7697 36.1404 66.7625 35.4927 71.7327C35.436 72.163 35.3522 72.5497 36.0872 72.9652ZM38.2711 80.8743C38.196 80.9442 38.1201 81.0149 38.045 81.0847C38.2798 81.4539 38.5094 81.8284 38.7512 82.1933C41.3367 86.0924 44.2372 89.7428 47.3682 93.2186C48.7806 94.7863 50.0462 96.4561 50.8676 98.4428C51.1207 99.0555 51.6165 99.6822 52.1708 100.038C55.1692 101.957 58.3665 103.524 61.68 104.804C66.3542 106.612 71.1786 106.783 76.0554 105.706C77.8247 105.316 79.6298 105.043 81.2621 104.174C82.121 103.718 82.8935 103.145 83.3003 102.255C84.6751 99.2484 84.6637 96.2606 83.0044 93.346C82.416 92.3134 81.9613 92.3169 81.0928 93.1252C80.13 94.0208 79.148 94.9268 78.0543 95.6461C74.7565 97.8152 71.0215 98.8513 67.2009 99.6543C64.4103 100.241 61.8624 99.6002 59.4707 98.2219C58.2583 97.5236 57.0947 96.7171 55.9993 95.8451C52.8586 93.3425 50.0078 90.5231 47.26 87.5999C45.3859 85.6062 43.3818 83.7653 41.1254 82.2116C40.249 81.6076 39.3378 81.062 38.2711 80.8743ZM49.5356 99.869C49.629 98.5754 48.9534 97.4651 48.1547 96.4631C46.6621 94.5907 45.0132 92.8406 43.5573 90.9421C41.1691 87.8303 38.8655 84.6539 36.5603 81.4801C34.9577 79.2744 33.4738 76.9813 31.8214 74.8148C30.4039 72.9573 28.6057 71.4953 26.4654 70.4941C25.4747 70.0306 24.4369 69.8019 23.3388 69.8866C21.4473 70.0323 20.1973 71.621 20.488 73.4741C20.7263 74.9885 21.3242 76.3232 22.4092 77.4116C23.138 78.1431 23.887 78.8554 24.6586 79.5406C26.5091 81.1842 28.5926 82.5834 30.1106 84.5771C32.5372 87.7657 34.9612 90.9561 37.3118 94.1997C38.8908 96.3801 40.5022 98.5231 42.4443 100.394C43.4316 101.344 44.5087 102.182 45.8285 102.636C48.1582 103.436 49.5496 102.427 49.5356 99.869ZM55.5244 51.722C55.7479 51.4679 56.0342 51.2759 56.1276 51.0158C56.9769 48.6372 57.56 46.1958 57.6324 43.6601C57.6665 42.4633 57.4186 41.4115 56.1599 40.8101C55.5026 40.4959 54.9466 39.9582 54.374 39.4859C52.5069 37.9444 51.2159 35.9988 50.5438 33.6839C49.8717 31.3699 49.6552 28.9983 49.9092 26.5883C50.0427 25.3191 50.1274 24.0439 50.2103 22.7695C50.2548 22.0965 50.1859 21.4497 49.3593 21.0508C48.5728 21.7657 47.7453 22.4448 47.0008 23.205C42.6896 27.6113 40.4131 33.1192 38.5897 38.8636C38.4928 39.1665 38.5766 39.527 38.5766 40.0411C39.1257 39.7513 39.4766 39.5575 39.8344 39.3768C42.4923 38.037 45.3999 39.2372 46.2972 42.0688C46.7258 43.4209 46.8445 44.8123 46.6394 46.2237C46.5189 47.0582 46.3932 47.8918 46.2754 48.6861C46.4692 48.7769 46.5521 48.8537 46.6141 48.8397C47.1326 48.7175 47.6458 48.5717 48.1634 48.446C51.3198 47.6797 54.0405 48.7629 55.1788 51.3501C55.2233 51.4514 55.335 51.5221 55.5244 51.722ZM68.9545 77.2641C69.4459 79.2438 69.4032 80.9608 68.1314 82.4263C66.8998 83.8447 65.2212 84.372 63.5025 84.8355C63.5226 84.8974 63.5235 84.955 63.5505 84.9734C63.856 85.1776 64.165 85.3784 64.474 85.5774C66.3734 86.7977 68.0232 88.2807 69.2059 90.2211C70.338 92.0804 70.9368 94.0347 70.1792 96.2239C69.8483 97.1815 70.1329 97.4582 71.1219 97.1684C73.9552 96.3374 76.6114 95.1485 78.921 93.2614C79.7948 92.5473 80.4529 91.6788 81.0797 90.7117C80.6834 90.2613 80.3246 89.8667 79.9807 89.46C78.3956 87.5876 76.9806 85.6254 76.4831 83.1438C76.415 82.8051 76.1601 82.4857 75.9384 82.1994C74.307 80.0984 72.1545 78.6616 69.8265 77.4562C69.6921 77.3863 69.5219 77.3854 68.9545 77.2641ZM59.0718 42.6248C58.9653 44.1131 58.9627 45.3168 58.7802 46.4925C58.2635 49.8252 57.1104 52.9562 55.5235 55.9231C54.8252 57.2289 54.1095 58.5356 53.2759 59.7559C52.0949 61.4851 50.4041 62.7036 48.7378 63.9292C46.6088 65.4942 44.4406 67.0104 42.3553 68.6322C40.3625 70.1825 38.5609 71.9483 37.0307 73.9699C36.8597 74.196 36.761 74.4779 36.6284 74.7336C36.7078 74.793 36.7863 74.8532 36.8649 74.9126C37.1355 74.6987 37.4192 74.4997 37.6741 74.2693C41.0015 71.257 44.6876 68.7719 48.6845 66.7363C50.0419 66.045 51.3739 65.3066 52.7242 64.6021C54.2465 63.8078 55.5008 62.6836 56.6958 61.472C60.0852 58.0329 62.1897 53.8666 63.5811 49.3084C63.8796 48.3308 63.9782 47.2912 64.1511 46.2769C64.2261 45.8361 64.0943 45.4564 63.6806 45.2225C62.1836 44.3767 60.6849 43.5344 59.0718 42.6248ZM23.4496 49.0736C23.5203 49.0536 23.591 49.0335 23.6617 49.0134C23.6617 48.8231 23.6617 48.632 23.6617 48.4408C23.6679 42.363 24.1191 36.3218 25.1683 30.3295C25.3892 29.0699 24.807 28.2887 23.5299 28.1412C22.136 27.9805 21.0387 28.5689 20.1781 29.6268C18.922 31.17 18.7169 32.9952 18.867 34.8833C19.2171 39.307 20.5203 43.4549 22.5672 47.3803C22.8613 47.945 23.1555 48.5089 23.4496 49.0736ZM65.5328 47.3916C64.1319 53.4799 61.4897 58.9092 56.7098 63.4142C57.141 63.3714 57.2946 63.3705 57.443 63.3391C59.5763 62.8931 61.6983 62.3815 63.8464 62.0245C64.7176 61.8796 65.4115 61.5314 66.0147 60.9727C67.063 59.9995 67.7753 58.8228 68.107 57.4026C68.9694 53.7069 67.7726 50.506 65.7982 47.4798C65.7659 47.43 65.6559 47.43 65.5328 47.3916ZM21.5852 14.842C22.0129 18.9803 22.1298 23.0209 20.9314 27.1461C22.6841 26.46 24.1863 26.4792 25.6283 27.4725C26.4785 24.4663 27.3034 21.5518 28.1675 18.4985C25.5699 18.055 23.8084 16.1583 21.5852 14.842Z" fill="#551E00"/>
</g>
</g>
<defs>
<clipPath id="clip0_32_7">
<rect width="95" height="108" fill="white"/>
</clipPath>
</defs>
</svg>
