<svg width="1920" height="1080" viewBox="0 0 1920 1080" fill="none" xmlns="http://www.w3.org/2000/svg">
<rect width="1920" height="1080" fill="url(#paint0_linear_474_536)"/>
<path opacity="0.7" d="M802.142 350.61C781.751 348.838 749.735 347.725 720.957 349.87C718.956 350.032 716.863 349.704 715.626 349.004C693.99 337.705 662.073 331.231 628.247 331.231C600.806 331.231 574.312 335.52 553.638 343.313C551.637 344.053 548.681 344.136 546.588 343.478C520.667 335.477 490.08 331.274 458.163 331.274C443.965 331.274 429.958 332.097 416.425 333.788C413.568 334.119 410.613 333.501 409.566 332.305C387.082 306.987 329.909 290 267.305 290C193.459 290 130.474 312.76 117.33 344.136C117.33 346.489 117.994 350.032 119.995 352.755C127.525 362.815 152.485 368.34 175.74 365.082C184.409 363.846 191.557 361.248 195.651 357.702C199.844 354.156 200.509 350.157 197.751 346.406C193.269 340.428 178.406 337.169 164.682 339.106C154.302 340.55 148.483 345.415 151.919 349.952C152.867 351.271 151.248 352.629 148.2 353.085C145.153 353.495 142.006 352.795 140.96 351.476C135.622 344.384 144.672 336.716 161.062 334.407C164.873 333.871 168.783 333.623 172.686 333.623C188.602 333.623 203.372 338.035 208.612 344.919C212.324 349.952 211.376 355.31 205.847 360.012C200.318 364.712 190.886 368.215 179.262 369.824C150.01 373.906 118.567 366.979 109.135 354.321C107.035 351.559 106.179 348.26 105.896 345.58C90.8362 342.983 74.8283 341.664 58.4452 341.664C-12.353 341.581 -70 366.526 -70 397.201C-70 427.877 -12.353 452.824 58.5373 452.824C62.3484 452.824 66.1595 452.741 69.9706 452.616C68.7332 442.434 74.8283 432.083 87.5978 423.26C101.605 413.487 122.852 406.15 147.437 402.604C157.06 401.2 166.874 400.542 176.497 400.542C214.996 400.542 250.915 411.098 263.784 427.714C270.07 435.917 268.641 444.658 259.782 452.411C250.823 460.121 235.579 465.892 216.616 468.615C184.791 473.232 150.201 465.769 139.531 451.958C130.856 440.659 144.962 428.415 171.067 424.661C178.597 423.59 186.601 423.465 194.315 424.291C197.369 424.621 199.179 425.982 198.416 427.301C197.652 428.62 194.506 429.403 191.458 429.073C185.936 428.455 180.124 428.537 174.687 429.321C154.585 432.206 143.724 441.648 150.392 450.349C159.061 461.562 187.075 467.623 212.995 463.872C229.003 461.562 241.964 456.658 249.586 450.144C257.109 443.587 258.347 436.165 253.015 429.238C241.773 414.684 210.323 405.447 176.596 405.447C168.118 405.447 159.541 406.025 151.156 407.261C106.087 413.778 77.0202 433.567 81.7857 454.348C100.94 485.354 166.117 507 240.437 507C309.425 507 371.548 488.116 394.987 460.039C395.559 459.421 396.606 458.885 398.041 458.637C399.469 458.347 401.088 458.347 402.517 458.595C420.236 461.605 439.009 463.132 458.255 463.132C511.525 463.132 560.786 451.092 588.418 431.505C568.119 427.877 550.873 421.445 539.249 413.077C526.289 403.675 521.622 392.749 526.289 382.316C533.819 365.33 568.217 353.495 606.809 353.495C611.857 353.495 617.097 353.703 622.244 354.116C658.354 357.124 682.175 372.257 675.224 387.885C669.603 400.665 640.918 409.075 611.476 406.603C587.273 404.581 571.265 394.438 575.932 383.926C579.269 376.255 594.803 370.938 612.239 370.938C614.523 370.938 616.906 371.02 619.197 371.225C622.336 371.473 624.337 372.792 623.771 374.114C623.199 375.472 620.144 376.338 617.097 376.09C603.281 374.937 589.846 378.896 587.273 384.874C583.843 392.667 595.659 400.252 613.766 401.738C637.107 403.675 659.69 397.036 664.166 386.936C669.886 373.988 650.159 361.413 620.243 358.938C582.033 355.765 545.061 366.648 537.729 383.182C529.343 402.066 556.113 421.693 598.614 427.837C608.329 428.99 618.334 429.568 628.53 429.568C664.647 429.568 697.709 422.394 719.437 409.901C719.529 409.859 719.529 409.819 719.628 409.819C725.44 406.808 730.39 403.593 735.155 400.46C751.545 389.821 768.409 378.813 820.625 373.165C851.785 369.784 879.608 371.391 900 373.948C879.036 364.999 846.546 354.444 802.142 350.61Z" fill="#FBFFFF"/>
<path opacity="0.7" d="M1216.66 452.996C1234.72 451.535 1263.07 450.616 1288.55 452.385C1290.33 452.519 1292.18 452.249 1293.28 451.671C1312.44 442.351 1340.7 437.011 1370.66 437.011C1394.96 437.011 1418.42 440.549 1436.73 446.977C1438.5 447.588 1441.12 447.656 1442.97 447.113C1465.92 440.514 1493.01 437.046 1521.28 437.046C1533.85 437.046 1546.25 437.725 1558.24 439.12C1560.77 439.393 1563.39 438.883 1564.31 437.896C1584.22 417.012 1634.85 403 1690.29 403C1755.69 403 1811.47 421.774 1823.11 447.656C1823.11 449.597 1822.52 452.519 1820.75 454.765C1814.08 463.064 1791.97 467.622 1771.38 464.934C1763.7 463.914 1757.37 461.772 1753.75 458.846C1750.03 455.921 1749.45 452.623 1751.89 449.529C1755.86 444.597 1769.02 441.909 1781.17 443.507C1790.37 444.698 1795.52 448.711 1792.48 452.454C1791.64 453.541 1793.07 454.662 1795.77 455.038C1798.47 455.376 1801.25 454.798 1802.18 453.711C1806.91 447.86 1798.89 441.536 1784.38 439.63C1781 439.189 1777.54 438.984 1774.09 438.984C1759.99 438.984 1746.91 442.623 1742.27 448.302C1738.98 452.454 1739.82 456.873 1744.72 460.752C1749.62 464.628 1757.97 467.518 1768.26 468.846C1794.17 472.212 1822.01 466.499 1830.36 456.058C1832.22 453.779 1832.98 451.058 1833.23 448.847C1846.57 446.704 1860.74 445.617 1875.25 445.617C1937.95 445.549 1989 466.125 1989 491.429C1989 516.732 1937.95 537.311 1875.17 537.311C1871.8 537.311 1868.42 537.243 1865.05 537.14C1866.14 528.74 1860.74 520.202 1849.44 512.924C1837.03 504.863 1818.22 498.811 1796.45 495.886C1787.92 494.727 1779.23 494.185 1770.71 494.185C1736.62 494.185 1704.81 502.892 1693.41 516.598C1687.85 523.365 1689.11 530.575 1696.96 536.97C1704.89 543.33 1718.39 548.09 1735.18 550.336C1763.37 554.145 1794 547.989 1803.45 536.597C1811.13 527.277 1798.64 517.176 1775.52 514.08C1768.85 513.196 1761.76 513.093 1754.93 513.774C1752.23 514.047 1750.62 515.17 1751.3 516.258C1751.98 517.345 1754.76 517.992 1757.46 517.719C1762.35 517.209 1767.5 517.277 1772.31 517.923C1790.12 520.303 1799.73 528.092 1793.83 535.269C1786.15 544.519 1761.34 549.519 1738.39 546.425C1724.21 544.519 1712.74 540.473 1705.99 535.1C1699.32 529.692 1698.23 523.569 1702.95 517.855C1712.9 505.85 1740.76 498.23 1770.62 498.23C1778.13 498.23 1785.73 498.707 1793.15 499.727C1833.06 505.102 1858.8 521.426 1854.58 538.568C1837.62 564.144 1779.9 582 1714.09 582C1652.99 582 1597.98 566.423 1577.22 543.262C1576.72 542.752 1575.79 542.311 1574.52 542.106C1573.25 541.867 1571.82 541.867 1570.55 542.071C1554.86 544.554 1538.24 545.814 1521.19 545.814C1474.02 545.814 1430.4 535.883 1405.93 519.725C1423.9 516.732 1439.18 511.427 1449.47 504.524C1460.95 496.769 1465.08 487.756 1460.95 479.15C1454.28 465.138 1423.82 455.376 1389.64 455.376C1385.17 455.376 1380.53 455.548 1375.97 455.889C1343.99 458.37 1322.9 470.852 1329.05 483.744C1334.03 494.286 1359.43 501.224 1385.51 499.184C1406.94 497.516 1421.12 489.15 1416.98 480.478C1414.03 474.151 1400.27 469.764 1384.83 469.764C1382.81 469.764 1380.7 469.832 1378.67 470.002C1375.89 470.206 1374.12 471.294 1374.62 472.384C1375.13 473.505 1377.83 474.219 1380.53 474.015C1392.76 473.063 1404.66 476.329 1406.94 481.26C1409.98 487.688 1399.51 493.945 1383.48 495.171C1362.81 496.769 1342.81 491.292 1338.85 482.961C1333.78 472.281 1351.25 461.908 1377.74 459.866C1411.58 457.249 1444.32 466.226 1450.82 479.865C1458.24 495.442 1434.54 511.632 1396.9 516.699C1388.29 517.651 1379.43 518.128 1370.4 518.128C1338.42 518.128 1309.14 512.21 1289.9 501.905C1289.82 501.87 1289.82 501.837 1289.73 501.837C1284.58 499.353 1280.2 496.701 1275.98 494.116C1261.47 485.341 1246.53 476.261 1200.29 471.602C1172.7 468.813 1148.06 470.138 1130 472.248C1148.57 464.866 1177.34 456.159 1216.66 452.996Z" fill="#FBFFFF"/>
<defs>
<linearGradient id="paint0_linear_474_536" x1="960" y1="0" x2="960" y2="1080" gradientUnits="userSpaceOnUse">
<stop stop-color="#0684FA"/>
<stop offset="1" stop-color="#12C3FF"/>
</linearGradient>
</defs>
</svg>
