<svg width="95" height="122" viewBox="0 0 95 122" fill="none" xmlns="http://www.w3.org/2000/svg">
<path d="M48.5816 120.951C48.3208 120.945 48.0646 120.917 47.8099 120.863C47.5568 120.811 47.3112 120.733 47.0718 120.634C46.8339 120.534 46.6081 120.413 46.3946 120.271C46.1811 120.127 45.9844 119.966 45.8044 119.788C45.6229 119.608 45.4628 119.413 45.3225 119.203C45.1822 118.993 45.0647 118.773 44.9687 118.54C44.8741 118.309 44.8024 118.069 44.7567 117.824C44.7109 117.579 44.6896 117.331 44.6941 117.081L41.9428 65.3714L32.4688 72.021C30.8644 73.1387 29.7481 73.7474 28.4151 73.7474C28.0567 73.743 27.7059 73.6918 27.3628 73.5952C27.0196 73.4986 26.6948 73.3596 26.3913 73.1782C26.0863 72.9968 25.8133 72.7803 25.5708 72.5272C25.3283 72.2755 25.1254 71.9961 24.9623 71.6903C23.8047 69.4241 25.3542 67.506 26.4843 66.1044L33.4785 57.3832L4.3809 54.9341C4.08503 54.9107 3.79831 54.8536 3.51769 54.7614C3.2752 54.6839 3.0449 54.583 2.82376 54.4615C2.60262 54.3386 2.39521 54.1967 2.20304 54.0358C2.01088 53.8748 1.83702 53.6978 1.68146 53.5047C1.52437 53.3116 1.39016 53.1053 1.27578 52.8858C1.16139 52.6664 1.06989 52.4396 1.00278 52.204C0.934152 51.967 0.891449 51.7271 0.871623 51.4828C0.853321 51.2399 0.859422 50.9956 0.889924 50.7527C0.920426 50.5098 0.97533 50.2714 1.05464 50.0387C1.25595 49.4901 1.57012 49.0088 1.99563 48.5947C2.42266 48.1792 2.91984 47.872 3.48871 47.6715C3.78153 47.575 4.08198 47.5135 4.39005 47.4872L33.1292 45.1522L28.1802 38.4061C26.6628 36.3315 24.944 33.9833 26.2357 31.5941C26.4035 31.2884 26.6109 31.0075 26.8595 30.7558C27.1066 30.5042 27.3857 30.2877 27.6953 30.1092C28.0049 29.9307 28.3343 29.7961 28.682 29.7054C29.0313 29.6132 29.3851 29.5693 29.7465 29.5708C31.1695 29.5708 32.5116 30.2043 35.0676 32.0828L42.2341 37.3366L45.1013 3.87679C45.1105 3.77584 45.1242 3.67343 45.1425 3.57248C45.1822 3.35741 45.2416 3.14673 45.3194 2.94044C45.3987 2.73561 45.4948 2.5381 45.6092 2.34791C45.7251 2.15918 45.8547 1.98068 46.0027 1.8139C46.1506 1.64565 46.3123 1.49349 46.4877 1.35304C46.663 1.21259 46.8506 1.08969 47.0489 0.981425C47.2472 0.87316 47.4531 0.782452 47.6681 0.709299C47.8831 0.636147 48.1043 0.580551 48.3285 0.545438C48.5542 0.508862 48.7814 0.492769 49.0087 0.494232C50.4011 0.494232 52.7772 1.36328 52.9373 4.62148L55.1427 37.3673L64.4169 31.044C64.9323 30.6212 65.5027 30.2862 66.1295 30.0404C66.7564 29.7931 67.4076 29.6468 68.0832 29.6015C68.4309 29.6073 68.7726 29.6556 69.1081 29.7449C69.4421 29.8356 69.7593 29.9658 70.0598 30.134C70.3587 30.3037 70.6317 30.5056 70.8772 30.7427C71.1228 30.9797 71.3317 31.2416 71.5071 31.5312C72.7196 33.6629 71.3774 35.6673 70.6591 36.7441C68.768 39.5868 66.7442 42.3592 64.6014 45.0468L91.0941 47.5355C91.4021 47.5633 91.7011 47.6291 91.9908 47.7301C92.3569 47.8603 92.6954 48.0402 93.005 48.2685C93.3146 48.4982 93.5815 48.7659 93.8072 49.0717C94.0314 49.3789 94.2038 49.7096 94.3243 50.0665C94.4447 50.4235 94.5073 50.7893 94.5118 51.1638L94.492 51.7227C94.4844 51.9583 94.4524 52.1923 94.399 52.422C94.3456 52.6517 94.2693 52.8756 94.1717 53.0921C94.0726 53.3086 93.9552 53.5135 93.8164 53.708C93.6776 53.9041 93.5205 54.0841 93.3467 54.2508C93.1728 54.4176 92.9837 54.5669 92.7793 54.6985C92.575 54.8302 92.3614 54.9429 92.1342 55.0365C91.9085 55.1287 91.6751 55.2004 91.4357 55.2516C91.1947 55.3013 90.9522 55.3306 90.7067 55.3364L63.8556 57.4973C65.9877 60.3152 68.0146 63.2032 69.9164 66.1381C70.6423 67.2544 71.9921 69.3392 70.7628 71.4592C70.589 71.7445 70.3785 72.0034 70.1345 72.2375C69.8905 72.4716 69.619 72.672 69.3216 72.8403C69.0227 73.0071 68.707 73.1358 68.3745 73.2251C68.0436 73.3143 67.7035 73.3626 67.3588 73.3684C66.6405 73.3158 65.9496 73.1504 65.2892 72.8739C64.6288 72.5974 64.034 72.2229 63.5048 71.7518L54.9856 65.5675C53.4132 82.5841 52.5622 99.832 52.4569 116.893C52.4768 117.13 52.4722 117.365 52.4447 117.601C52.4173 117.838 52.367 118.069 52.2938 118.296C52.2205 118.522 52.1275 118.74 52.0116 118.95C51.8957 119.159 51.76 119.356 51.6059 119.542C51.4504 119.726 51.2796 119.896 51.0904 120.05C50.9029 120.205 50.7015 120.341 50.4865 120.458C50.2715 120.575 50.0473 120.673 49.8139 120.749C49.5806 120.827 49.3411 120.882 49.0956 120.914C49.0956 120.914 48.7662 120.947 48.7052 120.948C48.664 120.951 48.6213 120.951 48.5816 120.951Z" fill="#EE7700"/>
<path d="M90.7241 51.1068L57.7558 48.0066C57.6704 47.9993 57.6109 47.9568 57.5789 47.8807C57.5469 47.8032 57.5591 47.7344 57.6155 47.6715C61.2163 43.6013 64.5166 39.3176 67.518 34.8216C68.7518 32.9782 68.4361 32.6929 66.574 33.9657L52.6909 43.4331C52.6055 43.4916 52.5109 43.5238 52.4072 43.5326C52.302 43.5414 52.2029 43.5238 52.1083 43.4799C52.0153 43.436 51.939 43.3731 51.8796 43.2897C51.8216 43.2063 51.7896 43.1141 51.7835 43.0132L49.2167 4.79412C49.1954 4.38739 49.11 4.06845 49.0245 4.0743H49.0062C48.8903 4.0743 48.8263 4.10795 48.8156 4.17525L45.4436 43.534C45.4085 43.9466 45.2163 44.0256 44.8686 43.7681L32.8035 34.9211C29.0319 32.1516 28.5088 32.6256 31.2326 36.3432L39.6482 47.8178C39.8358 48.0636 39.7717 48.1997 39.4575 48.2246L4.70485 51.057C4.64842 51.0746 4.61182 51.1097 4.59352 51.1638C4.57827 51.2077 4.58132 51.2501 4.60267 51.2926C4.62402 51.3335 4.6591 51.3613 4.70485 51.376L39.7702 54.3196C39.8586 54.3298 39.9364 54.362 40.0066 54.4147C40.0538 54.4483 40.092 54.4893 40.121 54.5391C40.1499 54.5873 40.1682 54.6385 40.1759 54.6956C40.1835 54.7512 40.1789 54.8053 40.1621 54.8595C40.1469 54.9136 40.121 54.9633 40.0844 55.0072L29.4315 68.299C27.673 70.4774 27.9521 70.7569 30.2687 69.1358L44.6414 59.0496C44.7085 59.0028 44.7832 58.9765 44.8671 58.9706C44.9266 58.9648 44.9845 58.9721 45.0425 58.9896C45.1004 59.0072 45.1523 59.0335 45.198 59.0716C45.2438 59.1081 45.2804 59.1535 45.3079 59.2047C45.3368 59.2559 45.3521 59.31 45.3567 59.3686L48.413 116.857C48.4359 117.214 48.4938 117.388 48.5868 117.377H48.6051C48.686 117.377 48.7271 117.207 48.7271 116.869C48.8431 97.968 49.8512 79.1138 51.7484 60.3064C51.8536 59.3349 52.3127 59.1447 53.124 59.7372L65.7504 68.9017C67.7178 70.3311 68.0503 70.0415 66.7463 68.0298C63.966 63.7431 60.9555 59.61 57.7177 55.6319C57.6185 55.512 57.5606 55.3759 57.5423 55.2252C57.5316 55.1213 57.5423 55.0189 57.5728 54.9194C57.6048 54.8185 57.6551 54.7278 57.7238 54.6473C57.7924 54.5669 57.8748 54.501 57.9708 54.4513C58.0654 54.4015 58.1676 54.3723 58.2759 54.3606L90.477 51.7812C90.6631 51.7695 90.7561 51.7081 90.7561 51.5954L90.7744 51.177C90.7775 51.1404 90.7607 51.117 90.7241 51.1068Z" fill="#FFD53F"/>
<mask id="mask0_86_1592" style="mask-type:luminance" maskUnits="userSpaceOnUse" x="0" y="0" width="95" height="122">
<path d="M0.0234375 0H94.9997V121.351H0.0234375V0Z" fill="white"/>
</mask>
<g mask="url(#mask0_86_1592)">
<path d="M48.5782 121.398C48.2884 121.393 48.0032 121.363 47.7195 121.304C47.4359 121.246 47.1614 121.162 46.896 121.053C46.6306 120.941 46.3774 120.808 46.1395 120.65C45.9016 120.494 45.6805 120.315 45.4792 120.116C45.2778 119.917 45.0979 119.701 44.9393 119.468C44.7822 119.235 44.6495 118.99 44.5412 118.732C44.4345 118.475 44.3536 118.208 44.3018 117.935C44.2484 117.663 44.2225 117.388 44.227 117.11L41.523 66.2221L32.7445 72.3815C31.0653 73.5563 29.8773 74.1942 28.4178 74.1942C28.0151 74.1898 27.6216 74.1357 27.2358 74.0274C26.8499 73.9206 26.4854 73.7655 26.1438 73.5636C25.8022 73.3603 25.4956 73.1174 25.2226 72.8336C24.9512 72.5497 24.7239 72.2367 24.5409 71.8928C23.2568 69.3779 24.9756 67.2448 26.1133 65.8358L32.5874 57.7598L4.33779 55.3824C4.00532 55.3546 3.682 55.2888 3.3663 55.1878C3.09635 55.1 2.83709 54.9874 2.58849 54.8513C2.34142 54.7138 2.10961 54.5558 1.89457 54.3758C1.67953 54.1959 1.48431 53.9969 1.31045 53.7804C1.13506 53.5638 0.984077 53.3327 0.855967 53.0869C0.727858 52.8425 0.625676 52.588 0.550945 52.3232C0.47469 52.0598 0.425887 51.7906 0.404535 51.517C0.383183 51.2434 0.390809 50.9713 0.424361 50.6992C0.459439 50.4271 0.520443 50.1608 0.608899 49.9004C0.720232 49.5961 0.863593 49.3064 1.04051 49.0328C1.21894 48.7592 1.42483 48.5076 1.66123 48.2793C1.89762 48.0496 2.15689 47.8477 2.43903 47.6736C2.7227 47.4995 3.02162 47.3591 3.33732 47.2493C3.66674 47.1425 4.00379 47.0738 4.34999 47.046L32.2809 44.7695L27.8001 38.6583C26.2841 36.5881 24.3976 34.0146 25.822 31.3841C26.0096 31.0417 26.2414 30.7286 26.519 30.4463C26.795 30.1639 27.1062 29.9225 27.4524 29.7235C27.7986 29.5231 28.1676 29.3724 28.5565 29.27C28.9454 29.1676 29.3435 29.1164 29.7461 29.1193C31.285 29.1193 32.7003 29.7762 35.3509 31.7235L41.8387 36.4799L44.6358 3.84084C44.6449 3.7238 44.6602 3.60675 44.68 3.4941C44.7258 3.2527 44.7913 3.01568 44.8798 2.78598C44.9667 2.55629 45.075 2.33537 45.2031 2.12323C45.3312 1.91109 45.4776 1.71211 45.6439 1.52484C45.8086 1.33757 45.9885 1.1664 46.1853 1.00985C46.382 0.853304 46.591 0.714315 46.8136 0.592883C47.0348 0.47145 47.2666 0.3705 47.5076 0.28857C47.7485 0.205176 47.9941 0.145192 48.2457 0.104226C48.4973 0.0632611 48.752 0.0442414 49.0067 0.0471676C50.5593 0.0471676 53.2282 1.00546 53.4036 4.60016L55.551 36.5413L64.1435 30.6833C64.6971 30.2327 65.3117 29.8757 65.9843 29.6153C66.6584 29.3549 67.3569 29.2027 68.0813 29.1603C68.4717 29.1632 68.8545 29.2159 69.2312 29.3168C69.6064 29.4163 69.9633 29.5611 70.3003 29.7513C70.6358 29.9415 70.9409 30.1698 71.2154 30.436C71.4899 30.7023 71.7232 30.9993 71.9169 31.3241C73.2621 33.6884 71.7675 35.921 71.0507 36.9919C69.3075 39.6049 67.4346 42.1901 65.4734 44.6875L91.1379 47.0986C91.4841 47.1294 91.8211 47.2025 92.149 47.3181C92.5608 47.4644 92.939 47.6663 93.2868 47.9223C93.6345 48.1798 93.9334 48.4798 94.1866 48.8236C94.4382 49.1674 94.6319 49.5405 94.7661 49.9399C94.9019 50.3407 94.9705 50.7504 94.9751 51.1718L94.9552 51.7467C94.9476 52.0101 94.9125 52.2705 94.8515 52.528C94.7921 52.784 94.7066 53.0342 94.5984 53.2756C94.4886 53.5185 94.3574 53.7482 94.2018 53.9662C94.0478 54.1842 93.8724 54.3861 93.6787 54.5719C93.4835 54.7577 93.273 54.9259 93.0458 55.0737C92.8186 55.2215 92.5776 55.3473 92.326 55.4526C92.0743 55.5565 91.8135 55.637 91.5451 55.694C91.2767 55.7511 91.0052 55.7847 90.7307 55.792L64.7138 57.8783C66.6675 60.4913 68.548 63.1863 70.311 65.9017C71.0308 67.018 72.5331 69.3267 71.1712 71.6748C70.9775 71.9953 70.7441 72.2879 70.4711 72.5497C70.1981 72.8131 69.8946 73.0384 69.5606 73.2257C69.2266 73.4129 68.8728 73.5578 68.5007 73.6573C68.1286 73.7568 67.7488 73.8094 67.3614 73.8138C66.5897 73.7641 65.8501 73.5929 65.1409 73.3003C64.4302 73.0077 63.7927 72.6097 63.2238 72.1064L55.3741 66.4094C53.849 83.1583 53.0239 100.138 52.9217 116.895C52.9415 117.158 52.9354 117.421 52.9049 117.683C52.8729 117.945 52.8165 118.203 52.7341 118.454C52.6517 118.707 52.5465 118.949 52.4154 119.181C52.2857 119.415 52.1347 119.633 51.9624 119.84C51.7885 120.045 51.5979 120.233 51.3874 120.403C51.177 120.574 50.9528 120.725 50.7133 120.854C50.4739 120.984 50.2238 121.091 49.963 121.175C49.7022 121.26 49.4353 121.32 49.1623 121.357C49.144 121.357 48.7871 121.393 48.72 121.395L48.5782 121.398ZM41.9455 64.9244C42.0156 64.9244 42.0812 64.939 42.1453 64.9683C42.313 65.0443 42.4015 65.1716 42.4091 65.3486L45.1604 117.058C45.1558 117.279 45.1726 117.499 45.2123 117.715C45.2519 117.933 45.3129 118.146 45.3968 118.352C45.4792 118.557 45.5829 118.754 45.7064 118.94C45.8299 119.127 45.9702 119.3 46.1289 119.459C46.289 119.619 46.4613 119.764 46.6504 119.889C46.838 120.017 47.0378 120.125 47.2483 120.216C47.4587 120.305 47.6753 120.374 47.901 120.422C48.1252 120.47 48.3525 120.498 48.5828 120.502H48.688C48.7597 120.502 49.051 120.472 49.0525 120.472C49.2691 120.44 49.4795 120.39 49.6854 120.32C49.8913 120.251 50.0896 120.163 50.2787 120.058C50.4663 119.952 50.6432 119.831 50.8094 119.693C50.9741 119.556 51.1236 119.405 51.2593 119.24C51.3951 119.076 51.5125 118.9 51.6131 118.715C51.7153 118.529 51.7962 118.336 51.8602 118.135C51.9227 117.933 51.9655 117.73 51.9883 117.521C52.0112 117.313 52.0127 117.104 51.9944 116.895C52.0997 99.8443 52.9476 82.5628 54.5246 65.5286C54.5429 65.356 54.6344 65.2345 54.7991 65.1628C54.9653 65.0926 55.1209 65.1087 55.2658 65.2126L63.785 71.3983C64.2746 71.8372 64.8267 72.1869 65.4398 72.4473C66.0514 72.7078 66.6919 72.8658 67.3599 72.9214C67.6634 72.9155 67.9608 72.8731 68.2536 72.7941C68.5449 72.7151 68.8225 72.6024 69.0848 72.4561C69.3471 72.3083 69.5866 72.1328 69.8016 71.9265C70.0182 71.7217 70.2027 71.4934 70.3568 71.2432C71.4503 69.3545 70.2424 67.4847 69.5195 66.3772C67.6253 63.4525 65.5923 60.5543 63.477 57.7598C63.3687 57.6194 63.3519 57.4687 63.4282 57.3092C63.5044 57.1497 63.6325 57.0634 63.8156 57.0488L90.6621 54.8981C90.8786 54.8937 91.0937 54.8689 91.3057 54.8264C91.5176 54.7825 91.7235 54.7211 91.9233 54.6392C92.1231 54.5587 92.3138 54.4607 92.4937 54.3451C92.6752 54.2295 92.8414 54.0993 92.997 53.953C93.151 53.8067 93.2898 53.6487 93.4134 53.4775C93.5369 53.3063 93.6421 53.1249 93.7306 52.9347C93.8175 52.7445 93.8861 52.5485 93.9349 52.3451C93.9837 52.1418 94.0112 51.9369 94.0204 51.7292L94.0402 51.1542C94.0356 50.8265 93.9792 50.5075 93.8739 50.1959C93.7672 49.8843 93.6147 49.5946 93.4179 49.3269C93.2212 49.0591 92.9863 48.8265 92.7149 48.6261C92.4449 48.4271 92.149 48.2705 91.8288 48.1564C91.5756 48.0672 91.3133 48.0116 91.0449 47.9867L64.5491 45.4995C64.3676 45.4834 64.2395 45.3942 64.1679 45.2333C64.0931 45.0723 64.1129 44.9231 64.2243 44.7841C66.3518 42.1097 68.3833 39.3255 70.2561 36.5106C70.9729 35.4411 72.1716 33.6518 71.0903 31.7528C70.9378 31.4997 70.7518 31.2685 70.5367 31.0608C70.3217 30.853 70.0822 30.6745 69.8184 30.5267C69.5545 30.3775 69.2754 30.2634 68.9811 30.1829C68.6883 30.1025 68.3878 30.06 68.0813 30.0542C67.4545 30.1025 66.852 30.2429 66.271 30.4755C65.6899 30.7067 65.1622 31.0198 64.6849 31.4134L55.4061 37.7352C55.2566 37.8405 55.0995 37.8537 54.9318 37.7791C54.7656 37.703 54.6771 37.5772 54.6664 37.4001L52.4642 4.6499C52.2872 1.0435 49.3377 0.941087 49.0022 0.941087C48.8008 0.939624 48.6011 0.952791 48.4028 0.984978C48.2045 1.0157 48.0108 1.06398 47.8217 1.12836C47.6311 1.19127 47.4496 1.27174 47.2742 1.36683C47.0988 1.46047 46.9341 1.5702 46.7801 1.69309C46.6245 1.81599 46.4812 1.95059 46.3515 2.09689C46.2219 2.2432 46.106 2.39974 46.0038 2.56653C45.9031 2.73332 45.8177 2.90742 45.7476 3.08737C45.6774 3.26879 45.6256 3.4546 45.589 3.64333C45.5737 3.73257 45.5615 3.82621 45.5539 3.91545L42.6989 37.3665C42.6836 37.542 42.5906 37.6664 42.4228 37.7381C42.2535 37.8127 42.0965 37.7937 41.9516 37.684L34.7836 32.4302C32.3205 30.6218 31.0501 30.0103 29.7461 30.0103C29.4289 30.0088 29.1147 30.0483 28.8082 30.1288C28.5001 30.2093 28.2103 30.3278 27.9373 30.4858C27.6643 30.6423 27.4173 30.8325 27.1992 31.0549C26.9811 31.2773 26.7966 31.5231 26.6486 31.7937C25.485 33.9415 27.0497 36.0746 28.5611 38.1404L33.5086 44.888C33.6123 45.0284 33.6275 45.1777 33.5513 45.3342C33.475 45.4908 33.3469 45.5756 33.1669 45.5888L4.42777 47.9253C4.15783 47.9487 3.89551 48.0013 3.63929 48.0862C3.13906 48.2647 2.69983 48.5354 2.32465 48.8996C1.94947 49.2654 1.67343 49.6882 1.49346 50.171C1.42331 50.3759 1.3745 50.5865 1.34858 50.8001C1.32113 51.0152 1.31503 51.2288 1.3318 51.4439C1.34858 51.6604 1.38671 51.8711 1.44618 52.0788C1.50566 52.2881 1.58497 52.4885 1.68563 52.6816C1.78628 52.8747 1.90524 53.0562 2.04403 53.2273C2.18129 53.397 2.33532 53.5536 2.50461 53.6955C2.6739 53.8374 2.85691 53.9618 3.05213 54.07C3.24581 54.1768 3.45018 54.2661 3.66369 54.3349C3.90924 54.4153 4.16088 54.4665 4.41862 54.487L33.5162 56.9332C33.7007 56.9478 33.8288 57.0371 33.9036 57.198C33.9768 57.3604 33.9585 57.5111 33.8456 57.6516L26.853 66.3728C25.7351 67.7568 24.3488 69.4774 25.3782 71.492C25.5231 71.7597 25.7031 72.004 25.9166 72.2264C26.1301 72.4473 26.3711 72.6375 26.6395 72.797C26.9064 72.9565 27.1916 73.0779 27.4935 73.1642C27.7955 73.2491 28.1051 73.2944 28.4193 73.2988C29.6256 73.2988 30.6764 72.7238 32.1985 71.6588L41.6725 65.0092C41.7533 64.9536 41.8448 64.9244 41.9455 64.9244Z" fill="#FF7403"/>
</g>
<path d="M48.6063 117.82C48.4721 117.814 48.3501 117.775 48.2403 117.7C48.0222 117.466 47.9261 117.194 47.9505 116.881L44.8942 59.3861L30.5475 69.4943C28.9431 70.6121 28.3711 70.8257 27.9899 70.4497C27.6086 70.0737 27.8495 69.528 29.0651 68.0196L39.7164 54.7307L4.66635 51.8164C4.45436 51.7798 4.29575 51.673 4.19204 51.493C4.14934 51.414 4.12646 51.3292 4.12189 51.2399C4.11731 51.1507 4.13256 51.0644 4.16764 50.981C4.20272 50.899 4.25305 50.8273 4.32168 50.7659C4.38878 50.7044 4.46656 50.6591 4.55502 50.6298L39.0652 47.8032L30.8555 36.5992C28.9507 33.9921 28.8226 33.2781 29.2679 32.8729C29.7148 32.4676 30.4514 32.6198 33.0975 34.5612L45.0009 43.2883L48.3531 4.13431C48.3623 4.08164 48.3775 4.03044 48.4004 3.98215C48.4218 3.93387 48.4507 3.88998 48.4858 3.84902C48.5194 3.80659 48.559 3.77148 48.6032 3.73929C48.649 3.70857 48.6963 3.68223 48.7481 3.66321C48.7985 3.64419 48.8518 3.63102 48.9067 3.62517C48.9616 3.61932 49.0166 3.61932 49.0699 3.6281C49.1248 3.63541 49.1782 3.64858 49.2285 3.67053C49.2789 3.69101 49.3261 3.71734 49.3704 3.74953C49.439 3.80659 49.6464 3.98508 49.6876 4.76488L52.2544 42.9796C52.2544 43.0396 52.2833 43.0805 52.3718 43.0805L66.3098 33.5956C67.417 32.8392 68.0972 32.5042 68.5319 32.8948C68.9665 33.2869 68.6462 33.9599 67.9111 35.0587C64.986 39.4405 61.7756 43.6218 58.2816 47.6028L90.771 50.6576C90.803 50.662 90.8351 50.6679 90.8656 50.6781C90.9723 50.7191 91.0593 50.7834 91.1264 50.8727C91.195 50.9605 91.2331 51.06 91.2438 51.1697L91.227 51.6071C91.2225 51.6935 91.2011 51.7754 91.1614 51.8544C91.1218 51.9319 91.0684 51.9992 91.0013 52.0578C90.9342 52.1148 90.8564 52.1572 90.771 52.185C90.6856 52.2128 90.5972 52.2231 90.5072 52.2158L58.3212 54.7995C58.2252 54.8097 58.1474 54.8522 58.0879 54.9239C58.0269 54.997 58.0025 55.0789 58.0117 55.1711C58.0208 55.2384 58.0452 55.2984 58.0879 55.3511C61.3364 59.3437 64.3561 63.49 67.1471 67.7899C68.0316 69.1549 68.1948 69.7313 67.7937 70.0839C67.3941 70.435 66.8085 70.2229 65.474 69.2544L52.8492 60.0884C52.5045 59.8382 52.3657 59.847 52.352 59.8441C52.2635 60.0006 52.2178 60.1689 52.2147 60.3474C50.3281 79.0524 49.3124 98.0719 49.1965 116.878C49.1965 117.13 49.1965 117.82 48.6063 117.82ZM44.9033 58.5156C45.0192 58.5156 45.1306 58.5347 45.2389 58.5756C45.3456 58.6166 45.4432 58.6736 45.5286 58.7497C45.614 58.8243 45.6811 58.9121 45.733 59.0116C45.7833 59.1111 45.8138 59.2164 45.823 59.3276L48.3928 107.648C48.7344 91.8394 49.7059 75.939 51.2859 60.2581C51.3149 60.0123 51.3927 59.2676 51.989 59.0204C52.2422 58.9575 52.4953 58.9589 52.7485 59.0218C53.0017 59.0848 53.2228 59.2033 53.4119 59.3759L66.0368 68.5404C66.3891 68.7979 66.6529 68.9705 66.8497 69.089C66.7444 68.8857 66.5889 68.6209 66.3555 68.261C63.5844 63.9903 60.586 59.8704 57.3589 55.9026C57.2049 55.7154 57.1149 55.5018 57.089 55.2648C57.0722 55.1009 57.0874 54.9414 57.1362 54.7834C57.185 54.6269 57.2628 54.4849 57.3711 54.3577C57.4779 54.2304 57.6075 54.128 57.7585 54.0504C57.9079 53.9729 58.0681 53.9246 58.2389 53.9085L89.3039 51.4184L57.7112 48.4484C57.5846 48.4367 57.4702 48.3943 57.3681 48.3211C57.2659 48.248 57.1927 48.1544 57.1454 48.0402C57.0981 47.9261 57.0859 47.8091 57.1088 47.6891C57.1317 47.5677 57.185 47.4623 57.2689 47.3716C60.8529 43.3175 64.1395 39.0513 67.1272 34.5759C67.3301 34.2715 67.4689 34.0433 67.5665 33.8648C67.388 33.9672 67.1532 34.115 66.8466 34.3257L52.9635 43.793C52.8019 43.9028 52.6234 43.9627 52.4267 43.9759C52.2879 43.9847 52.1537 43.9671 52.0225 43.9247C51.8914 43.8808 51.774 43.815 51.6687 43.7272C51.565 43.6394 51.4827 43.5355 51.4232 43.4156C51.3622 43.2956 51.3286 43.1698 51.321 43.0366L48.9632 7.92506L45.9114 43.5692C45.9191 43.7228 45.8825 43.8662 45.8016 44.0008C45.7223 44.1339 45.611 44.2363 45.4691 44.308C45.3151 44.3607 45.1595 44.3709 44.9994 44.3373C44.8408 44.3036 44.702 44.2319 44.5861 44.1207L32.521 35.2737C31.7615 34.6768 30.9501 34.153 30.0869 33.7039C30.5185 34.5451 31.0279 35.3396 31.615 36.0886L40.0321 47.5633C40.1313 47.6598 40.1938 47.7754 40.2182 47.9086C40.2426 48.0432 40.2243 48.1719 40.1648 48.2948C40.1038 48.4192 40.0123 48.5143 39.8888 48.583C39.7668 48.6503 39.6341 48.6781 39.4922 48.6664L8.14818 51.2209L39.814 53.8749C39.9925 53.8924 40.1526 53.9539 40.2944 54.0592C40.5003 54.2114 40.6162 54.4103 40.6437 54.6576C40.6712 54.8961 40.6056 55.1053 40.447 55.2896L29.8032 68.5667C29.5775 68.8462 29.4006 69.0744 29.2618 69.2661C29.4601 69.1373 29.7041 68.9779 30.003 68.7716L44.3726 58.6839C44.5099 58.5902 44.6639 58.5347 44.8316 58.52C44.853 58.5186 44.8789 58.5156 44.9033 58.5156Z" fill="#FF7403"/>
</svg>
