<svg width="428" height="279" viewBox="0 0 428 279" fill="none" xmlns="http://www.w3.org/2000/svg">
<path d="M219.556 197.691C219.562 197.69 219.562 197.69 219.568 197.689C219.42 197.984 219.403 198.003 219.556 197.691Z" fill="#7F644F"/>
<path d="M227.639 135.533C228.114 128.385 224.731 96.3739 234.96 100.357C224.661 85.3778 229.554 71.0325 237.134 74.5058C231.354 68.7791 224.044 45.6776 232.006 44.0035C223.946 40.8326 221.591 16.3507 231.569 16.6546C236.21 16.7891 246.648 20.0607 255.953 28.2055C318.734 80.3752 326.757 143.388 328.233 162.963C296.355 176.019 241.045 187.613 205.505 189.104C203.269 191.924 225.684 164.995 227.639 135.533Z" fill="#16E203"/>
<path d="M227.638 135.519C228.113 128.371 224.73 96.3601 234.959 100.343C224.66 85.358 229.546 71.0133 237.133 74.492C231.353 68.7652 224.043 45.6638 232.005 43.9897C223.938 40.8194 221.59 16.3368 231.567 16.6349C236.209 16.7812 246.647 20.0468 255.951 28.1858C239.604 26.2666 240.314 38.7581 250.555 54.4586C240.145 50.755 243.104 71.6786 252.265 81.0239C241.355 78.3462 237.415 92.5824 246.127 108.024C226.687 99.3754 251.56 159.423 223.179 187.716C216.922 188.392 210.985 188.858 205.51 189.096C207.43 186.652 225.875 162.118 227.638 135.519Z" fill="#4AAD04"/>
<path d="M268.576 71.3716C261.6 72.2356 255.594 74.4859 261.324 90.1528C251.031 91.1612 253.233 108.46 259.871 114.993C250.29 117.585 248.019 136.301 258.697 140.761C252.575 146.803 265.953 154.94 273.158 156.475C274.053 155.823 274.96 155.17 275.867 154.51C268.555 152.455 259.701 143.956 266.652 140.858C253.485 134.663 257.893 117.878 268.528 116.234C259.255 107.496 256.378 93.7448 269.602 92.5038C261.948 80.4142 268.751 72.9411 275.422 76.1317C273.013 70.6252 275.538 56.3394 284.79 57.0943C283.418 55.4485 282.014 53.8056 280.566 52.1013C270.947 52.9797 267.587 64.1965 268.576 71.3716Z" fill="#34FF34"/>
<mask id="mask0_191_2540" style="mask-type:luminance" maskUnits="userSpaceOnUse" x="195" y="220" width="65" height="42">
<path d="M255.853 220.83L195.89 226.566L199.279 261.999L259.242 256.264L255.853 220.83Z" fill="white"/>
</mask>
<g mask="url(#mask0_191_2540)">
<path d="M198.702 254.836C197.994 251.91 207.668 247.001 213.114 251.728C214.543 252.981 212.792 254.753 210.544 255.797C214.439 256.832 221.02 252.958 225.06 250.496C235.626 244.047 242.283 233.135 246.873 224.245C248.229 221.635 257.154 219.481 255.354 222.981C249.142 235.055 240.033 247.46 225.245 255.524C215.658 260.752 201.245 265.232 198.702 254.836Z" fill="#521952"/>
</g>
<path d="M396.701 122.527C400.807 145.249 388.781 178.239 365.479 204.722C349.847 222.516 329.148 237.377 304.838 244.241C251.723 259.227 210.676 231.26 179.057 209.231C143.721 194.822 52.4223 212.631 25.9901 213.961C6.65222 214.94 28.5356 178.562 42.2352 181.503C55.8248 184.414 159.735 192.27 183.501 182.292C206.35 172.67 219.178 161.43 239.818 150.689C255.239 142.66 288.338 123.345 300.972 111.986C303.297 109.897 305.735 108.006 308.28 106.308C336.322 87.5058 375.897 92.2483 396.701 122.527Z" fill="#01E11B"/>
<path d="M41.9809 181.544C55.5512 184.385 159.267 192.057 183.049 182.113C194.231 177.424 203.96 172.235 212.435 167.029C199.087 182.374 191.768 185.644 222.735 213.759C234.637 224.559 259.201 237.339 274.723 247.358C235.563 247.669 203.983 226.323 178.53 208.791C143.268 194.631 51.9577 212.382 25.5379 213.776C16.422 214.254 12.6154 204.146 20.6048 198.408C18.2759 194.797 23.2619 187.676 28.7299 187.44C28.0322 182.252 37.8683 180.679 41.9809 181.544Z" fill="#06237C"/>
<path d="M304.634 242.035C251.36 257.072 210.227 229.126 178.534 207.122C143.118 192.738 56.6826 211.024 25.1921 211.937C20.4887 212.071 17.1083 209.711 16.2772 206.683C16.1894 206.358 16.2491 206.06 16.2561 205.475C17.3333 206.863 19.1132 208.75 22.741 209.089C46.4783 211.315 136.42 191.762 167.052 199.585C191.862 205.913 209.628 213.654 245.006 203.674C338.598 177.266 326.977 146.55 355.836 130.634C365.029 125.562 396.967 120.897 396.967 120.897L396.967 120.903C403.25 159 364.959 225.018 304.634 242.035Z" fill="#FFB24D"/>
<path d="M304.721 244.269C251.564 259.265 210.499 231.312 178.849 209.292C143.494 194.885 52.2687 212.669 25.8127 214.013C20.3168 214.288 16.2342 210.379 16.2774 206.683C18.2306 209.198 21.2842 211.894 30.8137 211.131C66.1386 208.307 140.222 194.78 167.384 201.742C179.765 204.917 190.397 208.438 202.333 209.926C212.97 221.993 248.135 237.439 295.757 227.176C385.531 207.843 394.527 150.883 397.434 134.205C395.988 172.868 359.468 228.829 304.721 244.269Z" fill="#34FF34"/>
<path d="M396.701 122.524C397.283 125.718 397.532 129.106 397.494 132.664L397.501 132.669C397.223 153.002 386.957 178.446 369.236 200.28C368.026 201.78 366.769 203.259 365.479 204.719C365.045 204.45 364.608 204.17 364.19 203.876C348.272 193.34 336.51 174.785 339.088 145.52C339.136 145.032 310.219 126.377 308.281 106.304C312.38 103.544 316.731 101.303 321.236 99.5604C344.963 90.415 372.909 95.4408 391.172 115.545C392.762 117.283 394.268 119.143 395.702 121.105C396.043 121.567 396.378 122.042 396.701 122.524Z" fill="#001549"/>
<path d="M391.172 115.545C385.754 117.691 379.723 119.407 373.308 120.545C345.64 125.416 337.711 136.384 328.663 124.279C323.031 116.743 320.5 104.503 320.36 98.4338C344.086 89.2883 372.909 95.441 391.172 115.545Z" fill="#8CFF75"/>
<path d="M396.967 120.898C397.544 124.099 397.532 129.11 397.495 132.668L397.502 132.673C397.45 135.362 397.25 138.136 396.861 140.982C394.377 159.653 384.613 181.328 369.236 200.284C367.659 198.867 366.159 197.341 364.751 195.722C362.39 193.02 360.274 190.055 358.437 186.915C344.418 162.857 375.211 129.182 393.815 121.051C395.054 120.509 395.846 121.22 396.967 120.898Z" fill="#8CFF75"/>
<path d="M397.434 134.205C397.077 155.362 384.613 181.327 369.236 200.283C367.658 198.866 366.159 197.339 364.751 195.721C387.174 176.371 394.652 147.388 397.434 134.205Z" fill="#4AC74E"/>
<path d="M339.447 142.095C332.423 128.103 387.907 121.961 393.814 121.05C394.584 120.935 358.609 180.284 339.447 142.095Z" fill="#DCF0FD"/>
<path d="M416.336 119.79L397.258 125.324C397.178 125.344 397.113 125.255 397.016 125.163L392.988 121.105C392.987 121.087 394.885 120.065 394.885 120.065C401.523 119.68 416.301 119.549 416.301 119.549C416.471 119.551 416.503 119.756 416.336 119.79Z" fill="#471F6D"/>
<path d="M391.027 115.276L408.349 101.251C408.559 101.076 408.85 101.286 408.734 101.524L394.885 120.066C394.822 120.197 393.003 121.122 392.989 121.106L391.005 115.636C390.948 115.504 390.91 115.371 391.027 115.276Z" fill="#5C2E87"/>
<path d="M361.178 126.974C362.501 131.326 367.401 133.767 372.122 132.433C376.842 131.099 379.601 126.5 378.279 122.153C376.963 117.807 372.063 115.365 367.336 116.694C362.608 118.023 359.856 122.627 361.178 126.974Z" fill="#F2F9F9"/>
<path d="M363.318 126.494C364.383 130 368.429 131.944 372.353 130.836C376.283 129.726 378.602 125.992 377.536 122.48C376.47 118.98 372.425 117.035 368.494 118.144C364.57 119.247 362.252 122.988 363.318 126.494Z" fill="#160101"/>
<path d="M366.521 124.044C366.787 124.913 367.778 125.396 368.734 125.126C369.697 124.855 370.257 123.931 369.991 123.062C369.725 122.192 368.741 121.708 367.778 121.979C366.827 122.243 366.262 123.174 366.521 124.044Z" fill="#FFF8F8"/>
<path d="M149.846 249.842C150.695 246.081 163.25 243.831 165.984 249.175C166.798 250.779 164.54 252.181 161.821 252.859C165.493 254.583 173.771 251.787 178.88 249.975C192.25 245.255 203.176 235.324 211.216 227.095C213.58 224.68 223.661 224.032 220.508 227.273C209.608 238.454 195.576 249.481 177.225 255.119C165.328 258.773 147.357 260.88 149.846 249.842Z" fill="#521952"/>
<path d="M171.859 189.667C152.998 181.351 142.604 154.048 157.196 155.199C144.998 143.657 131.614 102.876 147.913 109.028C134.76 82.9074 144.247 64.9799 152.336 70.8138C148.902 58.4816 153.402 45.2235 156.574 41.3897C163.624 32.8732 177.212 27.0173 182.83 41.6453C217.905 123.689 317.196 149.943 332.258 152.85C301.083 193.725 239.166 215.099 195.552 213.748C179.611 215.685 151.068 192.569 171.859 189.667Z" fill="#4AAD04"/>
<path d="M334.068 151.882C319.631 149.59 231.324 127.783 189.33 56.6646C183.063 46.0465 175.129 48.6183 168.764 56.6519C165.892 60.2662 160.877 74.981 164.433 86.228C156.701 81.0935 148.286 96.2707 161.336 119.938C145.89 114.736 160.743 151.071 172.487 161.344C158.781 160.699 167.347 183.043 185.249 190.162C165.859 193.424 186.991 210.546 202.312 210.619C244.065 210.824 305.626 191.386 334.068 151.882Z" fill="#26FF51"/>
<path d="M180.246 66.4367C184.388 61.7468 193.507 74.5968 197.485 79.4523C238.277 129.247 310.143 158.363 326.63 157.591C305.022 180.268 260.241 207.529 209.92 202.616C187.445 200.418 181.998 189.817 189.817 187.96C174.445 178.588 169.357 158.709 185.376 164.632C169.005 148.176 161.715 122.722 180.826 130.424C159.51 107.5 170.218 95.228 180.446 101.042C172.797 87.5029 171.509 76.3371 180.246 66.4367Z" fill="#F9DE84"/>
</svg>
