<svg width="463" height="420" viewBox="0 0 463 420" fill="none" xmlns="http://www.w3.org/2000/svg">
<path d="M41.843 380.761C38.2478 380.42 35.0594 379.194 32.2841 377.075C21.1826 368.62 21.2737 349.374 21.2798 348.561L25.3122 348.619C25.3062 348.793 25.2576 366.029 34.4643 373.032C41.0899 378.062 51.0254 376.828 63.9973 369.36C86.601 356.341 88.0343 337.501 89.4189 319.271C90.5303 304.618 91.6781 289.458 103.988 278.673C117.677 266.67 132.501 274.072 146.827 281.235C161.548 288.587 176.773 296.185 191.5 283.572C208.195 269.268 207.703 251.03 207.266 234.941C206.938 222.945 206.628 211.623 214.231 205.092C224.44 196.325 241.05 197.885 255.71 199.264C265.664 200.193 275.957 201.158 278.508 197.479C278.781 197.087 279.613 195.89 278.818 192.377C271.554 160.315 271.354 137.585 278.229 124.819C281.63 118.505 286.731 114.637 293.387 113.338C305.6 110.958 314.8 119.108 322.92 126.307C333.772 135.937 342.348 143.55 355.945 129.174C365.832 118.73 369.464 107.728 372.391 98.889C378.227 81.2321 383.103 71.696 415.284 81.0216C421.4 82.7924 426.058 82.1683 429.538 79.113C437.566 72.0662 438.641 52.6022 439.686 33.7841L439.935 29.3789L443.955 29.7055L443.7 34.1034C442.607 54.0173 441.459 74.6207 431.918 82.9956C427.485 86.8855 421.57 87.7999 414.331 85.7026C383.99 76.9068 381.203 85.3397 376.138 100.653C373.059 109.971 369.221 121.568 358.617 132.78C342.566 149.741 331.355 139.791 320.521 130.175C312.675 123.223 304.567 116.023 294.043 118.085C288.474 119.18 284.411 122.236 281.611 127.432C275.38 138.993 275.751 160.423 282.711 191.122C283.597 195.048 283.227 198.219 281.611 200.556C277.725 206.159 267.868 205.23 255.394 204.061C241.426 202.755 225.594 201.267 216.582 209.004C210.727 214.033 210.976 223.192 211.286 234.781C211.735 251.226 212.294 271.685 193.844 287.484C177.283 301.672 160.279 293.166 145.278 285.677C131.365 278.724 118.223 272.156 106.369 282.556C95.5284 292.056 94.5081 305.489 93.4271 319.706C92.0121 338.357 90.4088 359.498 65.7463 373.7C56.4668 379.041 48.4686 381.4 41.843 380.761Z" fill="#694225"/>
<path d="M61.7019 375.289C67.3559 382.031 66.7607 393.693 66.7607 393.693C66.7607 393.693 57.0014 394.419 51.3535 387.677C45.7056 380.935 46.3007 369.273 46.3007 369.273C46.3007 369.273 56.054 368.547 61.7019 375.289Z" fill="#415210"/>
<path d="M52.6774 378.997C53.4001 384.876 49.4709 390.435 49.4709 390.435C49.4709 390.435 44.3695 386.458 43.6468 380.579C42.9241 374.694 46.8534 369.135 46.8534 369.135C46.8534 369.135 51.9547 373.112 52.6774 378.997Z" fill="#35420D"/>
<path d="M62.2607 366.495C68.6981 360.841 69.5787 349.208 69.5787 349.208C69.5787 349.208 60.0259 346.733 53.5946 352.379C47.1572 358.026 46.2705 369.659 46.2705 369.659C46.2705 369.659 55.8233 372.141 62.2607 366.495Z" fill="#415210"/>
<path d="M54.4875 362.058C56.4005 356.571 53.7405 350.025 53.7405 350.025C53.7405 350.025 47.9772 352.369 46.0582 357.863C44.1452 363.35 46.8112 369.896 46.8112 369.896C46.8112 369.896 52.5745 367.544 54.4875 362.058Z" fill="#35420D"/>
<path d="M63.4514 361.814C72.6884 362.467 79.7513 371.727 79.7513 371.727C79.7513 371.727 71.8321 379.942 62.589 379.296C53.352 378.65 46.2891 369.383 46.2891 369.383C46.2891 369.383 54.2083 361.168 63.4514 361.814Z" fill="#415210"/>
<path d="M47.6128 369.311L76.9393 371.691C76.9393 371.691 71.2914 379.645 62.1091 378.252C52.9267 376.858 47.6128 369.311 47.6128 369.311Z" fill="#3D4D0F"/>
<path d="M73.1797 333.169C72.3416 333.089 71.5217 332.697 70.8416 331.986C69.1715 330.23 69.0136 327.182 70.4832 325.186C71.461 323.858 94.8542 292.543 125.432 290.264C167.985 287.085 184.953 266.424 204.593 242.489C208.82 237.344 213.187 232.024 217.924 226.741C227.641 215.92 237.625 191.71 248.192 166.085C265.998 122.882 286.184 73.9173 315.213 60.9704C349.198 45.8099 388.508 46.9058 428.894 64.1491C430.983 65.049 432.076 67.7995 431.329 70.3032C430.582 72.8142 428.281 74.1206 426.179 73.2207C387.616 56.7539 350.218 55.629 318.031 69.9912C291.996 81.6028 272.563 128.746 255.418 170.337C244.038 197.93 234.218 221.762 223.42 233.788C218.81 238.919 214.511 244.158 210.345 249.231C190.407 273.521 171.568 296.469 125.936 299.872C98.6559 301.912 76.7445 331.253 76.5259 331.55C75.6514 332.733 74.4003 333.285 73.1797 333.169Z" fill="#5A7016"/>
<path d="M83.5647 321.955C83.5162 321.948 83.4736 321.94 83.419 321.926C82.8785 321.781 82.5384 321.135 82.6599 320.489C84.4271 311.091 98.5894 308.993 111.082 307.15C112.509 306.94 113.912 306.729 115.272 306.519C127.175 304.639 146.773 288.129 164.062 273.563L168.144 270.131C179.628 260.493 187.923 260.667 195.952 260.834C201.053 260.943 205.869 261.045 211.219 258.461C219.715 254.375 220.796 243.678 222.175 230.129C222.934 222.675 223.79 214.221 226.037 205.592C231.37 185.09 235.524 184.205 245.568 182.071C247.821 181.592 250.378 181.048 253.342 180.199C263.174 177.383 269.903 157.055 275.302 140.719C278.423 131.277 281.12 123.135 283.901 120.021C288.043 115.384 290.551 103.569 293.448 89.8892C295.385 80.7668 297.578 70.4179 300.584 61.0198C306.493 42.55 326.072 49.6113 345.002 56.4332C351.257 58.6829 357.712 61.0125 363.64 62.4349C377.225 65.6862 383.583 60.7875 390.3 55.5986C395.128 51.8756 400.126 48.0147 407.93 47.0568C417.696 45.8521 426.009 66.4192 426.362 67.2973C426.599 67.8924 426.392 68.6109 425.888 68.9012C425.384 69.1914 424.783 68.9302 424.546 68.3351C424.467 68.1319 416.469 48.3921 408.137 49.4517C400.813 50.3516 396.027 54.0455 391.393 57.6234C384.634 62.8413 377.656 68.219 363.245 64.7935C357.227 63.3566 350.716 61.0052 344.425 58.741C325.544 51.9337 307.707 45.4965 302.466 61.8761C299.503 71.1509 297.322 81.4199 295.403 90.4843C292.422 104.527 289.853 116.661 285.28 121.778C282.826 124.521 280.209 132.431 277.178 141.597C271.603 158.456 264.662 179.429 253.809 182.543C250.785 183.406 248.204 183.958 245.921 184.444C236.204 186.505 232.93 187.202 227.963 206.31C225.77 214.729 224.92 223.067 224.173 230.419C222.776 244.186 221.574 256.073 211.972 260.696C206.246 263.461 201.223 263.352 195.915 263.244C188.209 263.077 180.247 262.91 169.303 272.097L165.222 275.537C147.744 290.255 127.934 306.947 115.539 308.899C114.167 309.117 112.758 309.327 111.331 309.538C99.4942 311.287 86.085 313.268 84.6275 321.011C84.5121 321.607 84.0566 321.998 83.5647 321.955Z" fill="#5A7016"/>
<path d="M189.587 215.119C188.682 215.032 187.796 214.574 187.091 213.754C185.5 211.896 185.476 208.848 187.037 206.947C226.031 159.39 281.454 121.979 328.228 111.644C330.414 111.151 332.522 112.885 332.922 115.498C333.329 118.118 331.884 120.629 329.698 121.108C284.442 131.108 230.702 167.453 192.788 213.689C191.919 214.749 190.735 215.227 189.587 215.119Z" fill="#74911C"/>
<path d="M20.4783 371.878C17.6604 371.602 15.3041 368.989 14.97 365.499C14.5874 361.543 16.9681 357.958 20.2839 357.501C35.4847 355.418 48.5052 342.116 61.0945 329.249C74.4369 315.612 87.0324 302.738 102.245 302.549C156.811 301.881 178.644 259.963 208.863 201.927C218.853 182.746 229.177 162.912 241.839 142.33C295.889 54.4375 372.5 64.5832 434.026 72.7259C437.342 73.1613 439.734 76.7319 439.37 80.6943C439.012 84.5842 436.121 87.4146 432.884 87.1025C432.817 87.0953 432.757 87.088 432.696 87.0735C371.194 78.9526 301.495 69.7141 251.574 150.887C239.192 171.018 228.989 190.613 219.12 209.562C188.081 269.166 163.57 316.244 102.367 316.991C91.5507 317.122 80.5707 328.341 68.9469 340.222C55.6288 353.836 40.5313 369.265 21.6625 371.849C21.2617 371.907 20.8669 371.914 20.4783 371.878Z" fill="#996036"/>
<path d="M23.0472 362.674C38.2479 360.591 51.2685 347.282 63.8578 334.414C77.1941 320.785 89.7956 307.911 105.008 307.722C159.574 307.054 181.407 265.129 211.626 207.1C221.616 187.919 231.94 168.085 244.603 147.503C298.652 59.6106 375.263 69.7562 436.789 77.8989C437.925 78.044 437.166 75.4822 434.979 75.1919C373.454 67.0565 296.843 56.9109 242.793 144.796C230.137 165.385 219.807 185.219 209.816 204.4C179.597 262.43 157.765 304.355 103.199 305.022C87.9859 305.204 75.3904 318.086 62.048 331.715C49.4587 344.582 36.4382 357.884 21.2374 359.974C17.9216 360.424 19.7313 363.131 23.0472 362.674Z" fill="#A86A3B"/>
<path d="M437.949 75.2305C437.979 75.6586 437.979 76.0941 437.943 76.544C437.578 80.4339 434.694 83.257 431.451 82.9449C431.39 82.9449 431.329 82.9304 431.269 82.9232C369.767 74.795 300.067 65.5638 250.147 146.729C237.764 166.868 227.562 186.463 217.693 205.411C186.654 265.015 162.137 312.093 100.939 312.841C90.1234 312.971 79.1434 324.191 67.5197 336.071C54.2016 349.679 39.1041 365.108 20.2292 367.698C19.8344 367.757 19.4397 367.764 19.051 367.727C17.4356 367.568 15.9841 366.624 14.9639 365.202C14.9699 365.304 14.9578 365.398 14.9699 365.5C15.304 368.99 17.6603 371.603 20.4782 371.879C20.8668 371.915 21.2616 371.908 21.6624 371.85C40.5312 369.266 55.6287 353.837 68.9468 340.222C80.5706 328.342 91.5506 317.123 102.367 316.992C163.57 316.244 188.081 269.166 219.12 209.563C228.989 190.614 239.191 171.019 251.574 150.888C301.494 69.7149 371.194 78.9534 432.696 87.0743C432.756 87.0888 432.817 87.0961 432.884 87.1034C436.121 87.4154 439.012 84.5851 439.37 80.6952C439.558 78.6341 438.993 76.6892 437.949 75.2305Z" fill="#82522E"/>
<path d="M389.013 71.935C391.321 72.16 393.41 72.414 400.54 73.7421C407.675 75.0701 419.803 76.7103 411.744 76.2168C403.685 75.7305 398.517 76.4563 393.714 75.2588C388.91 74.0614 383.104 71.9277 383.104 71.9277L389.013 71.935Z" fill="#A86A3B"/>
<path d="M363.154 71.542C359.656 71.0993 355.502 71.1936 351.014 70.6856C346.526 70.1776 343.435 71.0703 343.435 71.0703C343.435 71.0703 343.489 70.2865 346.556 70.9542C349.623 71.6146 353.242 71.4694 353.892 71.6581C354.542 71.8395 363.154 71.542 363.154 71.542Z" fill="#A86A3B"/>
<path d="M355.314 80.7449C350.127 79.5474 347.492 78.6548 341.662 78.3863C335.831 78.125 326.734 81.3182 324.22 81.7174C321.706 82.1165 321.627 82.6608 325.422 82.327C329.218 82.0004 333.651 80.89 338.358 79.9538C343.07 79.0177 346.921 80.9263 347.048 80.9408C347.17 80.9481 355.314 80.7449 355.314 80.7449Z" fill="#82522E"/>
<path d="M351.251 76.4351C357.263 75.2304 361.769 76.0722 370.764 75.5424C379.758 75.0127 379.454 73.9967 383.25 74.9038C387.045 75.8182 388.503 76.3553 384.489 76.2609C380.468 76.1738 381.98 76.5657 374.529 76.9358C367.077 77.3132 364.059 77.1245 358.338 77.1173C352.611 77.11 351.251 76.4351 351.251 76.4351Z" fill="#82522E"/>
<path d="M397.691 79.162C405.021 79.3289 401.468 80.9618 411.78 79.9966C422.092 79.0314 423.689 77.7541 427.248 78.0226C430.813 78.2839 432.999 79.6337 430.947 79.3362C428.894 79.0459 430.449 77.4566 425.402 79.104C420.355 80.7514 410.25 80.2506 413.135 81.3102C416.019 82.3697 400.715 81.673 399.58 81.3247C398.438 80.9763 397.691 79.162 397.691 79.162Z" fill="#82522E"/>
<path d="M389.766 76.0704C393.337 76.6655 395.626 77.7759 399.216 77.4783C402.805 77.1808 407.754 76.963 404.566 77.5001C401.378 78.0371 401.007 78.3056 397.934 78.204C394.861 78.1024 393.877 78.8572 390.58 77.4493C387.282 76.0341 389.766 76.0704 389.766 76.0704Z" fill="#82522E"/>
<path d="M268.014 122.285C271.275 118.685 272.514 116.523 276.474 111.326C280.427 106.137 286.415 102.248 289.932 99.0181C293.448 95.7886 296.454 94.5912 294.098 96.2966C291.741 98.0021 283.591 106.609 280.998 107.821C278.411 109.04 278.174 112.829 278.174 112.829L268.014 122.285Z" fill="#82522E"/>
<path d="M261.224 127.047C263.739 124.834 267.261 118.774 269.253 116.887C271.245 114.993 273.85 113.237 271.178 116.031C268.5 118.817 264.735 125.748 262.646 127.178C260.563 128.615 261.224 127.047 261.224 127.047Z" fill="#82522E"/>
<path d="M301.452 92.3932C308.94 87.4583 317.977 83.5757 318.985 84.2651C319.999 84.9545 314.066 87.5817 308.618 89.4395C303.177 91.2901 301.452 92.3932 301.452 92.3932Z" fill="#82522E"/>
<path d="M299.8 93.793C298.768 96.1516 298.203 96.3185 296.399 99.0472C294.601 101.769 294.796 98.8005 296.502 97.5595C298.203 96.3185 299.8 93.793 299.8 93.793Z" fill="#996036"/>
<path d="M310.197 89.5909C311.989 88.8651 316.768 85.7663 321.524 84.4527C326.279 83.1392 330.08 81.8982 332.164 82.3263C334.241 82.7545 335.522 82.3554 331.137 84.0899C326.752 85.8243 328.69 85.2728 322.981 86.4267C317.273 87.5951 316.568 88.3063 314.187 89.8957C311.813 91.4923 308.673 91.935 308.035 93.4735C307.404 95.012 302.497 95.745 300.566 95.8394C298.634 95.9337 310.197 89.5909 310.197 89.5909Z" fill="#996036"/>
<path d="M384.749 79.7789C380.972 79.1476 375.276 78.792 366.816 79.3217C358.362 79.8443 345.184 78.9734 356.054 80.2216C366.919 81.4626 373.168 79.9822 378.859 80.0838C384.555 80.1854 388.077 80.8603 388.12 80.2216C388.162 79.5903 384.749 79.7789 384.749 79.7789Z" fill="#996036"/>
<path d="M407.936 78.5469C405.288 79.1057 406.339 80.0999 398.832 80.0709C391.326 80.0419 391.114 78.9097 394.089 79.0839C397.059 79.2581 407.936 78.5469 407.936 78.5469Z" fill="#996036"/>
<path d="M255.23 132.891C254.593 134.066 254.471 135.91 249.674 142.441C244.876 148.973 242.58 152.688 240.485 156.056C238.39 159.423 240.91 157.957 243.692 153.617C246.473 149.27 251.714 140.779 253.311 138.326C254.909 135.881 255.23 132.891 255.23 132.891Z" fill="#82522E"/>
<path d="M259.718 131.141C258.376 134.399 257.101 135.64 256.312 139.958C255.522 144.269 249.862 150.713 247.615 153.624C245.368 156.527 249.2 150.365 252.182 145.844C255.164 141.33 257.089 133.071 257.089 133.071L259.718 131.141Z" fill="#996036"/>
<path d="M237.23 165.475C235.56 171.81 235.11 173.799 231.327 181.237C227.543 188.669 226.134 194.388 225.163 196.079C224.191 197.769 228.114 188.284 228.679 184.496C229.238 180.708 237.23 165.475 237.23 165.475Z" fill="#996036"/>
<path d="M240.175 160.641C240.285 163.398 240.928 167.252 240.315 167.789C239.695 168.326 240.175 160.641 240.175 160.641Z" fill="#996036"/>
<path d="M235.365 166.12C233.325 173.232 230.744 182.529 233.458 177.536C236.173 172.55 236.039 172.107 237.096 167.513C238.153 162.919 235.365 166.12 235.365 166.12Z" fill="#82522E"/>
<path d="M222.114 193.59C215.768 202.117 213.964 204.258 210.994 210.202C208.019 216.145 215.513 205.855 218.252 200.963C220.984 196.072 222.114 193.59 222.114 193.59Z" fill="#82522E"/>
<path d="M229.256 176.774C224.75 184.539 220.238 191.637 224.471 186.39C228.71 181.15 227.993 186.382 230.1 178.726C232.208 171.077 229.256 176.774 229.256 176.774Z" fill="#82522E"/>
<path d="M201.156 229.381C202.626 224.272 203.361 221.594 204.855 216.325C206.349 211.057 209.616 200.998 207.217 211.986C204.818 222.973 201.156 229.381 201.156 229.381Z" fill="#996036"/>
<path d="M211.59 213.668C211.268 215.954 209.974 217.935 207.351 226.1C205.997 230.294 202.991 235.382 200.306 239.468C197.768 243.328 195.515 246.304 195.211 246.819C194.579 247.871 211.59 213.668 211.59 213.668Z" fill="#996036"/>
<path d="M190.486 252.133C189.326 256.371 185.524 264.942 184.158 267.686C182.791 270.429 183.466 269.405 185.682 263.469C187.893 257.533 187.492 253.628 188.846 251.974C190.201 250.319 190.486 252.133 190.486 252.133Z" fill="#996036"/>
<path d="M193.553 238.816C192.132 243.373 188.634 257.743 193.085 245.739C197.537 233.728 194.452 232.828 197.324 229.018C200.191 225.208 197.664 225.745 196.401 228.924C195.132 232.11 193.553 238.816 193.553 238.816Z" fill="#996036"/>
<path d="M176.245 270.312C178.34 265.203 181.043 261.865 180.806 259.223C180.575 256.581 180.922 255.798 178.76 261.712C176.591 267.62 173.367 274.579 173.367 274.579L176.245 270.312Z" fill="#996036"/>
<path d="M169.71 279.877C166.231 285.77 163.716 291.271 159.52 294.45C155.324 297.628 152.269 300.553 150.338 300.226C148.406 299.893 150.884 297.541 156.156 295.132C161.427 292.722 163.644 287.272 164.98 284.797C166.31 282.323 169.71 279.877 169.71 279.877Z" fill="#996036"/>
<path d="M193.085 245.741C188.846 251.975 184.826 257.585 180.538 263.95C176.245 270.314 171.647 278.232 179.415 268.224C187.182 258.209 191.385 253.84 194.184 247.026C196.978 240.218 193.085 245.741 193.085 245.741Z" fill="#82522E"/>
<path d="M208.984 218.9C203.956 229.038 196.189 237.123 200.853 233.806C205.523 230.497 210.843 213.609 211.669 212.412C212.501 211.214 208.984 218.9 208.984 218.9Z" fill="#82522E"/>
<path d="M147.975 295.684C141.507 299.349 144.677 299.791 133.296 302.462C121.928 305.125 108.938 307.527 118.241 307.041C127.551 306.555 126.476 307.89 133.175 304.276C139.873 300.655 147.975 295.684 147.975 295.684Z" fill="#82522E"/>
<path d="M166.831 279.602C159.568 284.805 152.7 287.94 151.861 290.197C151.029 292.454 157.048 289.53 161.445 285.103C165.842 280.668 166.831 279.602 166.831 279.602Z" fill="#82522E"/>
<path d="M79.1132 320.902C86.2915 314.936 82.9392 313.935 91.49 311.678C100.047 309.414 110.869 308.521 112.776 308.855C114.683 309.189 117.403 310.343 111.488 310.437C105.567 310.539 108.27 310.125 101.152 311.453C94.0285 312.781 93.9799 311.656 89.1762 314.69C84.3663 317.723 82.8238 317.672 80.3278 320.43C77.8379 323.195 79.1132 320.902 79.1132 320.902Z" fill="#82522E"/>
<path d="M119.049 310.126C125.487 308.595 131.299 306.44 133.71 307.064C136.127 307.68 140.062 308.341 130.272 310.533C120.483 312.717 117.725 314.829 111.768 314.56C105.816 314.285 102.877 314.452 102.251 313.639C101.62 312.833 98.9233 312.202 105.725 311.89C112.527 311.585 113.134 311.868 117.246 311.737C121.363 311.614 119.049 310.126 119.049 310.126Z" fill="#996036"/>
<path d="M79.1983 323.328C76.095 327.479 74.7772 329.961 70.5139 334.541C66.2507 339.105 64.3195 342.792 61.1008 345.303C57.8821 347.821 56.9651 345.76 60.8639 341.471C64.7628 337.182 63.2871 337.037 70.7933 331.217C78.2995 325.396 79.1983 323.328 79.1983 323.328Z" fill="#996036"/>
<path d="M65.4488 334.518C58.6835 341.775 55.2704 347.015 50.0902 351.173C44.916 355.324 34.3975 360.499 38.345 359.562C42.2924 358.633 45.8391 360.803 51.9485 354.083C58.058 347.363 64.2585 338.509 65.297 336.724C66.3415 334.938 65.4488 334.518 65.4488 334.518Z" fill="#82522E"/>
<path d="M332.364 74.8588C326.072 76.5788 321.985 77.2465 315.797 81.7242C309.608 86.2092 307.756 84.6344 318.536 81.746C329.309 78.8648 334.708 73.3711 334.708 73.3711L332.364 74.8588Z" fill="#996036"/>
<path d="M298.021 88.5815C291.401 92.66 278.715 103.858 287.138 98.328C295.555 92.7907 293.424 94.3074 301.689 88.9371C309.948 83.5667 305.521 86.7526 301.768 87.667C298.021 88.5815 298.021 88.5815 298.021 88.5815Z" fill="#996036"/>
<path d="M364.758 71.682C377.535 67.5744 388.218 69.9185 393.653 70.9635C399.082 72.0159 406.394 72.8214 391.886 72.7779C377.377 72.7271 378.41 72.1247 367.272 72.9448C356.134 73.7649 364.758 71.682 364.758 71.682Z" fill="#996036"/>
<path d="M353.164 73.2832C342.997 74.546 339.299 75.5983 344.54 75.0757C349.775 74.546 353.164 73.2832 353.164 73.2832Z" fill="#996036"/>
<path d="M422.062 73.2416C415.916 75.2664 409.582 78.5249 417.337 76.2099C425.099 73.902 423.532 73.2344 422.797 73.2344C422.062 73.2416 422.062 73.2416 422.062 73.2416Z" fill="#996036"/>
<path d="M275.107 103.221C265.457 113.49 258.959 119.833 259.075 121.966C259.184 124.093 267.85 115.21 272.624 110.115C277.391 105.028 275.107 103.221 275.107 103.221Z" fill="#996036"/>
<path d="M245.598 140.124C239.416 154.022 232.833 168.058 240.619 154.08C248.398 140.11 248.398 139.863 251.228 134.957C254.052 130.044 245.598 140.124 245.598 140.124Z" fill="#996036"/>
<path d="M72.166 320.236C65.5161 328.183 62.0848 338.249 67.7935 330.418C73.5021 322.58 73.66 323.291 79.6662 316.332C85.6724 309.372 72.166 320.236 72.166 320.236Z" fill="#996036"/>
<path d="M113.869 304.32C102.391 306.323 88.2895 310.293 99.4821 308.355C110.681 306.425 113.869 304.32 113.869 304.32Z" fill="#996036"/>
<path d="M136.655 298.914C143.421 294.639 152.245 286.7 148.37 291.243C144.496 295.793 146.208 295.06 141.429 296.991C136.655 298.914 136.655 298.914 136.655 298.914Z" fill="#996036"/>
<path d="M75.2632 315.468C68.8562 321.433 62.9168 329.714 69.1659 324.256C75.415 318.799 77.7592 316.796 79.7511 315.134C81.737 313.472 75.2632 315.468 75.2632 315.468Z" fill="#82522E"/>
<path d="M49.8355 340.409C46.3253 344.255 48.6573 341.643 42.5053 347.325C36.3595 353.015 47.8253 345.387 50.6978 342.194C53.5643 339.001 49.8355 340.409 49.8355 340.409Z" fill="#82522E"/>
<path d="M435.671 66.4127C447.095 71.246 452.639 87.691 452.639 87.691C452.639 87.691 439.667 96.2909 428.25 91.4575C416.827 86.6242 411.282 70.1865 411.282 70.1865C411.282 70.1865 424.254 61.5793 435.671 66.4127Z" fill="#415210"/>
<path d="M425.329 78.5305C429.526 86.0273 427.176 96.7027 427.176 96.7027C427.176 96.7027 418.017 95.2295 413.821 87.7328C409.619 80.236 411.975 69.5605 411.975 69.5605C411.975 69.5605 421.133 71.0338 425.329 78.5305Z" fill="#35420D"/>
<path d="M431.633 53.9224C437.372 41.1713 432.229 24.5449 432.229 24.5449C432.229 24.5449 417.793 28.5945 412.054 41.3455C406.315 54.1038 411.459 70.7302 411.459 70.7302C411.459 70.7302 425.9 66.6806 431.633 53.9224Z" fill="#415210"/>
<path d="M418.564 53.9157C418.193 44.9022 410.972 38.0078 410.972 38.0078C410.972 38.0078 404.359 45.7223 404.729 54.7358C405.1 63.7421 412.321 70.6365 412.321 70.6365C412.321 70.6365 418.934 62.922 418.564 53.9157Z" fill="#35420D"/>
<path d="M430.71 46.5933C443.718 40.2795 458.452 47.4714 458.452 47.4714C458.452 47.4714 452.081 64.8962 439.073 71.21C426.058 77.5238 411.331 70.3319 411.331 70.3319C411.331 70.3319 417.696 52.9071 430.71 46.5933Z" fill="#415210"/>
<path d="M413.098 69.2054L454.589 49.6035C454.589 49.6035 451.182 64.9164 437.84 70.1561C424.497 75.4031 413.098 69.2054 413.098 69.2054Z" fill="#3D4D0F"/>
<path d="M50.8799 369.933C48.7179 369.723 47.0661 367.495 47.1815 364.89C47.2969 362.233 49.1916 360.194 51.4144 360.325C97.5571 363.17 134.196 329.627 151.935 268.295C157.352 249.572 169.486 228.359 187.031 206.95C188.591 205.056 191.142 205.026 192.733 206.884C194.318 208.742 194.343 211.79 192.788 213.692C176.069 234.085 164.579 254.057 159.55 271.438C140.833 336.151 100.253 372.974 51.0014 369.941C50.9589 369.941 50.9224 369.941 50.8799 369.933Z" fill="#74911C"/>
<path d="M328.641 121.176C326.868 121.009 325.343 119.442 325.003 117.257C324.596 114.637 326.042 112.126 328.228 111.647C385.83 98.9109 404.183 65.9193 421.928 34.0091C426.028 26.643 430.261 19.0228 434.9 11.7801C436.255 9.67545 438.787 9.2763 440.554 10.8874C442.315 12.5058 442.656 15.5248 441.301 17.6367C436.825 24.6182 432.848 31.7666 428.639 39.3359C409.965 72.9153 390.658 107.641 329.698 121.111C329.339 121.191 328.987 121.212 328.641 121.176Z" fill="#74911C"/>
<path d="M132.076 387.67C124.546 386.944 121.242 374.636 118.048 362.727C115.539 353.379 112.697 342.784 108.44 342.029C105.877 341.608 101.025 344.25 92.1826 359.541L88.8667 356.805C97.1381 342.501 103.576 336.288 109.029 337.268C115.77 338.458 118.74 349.533 121.886 361.261C124.546 371.174 127.558 382.408 132.404 382.873C133.449 382.974 134.354 382.575 135.252 381.632C142.825 373.627 144.222 334.844 145.461 300.626C146.791 263.6 147.945 231.617 155.579 223.997C161.202 218.372 166.425 221.348 171.472 224.222C177.806 227.829 184.347 231.551 194.215 220.84C200.853 213.626 207.205 198.662 213.351 184.198C223.208 160.989 233.398 136.989 247.129 138.31C265.804 140.103 265.087 165.641 264.462 188.175C263.848 210.012 264.14 224.389 273.353 225.274C283.185 226.217 286.628 200.222 289.956 175.083C294.359 141.823 298.914 107.438 318.378 109.31C337.732 111.168 335.522 159.654 333.378 206.55C331.745 242.307 329.898 282.839 340.374 283.847C353.055 285.067 357.269 246.175 361.727 204.997C366.974 156.504 372.926 101.53 394.327 81.8413C400.946 75.7524 408.738 73.372 417.526 74.7291L416.997 79.5044C409.242 78.2924 402.61 80.3027 396.786 85.6586C376.709 104.128 370.867 158.043 365.723 205.614C360.603 252.888 356.559 290.234 340.052 288.644C325.659 287.258 327.372 249.731 329.358 206.282C331.301 163.776 333.5 115.595 318.05 114.107C302.309 112.59 297.863 146.191 293.94 175.837C290.157 204.395 286.586 231.377 273.031 230.071C259.294 228.75 259.87 208.045 260.435 188.015C261.03 166.635 261.65 144.537 246.807 143.107C235.767 142.048 226.196 164.581 216.94 186.375C210.345 201.913 204.114 216.594 196.918 224.403C185.057 237.285 176.209 232.248 169.741 228.561C164.53 225.601 161.646 224.207 158.16 227.683C151.892 233.946 150.611 269.485 149.481 300.829C148.091 339.424 146.773 375.877 137.918 385.239C136.194 387.06 134.226 387.88 132.076 387.67Z" fill="#74911C"/>
<path d="M227.374 300.735C222.959 300.314 221.896 292.614 220.548 282.874C218.665 269.281 216.327 252.365 203.993 251.182C203.44 251.124 203.027 250.543 203.069 249.883C203.118 249.215 203.604 248.722 204.156 248.78C218.058 250.115 220.645 268.824 222.533 282.482C223.645 290.494 224.689 298.057 227.538 298.332C232.633 298.826 234.151 277.054 235.76 254.005C238.184 219.25 241.202 175.997 257.131 160.546C257.563 160.125 258.2 160.205 258.546 160.72C258.899 161.235 258.832 161.997 258.401 162.411C243.139 177.216 240.163 219.903 237.765 254.201C235.852 281.612 234.473 301.417 227.374 300.735Z" fill="#5A7016"/>
<path d="M437.311 32.57C448.309 26.4812 461.889 33.6005 461.889 33.6005C461.889 33.6005 457.656 50.5898 446.664 56.6787C435.665 62.7675 422.08 55.6554 422.08 55.6554C422.08 55.6554 426.319 38.6661 437.311 32.57Z" fill="#415210"/>
<path d="M437.008 49.8799C444.399 51.7305 448.965 61.3246 448.965 61.3246C448.965 61.3246 441.556 67.9287 434.172 66.0781C426.781 64.2348 422.214 54.6334 422.214 54.6334C422.214 54.6334 429.617 48.0293 437.008 49.8799Z" fill="#35420D"/>
<path d="M427.115 27.0214C423.757 13.1092 410.347 5.52539 410.347 5.52539C410.347 5.52539 402.398 20.4899 405.762 34.4021C409.127 48.3143 422.53 55.8981 422.53 55.8981C422.53 55.8981 430.485 40.9336 427.115 27.0214Z" fill="#415210"/>
<path d="M417.768 37.9431C412.23 31.818 403.035 32.9211 403.035 32.9211C403.035 32.9211 402.817 43.9594 408.355 50.0845C413.894 56.2169 423.094 55.1138 423.094 55.1138C423.094 55.1138 423.307 44.0755 417.768 37.9431Z" fill="#35420D"/>
<mask id="mask0_188_2005" style="mask-type:luminance" maskUnits="userSpaceOnUse" x="419" y="0" width="27" height="58">
<path d="M419.159 0H445.589V57.1292H419.159V0Z" fill="white"/>
</mask>
<g mask="url(#mask0_188_2005)">
<path d="M422.166 22.5556C427.771 7.17018 442.504 0 442.504 0C442.504 0 448.158 17.7731 442.553 33.1657C436.941 48.5511 422.208 55.7213 422.208 55.7213C422.208 55.7213 416.56 37.9483 422.166 22.5556Z" fill="#415210"/>
</g>
<path d="M422.809 53.4357L440.997 4.75391C440.997 4.75391 447.52 18.5355 441.052 33.4346C434.584 48.3411 422.809 53.4357 422.809 53.4357Z" fill="#3D4D0F"/>
<path d="M398.718 74.134C387.883 76.6232 377.183 66.7606 377.183 66.7606C377.183 66.7606 384.057 52.8629 394.892 50.3737C405.732 47.8772 416.426 57.7398 416.426 57.7398C416.426 57.7398 409.552 71.6375 398.718 74.134Z" fill="#607817"/>
<path d="M379.8 66.1586C379.8 66.1586 385.757 54.1115 395.146 51.9561C404.541 49.7934 413.809 58.3425 413.809 58.3425L379.8 66.1586Z" fill="#5C7316"/>
<path d="M402.173 58.9238C395.984 55.3459 393.713 45.6575 393.713 45.6575C393.713 45.6575 401.474 41.7749 407.663 45.3527C413.851 48.9305 416.122 58.6117 416.122 58.6117C416.122 58.6117 408.361 62.4944 402.173 58.9238Z" fill="#586E15"/>
<path d="M406.704 81.7181C407.117 94.8973 417.562 105.13 417.562 105.13C417.562 105.13 427.346 93.9974 426.933 80.8182C426.526 67.639 416.074 57.4062 416.074 57.4062C416.074 57.4062 406.291 68.5389 406.704 81.7181Z" fill="#607817"/>
<path d="M417.477 102.366C417.477 102.366 426.124 92.5248 425.766 80.8696C425.402 69.2217 416.159 60.1719 416.159 60.1719L417.477 102.366Z" fill="#5C7316"/>
<path d="M416.979 74.5254C420.744 81.4053 429.07 82.8422 429.07 82.8422C429.07 82.8422 431.293 73.1465 427.528 66.2666C423.763 59.394 415.43 57.957 415.43 57.957C415.43 57.957 413.214 67.6527 416.979 74.5254Z" fill="#586E15"/>
<path d="M410.256 86.9731C402.47 99.0928 388.126 101.56 388.126 101.56C388.126 101.56 386.407 84.3605 394.199 72.2336C401.984 60.114 416.329 57.6465 416.329 57.6465C416.329 57.6465 418.048 74.8462 410.256 86.9731Z" fill="#7C9C1E"/>
<path d="M415.376 59.5098L390.343 97.7483C390.343 97.7483 387.112 83.8506 395.572 72.3842C404.031 60.9177 415.376 59.5098 415.376 59.5098Z" fill="#8AAD21"/>
<path d="M49.8046 336.224C56.8007 326.027 70.3071 325.439 70.3071 325.439C70.3071 325.439 72.4508 341.376 65.4547 351.573C58.4526 361.762 44.9523 362.35 44.9523 362.35C44.9523 362.35 42.8024 346.413 49.8046 336.224Z" fill="#607817"/>
<path d="M68.6128 327.9C68.6128 327.9 70.4772 341.718 64.4102 350.55C58.3433 359.382 46.6406 359.89 46.6406 359.89L68.6128 327.9Z" fill="#5C7316"/>
<path d="M55.2829 350.557C61.9571 348.583 68.8803 354.295 68.8803 354.295C68.8803 354.295 64.9875 363.214 58.3194 365.188C51.6451 367.169 44.7158 361.451 44.7158 361.451C44.7158 361.451 48.6086 352.539 55.2829 350.557Z" fill="#586E15"/>
<path d="M39.6025 336.484C32.242 326.665 18.7296 326.773 18.7296 326.773C18.7296 326.773 17.1627 342.812 24.5232 352.631C31.8898 362.45 45.4022 362.341 45.4022 362.341C45.4022 362.341 46.969 346.303 39.6025 336.484Z" fill="#607817"/>
<path d="M20.2779 328.836C20.2779 328.836 18.8872 343.017 25.3975 351.696C31.9138 360.376 43.8534 360.282 43.8534 360.282L20.2779 328.836Z" fill="#5C7316"/>
<path d="M35.5457 349.86C28.9747 347.458 21.7964 352.705 21.7964 352.705C21.7964 352.705 25.2762 361.863 31.8472 364.273C38.4243 366.682 45.5965 361.428 45.5965 361.428C45.5965 361.428 42.1227 352.269 35.5457 349.86Z" fill="#586E15"/>
<path d="M34.0634 335.165C33.5654 319.888 43.2823 307.043 43.2823 307.043C43.2823 307.043 53.8007 318.952 54.2926 334.229C54.7906 349.498 45.0738 362.351 45.0738 362.351C45.0738 362.351 34.5614 350.434 34.0634 335.165Z" fill="#7C9C1E"/>
<path d="M44.8126 360.188L43.6162 311.658C43.6162 311.658 53.5274 319.881 53.1569 335.157C52.7865 350.441 44.8126 360.188 44.8126 360.188Z" fill="#8AAD21"/>
<path d="M20.3087 360.15C9.766 356.267 4.20312 341.55 4.20312 341.55C4.20312 341.55 15.7358 333.146 26.2846 337.036C36.8273 340.926 42.3841 355.636 42.3841 355.636C42.3841 355.636 30.8576 364.04 20.3087 360.15Z" fill="#607817"/>
<path d="M6.74707 342.487C6.74707 342.487 16.7432 335.201 25.8831 338.576C35.023 341.943 39.845 354.701 39.845 354.701L6.74707 342.487Z" fill="#5C7316"/>
<path d="M29.3451 348.67C25.2883 342.037 27.092 332.211 27.092 332.211C27.092 332.211 35.4727 333.14 39.5295 339.773C43.5863 346.406 41.7765 356.233 41.7765 356.233C41.7765 356.233 33.4018 355.304 29.3451 348.67Z" fill="#586E15"/>
<path d="M24.3773 371.341C19.5553 383.199 24.7477 398.098 24.7477 398.098C24.7477 398.098 37.7622 393.766 42.5841 381.907C47.4061 370.049 42.2076 355.143 42.2076 355.143C42.2076 355.143 29.1932 359.475 24.3773 371.341Z" fill="#607817"/>
<path d="M25.7617 395.61C25.7617 395.61 37.2701 391.786 41.5272 381.299C45.7905 370.805 41.1993 357.633 41.1993 357.633L25.7617 395.61Z" fill="#5C7316"/>
<path d="M36.2681 370.762C36.8936 378.948 43.6772 384.899 43.6772 384.899C43.6772 384.899 49.4526 377.584 48.8332 369.405C48.2137 361.219 41.4302 355.268 41.4302 355.268C41.4302 355.268 35.6487 362.583 36.2681 370.762Z" fill="#586E15"/>
<mask id="mask1_188_2005" style="mask-type:luminance" maskUnits="userSpaceOnUse" x="0" y="352" width="43" height="31">
<path d="M0 352.529H42.924V382.255H0V352.529Z" fill="white"/>
</mask>
<g mask="url(#mask1_188_2005)">
<path d="M25.4461 377.966C13.8041 384.294 0.17627 378.408 0.17627 378.408C0.17627 378.408 5.42335 362.261 17.0653 355.94C28.7073 349.612 42.3351 355.497 42.3351 355.497C42.3351 355.497 37.088 371.637 25.4461 377.966Z" fill="#7C9C1E"/>
</g>
<path d="M40.7619 356.602L3.62549 376.291C3.62549 376.291 6.24295 362.212 18.2189 356.841C30.1949 351.471 40.7619 356.602 40.7619 356.602Z" fill="#8AAD21"/>
<path d="M419.724 33.4997C426.502 23.0927 439.984 22.084 439.984 22.084C439.984 22.084 442.48 37.9484 435.702 48.3626C428.931 58.7695 415.443 59.7782 415.443 59.7782C415.443 59.7782 412.947 43.9139 419.724 33.4997Z" fill="#607817"/>
<path d="M438.35 24.5977C438.35 24.5977 440.512 38.3502 434.64 47.371C428.767 56.3918 417.083 57.2699 417.083 57.2699L438.35 24.5977Z" fill="#5C7316"/>
<path d="M425.517 47.6657C432.143 45.4813 439.194 50.975 439.194 50.975C439.194 50.975 435.495 60.0103 428.87 62.1948C422.244 64.3792 415.193 58.8854 415.193 58.8854C415.193 58.8854 418.886 49.8501 425.517 47.6657Z" fill="#586E15"/>
<path d="M409.533 34.0897C401.954 24.5028 388.454 25.0326 388.454 25.0326C388.454 25.0326 387.239 41.1147 394.812 50.7016C402.392 60.2884 415.892 59.7514 415.892 59.7514C415.892 59.7514 417.112 43.6765 409.533 34.0897Z" fill="#607817"/>
<path d="M390.045 27.0488C390.045 27.0488 388.97 41.2586 395.669 49.7351C402.367 58.2115 414.3 57.7398 414.3 57.7398L390.045 27.0488Z" fill="#5C7316"/>
<path d="M405.774 47.5861C399.149 45.3799 392.086 50.8591 392.086 50.8591C392.086 50.8591 395.766 59.9017 402.392 62.1079C409.011 64.3141 416.074 58.8349 416.074 58.8349C416.074 58.8349 412.394 49.7851 405.774 47.5861Z" fill="#586E15"/>
<path d="M403.965 32.9348C403.139 17.6873 412.564 4.53711 412.564 4.53711C412.564 4.53711 423.344 16.1197 424.17 31.3672C424.996 46.622 415.57 59.7722 415.57 59.7722C415.57 59.7722 404.797 48.1896 403.965 32.9348Z" fill="#7C9C1E"/>
<path d="M415.261 57.6231L413.001 9.14453C413.001 9.14453 423.095 17.0477 423.052 32.3388C423.016 47.6226 415.261 57.6231 415.261 57.6231Z" fill="#8AAD21"/>
<path d="M439.631 65.4901C448.995 72.4716 451.224 88.3941 451.224 88.3941C451.224 88.3941 438.283 92.9952 428.918 86.0209C419.554 79.0394 417.325 63.117 417.325 63.117C417.325 63.117 430.272 58.5086 439.631 65.4901Z" fill="#607817"/>
<path d="M448.971 86.7105C448.971 86.7105 437.748 90.702 429.629 84.6494C421.515 78.6041 419.584 64.8008 419.584 64.8008L448.971 86.7105Z" fill="#5C7316"/>
<path d="M428.445 73.8355C430.947 81.4847 427.103 90.4329 427.103 90.4329C427.103 90.4329 419.202 86.9784 416.694 79.322C414.192 71.6728 418.036 62.7246 418.036 62.7246C418.036 62.7246 425.943 66.1791 428.445 73.8355Z" fill="#586E15"/>
<path d="M438.095 53.4375C445.292 43.4442 443.452 27.4492 443.452 27.4492C443.452 27.4492 429.945 27.6597 422.749 37.6529C415.552 47.6535 417.392 63.6485 417.392 63.6485C417.392 63.6485 430.899 63.438 438.095 53.4375Z" fill="#607817"/>
<path d="M441.939 29.5449C441.939 29.5449 430 29.7336 423.635 38.5657C417.277 47.4051 418.904 61.5495 418.904 61.5495L441.939 29.5449Z" fill="#5C7316"/>
<path d="M426.471 50.3594C427.619 42.2603 422.335 34.4297 422.335 34.4297C422.335 34.4297 415.181 39.742 414.033 47.8411C412.885 55.9402 418.169 63.7636 418.169 63.7636C418.169 63.7636 425.323 58.4585 426.471 50.3594Z" fill="#586E15"/>
<mask id="mask2_188_2005" style="mask-type:luminance" maskUnits="userSpaceOnUse" x="417" y="46" width="46" height="26">
<path d="M417.07 46.2012H463V71.3984H417.07V46.2012Z" fill="white"/>
</mask>
<g mask="url(#mask2_188_2005)">
<path d="M438.477 46.7027C451.084 44.1408 463 53.989 463 53.989C463 53.989 454.479 67.9955 441.872 70.5573C429.258 73.1191 417.343 63.2637 417.343 63.2637C417.343 63.2637 425.869 49.2645 438.477 46.7027Z" fill="#7C9C1E"/>
</g>
<path d="M419.099 62.6751L459.217 54.9824C459.217 54.9824 453.672 67.7988 440.949 69.33C428.22 70.8613 419.099 62.6751 419.099 62.6751Z" fill="#8AAD21"/>
<path d="M385.072 128.962C383.474 121.48 378.227 115.935 378.179 115.884L378.829 114.984C379.053 115.224 384.355 120.834 386.031 128.664L385.072 128.962Z" fill="#74911C"/>
<path d="M395.013 147.68C396.816 159.618 391.903 170.555 391.903 170.555C391.903 170.555 384.063 162.151 382.259 150.213C380.456 138.282 385.369 127.338 385.369 127.338C385.369 127.338 393.209 135.749 395.013 147.68Z" fill="#84A620"/>
<path d="M383.638 145.503C384.603 138.848 389.79 137.73 392.668 143.601C393.628 145.546 394.527 147.753 395.231 150.155C395.164 149.327 395.14 148.515 395.013 147.68C393.209 135.749 385.369 127.338 385.369 127.338C385.369 127.338 380.456 138.282 382.259 150.213C382.502 151.817 382.86 153.333 383.286 154.799C383.031 151.49 383.231 148.319 383.638 145.503Z" fill="#7D9C1E"/>
<path d="M392.152 166.577C392.881 164.618 394.903 157.992 393.786 152.563C392.662 147.135 390.701 144.871 390.13 146.446C389.565 148.02 392.152 166.577 392.152 166.577Z" fill="#8BAD21"/>
<path d="M391.636 169.058L385.94 137.162L387.155 136.879L391.636 169.058Z" fill="#7D9C1E"/>
<path d="M340.35 160.423C338.17 153.158 332.516 148.223 332.461 148.172L333.044 147.207C333.287 147.417 339.002 152.41 341.279 160.023L340.35 160.423Z" fill="#74911C"/>
<path d="M351.707 177.958C354.433 189.643 350.395 201.08 350.395 201.08C350.395 201.08 341.929 193.583 339.202 181.899C336.476 170.215 340.514 158.777 340.514 158.777C340.514 158.777 348.98 166.274 351.707 177.958Z" fill="#84A620"/>
<path d="M340.21 177.051C340.648 170.316 345.725 168.633 349.053 174.155C350.158 175.984 351.227 178.074 352.114 180.397C351.986 179.584 351.895 178.778 351.707 177.958C348.98 166.274 340.514 158.777 340.514 158.777C340.514 158.777 336.476 170.215 339.202 181.899C339.567 183.467 340.046 184.94 340.587 186.348C340.071 183.082 340.022 179.903 340.21 177.051Z" fill="#7D9C1E"/>
<path d="M350.334 197.096C350.899 195.057 352.405 188.242 350.862 182.959C349.326 177.675 347.194 175.643 346.751 177.269C346.301 178.902 350.334 197.096 350.334 197.096Z" fill="#8BAD21"/>
<path d="M350.012 199.611L341.85 168.492L343.04 168.078L350.012 199.611Z" fill="#7D9C1E"/>
<path d="M297.092 175.998C294.887 168.632 292.464 163.951 292.44 163.9L293.284 163.283C293.308 163.327 295.78 168.102 298.021 175.606L297.092 175.998Z" fill="#74911C"/>
<path d="M308.448 193.531C311.175 205.215 307.137 216.652 307.137 216.652C307.137 216.652 298.671 209.155 295.944 197.471C293.217 185.794 297.256 174.35 297.256 174.35C297.256 174.35 305.722 181.846 308.448 193.531Z" fill="#84A620"/>
<path d="M296.952 192.623C297.395 185.896 302.472 184.205 305.794 189.728C306.9 191.557 307.969 193.654 308.855 195.969C308.728 195.156 308.637 194.351 308.448 193.531C305.722 181.846 297.256 174.35 297.256 174.35C297.256 174.35 293.217 185.794 295.944 197.471C296.314 199.039 296.788 200.512 297.329 201.92C296.812 198.654 296.764 195.476 296.952 192.623Z" fill="#7D9C1E"/>
<path d="M307.076 212.667C307.64 210.627 309.147 203.813 307.604 198.53C306.068 193.246 303.936 191.214 303.493 192.847C303.049 194.473 307.076 212.667 307.076 212.667Z" fill="#8BAD21"/>
<path d="M306.754 215.194L298.592 184.068L299.782 183.654L306.754 215.194Z" fill="#7D9C1E"/>
<path d="M281.065 229.412C279.437 223.99 279.085 223.148 279.012 223.018L279.401 222.713C279.395 222.684 278.878 222.749 278.878 222.749L279.267 222.06C279.802 221.907 279.868 221.907 281.994 229.012L281.065 229.412Z" fill="#74911C"/>
<path d="M292.421 246.944C295.148 258.621 291.11 270.066 291.11 270.066C291.11 270.066 282.65 262.569 279.923 250.885C277.19 239.201 281.229 227.756 281.229 227.756C281.229 227.756 289.695 235.26 292.421 246.944Z" fill="#84A620"/>
<path d="M280.925 246.037C281.368 239.302 286.446 237.618 289.774 243.134C290.873 244.97 291.948 247.06 292.828 249.383C292.701 248.562 292.61 247.757 292.421 246.944C289.695 235.26 281.229 227.756 281.229 227.756C281.229 227.756 277.19 239.201 279.923 250.885C280.288 252.452 280.767 253.926 281.302 255.333C280.785 252.068 280.737 248.889 280.925 246.037Z" fill="#7D9C1E"/>
<path d="M291.049 266.083C291.62 264.044 293.12 257.222 291.583 251.939C290.041 246.655 287.909 244.631 287.466 246.256C287.022 247.889 291.049 266.083 291.049 266.083Z" fill="#8BAD21"/>
<path d="M290.727 268.601L282.565 237.482L283.755 237.068L290.727 268.601Z" fill="#7D9C1E"/>
<path d="M223.463 182.891C223.25 175.067 222.145 169.726 222.133 169.675L223.092 169.385C223.104 169.436 224.234 174.886 224.453 182.847L223.463 182.891Z" fill="#74911C"/>
<path d="M229.79 203.733C229.396 215.853 222.618 225.266 222.618 225.266C222.618 225.266 216.484 215.033 216.879 202.913C217.268 190.794 224.045 181.381 224.045 181.381C224.045 181.381 230.179 191.614 229.79 203.733Z" fill="#84A620"/>
<path d="M219.078 198.668C221.216 192.419 226.487 192.673 228.236 199.139C228.819 201.288 229.305 203.675 229.554 206.201C229.639 205.381 229.76 204.582 229.791 203.733C230.18 191.614 224.046 181.381 224.046 181.381C224.046 181.381 217.268 190.794 216.88 202.913C216.825 204.539 216.904 206.121 217.056 207.652C217.402 204.365 218.167 201.317 219.078 198.668Z" fill="#7D9C1E"/>
<path d="M223.584 221.45C224.647 219.716 227.823 213.779 227.708 208.184C227.598 202.596 226.086 199.882 225.248 201.268C224.404 202.661 223.584 221.45 223.584 221.45Z" fill="#8BAD21"/>
<path d="M222.631 223.735L222.825 191.121L224.064 191.165L222.631 223.735Z" fill="#7D9C1E"/>
<path d="M153.987 304.776C150.811 297.932 147.787 293.788 147.756 293.745L148.503 292.961C148.534 293.004 151.625 297.235 154.856 304.202L153.987 304.776Z" fill="#74911C"/>
<path d="M167.578 319.872C171.86 330.867 169.431 342.943 169.431 342.943C169.431 342.943 160.06 337.188 155.779 326.186C151.503 315.191 153.932 303.115 153.932 303.115C153.932 303.115 163.297 308.87 167.578 319.872Z" fill="#84A620"/>
<path d="M156.113 321.208C155.633 314.48 160.412 311.831 164.445 316.636C165.787 318.225 167.123 320.083 168.313 322.195C168.076 321.418 167.882 320.642 167.578 319.872C163.297 308.87 153.932 303.115 153.932 303.115C153.932 303.115 151.503 315.191 155.779 326.186C156.356 327.667 157.024 329.024 157.746 330.308C156.799 327.188 156.319 324.06 156.113 321.208Z" fill="#7D9C1E"/>
<path d="M168.824 339.017C169.109 336.897 169.668 329.88 167.427 324.967C165.192 320.053 162.811 318.464 162.599 320.155C162.38 321.853 168.824 339.017 168.824 339.017Z" fill="#8BAD21"/>
<path d="M168.854 341.573L156.568 312.449L157.686 311.811L168.854 341.573Z" fill="#7D9C1E"/>
<path d="M143.226 377.618C142.959 369.787 141.817 364.467 141.805 364.417L142.764 364.119C142.776 364.17 143.948 369.613 144.216 377.567L143.226 377.618Z" fill="#74911C"/>
<mask id="mask3_188_2005" style="mask-type:luminance" maskUnits="userSpaceOnUse" x="136" y="374" width="15" height="46">
<path d="M136.205 374.822H150.197V419.999H136.205V374.822Z" fill="white"/>
</mask>
<g mask="url(#mask3_188_2005)">
<path d="M149.693 398.394C149.383 410.521 142.673 419.999 142.673 419.999C142.673 419.999 136.466 409.824 136.776 397.705C137.086 385.585 143.796 376.1 143.796 376.1C143.796 376.1 150.003 386.274 149.693 398.394Z" fill="#84A620"/>
</g>
<path d="M138.951 393.441C141.046 387.171 146.311 387.374 148.109 393.826C148.71 395.967 149.208 398.347 149.475 400.873C149.554 400.053 149.67 399.247 149.694 398.398C150.004 386.278 143.797 376.104 143.797 376.104C143.797 376.104 137.086 385.589 136.777 397.708C136.734 399.334 136.825 400.909 136.989 402.447C137.305 399.145 138.058 396.097 138.951 393.441Z" fill="#7D9C1E"/>
<path d="M143.608 416.175C144.659 414.434 147.793 408.461 147.641 402.866C147.489 397.277 145.965 394.578 145.133 395.978C144.301 397.372 143.608 416.175 143.608 416.175Z" fill="#8BAD21"/>
<path d="M142.674 418.47L142.649 385.855L143.888 385.884L142.674 418.47Z" fill="#7D9C1E"/>
<path d="M258.37 203.597L257.435 203.213C259.578 195.672 261.983 190.846 262.008 190.803L262.858 191.412C262.833 191.456 260.477 196.188 258.37 203.597Z" fill="#74911C"/>
<path d="M247.244 221.333C244.669 233.068 248.86 244.433 248.86 244.433C248.86 244.433 257.222 236.776 259.797 225.041C262.372 213.314 258.182 201.941 258.182 201.941C258.182 201.941 249.819 209.605 247.244 221.333Z" fill="#84A620"/>
<path d="M258.728 220.215C258.2 213.488 253.099 211.898 249.843 217.479C248.769 219.337 247.724 221.449 246.868 223.779C246.989 222.966 247.062 222.16 247.244 221.333C249.819 209.605 258.182 201.941 258.182 201.941C258.182 201.941 262.372 213.314 259.797 225.041C259.451 226.616 258.989 228.097 258.473 229.519C258.947 226.246 258.953 223.06 258.728 220.215Z" fill="#7D9C1E"/>
<path d="M248.872 240.44C248.277 238.415 246.68 231.63 248.149 226.317C249.619 221.005 251.726 218.937 252.194 220.555C252.656 222.174 248.872 240.44 248.872 240.44Z" fill="#8BAD21"/>
<path d="M249.224 242.958L255.777 211.295L256.973 211.687L249.224 242.958Z" fill="#7D9C1E"/>
<path d="M250.536 141.713C250.5 141.684 246.607 138.752 240.461 136.045L240.807 134.928C247.056 137.685 251.028 140.683 251.07 140.712L250.536 141.713Z" fill="#74911C"/>
<path d="M225.898 122.308C216.151 118.934 206.543 123.651 206.543 123.651C206.543 123.651 212.732 133.84 222.485 137.207C232.232 140.582 241.846 135.858 241.846 135.858C241.846 135.858 235.651 125.676 225.898 122.308Z" fill="#84A620"/>
<path d="M226.553 136.052C232.183 135.587 233.647 129.535 229.056 125.507C227.537 124.171 225.794 122.872 223.863 121.791C224.543 121.951 225.217 122.067 225.898 122.306C235.651 125.674 241.845 135.856 241.845 135.856C241.845 135.856 232.232 140.58 222.485 137.205C221.179 136.756 219.946 136.168 218.774 135.515C221.501 136.16 224.161 136.247 226.553 136.052Z" fill="#7D9C1E"/>
<path d="M209.877 123.766C211.59 123.106 217.305 121.371 221.708 123.258C226.117 125.152 227.793 127.721 226.426 128.236C225.06 128.752 209.877 123.766 209.877 123.766Z" fill="#8BAD21"/>
<path d="M207.758 124.121L234.078 132.75L233.726 134.172L207.758 124.121Z" fill="#7D9C1E"/>
<path d="M197.762 218.987C197.725 218.958 193.832 216.026 187.687 213.319L188.027 212.209C194.282 214.959 198.254 217.957 198.296 217.993L197.762 218.987Z" fill="#74911C"/>
<path d="M173.123 199.584C163.376 196.21 153.763 200.934 153.763 200.934C153.763 200.934 159.957 211.116 169.71 214.484C179.458 217.858 189.071 213.141 189.071 213.141C189.071 213.141 182.877 202.952 173.123 199.584Z" fill="#84A620"/>
<path d="M173.78 213.329C179.409 212.872 180.873 206.812 176.282 202.792C174.763 201.449 173.02 200.15 171.089 199.076C171.769 199.236 172.443 199.345 173.124 199.584C182.877 202.952 189.071 213.141 189.071 213.141C189.071 213.141 179.458 217.858 169.711 214.483C168.405 214.033 167.172 213.446 166 212.792C168.727 213.438 171.387 213.525 173.78 213.329Z" fill="#7D9C1E"/>
<path d="M157.103 201.042C158.815 200.381 164.53 198.654 168.933 200.541C173.342 202.428 175.018 204.997 173.651 205.512C172.285 206.028 157.103 201.042 157.103 201.042Z" fill="#8BAD21"/>
<path d="M154.983 201.406L181.304 210.035L180.952 211.45L154.983 201.406Z" fill="#7D9C1E"/>
<path d="M146.56 238.729L145.965 237.778C151.316 233.032 155.591 230.688 155.634 230.666L156.047 231.747C156.004 231.769 151.82 234.055 146.56 238.729Z" fill="#74911C"/>
<path d="M128.972 245.79C121.284 253.7 119.334 265.9 119.334 265.9C119.334 265.9 129.853 265.268 137.547 257.358C145.236 249.44 147.185 237.248 147.185 237.248C147.185 237.248 136.667 237.872 128.972 245.79Z" fill="#84A620"/>
<path d="M138.963 252.655C141.72 246.762 138.276 241.994 132.944 244.382C131.177 245.173 129.313 246.204 127.503 247.546C127.989 246.958 128.432 246.341 128.973 245.79C136.667 237.872 147.186 237.248 147.186 237.248C147.186 237.248 145.236 249.44 137.548 257.358C136.515 258.418 135.434 259.325 134.329 260.145C136.278 257.764 137.791 255.152 138.963 252.655Z" fill="#7D9C1E"/>
<path d="M121.236 262.619C121.71 260.551 123.623 253.882 127.357 250.507C131.086 247.132 133.801 246.857 133.418 248.504C133.03 250.151 121.236 262.619 121.236 262.619Z" fill="#8BAD21"/>
<path d="M120.331 264.936L140.767 243.316L141.568 244.449L120.331 264.936Z" fill="#7D9C1E"/>
<path d="M116.268 368.176L115.679 367.218C120.458 362.972 120.47 361.274 120.47 361.26L121.442 361.027C121.551 361.528 121.497 363.524 116.268 368.176Z" fill="#74911C"/>
<path d="M98.6803 375.231C90.9919 383.142 89.0425 395.348 89.0425 395.348C89.0425 395.348 99.567 394.71 107.255 386.799C114.95 378.889 116.899 366.689 116.899 366.689C116.899 366.689 106.375 367.321 98.6803 375.231Z" fill="#84A620"/>
<path d="M108.671 382.097C111.428 376.204 107.984 371.436 102.658 373.823C100.885 374.614 99.0268 375.652 97.2109 376.988C97.6968 376.4 98.1462 375.783 98.6806 375.231C106.375 367.321 116.9 366.689 116.9 366.689C116.9 366.689 114.95 378.889 107.256 386.799C106.223 387.859 105.142 388.773 104.043 389.586C105.986 387.213 107.499 384.593 108.671 382.097Z" fill="#7D9C1E"/>
<path d="M90.9492 392.068C91.4168 389.992 93.3298 383.323 97.0647 379.948C100.794 376.574 103.514 376.298 103.126 377.945C102.737 379.6 90.9492 392.068 90.9492 392.068Z" fill="#8BAD21"/>
<path d="M90.0386 394.375L110.474 372.756L111.276 373.888L90.0386 394.375Z" fill="#7D9C1E"/>
<path d="M364.496 259.106C362.899 251.639 357.652 246.08 357.597 246.029L358.253 245.129C358.478 245.368 363.779 250.978 365.456 258.809L364.496 259.106Z" fill="#74911C"/>
<path d="M374.438 277.825C376.241 289.763 371.328 300.699 371.328 300.699C371.328 300.699 363.488 292.296 361.678 280.357C359.875 268.419 364.788 257.482 364.788 257.482C364.788 257.482 372.634 265.886 374.438 277.825Z" fill="#84A620"/>
<path d="M363.063 275.64C364.022 268.985 369.215 267.875 372.093 273.739C373.047 275.691 373.952 277.89 374.65 280.299C374.589 279.472 374.565 278.659 374.438 277.825C372.634 265.886 364.788 257.482 364.788 257.482C364.788 257.482 359.875 268.419 361.678 280.357C361.927 281.961 362.285 283.478 362.711 284.937C362.449 281.635 362.656 278.463 363.063 275.64Z" fill="#7D9C1E"/>
<path d="M371.577 296.723C372.3 294.756 374.328 288.137 373.211 282.709C372.087 277.273 370.126 275.016 369.555 276.591C368.984 278.166 371.577 296.723 371.577 296.723Z" fill="#8BAD21"/>
<path d="M371.061 299.204L365.358 267.301L366.579 267.025L371.061 299.204Z" fill="#7D9C1E"/>
<path d="M344.577 292.76C343.113 285.923 341.856 285.299 341.844 285.299L341.996 284.131C342.415 284.174 343.921 284.9 345.536 292.469L344.577 292.76Z" fill="#74911C"/>
<path d="M354.518 311.475C356.322 323.413 351.409 334.357 351.409 334.357C351.409 334.357 343.569 325.946 341.765 314.015C339.961 302.077 344.874 291.133 344.874 291.133C344.874 291.133 352.715 299.544 354.518 311.475Z" fill="#84A620"/>
<path d="M343.144 309.298C344.109 302.643 349.296 301.532 352.174 307.396C353.134 309.341 354.033 311.548 354.737 313.95C354.67 313.13 354.646 312.317 354.518 311.475C352.715 299.544 344.874 291.133 344.874 291.133C344.874 291.133 339.961 302.077 341.765 314.015C342.008 315.612 342.366 317.136 342.791 318.594C342.536 315.285 342.737 312.114 343.144 309.298Z" fill="#7D9C1E"/>
<path d="M351.658 330.381C352.38 328.414 354.409 321.795 353.291 316.367C352.168 310.931 350.206 308.674 349.635 310.249C349.071 311.817 351.658 330.381 351.658 330.381Z" fill="#8BAD21"/>
<path d="M351.142 332.857L345.445 300.961L346.66 300.686L351.142 332.857Z" fill="#7D9C1E"/>
<path d="M356.978 207.651L356.067 207.18C358.769 199.763 364.751 195.241 365.006 195.053L365.535 196.061C365.474 196.105 359.553 200.583 356.978 207.651Z" fill="#74911C"/>
<path d="M344.655 224.23C341.279 235.667 344.661 247.409 344.661 247.409C344.661 247.409 353.528 240.602 356.911 229.172C360.287 217.734 356.899 205.992 356.899 205.992C356.899 205.992 348.032 212.792 344.655 224.23Z" fill="#84A620"/>
<path d="M356.176 224.251C356.115 217.502 351.148 215.405 347.516 220.645C346.314 222.386 345.123 224.389 344.115 226.632C344.285 225.826 344.419 225.035 344.656 224.23C348.032 212.792 356.899 205.992 356.899 205.992C356.899 205.992 360.288 217.734 356.911 229.172C356.456 230.703 355.897 232.133 355.277 233.497C355.976 230.282 356.201 227.111 356.176 224.251Z" fill="#7D9C1E"/>
<path d="M344.953 243.432C344.498 241.356 343.38 234.433 345.214 229.287C347.049 224.135 349.289 222.284 349.642 223.946C349.994 225.608 344.953 243.432 344.953 243.432Z" fill="#8BAD21"/>
<path d="M345.129 245.979L353.856 215.07L355.022 215.578L345.129 245.979Z" fill="#7D9C1E"/>
<path d="M320.727 221.572L319.926 220.875C323.861 214.3 330.505 211.368 330.784 211.252L331.124 212.37C331.058 212.399 324.487 215.302 320.727 221.572Z" fill="#74911C"/>
<path d="M305.788 234.702C300.487 245.05 301.744 257.373 301.744 257.373C301.744 257.373 311.606 252.932 316.908 242.59C322.21 232.256 320.947 219.926 320.947 219.926C320.947 219.926 311.09 224.367 305.788 234.702Z" fill="#84A620"/>
<path d="M317.048 237.604C318.171 230.986 313.677 227.698 309.208 231.915C307.732 233.315 306.22 234.977 304.835 236.915C305.145 236.175 305.418 235.435 305.788 234.702C311.09 224.367 320.947 219.926 320.947 219.926C320.947 219.926 322.21 232.256 316.908 242.597C316.198 243.976 315.396 245.239 314.558 246.422C315.803 243.447 316.574 240.406 317.048 237.604Z" fill="#7D9C1E"/>
<path d="M302.722 253.556C302.637 251.408 302.758 244.361 305.448 239.789C308.139 235.209 310.659 233.961 310.714 235.674C310.762 237.386 302.722 253.556 302.722 253.556Z" fill="#8BAD21"/>
<path d="M302.448 256.089L316.386 228.047L317.436 228.831L302.448 256.089Z" fill="#7D9C1E"/>
<path d="M325.823 149.414L324.852 149.175C326.175 141.25 331.234 135.313 331.447 135.066L332.139 135.923C332.091 135.981 327.093 141.852 325.823 149.414Z" fill="#74911C"/>
<path d="M316.713 168.725C315.432 180.758 320.819 191.383 320.819 191.383C320.819 191.383 328.282 182.492 329.564 170.46C330.839 158.427 325.452 147.803 325.452 147.803C325.452 147.803 317.995 156.693 316.713 168.725Z" fill="#84A620"/>
<path d="M327.979 165.837C326.722 159.255 321.493 158.464 318.876 164.502C318.007 166.505 317.2 168.762 316.604 171.207C316.635 170.38 316.623 169.567 316.714 168.725C317.995 156.693 325.453 147.803 325.453 147.803C325.453 147.803 330.84 158.427 329.564 170.46C329.388 172.071 329.097 173.617 328.732 175.097C328.848 171.781 328.508 168.624 327.979 165.837Z" fill="#7D9C1E"/>
<path d="M320.394 187.419C319.586 185.504 317.272 179.023 318.153 173.529C319.033 168.035 320.898 165.655 321.535 167.186C322.173 168.725 320.394 187.419 320.394 187.419Z" fill="#8BAD21"/>
<path d="M321.019 189.864L324.086 157.453L325.319 157.649L321.019 189.864Z" fill="#7D9C1E"/>
<path d="M321.208 267.612L320.303 267.141C322.999 259.731 328.987 255.21 329.242 255.014L329.764 256.022C329.704 256.066 323.783 260.544 321.208 267.612Z" fill="#74911C"/>
<path d="M308.891 284.189C305.509 295.626 308.898 307.368 308.898 307.368C308.898 307.368 317.764 300.568 321.141 289.131C324.517 277.693 321.135 265.951 321.135 265.951C321.135 265.951 312.268 272.758 308.891 284.189Z" fill="#84A620"/>
<path d="M320.412 284.21C320.352 277.461 315.378 275.371 311.752 280.611C310.544 282.353 309.359 284.348 308.345 286.591C308.521 285.793 308.655 284.994 308.892 284.189C312.268 272.758 321.135 265.951 321.135 265.951C321.135 265.951 324.518 277.693 321.141 289.131C320.686 290.662 320.127 292.099 319.513 293.456C320.212 290.241 320.437 287.07 320.412 284.21Z" fill="#7D9C1E"/>
<path d="M309.183 303.392C308.728 301.316 307.617 294.393 309.451 289.247C311.279 284.102 313.52 282.244 313.872 283.906C314.224 285.568 309.183 303.392 309.183 303.392Z" fill="#8BAD21"/>
<path d="M309.359 305.939L318.092 275.037L319.258 275.545L309.359 305.939Z" fill="#7D9C1E"/>
</svg>
