<svg width="481" height="430" viewBox="0 0 481 430" fill="none" xmlns="http://www.w3.org/2000/svg">
<g opacity="0.8">
<mask id="mask0_192_2736" style="mask-type:luminance" maskUnits="userSpaceOnUse" x="1" y="114" width="484" height="316">
<path d="M5.19189 430L484.377 424.135L480.592 114.871L1.40659 120.736L5.19189 430Z" fill="white"/>
</mask>
<g mask="url(#mask0_192_2736)">
<path d="M484.35 337.055L468.017 331.403C425.857 315.461 377.848 272.647 353.597 252.369C329.347 232.1 294.76 183.296 269.887 190.531C245.014 197.774 347.238 259.679 389.368 340.012C399.884 360.053 402.262 383.42 380.215 401.779C364.255 415.058 337.616 423.186 309.296 425.146C270.023 427.862 239.582 418.396 209.466 405.863C196.534 400.48 169.826 390.166 155.018 399.858C148.558 404.088 150.674 408.662 147.552 413.206C120.77 452.033 6.97194 373.665 5.86158 372.902C29.1357 382.809 48.2711 389.988 63.9194 394.975C110.232 409.71 125.905 405.142 127.712 394.66C130.12 380.641 133.875 370.057 149.503 369.521C152.726 369.412 155.849 370.134 158.72 370.815C174.589 374.582 187.072 381.799 199.918 387.865C211.72 393.451 225.692 397.69 240.479 400.443C269.739 405.893 304.715 405.491 329.296 393.695C380.382 369.189 345.694 326.29 345.694 326.29C338.062 295.124 155.403 142.204 206.351 121.8C257.282 101.405 315.406 168.648 346.746 209.198C372.189 242.113 454.018 286.455 483.92 301.978L484.35 337.055Z" fill="#8BE717"/>
</g>
<mask id="mask1_192_2736" style="mask-type:luminance" maskUnits="userSpaceOnUse" x="1" y="112" width="484" height="318">
<path d="M5.19189 430L484.377 424.135L480.565 112.662L1.37955 118.527L5.19189 430Z" fill="white"/>
</mask>
<g mask="url(#mask1_192_2736)">
<path d="M483.93 302.896C472.502 296.978 452.839 286.517 431.751 274.08C412.47 262.717 395.792 251.96 382.176 242.099C365.116 229.742 352.823 218.768 345.647 209.466C327.716 186.28 311.53 168.208 296.133 154.208C273.674 133.779 252.878 122.046 234.316 119.321C224.736 117.911 215.547 118.93 207.048 122.339C199.723 125.268 197.141 131.47 199.378 140.755C201.416 149.196 207.226 160.025 217.163 173.85C235.469 199.31 264.553 230.265 290.21 257.568C319.071 288.275 343.995 314.81 346.855 326.098C347.686 327.158 355.678 337.65 357.836 350.733C359.178 358.82 358.074 366.307 354.554 372.996C350.142 381.387 341.909 388.513 330.072 394.189C318.282 399.849 303.711 403.22 286.751 404.196C271.804 405.06 255.669 403.981 240.077 401.073C224.848 398.23 210.686 393.838 199.121 388.37C196.479 387.125 193.805 385.803 191.225 384.523C181.114 379.529 170.669 374.375 158.239 371.42C155.573 370.797 152.56 370.083 149.557 370.18C135.722 370.651 131.505 379.532 128.907 394.718C128.128 399.198 124.973 402.266 119.518 403.835C108.985 406.855 90.0766 404.066 63.312 395.547C49.0534 391.01 32.3359 384.767 13.5231 376.963C21.4347 382.105 35.5885 390.924 52.0522 399.569C84.4097 416.545 110.383 424.702 127.194 423.159C135.851 422.363 142.321 418.943 146.432 412.99C147.56 411.345 147.98 409.64 148.4 407.995C149.12 405.155 149.855 402.229 154.099 399.45C160.887 395.009 170.722 394.051 183.383 396.589C193.332 398.599 202.941 402.322 210.213 405.34C242.37 418.729 271.507 427.106 309.177 424.496C338.518 422.471 364.038 414.064 379.219 401.424C402.87 381.734 397.175 357.268 388.221 340.203C365.788 297.455 326.655 260.237 298.073 233.065C276.367 212.437 262.028 198.804 265.319 192.679C265.965 191.454 267.322 190.54 269.344 189.954C273.999 188.594 279.21 188.962 284.85 191.042C289.653 192.813 294.818 195.813 300.613 200.204C311.218 208.23 321.987 219.439 332.391 230.263C340.357 238.554 347.877 246.376 354.614 252.007C357.046 254.04 359.732 256.32 362.593 258.736C388.165 280.37 430.95 316.577 468.685 330.855L484.355 336.273L484.374 337.844L467.362 331.967C467.346 331.959 467.346 331.95 467.33 331.951C429.2 317.539 386.24 281.187 360.573 259.468C357.728 257.052 355.026 254.772 352.594 252.739C345.809 247.057 338.257 239.21 330.275 230.893C319.888 220.103 309.166 208.946 298.672 200.988C287.066 192.197 277.825 188.962 270.444 191.115C269.002 191.529 268.081 192.162 267.604 193.04C264.621 198.617 279.517 212.787 300.157 232.401C328.802 259.624 368.03 296.919 390.529 339.821C396.407 351.029 398.991 361.699 398.199 371.547C397.273 383.235 391.548 393.523 381.209 402.142C373.315 408.703 362.812 414.139 349.996 418.274C337.823 422.203 323.793 424.809 309.429 425.805C290.995 427.074 273.347 425.78 255.494 421.839C241.3 418.707 226.881 413.939 208.748 406.393C199.341 402.478 170.758 390.581 155.934 400.282C152.142 402.762 151.482 405.377 150.777 408.147C150.342 409.87 149.892 411.653 148.671 413.437C144.236 419.861 137.124 423.573 127.556 424.449C117.674 425.364 105.096 423.231 90.1544 418.132C78.324 414.083 64.945 408.162 50.3809 400.521C25.4162 387.415 5.7469 373.891 4.92205 373.323C4.54134 373.06 4.58397 372.688 5.00563 372.441C5.44312 372.203 6.11915 372.177 6.6092 372.378C28.7765 381.816 48.2765 389.224 64.5406 394.402C90.5473 402.679 108.685 405.46 118.434 402.666C123.121 401.322 125.84 398.614 126.53 394.609C128.791 381.377 132.247 369.451 149.462 368.861C153.031 368.739 156.47 369.56 159.215 370.217C172.008 373.245 182.595 378.475 192.849 383.536C195.413 384.808 198.087 386.13 200.713 387.367C212.041 392.726 225.935 397.035 240.88 399.821C274.191 406.032 306.955 403.56 328.518 393.207C354.507 380.738 357.518 363.319 355.479 350.908C353.237 337.377 344.691 326.668 344.611 326.557C344.563 326.506 344.531 326.446 344.515 326.386C341.816 315.363 316.907 288.862 288.078 258.181C262.405 230.852 233.289 199.872 214.952 174.352C204.935 160.416 199.06 149.493 197.005 140.948C195.862 136.224 195.939 132.21 197.221 129.027C198.594 125.575 201.441 122.96 205.651 121.277C211.912 118.767 218.502 117.47 225.359 117.386C228.52 117.347 231.731 117.566 234.977 118.045C245.267 119.558 256.217 123.696 267.545 130.358C277.32 136.125 287.639 143.912 298.201 153.509C313.645 167.56 329.895 185.692 347.859 208.938C363.984 229.79 403.336 255.372 433.502 273.161C453.575 284.989 472.336 295.021 483.924 301.058L483.946 302.896L483.93 302.896Z" fill="black"/>
</g>
<mask id="mask2_192_2736" style="mask-type:luminance" maskUnits="userSpaceOnUse" x="0" y="44" width="485" height="364">
<path d="M4.92139 407.91L484.107 402.045L479.726 44.1829L0.54125 50.048L4.92139 407.91Z" fill="white"/>
</mask>
<g mask="url(#mask2_192_2736)">
<path d="M483.919 301.979C454.017 286.457 372.188 242.115 346.745 209.2C315.404 168.65 257.281 101.397 206.349 121.802C155.402 142.206 338.06 295.126 345.693 326.291C345.693 326.291 380.381 369.191 329.295 393.696C304.713 405.492 269.722 405.895 240.478 400.445C225.691 397.691 211.719 393.452 199.917 387.866C187.071 381.801 174.588 374.575 158.719 370.816C155.848 370.135 152.725 369.414 149.502 369.522C133.874 370.059 130.118 380.642 127.71 394.662C125.904 405.144 110.231 409.711 63.918 394.976C48.2697 389.99 29.1343 382.811 5.86019 372.903C74.5157 399.826 112.059 394.594 104.414 381.647C96.7685 368.701 78.5589 322.795 154.058 353.665C229.556 384.543 283.348 396.019 300.211 371.751C317.058 347.475 283.771 309.814 249.055 268.486C214.323 227.158 80.5229 128.58 132.131 69.5905C183.754 10.6005 265.23 90.2879 343.775 151.655C379.269 179.389 433.798 202.3 482.904 219.089L483.919 301.979Z" fill="#F5EB05"/>
<path d="M482.914 219.875C458.084 211.402 435.39 202.575 415.272 193.552C385.159 180.052 360.782 166.084 342.789 152.039C333.197 144.544 323.396 136.647 313.928 129.012C289.003 108.915 263.221 88.1385 239.177 73.1313C226.275 65.0818 214.863 59.2666 204.293 55.3656C193.423 51.3561 183.726 49.4467 174.715 49.557C174.007 49.5657 173.3 49.5829 172.608 49.6173C157.391 50.3473 144.496 56.9692 133.219 69.8714C115.443 90.1803 118.002 116.834 141.027 151.341C160.703 180.814 191.881 210.664 216.916 234.652C230.746 247.895 242.683 259.322 250.153 268.206C251.557 269.889 252.978 271.571 254.382 273.237C271.029 293.013 286.751 311.686 296.378 328.458C307.242 347.363 308.827 361.195 301.33 371.98C296.693 378.656 289.085 382.909 278.694 384.616C275.397 385.157 271.831 385.459 267.978 385.506C256.702 385.644 242.993 383.637 226.474 379.447C206.278 374.326 182.364 366.075 153.34 354.201C141.073 349.19 130.653 345.952 122.347 344.595C115.239 343.43 109.626 343.628 105.682 345.196C99.5931 347.618 97.0696 353.483 98.3713 362.166C99.4168 369.196 102.781 376.732 105.559 381.444C107.872 385.343 106.324 388.633 101.221 390.706C94.4446 393.456 82.2571 393.648 66.9236 391.255C56.8065 389.679 45.5275 386.995 33.4975 383.345C44.8445 387.737 55.2237 391.442 64.54 394.409C90.5467 402.686 108.685 405.467 118.434 402.664C123.12 401.321 125.839 398.612 126.53 394.608C128.79 381.384 132.246 369.458 149.462 368.868C153.031 368.746 156.47 369.559 159.214 370.216C172.008 373.244 182.594 378.482 192.849 383.543C195.412 384.815 198.086 386.129 200.713 387.365C212.04 392.733 225.934 397.042 240.879 399.828C274.19 406.031 306.954 403.559 328.518 393.206C354.506 380.736 357.518 363.327 355.478 350.907C353.236 337.376 344.69 326.667 344.611 326.564C344.563 326.504 344.53 326.444 344.514 326.384C341.815 315.37 316.907 288.869 288.078 258.188C262.404 230.851 233.288 199.87 214.951 174.351C204.934 160.423 199.059 149.5 197.004 140.947C195.861 136.223 195.938 132.217 197.22 129.026C198.594 125.574 201.44 122.967 205.65 121.276C214.791 117.617 224.656 116.53 234.977 118.052C245.266 119.557 256.217 123.703 267.544 130.365C277.32 136.123 287.639 143.911 298.2 153.516C313.645 167.567 329.894 185.691 347.858 208.937C363.984 229.797 403.336 255.379 433.501 273.168C453.574 284.987 472.336 295.028 483.923 301.057L483.946 302.895C472.517 296.976 452.854 286.515 431.751 274.078C412.485 262.715 395.807 251.959 382.191 242.097C365.131 229.74 352.838 218.766 345.647 209.464C327.731 186.278 311.529 168.206 296.148 154.206C273.689 133.777 252.893 122.044 234.332 119.32C224.735 117.909 215.562 118.928 207.048 122.338C199.722 125.267 197.14 131.469 199.393 140.753C201.415 149.195 207.241 160.024 217.178 173.849C235.468 199.317 264.552 230.263 290.209 257.566C319.07 288.273 343.995 314.809 346.87 326.105C347.701 327.156 355.678 337.648 357.851 350.731C359.193 358.818 358.089 366.314 354.569 373.003C350.157 381.385 341.908 388.511 330.087 394.188C318.297 399.847 303.71 403.218 286.751 404.194C271.819 405.059 255.684 403.979 240.077 401.072C224.863 398.229 210.685 393.837 199.12 388.369C196.479 387.124 193.82 385.801 191.225 384.521C181.129 379.536 170.669 374.373 158.238 371.427C155.588 370.795 152.575 370.081 149.572 370.178C135.737 370.658 131.52 379.539 128.906 394.717C128.143 399.197 124.988 402.265 119.517 403.833C108.985 406.853 90.076 404.064 63.3113 395.546C46.9683 390.343 27.3893 382.902 5.12717 373.431C4.60545 373.213 4.50602 372.8 4.91153 372.518C5.3012 372.229 6.03961 372.159 6.57695 372.369C29.0038 381.165 50.1078 387.258 67.6159 389.987C82.0039 392.236 93.7517 392.109 99.8245 389.653C104.019 387.953 105.243 385.185 103.284 381.869C100.457 377.088 97.0603 369.432 95.9821 362.299C94.5942 352.995 97.3821 346.885 104.301 344.142C108.887 342.317 115.207 342.05 123.071 343.334C131.645 344.74 142.318 348.035 154.79 353.139C214.038 377.372 254.362 387.261 278.033 383.355C287.797 381.751 294.686 377.887 299.091 371.533C306.371 361.044 304.79 347.488 294.102 328.865C284.508 312.179 268.818 293.54 252.203 273.808C250.798 272.142 249.378 270.459 247.973 268.776C240.551 259.943 228.631 248.533 214.848 235.325C189.749 211.295 158.523 181.384 138.783 151.808C127.92 135.535 121.722 121.293 119.848 108.267C117.684 93.3979 121.471 80.2853 131.073 69.3195C136.968 62.5761 143.495 57.3957 150.483 53.9185C157.221 50.5737 164.622 48.688 172.45 48.3074C173.205 48.2723 173.944 48.2546 174.699 48.2454C184.229 48.1287 194.383 50.1102 205.664 54.2787C216.408 58.2379 227.962 64.1205 240.991 72.2547C265.146 87.321 290.96 108.132 315.932 128.254C325.4 135.888 335.185 143.786 344.777 151.281C380.858 179.474 437.088 202.58 482.91 218.304L482.929 219.875L482.914 219.875Z" fill="black"/>
</g>
<mask id="mask3_192_2736" style="mask-type:luminance" maskUnits="userSpaceOnUse" x="0" y="0" width="484" height="395">
<path d="M4.75977 394.654L483.945 388.789L479.186 0.000716687L0.0010982 5.86582L4.75977 394.654Z" fill="white"/>
</mask>
<g mask="url(#mask3_192_2736)">
<path d="M482.906 219.082C433.8 202.293 379.271 179.383 343.778 151.648C265.232 90.2811 183.756 10.5937 132.133 69.5836C80.5251 128.573 214.326 227.151 249.057 268.479C283.789 309.807 317.076 347.468 300.213 371.744C283.35 396.012 229.559 384.536 154.06 353.658C78.5611 322.788 96.7707 368.694 104.416 381.641C112.061 394.587 74.5179 399.82 5.86242 372.896C5.86242 372.896 68.8559 390.853 75.278 377.104C81.6844 363.355 59.2287 332.932 93.7576 321.704C128.271 310.477 223.981 370.917 261.352 361.864C298.707 352.802 210.992 260.66 128.294 176.198C45.5809 91.7268 64.5051 34.1037 116.901 11.2308C169.281 -11.642 251.863 38.9133 280.724 61.9654C309.601 85.0259 346.328 119.728 429.839 157.525C445.418 164.583 463.419 170.318 482.367 174.979L482.906 219.082Z" fill="#FF8B00"/>
<path d="M482.375 175.706C461.708 170.643 443.831 164.726 429.074 158.037C356.081 124.996 318.6 94.204 291.24 71.7204C287.22 68.4124 283.423 65.2916 279.738 62.3506C274.432 58.1176 254.95 43.1927 226.811 29.0209C200.603 15.8267 175.844 8.00858 155.204 6.4057C140.924 5.29457 128.285 7.09766 117.63 11.7417C89.8133 23.8971 74.01 44.8032 73.1306 70.6186C72.1168 100.872 91.5471 137.278 129.344 175.876C164.736 212.018 204.832 253.402 232.848 287.088C247.647 304.892 257.918 319.076 264.207 330.442C271.348 343.309 273.155 352.142 269.76 357.456C268.217 359.874 265.548 361.564 261.815 362.464C253.065 364.591 241.111 363.348 224.191 358.566C209.576 354.422 192.967 348.083 176.912 341.945C144.579 329.594 111.156 316.816 94.3619 322.277C71.7865 329.613 74.2926 345.462 76.4928 359.451C77.5668 366.238 78.5891 372.655 76.4278 377.265C75.4164 379.452 72.9978 381.035 69.2815 381.969C57.2855 384.955 33.7946 380.462 18.8407 376.951C36.6604 383.292 53.3404 387.757 67.6023 389.981C82.0059 392.23 93.7381 392.104 99.8264 389.639C104.021 387.939 105.245 385.18 103.286 381.855C100.459 377.074 97.0467 369.426 95.9842 362.293C94.5805 352.99 97.3841 346.88 104.303 344.128C108.889 342.311 115.193 342.036 123.073 343.329C131.631 344.734 142.304 348.03 154.792 353.133C214.04 377.367 254.348 387.247 278.036 383.35C287.799 381.746 294.673 377.873 299.093 371.519C306.373 361.03 304.792 347.482 294.088 328.86C284.51 312.174 268.82 293.535 252.205 273.802C250.8 272.128 249.38 270.453 247.975 268.77C240.553 259.938 228.633 248.528 214.834 235.311C189.751 211.289 158.525 181.379 138.785 151.803C127.922 135.53 121.724 121.288 119.834 108.262C117.686 93.3837 121.458 80.2798 131.06 69.3054C136.954 62.5707 143.497 57.3901 150.485 53.9128C157.223 50.5681 164.608 48.674 172.452 48.3018C182.623 47.8149 193.484 49.7705 205.666 54.2731C216.41 58.2323 227.964 64.1149 240.993 72.2491C265.148 87.3154 290.962 108.126 315.918 128.249C325.386 135.883 335.187 143.781 344.779 151.275C380.86 179.469 437.09 202.574 482.912 218.299L482.931 219.869C458.102 211.405 435.392 202.569 415.274 193.555C385.161 180.055 360.784 166.087 342.807 152.041C333.199 144.538 323.413 136.641 313.93 129.007C289.005 108.91 263.239 88.1327 239.179 73.1257C226.277 65.0762 214.881 59.2694 204.311 55.3684C192.587 51.0415 182.23 49.1574 172.626 49.6201C157.393 50.3416 144.514 56.9634 133.221 69.8658C115.445 90.1834 118.004 116.828 141.045 151.335C160.72 180.808 191.883 210.659 216.934 234.646C230.748 247.889 242.685 259.325 250.155 268.209C251.559 269.892 252.98 271.566 254.384 273.24C271.031 293.007 286.753 311.68 296.38 328.452C307.26 347.366 308.829 361.198 301.332 371.974C296.695 378.651 289.087 382.904 278.696 384.61C265.714 386.754 248.628 385.056 226.476 379.441C206.296 374.329 182.366 366.069 153.342 354.195C141.076 349.184 130.655 345.955 122.365 344.589C115.241 343.425 109.629 343.631 105.684 345.199C99.6109 347.612 97.0717 353.477 98.3734 362.169C99.4346 369.19 102.783 376.726 105.577 381.439C107.874 385.337 106.341 388.627 101.239 390.7C94.4466 393.45 82.2591 393.642 66.9257 391.25C49.1653 388.472 27.8089 382.313 5.16078 373.433C4.655 373.232 4.50881 372.854 4.85121 372.557C5.1936 372.259 5.86867 372.156 6.43683 372.313C6.87886 372.446 51.3407 385.011 68.3231 380.764C71.3809 380.002 73.2846 378.761 74.1276 376.956C76.1657 372.564 75.1763 366.259 74.1193 359.575C72.9773 352.374 71.801 344.932 73.8092 338.098C76.1501 330.164 82.4838 324.615 93.1684 321.144C97.555 319.718 103.149 319.313 109.779 319.948C115.621 320.515 122.338 321.866 130.308 324.064C145.002 328.13 161.942 334.603 178.314 340.858C210.14 353.017 243.042 365.594 260.888 361.267C264.009 360.504 266.178 359.123 267.521 357.035C270.701 352.068 268.815 343.254 261.931 330.841C255.659 319.526 245.435 305.403 230.669 287.65C202.7 253.997 162.62 212.639 127.244 176.515C107.414 156.26 92.5616 136.636 83.1031 118.196C74.4175 101.223 70.2579 85.213 70.7555 70.6131C71.63 44.3922 87.7591 23.1282 116.171 10.7239C124.917 6.90587 134.911 4.91939 145.999 4.78368C149.112 4.74557 152.307 4.85319 155.581 5.10654C204.151 8.87036 259.329 43.7087 281.726 61.5927C285.427 64.5421 289.224 67.6716 293.26 70.9794C320.541 93.3949 357.911 124.102 430.619 157.025C446.024 163.991 463.835 169.642 482.373 174.222L482.391 175.706L482.375 175.706Z" fill="black"/>
</g>
</g>
</svg>
