<svg width="485" height="430" viewBox="0 0 485 430" fill="none" xmlns="http://www.w3.org/2000/svg">
<g opacity="0.8">
<mask id="mask0_192_2687" style="mask-type:luminance" maskUnits="userSpaceOnUse" x="-1" y="114" width="484" height="316">
<path d="M479 430L-0.185722 424.135L3.59958 114.871L482.785 120.736L479 430Z" fill="white"/>
</mask>
<g mask="url(#mask0_192_2687)">
<path d="M-0.158137 337.055L16.1746 331.403C58.3342 315.461 106.344 272.647 130.594 252.369C154.844 232.1 189.432 183.296 214.305 190.531C239.178 197.774 136.953 259.679 94.8234 340.012C84.3072 360.053 81.9293 383.42 103.977 401.779C119.936 415.058 146.576 423.186 174.895 425.146C214.168 427.862 244.609 418.396 274.726 405.863C287.658 400.48 314.366 390.166 329.174 399.858C335.634 404.088 333.517 408.662 336.639 413.206C363.422 452.033 477.219 373.665 478.33 372.902C455.056 382.809 435.92 389.988 420.272 394.975C373.959 409.71 358.286 405.142 356.48 394.66C354.072 380.641 350.316 370.057 334.688 369.521C331.465 369.412 328.342 370.134 325.471 370.815C309.602 374.582 297.119 381.799 284.273 387.865C272.471 393.451 258.499 397.69 243.712 400.443C214.453 405.893 179.477 405.491 154.895 393.695C103.809 369.189 138.497 326.29 138.497 326.29C146.13 295.124 328.788 142.204 277.841 121.8C226.909 101.405 168.786 168.648 137.445 209.198C112.002 242.113 30.1729 286.455 0.271195 301.978L-0.158137 337.055Z" fill="#8BE717"/>
</g>
<mask id="mask1_192_2687" style="mask-type:luminance" maskUnits="userSpaceOnUse" x="-1" y="112" width="484" height="318">
<path d="M479 430L-0.185722 424.135L3.62662 112.662L482.812 118.527L479 430Z" fill="white"/>
</mask>
<g mask="url(#mask1_192_2687)">
<path d="M0.260916 302.896C11.6896 296.978 31.3528 286.517 52.4401 274.08C71.7211 262.717 88.3995 251.96 102.016 242.099C119.075 229.742 131.368 218.768 138.544 209.466C156.476 186.28 172.661 168.208 188.058 154.208C210.517 133.779 231.313 122.046 249.875 119.321C259.455 117.911 268.644 118.93 277.143 122.339C284.468 125.268 287.051 131.47 284.814 140.755C282.776 149.196 276.965 160.025 267.028 173.85C248.723 199.31 219.639 230.265 193.981 257.568C165.121 288.275 140.196 314.81 137.337 326.098C136.506 327.158 128.513 337.65 126.355 350.733C125.014 358.82 126.117 366.307 129.638 372.996C134.049 381.387 142.282 388.513 154.12 394.189C165.91 399.849 180.481 403.22 197.44 404.196C212.388 405.06 228.523 403.981 244.114 401.073C259.343 398.23 273.506 393.838 285.07 388.37C287.712 387.125 290.387 385.803 292.966 384.523C303.078 379.529 313.522 374.375 325.952 371.42C328.618 370.797 331.631 370.083 334.634 370.18C348.47 370.651 352.686 379.532 355.285 394.718C356.063 399.198 359.219 402.266 364.673 403.835C375.206 406.855 394.115 404.066 420.879 395.547C435.138 391.01 451.856 384.767 470.668 376.963C462.757 382.105 448.603 390.924 432.139 399.569C399.782 416.545 373.808 424.702 356.997 423.159C348.34 422.363 341.87 418.943 337.759 412.99C336.631 411.345 336.212 409.64 335.791 407.995C335.071 405.155 334.336 402.229 330.092 399.45C323.304 395.009 313.47 394.051 300.809 396.589C290.859 398.599 281.25 402.322 273.978 405.34C241.822 418.729 212.684 427.106 175.014 424.496C145.673 422.471 120.154 414.064 104.973 401.424C81.3217 381.734 87.0162 357.268 95.9703 340.203C118.404 297.455 157.536 260.237 186.118 233.065C207.825 212.437 222.163 198.804 218.872 192.679C218.226 191.454 216.869 190.54 214.847 189.954C210.193 188.594 204.982 188.962 199.341 191.042C194.538 192.813 189.374 195.813 183.579 200.204C172.974 208.23 162.204 219.439 151.801 230.263C143.835 238.554 136.315 246.376 129.577 252.007C127.146 254.04 124.459 256.32 121.599 258.736C96.0263 280.37 53.2411 316.577 15.506 330.855L-0.163336 336.273L-0.182558 337.844L16.8293 331.967C16.8451 331.959 16.8452 331.95 16.861 331.951C54.991 317.539 97.9509 281.187 123.619 259.468C126.464 257.052 129.166 254.772 131.597 252.739C138.383 247.057 145.934 239.21 153.916 230.893C164.303 220.103 175.026 208.946 185.52 200.988C197.125 192.197 206.366 188.962 213.748 191.115C215.19 191.529 216.11 192.162 216.587 193.04C219.57 198.617 204.675 212.787 184.034 232.401C155.389 259.624 116.161 296.919 93.6628 339.821C87.7846 351.029 85.2003 361.699 85.9921 371.547C86.9186 383.235 92.6437 393.523 102.982 402.142C110.876 408.703 121.38 414.139 134.195 418.274C146.368 422.203 160.398 424.809 174.762 425.805C193.196 427.074 210.844 425.78 228.697 421.839C242.892 418.707 257.311 413.939 275.444 406.393C284.85 402.478 313.434 390.581 328.257 400.282C332.049 402.762 332.709 405.377 333.414 408.147C333.85 409.87 334.3 411.653 335.52 413.437C339.956 419.861 347.067 423.573 356.635 424.449C366.517 425.364 379.095 423.231 394.037 418.132C405.867 414.083 419.246 408.162 433.81 400.521C458.775 387.415 478.445 373.891 479.269 373.323C479.65 373.06 479.607 372.688 479.186 372.441C478.748 372.203 478.072 372.177 477.582 372.378C455.415 381.816 435.915 389.224 419.651 394.402C393.644 402.679 375.506 405.46 365.757 402.666C361.071 401.322 358.351 398.614 357.661 394.609C355.401 381.377 351.945 369.451 334.729 368.861C331.16 368.739 327.721 369.56 324.976 370.217C312.183 373.245 301.597 378.475 291.342 383.536C288.779 384.808 286.104 386.13 283.478 387.367C272.151 392.726 258.257 397.035 243.312 399.821C210.001 406.032 177.236 403.56 155.673 393.207C129.684 380.738 126.673 363.319 128.712 350.908C130.954 337.377 139.5 326.668 139.58 326.557C139.628 326.506 139.66 326.446 139.677 326.386C142.375 315.363 167.284 288.862 196.113 258.181C221.787 230.852 250.902 199.872 269.24 174.352C279.257 160.416 285.131 149.493 287.186 140.948C288.329 136.224 288.253 132.21 286.97 129.027C285.597 125.575 282.751 122.96 278.54 121.277C272.28 118.767 265.689 117.47 258.833 117.386C255.672 117.347 252.46 117.566 249.214 118.045C238.925 119.558 227.974 123.696 216.646 130.358C206.871 136.125 196.552 143.912 185.991 153.509C170.546 167.56 154.296 185.692 136.333 208.938C120.207 229.79 80.8551 255.372 50.6897 273.161C30.6165 284.989 11.8551 295.021 0.267686 301.058L0.24519 302.896L0.260916 302.896Z" fill="black"/>
</g>
<mask id="mask2_192_2687" style="mask-type:luminance" maskUnits="userSpaceOnUse" x="0" y="44" width="484" height="364">
<path d="M479.27 407.91L0.0850302 402.045L4.46517 44.1829L483.65 50.048L479.27 407.91Z" fill="white"/>
</mask>
<g mask="url(#mask2_192_2687)">
<path d="M0.272833 301.979C30.1746 286.457 112.004 242.115 137.447 209.2C168.787 168.65 226.911 101.397 277.843 121.802C328.79 142.206 146.131 295.126 138.499 326.291C138.499 326.291 103.811 369.191 154.897 393.696C179.478 405.492 214.47 405.895 243.714 400.445C258.501 397.691 272.473 393.452 284.275 387.866C297.121 381.801 309.604 374.575 325.473 370.816C328.344 370.135 331.467 369.414 334.69 369.522C350.318 370.059 354.073 380.642 356.481 394.662C358.288 405.144 373.961 409.711 420.274 394.976C435.922 389.99 455.057 382.811 478.331 372.903C409.676 399.826 372.132 394.594 379.778 381.647C387.423 368.701 405.633 322.795 330.134 353.665C254.635 384.543 200.844 396.019 183.981 371.751C167.133 347.475 200.42 309.814 235.137 268.486C269.868 227.158 403.669 128.58 352.061 69.5905C300.438 10.6005 218.962 90.2879 140.416 151.655C104.923 179.389 50.3938 202.3 1.28739 219.089L0.272833 301.979Z" fill="#F5EB05"/>
<path d="M1.27776 219.875C26.1072 211.402 48.8018 202.575 68.9193 193.552C99.0322 180.052 123.41 166.084 141.402 152.039C150.994 144.544 160.796 136.647 170.264 129.012C195.188 108.915 220.97 88.1385 245.014 73.1313C257.916 65.0818 269.328 59.2666 279.898 55.3656C290.769 51.3561 300.465 49.4467 309.477 49.557C310.184 49.5657 310.892 49.5829 311.584 49.6173C326.8 50.3473 339.695 56.9692 350.972 69.8714C368.749 90.1803 366.189 116.834 343.165 151.341C323.489 180.814 292.311 210.664 267.276 234.652C253.445 247.895 241.509 259.322 234.039 268.206C232.634 269.889 231.214 271.571 229.809 273.237C213.162 293.013 197.441 311.686 187.814 328.458C176.95 347.363 175.365 361.195 182.861 371.98C187.498 378.656 195.106 382.909 205.498 384.616C208.794 385.157 212.361 385.459 216.214 385.506C227.49 385.644 241.198 383.637 257.718 379.447C277.913 374.326 301.828 366.075 330.851 354.201C343.118 349.19 353.539 345.952 361.844 344.595C368.952 343.43 374.565 343.628 378.509 345.196C384.598 347.618 387.122 353.483 385.82 362.166C384.775 369.196 381.411 376.732 378.632 381.444C376.319 385.343 377.868 388.633 382.97 390.706C389.747 393.456 401.934 393.648 417.268 391.255C427.385 389.679 438.664 386.995 450.694 383.345C439.347 387.737 428.968 391.442 419.651 394.409C393.645 402.686 375.507 405.467 365.758 402.664C361.071 401.321 358.352 398.612 357.662 394.608C355.401 381.384 351.945 369.458 334.73 368.868C331.161 368.746 327.722 369.559 324.977 370.216C312.184 373.244 301.597 378.482 291.343 383.543C288.779 384.815 286.105 386.129 283.479 387.365C272.151 392.733 258.257 397.042 243.312 399.828C210.001 406.031 177.237 403.559 155.674 393.206C129.685 380.736 126.674 363.327 128.713 350.907C130.955 337.376 139.501 326.667 139.581 326.564C139.629 326.504 139.661 326.444 139.677 326.384C142.376 315.37 167.285 288.869 196.114 258.188C221.787 230.851 250.903 199.87 269.241 174.351C279.257 160.423 285.132 149.5 287.187 140.947C288.33 136.223 288.253 132.217 286.971 129.026C285.598 125.574 282.751 122.967 278.541 121.276C269.4 117.617 259.536 116.53 249.215 118.052C238.925 119.557 227.975 123.703 216.647 130.365C206.872 136.123 196.553 143.911 185.991 153.516C170.547 167.567 154.297 185.691 136.333 208.937C120.208 229.797 80.8557 255.379 50.6903 273.168C30.6172 284.987 11.8557 295.028 0.268392 301.057L0.245896 302.895C11.6745 296.976 31.3378 286.515 52.4408 274.078C71.7061 262.715 88.3845 251.959 102 242.097C119.06 229.74 131.353 218.766 138.545 209.464C156.461 186.278 172.662 168.206 188.043 154.206C210.502 133.777 231.298 122.044 249.86 119.32C259.456 117.909 268.629 118.928 277.144 122.338C284.469 125.267 287.051 131.469 284.799 140.753C282.776 149.195 276.95 160.024 267.013 173.849C248.723 199.317 219.64 230.263 193.982 257.566C165.121 288.273 140.197 314.809 137.322 326.105C136.491 327.156 128.514 337.648 126.34 350.731C124.999 358.818 126.102 366.314 129.622 373.003C134.034 381.385 142.283 388.511 154.105 394.188C165.895 399.847 180.481 403.218 197.441 404.194C212.373 405.059 228.508 403.979 244.115 401.072C259.328 398.229 273.506 393.837 285.071 388.369C287.713 387.124 290.372 385.801 292.967 384.521C303.063 379.536 313.523 374.373 325.953 371.427C328.603 370.795 331.616 370.081 334.619 370.178C348.455 370.658 352.671 379.539 355.285 394.717C356.048 399.197 359.204 402.265 364.674 403.833C375.207 406.853 394.115 404.064 420.88 395.546C437.223 390.343 456.802 382.902 479.064 373.431C479.586 373.213 479.685 372.8 479.28 372.518C478.89 372.229 478.152 372.159 477.614 372.369C455.188 381.165 434.084 387.258 416.575 389.987C402.188 392.236 390.44 392.109 384.367 389.653C380.172 387.953 378.948 385.185 380.908 381.869C383.734 377.088 387.131 369.432 388.209 362.299C389.597 352.995 386.809 346.885 379.891 344.142C375.305 342.317 368.985 342.05 361.12 343.334C352.547 344.74 341.874 348.035 329.401 353.139C270.153 377.372 229.829 387.261 206.158 383.355C196.394 381.751 189.505 377.887 185.1 371.533C177.82 361.044 179.402 347.488 190.089 328.865C199.684 312.179 215.373 293.54 231.989 273.808C233.393 272.142 234.813 270.459 236.218 268.776C243.64 259.943 255.561 248.533 269.344 235.325C294.442 211.295 325.668 181.384 345.408 151.808C356.271 135.535 362.47 121.293 364.344 108.267C366.507 93.3979 362.72 80.2853 353.118 69.3195C347.224 62.5761 340.697 57.3957 333.709 53.9185C326.97 50.5737 319.569 48.688 311.741 48.3074C310.987 48.2723 310.248 48.2546 309.493 48.2454C299.962 48.1287 289.809 50.1102 278.527 54.2787C267.783 58.2379 256.229 64.1205 243.201 72.2547C219.046 87.321 193.232 108.132 168.26 128.254C158.792 135.888 149.006 143.786 139.414 151.281C103.333 179.474 47.103 202.58 1.28126 218.304L1.26203 219.875L1.27776 219.875Z" fill="black"/>
</g>
<mask id="mask3_192_2687" style="mask-type:luminance" maskUnits="userSpaceOnUse" x="0" y="0" width="485" height="395">
<path d="M479.432 394.654L0.246407 388.789L5.00507 0.000716687L484.19 5.86582L479.432 394.654Z" fill="white"/>
</mask>
<g mask="url(#mask3_192_2687)">
<path d="M1.2854 219.082C50.3918 202.293 104.921 179.383 140.414 151.648C218.96 90.2811 300.436 10.5937 352.059 69.5836C403.667 128.573 269.866 227.151 235.135 268.479C200.403 309.807 167.116 347.468 183.979 371.744C200.842 396.012 254.633 384.536 330.132 353.658C405.631 322.788 387.421 368.694 379.776 381.641C372.13 394.587 409.674 399.82 478.329 372.896C478.329 372.896 415.336 390.853 408.914 377.104C402.508 363.355 424.963 332.932 390.434 321.704C355.921 310.477 260.211 370.917 222.84 361.864C185.485 352.802 273.2 260.66 355.897 176.198C438.611 91.7268 419.687 34.1037 367.291 11.2308C314.911 -11.642 232.329 38.9133 203.468 61.9654C174.591 85.0259 137.864 119.728 54.3529 157.525C38.7736 164.583 20.7726 170.318 1.82521 174.979L1.2854 219.082Z" fill="#FF8B00"/>
<path d="M1.81649 175.706C22.4832 170.643 40.3607 164.726 55.1175 158.037C128.11 124.996 165.592 94.204 192.952 71.7204C196.972 68.4124 200.769 65.2916 204.454 62.3506C209.759 58.1176 229.241 43.1927 257.381 29.0209C283.589 15.8267 308.347 8.00858 328.988 6.4057C343.267 5.29457 355.907 7.09766 366.561 11.7417C394.378 23.8971 410.182 44.8032 411.061 70.6186C412.075 100.872 392.645 137.278 354.848 175.876C319.456 212.018 279.36 253.402 251.344 287.088C236.545 304.892 226.274 319.076 219.984 330.442C212.843 343.309 211.037 352.142 214.432 357.456C215.975 359.874 218.644 361.564 222.376 362.464C231.127 364.591 243.081 363.348 260 358.566C274.616 354.422 291.225 348.083 307.28 341.945C339.612 329.594 373.035 316.816 389.83 322.277C412.405 329.613 409.899 345.462 407.699 359.451C406.625 366.238 405.603 372.655 407.764 377.265C408.775 379.452 411.194 381.035 414.91 381.969C426.906 384.955 450.397 380.462 465.351 376.951C447.531 383.292 430.851 387.757 416.589 389.981C402.186 392.23 390.454 392.104 384.365 389.639C380.171 387.939 378.946 385.18 380.906 381.855C383.733 377.074 387.145 369.426 388.207 362.293C389.611 352.99 386.808 346.88 379.889 344.128C375.303 342.311 368.999 342.036 361.119 343.329C352.561 344.734 341.888 348.03 329.399 353.133C270.151 377.367 229.843 387.247 206.156 383.35C196.392 381.746 189.519 377.873 185.098 371.519C177.819 361.03 179.4 347.482 190.103 328.86C199.682 312.174 215.371 293.535 231.987 273.802C233.391 272.128 234.812 270.453 236.216 268.77C243.638 259.938 255.559 248.528 269.358 235.311C294.44 211.289 325.666 181.379 345.406 151.803C356.27 135.53 362.468 121.288 364.358 108.262C366.506 93.3837 362.734 80.2798 353.132 69.3054C347.238 62.5707 340.695 57.3901 333.707 53.9128C326.969 50.5681 319.583 48.674 311.739 48.3018C301.569 47.8149 290.708 49.7705 278.526 54.2731C267.782 58.2323 256.228 64.1149 243.199 72.2491C219.044 87.3154 193.23 108.126 168.273 128.249C158.806 135.883 149.004 143.781 139.412 151.275C103.331 179.469 47.1012 202.574 1.27944 218.299L1.26022 219.869C26.0895 211.405 48.8 202.569 68.9174 193.555C99.0303 180.055 123.408 166.087 141.385 152.041C150.993 144.538 160.778 136.641 170.262 129.007C195.186 108.91 220.953 88.1327 245.013 73.1257C257.914 65.0762 269.31 59.2694 279.881 55.3684C291.604 51.0415 301.961 49.1574 311.566 49.6201C326.798 50.3416 339.678 56.9634 350.97 69.8658C368.747 90.1834 366.187 116.828 343.147 151.335C323.471 180.808 292.309 210.659 267.258 234.646C253.443 247.889 241.507 259.325 234.037 268.209C232.632 269.892 231.212 271.566 229.807 273.24C213.16 293.007 197.439 311.68 187.812 328.452C176.932 347.366 175.363 361.198 182.859 371.974C187.496 378.651 195.104 382.904 205.496 384.61C218.477 386.754 235.564 385.056 257.716 379.441C277.896 374.329 301.826 366.069 330.849 354.195C343.116 349.184 353.537 345.955 361.827 344.589C368.95 343.425 374.563 343.631 378.508 345.199C384.581 347.612 387.12 353.477 385.818 362.169C384.757 369.19 381.409 376.726 378.614 381.439C376.318 385.337 377.85 388.627 382.952 390.7C389.745 393.45 401.933 393.642 417.266 391.25C435.026 388.472 456.383 382.313 479.031 373.433C479.537 373.232 479.683 372.854 479.34 372.557C478.998 372.259 478.323 372.156 477.755 372.313C477.313 372.446 432.851 385.011 415.869 380.764C412.811 380.002 410.907 378.761 410.064 376.956C408.026 372.564 409.015 366.259 410.072 359.575C411.214 352.374 412.391 344.932 410.382 338.098C408.042 330.164 401.708 324.615 391.023 321.144C386.637 319.718 381.042 319.313 374.413 319.948C368.57 320.515 361.853 321.866 353.883 324.064C339.19 328.13 322.249 334.603 305.878 340.858C274.051 353.017 241.15 365.594 223.303 361.267C220.183 360.504 218.013 359.123 216.67 357.035C213.491 352.068 215.376 343.254 222.26 330.841C228.533 319.526 238.757 305.403 253.523 287.65C281.492 253.997 321.572 212.639 356.948 176.515C376.778 156.26 391.63 136.636 401.089 118.196C409.774 101.223 413.934 85.213 413.436 70.6131C412.562 44.3922 396.433 23.1282 368.021 10.7239C359.275 6.90587 349.28 4.91939 338.193 4.78368C335.079 4.74557 331.885 4.85319 328.61 5.10654C280.041 8.87036 224.862 43.7087 202.466 61.5927C198.765 64.5421 194.967 67.6716 190.932 70.9794C163.651 93.3949 126.281 124.102 53.5727 157.025C38.1676 163.991 20.3563 169.642 1.81893 174.222L1.80076 175.706L1.81649 175.706Z" fill="black"/>
</g>
</g>
</svg>
